  0
SECTION
  2
HEADER
  9
$ACADVER
  1
AC1024
  9
$ACADMAINTVER
 70
6
  9
$DWGCODEPAGE
  3
ANSI_1252
  9
$LASTSAVEDBY
  1
ezdxf
  9
$INSBASE
 10
0.0
 20
0.0
 30
0.0
  9
$EXTMIN
 10
1e+20
 20
1e+20
 30
1e+20
  9
$EXTMAX
 10
-1e+20
 20
-1e+20
 30
-1e+20
  9
$LIMMIN
 10
0.0
 20
0.0
  9
$LIMMAX
 10
420.0
 20
297.0
  9
$ORTHOMODE
 70
0
  9
$REGENMODE
 70
1
  9
$FILLMODE
 70
1
  9
$QTEXTMODE
 70
0
  9
$MIRRTEXT
 70
1
  9
$LTSCALE
 40
1.0
  9
$ATTMODE
 70
1
  9
$TEXTSIZE
 40
2.5
  9
$TRACEWID
 40
1.0
  9
$TEXTSTYLE
  7
OpenSans
  9
$CLAYER
  8
0
  9
$CELTYPE
  6
ByLayer
  9
$CECOLOR
 62
256
  9
$CELTSCALE
 40
1.0
  9
$DISPSILH
 70
0
  9
$DIMSCALE
 40
1.0
  9
$DIMASZ
 40
0.175
  9
$DIMEXO
 40
0.125
  9
$DIMDLI
 40
3.75
  9
$DIMRND
 40
0.0
  9
$DIMDLE
 40
0.0
  9
$DIMEXE
 40
0.375
  9
$DIMTP
 40
0.0
  9
$DIMTM
 40
0.0
  9
$DIMTXT
 40
0.25
  9
$DIMCEN
 40
2.5
  9
$DIMTSZ
 40
0.0
  9
$DIMTOL
 70
0
  9
$DIMLIM
 70
0
  9
$DIMTIH
 70
0
  9
$DIMTOH
 70
0
  9
$DIMSE1
 70
0
  9
$DIMSE2
 70
0
  9
$DIMTAD
 70
1
  9
$DIMZIN
 70
12
  9
$DIMBLK
  1
ARCHTICK
  9
$DIMASO
 70
1
  9
$DIMSHO
 70
1
  9
$DIMPOST
  1

  9
$DIMAPOST
  1

  9
$DIMALT
 70
0
  9
$DIMALTD
 70
3
  9
$DIMALTF
 40
0.03937007874
  9
$DIMLFAC
 40
100.0
  9
$DIMTOFL
 70
1
  9
$DIMTVP
 40
0.0
  9
$DIMTIX
 70
0
  9
$DIMSOXD
 70
0
  9
$DIMSAH
 70
0
  9
$DIMBLK1
  1

  9
$DIMBLK2
  1

  9
$DIMSTYLE
  2
EZDXF
  9
$DIMCLRD
 70
0
  9
$DIMCLRE
 70
0
  9
$DIMCLRT
 70
0
  9
$DIMTFAC
 40
0.5
  9
$DIMGAP
 40
0.1
  9
$DIMJUST
 70
0
  9
$DIMSD1
 70
0
  9
$DIMSD2
 70
0
  9
$DIMTOLJ
 70
0
  9
$DIMTZIN
 70
8
  9
$DIMALTZ
 70
0
  9
$DIMALTTZ
 70
0
  9
$DIMUPT
 70
1
  9
$DIMDEC
 70
2
  9
$DIMTDEC
 70
2
  9
$DIMALTU
 70
2
  9
$DIMALTTD
 70
3
  9
$DIMTXSTY
  7
OpenSansCondensed-Light
  9
$DIMAUNIT
 70
0
  9
$DIMADEC
 70
2
  9
$DIMALTRND
 40
0.0
  9
$DIMAZIN
 70
3
  9
$DIMDSEP
 70
46
  9
$DIMATFIT
 70
3
  9
$DIMFRAC
 70
0
  9
$DIMLDRBLK
  1

  9
$DIMLUNIT
 70
2
  9
$DIMLWD
 70
-2
  9
$DIMLWE
 70
-2
  9
$DIMTMOVE
 70
2
  9
$DIMFXL
 40
1.0
  9
$DIMFXLON
 70
0
  9
$DIMJOGANG
 40
0.785398163397
  9
$DIMTFILL
 70
0
  9
$DIMTFILLCLR
 70
0
  9
$DIMARCSYM
 70
0
  9
$DIMLTYPE
  6

  9
$DIMLTEX1
  6

  9
$DIMLTEX2
  6

  9
$DIMTXTDIRECTION
 70
0
  9
$LUNITS
 70
2
  9
$LUPREC
 70
4
  9
$SKETCHINC
 40
1.0
  9
$FILLETRAD
 40
10.0
  9
$AUNITS
 70
0
  9
$AUPREC
 70
2
  9
$MENU
  1
.
  9
$ELEVATION
 40
0.0
  9
$PELEVATION
 40
0.0
  9
$THICKNESS
 40
0.0
  9
$LIMCHECK
 70
0
  9
$CHAMFERA
 40
0.0
  9
$CHAMFERB
 40
0.0
  9
$CHAMFERC
 40
0.0
  9
$CHAMFERD
 40
0.0
  9
$SKPOLY
 70
0
  9
$TDCREATE
 40
2461313.531851852
  9
$TDUCREATE
 40
2458532.153996898
  9
$TDUPDATE
 40
2461313.531851852
  9
$TDUUPDATE
 40
2458532.1544311
  9
$TDINDWG
 40
0.0
  9
$TDUSRTIMER
 40
0.0
  9
$USRTIMER
 70
1
  9
$ANGBASE
 50
0.0
  9
$ANGDIR
 70
0
  9
$PDMODE
 70
0
  9
$PDSIZE
 40
0.0
  9
$PLINEWID
 40
0.0
  9
$SPLFRAME
 70
0
  9
$SPLINETYPE
 70
6
  9
$SPLINESEGS
 70
8
  9
$HANDSEED
  5
3D3
  9
$SURFTAB1
 70
6
  9
$SURFTAB2
 70
6
  9
$SURFTYPE
 70
6
  9
$SURFU
 70
6
  9
$SURFV
 70
6
  9
$UCSBASE
  2

  9
$UCSNAME
  2

  9
$UCSORG
 10
0.0
 20
0.0
 30
0.0
  9
$UCSXDIR
 10
1.0
 20
0.0
 30
0.0
  9
$UCSYDIR
 10
0.0
 20
1.0
 30
0.0
  9
$UCSORTHOREF
  2

  9
$UCSORTHOVIEW
 70
0
  9
$UCSORGTOP
 10
0.0
 20
0.0
 30
0.0
  9
$UCSORGBOTTOM
 10
0.0
 20
0.0
 30
0.0
  9
$UCSORGLEFT
 10
0.0
 20
0.0
 30
0.0
  9
$UCSORGRIGHT
 10
0.0
 20
0.0
 30
0.0
  9
$UCSORGFRONT
 10
0.0
 20
0.0
 30
0.0
  9
$UCSORGBACK
 10
0.0
 20
0.0
 30
0.0
  9
$PUCSBASE
  2

  9
$PUCSNAME
  2

  9
$PUCSORG
 10
0.0
 20
0.0
 30
0.0
  9
$PUCSXDIR
 10
1.0
 20
0.0
 30
0.0
  9
$PUCSYDIR
 10
0.0
 20
1.0
 30
0.0
  9
$PUCSORTHOREF
  2

  9
$PUCSORTHOVIEW
 70
0
  9
$PUCSORGTOP
 10
0.0
 20
0.0
 30
0.0
  9
$PUCSORGBOTTOM
 10
0.0
 20
0.0
 30
0.0
  9
$PUCSORGLEFT
 10
0.0
 20
0.0
 30
0.0
  9
$PUCSORGRIGHT
 10
0.0
 20
0.0
 30
0.0
  9
$PUCSORGFRONT
 10
0.0
 20
0.0
 30
0.0
  9
$PUCSORGBACK
 10
0.0
 20
0.0
 30
0.0
  9
$USERI1
 70
0
  9
$USERI2
 70
0
  9
$USERI3
 70
0
  9
$USERI4
 70
0
  9
$USERI5
 70
0
  9
$USERR1
 40
0.0
  9
$USERR2
 40
0.0
  9
$USERR3
 40
0.0
  9
$USERR4
 40
0.0
  9
$USERR5
 40
0.0
  9
$WORLDVIEW
 70
1
  9
$SHADEDGE
 70
3
  9
$SHADEDIF
 70
70
  9
$TILEMODE
 70
1
  9
$MAXACTVP
 70
64
  9
$PINSBASE
 10
0.0
 20
0.0
 30
0.0
  9
$PLIMCHECK
 70
0
  9
$PEXTMIN
 10
1e+20
 20
1e+20
 30
1e+20
  9
$PEXTMAX
 10
-1e+20
 20
-1e+20
 30
-1e+20
  9
$PLIMMIN
 10
0.0
 20
0.0
  9
$PLIMMAX
 10
420.0
 20
297.0
  9
$UNITMODE
 70
0
  9
$VISRETAIN
 70
1
  9
$PLINEGEN
 70
0
  9
$PSLTSCALE
 70
1
  9
$TREEDEPTH
 70
3020
  9
$CMLSTYLE
  2
Standard
  9
$CMLJUST
 70
0
  9
$CMLSCALE
 40
20.0
  9
$PROXYGRAPHICS
 70
1
  9
$MEASUREMENT
 70
1
  9
$CELWEIGHT
370
-1
  9
$ENDCAPS
280
0
  9
$JOINSTYLE
280
0
  9
$LWDISPLAY
290
0
  9
$INSUNITS
 70
4
  9
$HYPERLINKBASE
  1

  9
$STYLESHEET
  1

  9
$XEDIT
290
1
  9
$CEPSNTYPE
380
0
  9
$PSTYLEMODE
290
1
  9
$FINGERPRINTGUID
  2
{7BA4F37E-2E5D-4B49-97D3-AFD02773BB2E}
  9
$VERSIONGUID
  2
{D46FD7E7-C257-42EE-96FB-A1621D53423F}
  9
$EXTNAMES
290
1
  9
$PSVPSCALE
 40
0.0
  9
$OLESTARTUP
290
0
  9
$SORTENTS
280
127
  9
$INDEXCTL
280
0
  9
$HIDETEXT
280
1
  9
$XCLIPFRAME
280
1
  9
$HALOGAP
280
0
  9
$OBSCOLOR
 70
257
  9
$OBSLTYPE
280
0
  9
$INTERSECTIONDISPLAY
280
0
  9
$INTERSECTIONCOLOR
 70
257
  9
$DIMASSOC
280
2
  9
$PROJECTNAME
  1

  9
$CAMERADISPLAY
290
0
  9
$LENSLENGTH
 40
50.0
  9
$CAMERAHEIGHT
 40
0.0
  9
$STEPSPERSEC
 40
24.0
  9
$STEPSIZE
 40
100.0
  9
$3DDWFPREC
 40
2.0
  9
$PSOLWIDTH
 40
0.005
  9
$PSOLHEIGHT
 40
0.08
  9
$LOFTANG1
 40
1.570796326795
  9
$LOFTANG2
 40
1.570796326795
  9
$LOFTMAG1
 40
0.0
  9
$LOFTMAG2
 40
0.0
  9
$LOFTPARAM
 70
7
  9
$LOFTNORMALS
280
1
  9
$LATITUDE
 40
37.795
  9
$LONGITUDE
 40
-122.394
  9
$NORTHDIRECTION
 40
0.0
  9
$TIMEZONE
 70
-8000
  9
$LIGHTGLYPHDISPLAY
280
1
  9
$TILEMODELIGHTSYNCH
280
1
  9
$CMATERIAL
347
20
  9
$SOLIDHIST
280
0
  9
$SHOWHIST
280
1
  9
$DWFFRAME
280
2
  9
$DGNFRAME
280
2
  9
$REALWORLDSCALE
290
1
  9
$INTERFERECOLOR
 62
256
  9
$CSHADOW
280
0
  9
$SHADOWPLANELOCATION
 40
0.0
  0
ENDSEC
  0
SECTION
  2
CLASSES
  0
CLASS
  1
ACDBDICTIONARYWDFLT
  2
AcDbDictionaryWithDefault
  3
ObjectDBX Classes
 90
0
 91
0
280
0
281
0
  0
CLASS
  1
SUN
  2
AcDbSun
  3
SCENEOE
 90
1153
 91
0
280
0
281
0
  0
CLASS
  1
VISUALSTYLE
  2
AcDbVisualStyle
  3
ObjectDBX Classes
 90
4095
 91
0
280
0
281
0
  0
CLASS
  1
MATERIAL
  2
AcDbMaterial
  3
ObjectDBX Classes
 90
1153
 91
0
280
0
281
0
  0
CLASS
  1
SCALE
  2
AcDbScale
  3
ObjectDBX Classes
 90
1153
 91
0
280
0
281
0
  0
CLASS
  1
TABLESTYLE
  2
AcDbTableStyle
  3
ObjectDBX Classes
 90
4095
 91
0
280
0
281
0
  0
CLASS
  1
MLEADERSTYLE
  2
AcDbMLeaderStyle
  3
ACDB_MLEADERSTYLE_CLASS
 90
4095
 91
0
280
0
281
0
  0
CLASS
  1
DICTIONARYVAR
  2
AcDbDictionaryVar
  3
ObjectDBX Classes
 90
0
 91
0
280
0
281
0
  0
CLASS
  1
CELLSTYLEMAP
  2
AcDbCellStyleMap
  3
ObjectDBX Classes
 90
1152
 91
0
280
0
281
0
  0
CLASS
  1
MENTALRAYRENDERSETTINGS
  2
AcDbMentalRayRenderSettings
  3
SCENEOE
 90
1024
 91
0
280
0
281
0
  0
CLASS
  1
ACDBDETAILVIEWSTYLE
  2
AcDbDetailViewStyle
  3
ObjectDBX Classes
 90
1025
 91
0
280
0
281
0
  0
CLASS
  1
ACDBSECTIONVIEWSTYLE
  2
AcDbSectionViewStyle
  3
ObjectDBX Classes
 90
1025
 91
0
280
0
281
0
  0
CLASS
  1
RASTERVARIABLES
  2
AcDbRasterVariables
  3
ISM
 90
0
 91
0
280
0
281
0
  0
CLASS
  1
LAYOUT
  2
AcDbLayout
  3
ObjectDBX Classes
 90
0
 91
0
280
0
281
0
  0
CLASS
  1
ACDBPLACEHOLDER
  2
AcDbPlaceHolder
  3
ObjectDBX Classes
 90
0
 91
0
280
0
281
0
  0
ENDSEC
  0
SECTION
  2
TABLES
  0
TABLE
  2
VPORT
  5
8
330
0
100
AcDbSymbolTable
 70
1
  0
VPORT
  5
23
330
8
100
AcDbSymbolTableRecord
100
AcDbViewportTableRecord
  2
*Active
 70
0
 10
0.0
 20
0.0
 11
1.0
 21
1.0
 12
0.0
 22
0.0
 13
0.0
 23
0.0
 14
0.5
 24
0.5
 15
0.5
 25
0.5
 16
0.0
 26
0.0
 36
1.0
 17
0.0
 27
0.0
 37
0.0
 40
1000.0
 41
1.34
 42
50.0
 43
0.0
 44
0.0
 50
0.0
 51
0.0
 71
0
 72
1000
 73
1
 74
3
 75
0
 76
0
 77
0
 78
0
281
0
 65
0
146
0.0
  0
ENDTAB
  0
TABLE
  2
LTYPE
  5
2
330
0
100
AcDbSymbolTable
 70
21
  0
LTYPE
  5
24
330
2
100
AcDbSymbolTableRecord
100
AcDbLinetypeTableRecord
  2
ByBlock
 70
0
  3

 72
65
 73
0
 40
0.0
  0
LTYPE
  5
25
330
2
100
AcDbSymbolTableRecord
100
AcDbLinetypeTableRecord
  2
ByLayer
 70
0
  3

 72
65
 73
0
 40
0.0
  0
LTYPE
  5
26
330
2
100
AcDbSymbolTableRecord
100
AcDbLinetypeTableRecord
  2
Continuous
 70
0
  3

 72
65
 73
0
 40
0.0
  0
LTYPE
  5
2F
330
2
100
AcDbSymbolTableRecord
100
AcDbLinetypeTableRecord
  2
CENTER
 70
0
  3
Center ____ _ ____ _ ____ _ ____ _ ____ _ ____
 72
65
 73
4
 40
5.08
 49
3.175
 74
0
 49
-0.635
 74
0
 49
0.635
 74
0
 49
-0.635
 74
0
  0
LTYPE
  5
30
330
2
100
AcDbSymbolTableRecord
100
AcDbLinetypeTableRecord
  2
CENTERX2
 70
0
  3
Center (2x) ________  __  ________  __  ________
 72
65
 73
4
 40
8.89
 49
6.35
 74
0
 49
-0.635
 74
0
 49
1.27
 74
0
 49
-0.635
 74
0
  0
LTYPE
  5
31
330
2
100
AcDbSymbolTableRecord
100
AcDbLinetypeTableRecord
  2
CENTER2
 70
0
  3
Center (.5x) ____ _ ____ _ ____ _ ____ _ ____
 72
65
 73
4
 40
2.54
 49
1.587
 74
0
 49
-0.318
 74
0
 49
0.318
 74
0
 49
-0.318
 74
0
  0
LTYPE
  5
32
330
2
100
AcDbSymbolTableRecord
100
AcDbLinetypeTableRecord
  2
DASHED
 70
0
  3
Dashed __ __ __ __ __ __ __ __ __ __ __ __ __ _
 72
65
 73
2
 40
1.524
 49
1.27
 74
0
 49
-0.254
 74
0
  0
LTYPE
  5
33
330
2
100
AcDbSymbolTableRecord
100
AcDbLinetypeTableRecord
  2
DASHEDX2
 70
0
  3
Dashed (2x) ____  ____  ____  ____  ____  ____
 72
65
 73
2
 40
3.048
 49
2.54
 74
0
 49
-0.508
 74
0
  0
LTYPE
  5
34
330
2
100
AcDbSymbolTableRecord
100
AcDbLinetypeTableRecord
  2
DASHED2
 70
0
  3
Dashed (.5x) _ _ _ _ _ _ _ _ _ _ _ _ _ _
 72
65
 73
2
 40
0.762
 49
0.635
 74
0
 49
-0.127
 74
0
  0
LTYPE
  5
35
330
2
100
AcDbSymbolTableRecord
100
AcDbLinetypeTableRecord
  2
PHANTOM
 70
0
  3
Phantom ______  __  __  ______  __  __  ______
 72
65
 73
6
 40
6.35
 49
3.175
 74
0
 49
-0.635
 74
0
 49
0.635
 74
0
 49
-0.635
 74
0
 49
0.635
 74
0
 49
-0.635
 74
0
  0
LTYPE
  5
36
330
2
100
AcDbSymbolTableRecord
100
AcDbLinetypeTableRecord
  2
PHANTOMX2
 70
0
  3
Phantom (2x)____________    ____    ____    ____________
 72
65
 73
6
 40
10.795
 49
6.35
 74
0
 49
-0.635
 74
0
 49
1.27
 74
0
 49
-0.635
 74
0
 49
1.27
 74
0
 49
-0.635
 74
0
  0
LTYPE
  5
37
330
2
100
AcDbSymbolTableRecord
100
AcDbLinetypeTableRecord
  2
PHANTOM2
 70
0
  3
Phantom (.5x) ___ _ _ ___ _ _ ___ _ _ ___ _ _ ___
 72
65
 73
6
 40
3.175
 49
1.587
 74
0
 49
-0.318
 74
0
 49
0.318
 74
0
 49
-0.318
 74
0
 49
0.318
 74
0
 49
-0.318
 74
0
  0
LTYPE
  5
38
330
2
100
AcDbSymbolTableRecord
100
AcDbLinetypeTableRecord
  2
DASHDOT
 70
0
  3
Dash dot __ . __ . __ . __ . __ . __ . __ . __
 72
65
 73
4
 40
3.556
 49
2.54
 74
0
 49
-0.508
 74
0
 49
0.0
 74
0
 49
-0.508
 74
0
  0
LTYPE
  5
39
330
2
100
AcDbSymbolTableRecord
100
AcDbLinetypeTableRecord
  2
DASHDOTX2
 70
0
  3
Dash dot (2x) ____  .  ____  .  ____  .  ____
 72
65
 73
4
 40
6.096
 49
5.08
 74
0
 49
-0.508
 74
0
 49
0.0
 74
0
 49
-0.508
 74
0
  0
LTYPE
  5
3A
330
2
100
AcDbSymbolTableRecord
100
AcDbLinetypeTableRecord
  2
DASHDOT2
 70
0
  3
Dash dot (.5x) _ . _ . _ . _ . _ . _ . _ . _
 72
65
 73
4
 40
1.778
 49
1.27
 74
0
 49
-0.254
 74
0
 49
0.0
 74
0
 49
-0.254
 74
0
  0
LTYPE
  5
3B
330
2
100
AcDbSymbolTableRecord
100
AcDbLinetypeTableRecord
  2
DOT
 70
0
  3
Dot .  .  .  .  .  .  .  .  .  .  .  .  .  .  .  .
 72
65
 73
2
 40
0.508
 49
0.0
 74
0
 49
-0.508
 74
0
  0
LTYPE
  5
3C
330
2
100
AcDbSymbolTableRecord
100
AcDbLinetypeTableRecord
  2
DOTX2
 70
0
  3
Dot (2x) .    .    .    .    .    .    .    . 
 72
65
 73
2
 40
1.016
 49
0.0
 74
0
 49
-1.016
 74
0
  0
LTYPE
  5
3D
330
2
100
AcDbSymbolTableRecord
100
AcDbLinetypeTableRecord
  2
DOT2
 70
0
  3
Dot (.5) . . . . . . . . . . . . . . . . . . . 
 72
65
 73
2
 40
0.254
 49
0.0
 74
0
 49
-0.254
 74
0
  0
LTYPE
  5
3E
330
2
100
AcDbSymbolTableRecord
100
AcDbLinetypeTableRecord
  2
DIVIDE
 70
0
  3
Divide __ . . __ . . __ . . __ . . __ . . __
 72
65
 73
6
 40
4.064
 49
2.54
 74
0
 49
-0.508
 74
0
 49
0.0
 74
0
 49
-0.508
 74
0
 49
0.0
 74
0
 49
-0.508
 74
0
  0
LTYPE
  5
3F
330
2
100
AcDbSymbolTableRecord
100
AcDbLinetypeTableRecord
  2
DIVIDEX2
 70
0
  3
Divide (2x) ____  . .  ____  . .  ____  . .  ____
 72
65
 73
6
 40
6.604
 49
5.08
 74
0
 49
-0.508
 74
0
 49
0.0
 74
0
 49
-0.508
 74
0
 49
0.0
 74
0
 49
-0.508
 74
0
  0
LTYPE
  5
40
330
2
100
AcDbSymbolTableRecord
100
AcDbLinetypeTableRecord
  2
DIVIDE2
 70
0
  3
Divide(.5x) _ . _ . _ . _ . _ . _ . _ . _
 72
65
 73
6
 40
2.032
 49
1.27
 74
0
 49
-0.254
 74
0
 49
0.0
 74
0
 49
-0.254
 74
0
 49
0.0
 74
0
 49
-0.254
 74
0
  0
ENDTAB
  0
TABLE
  2
LAYER
  5
1
330
0
100
AcDbSymbolTable
 70
27
  0
LAYER
  5
27
330
1
100
AcDbSymbolTableRecord
100
AcDbLayerTableRecord
  2
0
 70
0
 62
7
  6
Continuous
370
-3
390
13
347
21
  0
LAYER
  5
28
330
1
100
AcDbSymbolTableRecord
100
AcDbLayerTableRecord
  2
Defpoints
 70
0
 62
7
  6
Continuous
290
0
370
-3
390
13
347
21
  0
LAYER
  5
8A
330
1
100
AcDbSymbolTableRecord
100
AcDbLayerTableRecord
  2
cimentacion
 70
0
 62
8
  6
Continuous
370
25
390
13
347
21
  0
LAYER
  5
8B
330
1
100
AcDbSymbolTableRecord
100
AcDbLayerTableRecord
  2
muros_PB
 70
0
 62
7
  6
Continuous
370
50
390
13
347
21
  0
LAYER
  5
8C
330
1
100
AcDbSymbolTableRecord
100
AcDbLayerTableRecord
  2
muros_PA
 70
0
 62
7
  6
Continuous
370
50
390
13
347
21
  0
LAYER
  5
8D
330
1
100
AcDbSymbolTableRecord
100
AcDbLayerTableRecord
  2
MURO_CENTRAL
 70
0
 62
1
  6
Continuous
370
70
390
13
347
21
  0
LAYER
  5
8E
330
1
100
AcDbSymbolTableRecord
100
AcDbLayerTableRecord
  2
tabiques
 70
0
 62
3
  6
Continuous
370
25
390
13
347
21
  0
LAYER
  5
8F
330
1
100
AcDbSymbolTableRecord
100
AcDbLayerTableRecord
  2
forjado_PB_PA
 70
0
 62
5
  6
Continuous
370
35
390
13
347
21
  0
LAYER
  5
90
330
1
100
AcDbSymbolTableRecord
100
AcDbLayerTableRecord
  2
escalera
 70
0
 62
30
  6
Continuous
370
18
390
13
347
21
  0
LAYER
  5
91
330
1
100
AcDbSymbolTableRecord
100
AcDbLayerTableRecord
  2
losa_terraza
 70
0
 62
5
  6
Continuous
370
35
390
13
347
21
  0
LAYER
  5
92
330
1
100
AcDbSymbolTableRecord
100
AcDbLayerTableRecord
  2
pilares
 70
0
 62
4
  6
Continuous
370
35
390
13
347
21
  0
LAYER
  5
93
330
1
100
AcDbSymbolTableRecord
100
AcDbLayerTableRecord
  2
antepecho
 70
0
 62
7
  6
Continuous
370
35
390
13
347
21
  0
LAYER
  5
94
330
1
100
AcDbSymbolTableRecord
100
AcDbLayerTableRecord
  2
forjado_cubierta
 70
0
 62
5
  6
Continuous
370
35
390
13
347
21
  0
LAYER
  5
95
330
1
100
AcDbSymbolTableRecord
100
AcDbLayerTableRecord
  2
cubierta
 70
0
 62
6
  6
Continuous
370
35
390
13
347
21
  0
LAYER
  5
96
330
1
100
AcDbSymbolTableRecord
100
AcDbLayerTableRecord
  2
HUECOS
 70
0
 62
7
  6
Continuous
370
25
390
13
347
21
  0
LAYER
  5
97
330
1
100
AcDbSymbolTableRecord
100
AcDbLayerTableRecord
  2
CARPINTERIA
 70
0
 62
4
  6
Continuous
370
18
390
13
347
21
  0
LAYER
  5
98
330
1
100
AcDbSymbolTableRecord
100
AcDbLayerTableRecord
  2
COTAS
 70
0
 62
3
  6
Continuous
370
13
390
13
347
21
  0
LAYER
  5
99
330
1
100
AcDbSymbolTableRecord
100
AcDbLayerTableRecord
  2
TEXTO
 70
0
 62
2
  6
Continuous
370
13
390
13
347
21
  0
LAYER
  5
9A
330
1
100
AcDbSymbolTableRecord
100
AcDbLayerTableRecord
  2
ESCALERA_ALTA
 70
0
 62
30
  6
DASHED
370
18
390
13
347
21
  0
LAYER
  5
9B
330
1
100
AcDbSymbolTableRecord
100
AcDbLayerTableRecord
  2
CORTES
 70
0
 62
1
  6
DASHDOT
370
35
390
13
347
21
  0
LAYER
  5
9C
330
1
100
AcDbSymbolTableRecord
100
AcDbLayerTableRecord
  2
RAYADO_MURO
 70
0
 62
7
  6
Continuous
370
9
390
13
347
21
  0
LAYER
  5
9D
330
1
100
AcDbSymbolTableRecord
100
AcDbLayerTableRecord
  2
RAYADO_MURO_CENTRAL
 70
0
 62
1
  6
Continuous
370
9
390
13
347
21
  0
LAYER
  5
9E
330
1
100
AcDbSymbolTableRecord
100
AcDbLayerTableRecord
  2
RAYADO_FORJADO
 70
0
 62
7
  6
Continuous
370
9
390
13
347
21
  0
LAYER
  5
9F
330
1
100
AcDbSymbolTableRecord
100
AcDbLayerTableRecord
  2
RAYADO_OTROS
 70
0
 62
8
  6
Continuous
370
9
390
13
347
21
  0
LAYER
  5
A0
330
1
100
AcDbSymbolTableRecord
100
AcDbLayerTableRecord
  2
MARCO
 70
0
 62
7
  6
Continuous
370
70
390
13
347
21
  0
LAYER
  5
A1
330
1
100
AcDbSymbolTableRecord
100
AcDbLayerTableRecord
  2
TABLA
 70
0
 62
7
  6
Continuous
370
25
390
13
347
21
  0
LAYER
  5
A2
330
1
100
AcDbSymbolTableRecord
100
AcDbLayerTableRecord
  2
murete_pasillo
 70
0
 62
7
  6
Continuous
370
35
390
13
347
21
  0
ENDTAB
  0
TABLE
  2
STYLE
  5
5
330
0
100
AcDbSymbolTable
 70
26
  0
STYLE
  5
29
330
5
100
AcDbSymbolTableRecord
100
AcDbTextStyleTableRecord
  2
Standard
 70
0
 40
0.0
 41
1.0
 50
0.0
 71
0
 42
2.5
  3
txt
  4

  0
STYLE
  5
41
330
5
100
AcDbSymbolTableRecord
100
AcDbTextStyleTableRecord
  2
OpenSans-Light
 70
0
 40
0.0
 41
1.0
 50
0.0
 71
0
 42
2.5
  3
OpenSans-Light.ttf
  4

  0
STYLE
  5
42
330
5
100
AcDbSymbolTableRecord
100
AcDbTextStyleTableRecord
  2
OpenSans-Light-Italic
 70
0
 40
0.0
 41
1.0
 50
0.0
 71
0
 42
2.5
  3
OpenSans-LightItalic.ttf
  4

  0
STYLE
  5
43
330
5
100
AcDbSymbolTableRecord
100
AcDbTextStyleTableRecord
  2
OpenSans
 70
0
 40
0.0
 41
1.0
 50
0.0
 71
0
 42
2.5
  3
OpenSans-Regular.ttf
  4

  0
STYLE
  5
44
330
5
100
AcDbSymbolTableRecord
100
AcDbTextStyleTableRecord
  2
OpenSans-Italic
 70
0
 40
0.0
 41
1.0
 50
0.0
 71
0
 42
2.5
  3
OpenSans-Italic.ttf
  4

  0
STYLE
  5
45
330
5
100
AcDbSymbolTableRecord
100
AcDbTextStyleTableRecord
  2
OpenSans-SemiBold
 70
0
 40
0.0
 41
1.0
 50
0.0
 71
0
 42
2.5
  3
OpenSans-SemiBold.ttf
  4

  0
STYLE
  5
46
330
5
100
AcDbSymbolTableRecord
100
AcDbTextStyleTableRecord
  2
OpenSans-SemiBoldItalic
 70
0
 40
0.0
 41
1.0
 50
0.0
 71
0
 42
2.5
  3
OpenSans-SemiBoldItalic.ttf
  4

  0
STYLE
  5
47
330
5
100
AcDbSymbolTableRecord
100
AcDbTextStyleTableRecord
  2
OpenSans-Bold
 70
0
 40
0.0
 41
1.0
 50
0.0
 71
0
 42
2.5
  3
OpenSans-Bold.ttf
  4

  0
STYLE
  5
48
330
5
100
AcDbSymbolTableRecord
100
AcDbTextStyleTableRecord
  2
OpenSans-BoldItalic
 70
0
 40
0.0
 41
1.0
 50
0.0
 71
0
 42
2.5
  3
OpenSans-BoldItalic.ttf
  4

  0
STYLE
  5
49
330
5
100
AcDbSymbolTableRecord
100
AcDbTextStyleTableRecord
  2
OpenSans-ExtraBold
 70
0
 40
0.0
 41
1.0
 50
0.0
 71
0
 42
2.5
  3
OpenSans-ExtraBold.ttf
  4

  0
STYLE
  5
4A
330
5
100
AcDbSymbolTableRecord
100
AcDbTextStyleTableRecord
  2
OpenSans-ExtraBoldItalic
 70
0
 40
0.0
 41
1.0
 50
0.0
 71
0
 42
2.5
  3
OpenSans-ExtraBoldItalic.ttf
  4

  0
STYLE
  5
4B
330
5
100
AcDbSymbolTableRecord
100
AcDbTextStyleTableRecord
  2
OpenSansCondensed-Bold
 70
0
 40
0.0
 41
1.0
 50
0.0
 71
0
 42
2.5
  3
OpenSansCondensed-Bold.ttf
  4

  0
STYLE
  5
4C
330
5
100
AcDbSymbolTableRecord
100
AcDbTextStyleTableRecord
  2
OpenSansCondensed-Light
 70
0
 40
0.0
 41
1.0
 50
0.0
 71
0
 42
2.5
  3
OpenSansCondensed-Light.ttf
  4

  0
STYLE
  5
4D
330
5
100
AcDbSymbolTableRecord
100
AcDbTextStyleTableRecord
  2
OpenSansCondensed-Italic
 70
0
 40
0.0
 41
1.0
 50
0.0
 71
0
 42
2.5
  3
OpenSansCondensed-LightItalic.ttf
  4

  0
STYLE
  5
4E
330
5
100
AcDbSymbolTableRecord
100
AcDbTextStyleTableRecord
  2
LiberationSans
 70
0
 40
0.0
 41
1.0
 50
0.0
 71
0
 42
2.5
  3
LiberationSans-Regular.ttf
  4

  0
STYLE
  5
4F
330
5
100
AcDbSymbolTableRecord
100
AcDbTextStyleTableRecord
  2
LiberationSans-Bold
 70
0
 40
0.0
 41
1.0
 50
0.0
 71
0
 42
2.5
  3
LiberationSans-Bold.ttf
  4

  0
STYLE
  5
50
330
5
100
AcDbSymbolTableRecord
100
AcDbTextStyleTableRecord
  2
LiberationSans-BoldItalic
 70
0
 40
0.0
 41
1.0
 50
0.0
 71
0
 42
2.5
  3
LiberationSans-BoldItalic.ttf
  4

  0
STYLE
  5
51
330
5
100
AcDbSymbolTableRecord
100
AcDbTextStyleTableRecord
  2
LiberationSans-Italic
 70
0
 40
0.0
 41
1.0
 50
0.0
 71
0
 42
2.5
  3
LiberationSans-Italic.ttf
  4

  0
STYLE
  5
52
330
5
100
AcDbSymbolTableRecord
100
AcDbTextStyleTableRecord
  2
LiberationSerif
 70
0
 40
0.0
 41
1.0
 50
0.0
 71
0
 42
2.5
  3
LiberationSerif-Regular.ttf
  4

  0
STYLE
  5
53
330
5
100
AcDbSymbolTableRecord
100
AcDbTextStyleTableRecord
  2
LiberationSerif-Bold
 70
0
 40
0.0
 41
1.0
 50
0.0
 71
0
 42
2.5
  3
LiberationSerif-Bold.ttf
  4

  0
STYLE
  5
54
330
5
100
AcDbSymbolTableRecord
100
AcDbTextStyleTableRecord
  2
LiberationSerif-BoldItalic
 70
0
 40
0.0
 41
1.0
 50
0.0
 71
0
 42
2.5
  3
LiberationSerif-BoldItalic.ttf
  4

  0
STYLE
  5
55
330
5
100
AcDbSymbolTableRecord
100
AcDbTextStyleTableRecord
  2
LiberationSerif-Italic
 70
0
 40
0.0
 41
1.0
 50
0.0
 71
0
 42
2.5
  3
LiberationSerif-Italic.ttf
  4

  0
STYLE
  5
56
330
5
100
AcDbSymbolTableRecord
100
AcDbTextStyleTableRecord
  2
LiberationMono
 70
0
 40
0.0
 41
1.0
 50
0.0
 71
0
 42
2.5
  3
LiberationMono-Regular.ttf
  4

  0
STYLE
  5
57
330
5
100
AcDbSymbolTableRecord
100
AcDbTextStyleTableRecord
  2
LiberationMono-Bold
 70
0
 40
0.0
 41
1.0
 50
0.0
 71
0
 42
2.5
  3
LiberationMono-Bold.ttf
  4

  0
STYLE
  5
58
330
5
100
AcDbSymbolTableRecord
100
AcDbTextStyleTableRecord
  2
LiberationMono-BoldItalic
 70
0
 40
0.0
 41
1.0
 50
0.0
 71
0
 42
2.5
  3
LiberationMono-BoldItalic.ttf
  4

  0
STYLE
  5
59
330
5
100
AcDbSymbolTableRecord
100
AcDbTextStyleTableRecord
  2
LiberationMono-Italic
 70
0
 40
0.0
 41
1.0
 50
0.0
 71
0
 42
2.5
  3
LiberationMono-Italic.ttf
  4

  0
ENDTAB
  0
TABLE
  2
VIEW
  5
7
330
0
100
AcDbSymbolTable
 70
0
  0
ENDTAB
  0
TABLE
  2
UCS
  5
6
330
0
100
AcDbSymbolTable
 70
0
  0
ENDTAB
  0
TABLE
  2
APPID
  5
3
330
0
100
AcDbSymbolTable
 70
3
  0
APPID
  5
2A
330
3
100
AcDbSymbolTableRecord
100
AcDbRegAppTableRecord
  2
ACAD
 70
0
  0
APPID
  5
3D0
330
3
100
AcDbSymbolTableRecord
100
AcDbRegAppTableRecord
  2
HATCHBACKGROUNDCOLOR
 70
0
  0
APPID
  5
3D1
330
3
100
AcDbSymbolTableRecord
100
AcDbRegAppTableRecord
  2
EZDXF
 70
0
  0
ENDTAB
  0
TABLE
  2
DIMSTYLE
  5
4
330
0
100
AcDbSymbolTable
 70
12
100
AcDbDimStyleTable
  0
DIMSTYLE
105
2B
330
4
100
AcDbSymbolTableRecord
100
AcDbDimStyleTableRecord
  2
Standard
 70
0
 40
1.0
 41
2.5
 42
0.625
 43
3.75
 44
1.25
 45
0.0
 46
0.0
 47
0.0
 48
0.0
 49
2.5
140
2.5
141
2.5
142
0.0
143
0.03937007874
144
1.0
145
0.0
146
1.0
147
0.625
148
0.0
 69
0
 70
0
 71
0
 72
0
 73
0
 74
0
 75
0
 76
0
 77
1
 78
8
 79
3
170
0
171
3
172
1
173
0
174
0
175
0
176
0
177
0
178
0
179
2
271
2
272
2
273
2
274
3
275
0
276
0
277
2
278
44
279
0
280
0
281
0
282
0
283
0
284
8
285
0
286
0
288
0
289
3
290
0
371
-2
372
-2
  0
DIMSTYLE
105
73
330
4
100
AcDbSymbolTableRecord
100
AcDbDimStyleTableRecord
  2
EZDXF
 70
0
 40
1.0
 41
0.175
 42
0.125
 43
3.75
 44
0.375
 45
0.0
 46
0.0
 47
0.0
 48
0.0
 49
2.5
140
0.25
141
2.5
142
0.0
143
0.03937007874
144
100.0
145
0.0
146
0.5
147
0.1
148
0.0
 69
0
 70
0
 71
0
 72
0
 73
0
 74
0
 75
0
 76
0
 77
1
 78
12
 79
3
170
0
171
3
172
1
173
0
174
0
175
0
176
0
177
0
178
0
179
2
271
2
272
2
273
2
274
3
275
0
276
0
277
2
278
46
279
2
280
0
281
0
282
0
283
0
284
8
285
0
286
0
288
1
289
3
290
0
340
4C
342
74
371
-2
372
-2
  0
DIMSTYLE
105
7C
330
4
100
AcDbSymbolTableRecord
100
AcDbDimStyleTableRecord
  2
EZ_M_100_H25_CM
 70
0
 40
1.0
 41
0.25
 42
0.125
 43
3.75
 44
0.375
 45
0.0
 46
0.0
 47
0.0
 48
0.0
 49
2.5
140
0.25
141
2.5
142
0.125
143
0.03937007874
144
100.0
145
0.0
146
0.5
147
0.1
148
0.0
 69
0
 70
0
 71
0
 72
0
 73
0
 74
0
 75
0
 76
0
 77
1
 78
12
 79
3
170
0
171
3
172
1
173
0
174
0
175
0
176
0
177
0
178
0
179
2
271
2
272
2
273
2
274
3
275
0
276
0
277
2
278
46
279
2
280
0
281
0
282
0
283
0
284
8
285
0
286
0
288
1
289
3
290
0
340
4C
371
-2
372
-2
  0
DIMSTYLE
105
7D
330
4
100
AcDbSymbolTableRecord
100
AcDbDimStyleTableRecord
  2
EZ_M_50_H25_CM
 70
0
 40
1.0
 41
0.125
 42
0.0625
 43
3.75
 44
0.1875
 45
0.0
 46
0.0
 47
0.0
 48
0.0
 49
2.5
140
0.125
141
2.5
142
0.0625
143
0.03937007874
144
100.0
145
0.0
146
0.5
147
0.05
148
0.0
 69
0
 70
0
 71
0
 72
0
 73
0
 74
0
 75
0
 76
0
 77
1
 78
12
 79
3
170
0
171
3
172
1
173
0
174
0
175
0
176
0
177
0
178
0
179
2
271
2
272
2
273
2
274
3
275
0
276
0
277
2
278
46
279
2
280
0
281
0
282
0
283
0
284
8
285
0
286
0
288
1
289
3
290
0
340
4C
371
-2
372
-2
  0
DIMSTYLE
105
7E
330
4
100
AcDbSymbolTableRecord
100
AcDbDimStyleTableRecord
  2
EZ_M_25_H25_CM
 70
0
 40
1.0
 41
0.0625
 42
0.03125
 43
3.75
 44
0.09375
 45
0.0
 46
0.0
 47
0.0
 48
0.0
 49
2.5
140
0.0625
141
2.5
142
0.03125
143
0.03937007874
144
100.0
145
0.0
146
0.5
147
0.025
148
0.0
 69
0
 70
0
 71
0
 72
0
 73
0
 74
0
 75
0
 76
0
 77
1
 78
12
 79
3
170
0
171
3
172
1
173
0
174
0
175
0
176
0
177
0
178
0
179
2
271
2
272
2
273
2
274
3
275
0
276
0
277
2
278
46
279
2
280
0
281
0
282
0
283
0
284
8
285
0
286
0
288
1
289
3
290
0
340
4C
371
-2
372
-2
  0
DIMSTYLE
105
7F
330
4
100
AcDbSymbolTableRecord
100
AcDbDimStyleTableRecord
  2
EZ_M_20_H25_CM
 70
0
 40
1.0
 41
0.05
 42
0.025
 43
3.75
 44
0.07500000000000001
 45
0.0
 46
0.0
 47
0.0
 48
0.0
 49
2.5
140
0.05
141
2.5
142
0.025
143
0.03937007874
144
100.0
145
0.0
146
0.5
147
0.020000000000000004
148
0.0
 69
0
 70
0
 71
0
 72
0
 73
0
 74
0
 75
0
 76
0
 77
1
 78
12
 79
3
170
0
171
3
172
1
173
0
174
0
175
0
176
0
177
0
178
0
179
2
271
2
272
2
273
2
274
3
275
0
276
0
277
2
278
46
279
2
280
0
281
0
282
0
283
0
284
8
285
0
286
0
288
1
289
3
290
0
340
4C
371
-2
372
-2
  0
DIMSTYLE
105
80
330
4
100
AcDbSymbolTableRecord
100
AcDbDimStyleTableRecord
  2
EZ_M_10_H25_CM
 70
0
 40
1.0
 41
0.025
 42
0.0125
 43
3.75
 44
0.037500000000000006
 45
0.0
 46
0.0
 47
0.0
 48
0.0
 49
2.5
140
0.025
141
2.5
142
0.0125
143
0.03937007874
144
100.0
145
0.0
146
0.5
147
0.010000000000000002
148
0.0
 69
0
 70
0
 71
0
 72
0
 73
0
 74
0
 75
0
 76
0
 77
1
 78
12
 79
3
170
0
171
3
172
1
173
0
174
0
175
0
176
0
177
0
178
0
179
2
271
2
272
2
273
2
274
3
275
0
276
0
277
2
278
46
279
2
280
0
281
0
282
0
283
0
284
8
285
0
286
0
288
1
289
3
290
0
340
4C
371
-2
372
-2
  0
DIMSTYLE
105
81
330
4
100
AcDbSymbolTableRecord
100
AcDbDimStyleTableRecord
  2
EZ_M_5_H25_CM
 70
0
 40
1.0
 41
0.0125
 42
0.00625
 43
3.75
 44
0.018750000000000003
 45
0.0
 46
0.0
 47
0.0
 48
0.0
 49
2.5
140
0.0125
141
2.5
142
0.00625
143
0.03937007874
144
100.0
145
0.0
146
0.5
147
0.005000000000000001
148
0.0
 69
0
 70
0
 71
0
 72
0
 73
0
 74
0
 75
0
 76
0
 77
1
 78
12
 79
3
170
0
171
3
172
1
173
0
174
0
175
0
176
0
177
0
178
0
179
2
271
2
272
2
273
2
274
3
275
0
276
0
277
2
278
46
279
2
280
0
281
0
282
0
283
0
284
8
285
0
286
0
288
1
289
3
290
0
340
4C
371
-2
372
-2
  0
DIMSTYLE
105
82
330
4
100
AcDbSymbolTableRecord
100
AcDbDimStyleTableRecord
  2
EZ_M_1_H25_CM
 70
0
 40
1.0
 41
0.0025
 42
0.00125
 43
3.75
 44
0.00375
 45
0.0
 46
0.0
 47
0.0
 48
0.0
 49
2.5
140
0.0025
141
2.5
142
0.00125
143
0.03937007874
144
100.0
145
0.0
146
0.5
147
0.001
148
0.0
 69
0
 70
0
 71
0
 72
0
 73
0
 74
0
 75
0
 76
0
 77
1
 78
12
 79
3
170
0
171
3
172
1
173
0
174
0
175
0
176
0
177
0
178
0
179
2
271
2
272
2
273
2
274
3
275
0
276
0
277
2
278
46
279
2
280
0
281
0
282
0
283
0
284
8
285
0
286
0
288
1
289
3
290
0
340
4C
371
-2
372
-2
  0
DIMSTYLE
105
83
330
4
100
AcDbSymbolTableRecord
100
AcDbDimStyleTableRecord
  2
EZ_RADIUS
 70
0
 40
1.0
 41
0.25
 42
0.125
 43
3.75
 44
0.375
 45
0.0
 46
0.0
 47
0.0
 48
0.0
 49
2.5
140
0.25
141
0.0
142
0.0
143
0.03937007874
144
100.0
145
0.0
146
0.5
147
0.1
148
0.0
 69
0
 70
0
 71
0
 72
0
 73
0
 74
0
 75
0
 76
0
 77
1
 78
12
 79
3
170
0
171
3
172
0
173
0
174
0
175
0
176
0
177
0
178
0
179
2
271
2
272
2
273
2
274
3
275
0
276
0
277
2
278
46
279
1
280
0
281
0
282
0
283
0
284
8
285
0
286
0
288
1
289
3
290
0
340
4C
342
84
371
-2
372
-2
  0
DIMSTYLE
105
88
330
4
100
AcDbSymbolTableRecord
100
AcDbDimStyleTableRecord
  2
EZ_RADIUS_INSIDE
 70
0
 40
1.0
 41
0.25
 42
0.125
 43
3.75
 44
0.375
 45
0.0
 46
0.0
 47
0.0
 48
0.0
 49
2.5
140
0.25
141
0.0
142
0.0
143
0.03937007874
144
100.0
145
0.0
146
0.5
147
0.1
148
0.0
 69
0
 70
0
 71
0
 72
0
 73
0
 74
0
 75
0
 76
0
 77
0
 78
12
 79
3
170
0
171
3
172
0
173
0
174
1
175
0
176
0
177
0
178
0
179
2
271
2
272
2
273
2
274
3
275
0
276
0
277
2
278
46
279
0
280
0
281
0
282
0
283
0
284
8
285
0
286
0
288
1
289
0
290
0
340
4C
342
84
371
-2
372
-2
  0
DIMSTYLE
105
89
330
4
100
AcDbSymbolTableRecord
100
AcDbDimStyleTableRecord
  2
EZ_CURVED
 70
0
 40
1.0
 41
0.25
 42
0.125
 43
3.75
 44
0.375
 45
0.0
 46
0.0
 47
0.0
 48
0.0
 49
2.5
140
0.25
141
2.5
142
0.0
143
0.03937007874
144
100.0
145
0.0
146
0.5
147
0.1
148
0.0
 69
0
 70
0
 71
0
 72
0
 73
0
 74
0
 75
0
 76
0
 77
1
 78
12
 79
2
 90
2
170
0
171
3
172
1
173
0
174
0
175
0
176
0
177
0
178
0
179
2
271
2
272
2
273
2
274
3
275
0
276
0
277
2
278
46
279
2
280
0
281
0
282
0
283
0
284
8
285
0
286
0
288
1
289
3
290
0
340
4C
371
-2
372
-2
  0
ENDTAB
  0
TABLE
  2
BLOCK_RECORD
  5
9
330
0
100
AcDbSymbolTable
 70
49
  0
BLOCK_RECORD
  5
17
330
9
100
AcDbSymbolTableRecord
100
AcDbBlockTableRecord
  2
*Model_Space
340
1A
 70
0
280
1
281
0
  0
BLOCK_RECORD
  5
1B
330
9
100
AcDbSymbolTableRecord
100
AcDbBlockTableRecord
  2
*Paper_Space
340
1E
 70
0
280
1
281
0
  0
BLOCK_RECORD
  5
74
330
9
100
AcDbSymbolTableRecord
100
AcDbBlockTableRecord
  2
_ARCHTICK
340
0
 70
0
280
1
281
0
  0
BLOCK_RECORD
  5
78
330
9
100
AcDbSymbolTableRecord
100
AcDbBlockTableRecord
  2
_CLOSEDFILLED
340
0
 70
0
280
1
281
0
  0
BLOCK_RECORD
  5
84
330
9
100
AcDbSymbolTableRecord
100
AcDbBlockTableRecord
  2
_CLOSEDBLANK
340
0
 70
0
280
1
281
0
  0
BLOCK_RECORD
  5
C3
330
9
100
AcDbSymbolTableRecord
100
AcDbBlockTableRecord
  2
*D1
340
0
 70
0
280
1
281
0
  0
BLOCK_RECORD
  5
D2
330
9
100
AcDbSymbolTableRecord
100
AcDbBlockTableRecord
  2
*D2
340
0
 70
0
280
1
281
0
  0
BLOCK_RECORD
  5
E1
330
9
100
AcDbSymbolTableRecord
100
AcDbBlockTableRecord
  2
*D3
340
0
 70
0
280
1
281
0
  0
BLOCK_RECORD
  5
F0
330
9
100
AcDbSymbolTableRecord
100
AcDbBlockTableRecord
  2
*D4
340
0
 70
0
280
1
281
0
  0
BLOCK_RECORD
  5
FF
330
9
100
AcDbSymbolTableRecord
100
AcDbBlockTableRecord
  2
*D5
340
0
 70
0
280
1
281
0
  0
BLOCK_RECORD
  5
10E
330
9
100
AcDbSymbolTableRecord
100
AcDbBlockTableRecord
  2
*D6
340
0
 70
0
280
1
281
0
  0
BLOCK_RECORD
  5
11D
330
9
100
AcDbSymbolTableRecord
100
AcDbBlockTableRecord
  2
*D7
340
0
 70
0
280
1
281
0
  0
BLOCK_RECORD
  5
12C
330
9
100
AcDbSymbolTableRecord
100
AcDbBlockTableRecord
  2
*D8
340
0
 70
0
280
1
281
0
  0
BLOCK_RECORD
  5
13B
330
9
100
AcDbSymbolTableRecord
100
AcDbBlockTableRecord
  2
*D9
340
0
 70
0
280
1
281
0
  0
BLOCK_RECORD
  5
14A
330
9
100
AcDbSymbolTableRecord
100
AcDbBlockTableRecord
  2
*D10
340
0
 70
0
280
1
281
0
  0
BLOCK_RECORD
  5
159
330
9
100
AcDbSymbolTableRecord
100
AcDbBlockTableRecord
  2
*D11
340
0
 70
0
280
1
281
0
  0
BLOCK_RECORD
  5
168
330
9
100
AcDbSymbolTableRecord
100
AcDbBlockTableRecord
  2
*D12
340
0
 70
0
280
1
281
0
  0
BLOCK_RECORD
  5
177
330
9
100
AcDbSymbolTableRecord
100
AcDbBlockTableRecord
  2
*D13
340
0
 70
0
280
1
281
0
  0
BLOCK_RECORD
  5
186
330
9
100
AcDbSymbolTableRecord
100
AcDbBlockTableRecord
  2
*D14
340
0
 70
0
280
1
281
0
  0
BLOCK_RECORD
  5
1A8
330
9
100
AcDbSymbolTableRecord
100
AcDbBlockTableRecord
  2
*D15
340
0
 70
0
280
1
281
0
  0
BLOCK_RECORD
  5
1B7
330
9
100
AcDbSymbolTableRecord
100
AcDbBlockTableRecord
  2
*D16
340
0
 70
0
280
1
281
0
  0
BLOCK_RECORD
  5
1C6
330
9
100
AcDbSymbolTableRecord
100
AcDbBlockTableRecord
  2
*D17
340
0
 70
0
280
1
281
0
  0
BLOCK_RECORD
  5
1D5
330
9
100
AcDbSymbolTableRecord
100
AcDbBlockTableRecord
  2
*D18
340
0
 70
0
280
1
281
0
  0
BLOCK_RECORD
  5
1E4
330
9
100
AcDbSymbolTableRecord
100
AcDbBlockTableRecord
  2
*D19
340
0
 70
0
280
1
281
0
  0
BLOCK_RECORD
  5
1F3
330
9
100
AcDbSymbolTableRecord
100
AcDbBlockTableRecord
  2
*D20
340
0
 70
0
280
1
281
0
  0
BLOCK_RECORD
  5
202
330
9
100
AcDbSymbolTableRecord
100
AcDbBlockTableRecord
  2
*D21
340
0
 70
0
280
1
281
0
  0
BLOCK_RECORD
  5
211
330
9
100
AcDbSymbolTableRecord
100
AcDbBlockTableRecord
  2
*D22
340
0
 70
0
280
1
281
0
  0
BLOCK_RECORD
  5
220
330
9
100
AcDbSymbolTableRecord
100
AcDbBlockTableRecord
  2
*D23
340
0
 70
0
280
1
281
0
  0
BLOCK_RECORD
  5
22F
330
9
100
AcDbSymbolTableRecord
100
AcDbBlockTableRecord
  2
*D24
340
0
 70
0
280
1
281
0
  0
BLOCK_RECORD
  5
23E
330
9
100
AcDbSymbolTableRecord
100
AcDbBlockTableRecord
  2
*D25
340
0
 70
0
280
1
281
0
  0
BLOCK_RECORD
  5
24D
330
9
100
AcDbSymbolTableRecord
100
AcDbBlockTableRecord
  2
*D26
340
0
 70
0
280
1
281
0
  0
BLOCK_RECORD
  5
25C
330
9
100
AcDbSymbolTableRecord
100
AcDbBlockTableRecord
  2
*D27
340
0
 70
0
280
1
281
0
  0
BLOCK_RECORD
  5
26B
330
9
100
AcDbSymbolTableRecord
100
AcDbBlockTableRecord
  2
*D28
340
0
 70
0
280
1
281
0
  0
BLOCK_RECORD
  5
294
330
9
100
AcDbSymbolTableRecord
100
AcDbBlockTableRecord
  2
*D29
340
0
 70
0
280
1
281
0
  0
BLOCK_RECORD
  5
2A3
330
9
100
AcDbSymbolTableRecord
100
AcDbBlockTableRecord
  2
*D30
340
0
 70
0
280
1
281
0
  0
BLOCK_RECORD
  5
2B2
330
9
100
AcDbSymbolTableRecord
100
AcDbBlockTableRecord
  2
*D31
340
0
 70
0
280
1
281
0
  0
BLOCK_RECORD
  5
2C1
330
9
100
AcDbSymbolTableRecord
100
AcDbBlockTableRecord
  2
*D32
340
0
 70
0
280
1
281
0
  0
BLOCK_RECORD
  5
2D0
330
9
100
AcDbSymbolTableRecord
100
AcDbBlockTableRecord
  2
*D33
340
0
 70
0
280
1
281
0
  0
BLOCK_RECORD
  5
2DF
330
9
100
AcDbSymbolTableRecord
100
AcDbBlockTableRecord
  2
*D34
340
0
 70
0
280
1
281
0
  0
BLOCK_RECORD
  5
2EE
330
9
100
AcDbSymbolTableRecord
100
AcDbBlockTableRecord
  2
*D35
340
0
 70
0
280
1
281
0
  0
BLOCK_RECORD
  5
2FD
330
9
100
AcDbSymbolTableRecord
100
AcDbBlockTableRecord
  2
*D36
340
0
 70
0
280
1
281
0
  0
BLOCK_RECORD
  5
326
330
9
100
AcDbSymbolTableRecord
100
AcDbBlockTableRecord
  2
*D37
340
0
 70
0
280
1
281
0
  0
BLOCK_RECORD
  5
335
330
9
100
AcDbSymbolTableRecord
100
AcDbBlockTableRecord
  2
*D38
340
0
 70
0
280
1
281
0
  0
BLOCK_RECORD
  5
344
330
9
100
AcDbSymbolTableRecord
100
AcDbBlockTableRecord
  2
*D39
340
0
 70
0
280
1
281
0
  0
BLOCK_RECORD
  5
353
330
9
100
AcDbSymbolTableRecord
100
AcDbBlockTableRecord
  2
*D40
340
0
 70
0
280
1
281
0
  0
BLOCK_RECORD
  5
362
330
9
100
AcDbSymbolTableRecord
100
AcDbBlockTableRecord
  2
*D41
340
0
 70
0
280
1
281
0
  0
BLOCK_RECORD
  5
371
330
9
100
AcDbSymbolTableRecord
100
AcDbBlockTableRecord
  2
*D42
340
0
 70
0
280
1
281
0
  0
BLOCK_RECORD
  5
380
330
9
100
AcDbSymbolTableRecord
100
AcDbBlockTableRecord
  2
*D43
340
0
 70
0
280
1
281
0
  0
BLOCK_RECORD
  5
38F
330
9
100
AcDbSymbolTableRecord
100
AcDbBlockTableRecord
  2
*D44
340
0
 70
0
280
1
281
0
  0
ENDTAB
  0
ENDSEC
  0
SECTION
  2
BLOCKS
  0
BLOCK
  5
18
330
17
100
AcDbEntity
  8
0
100
AcDbBlockBegin
  2
*Model_Space
 70
0
 10
0.0
 20
0.0
 30
0.0
  3
*Model_Space
  1

  0
ENDBLK
  5
19
330
17
100
AcDbEntity
  8
0
100
AcDbBlockEnd
  0
BLOCK
  5
1C
330
1B
100
AcDbEntity
  8
0
100
AcDbBlockBegin
  2
*Paper_Space
 70
0
 10
0.0
 20
0.0
 30
0.0
  3
*Paper_Space
  1

  0
ENDBLK
  5
1D
330
1B
100
AcDbEntity
  8
0
100
AcDbBlockEnd
  0
BLOCK
  5
75
330
74
100
AcDbEntity
  8
0
100
AcDbBlockBegin
  2
_ARCHTICK
 70
0
 10
0.0
 20
0.0
 30
0.0
  3
_ARCHTICK
  1

  0
LWPOLYLINE
  5
77
330
74
100
AcDbEntity
  8
0
  6
BYBLOCK
 62
0
100
AcDbPolyline
 90
2
 70
0
 43
0.15
 10
-0.5
 20
-0.5
 10
0.5
 20
0.5
  0
ENDBLK
  5
76
330
74
100
AcDbEntity
  8
0
100
AcDbBlockEnd
  0
BLOCK
  5
79
330
78
100
AcDbEntity
  8
0
100
AcDbBlockBegin
  2
_CLOSEDFILLED
 70
0
 10
0.0
 20
0.0
 30
0.0
  3
_CLOSEDFILLED
  1

  0
SOLID
  5
7B
330
78
100
AcDbEntity
  8
0
  6
BYBLOCK
 62
0
100
AcDbTrace
 10
-1.0
 20
0.16439898372402537
 30
0.0
 11
0.0
 21
0.0
 31
0.0
 12
-1.0
 22
-0.16439898372402537
 32
0.0
 13
-1.0
 23
-0.16439898372402537
 33
0.0
  0
ENDBLK
  5
7A
330
78
100
AcDbEntity
  8
0
100
AcDbBlockEnd
  0
BLOCK
  5
85
330
84
100
AcDbEntity
  8
0
100
AcDbBlockBegin
  2
_CLOSEDBLANK
 70
0
 10
0.0
 20
0.0
 30
0.0
  3
_CLOSEDBLANK
  1

  0
LWPOLYLINE
  5
87
330
84
100
AcDbEntity
  8
0
  6
BYBLOCK
 62
0
100
AcDbPolyline
 90
3
 70
1
 10
-1.0
 20
0.16439898372402537
 10
0.0
 20
0.0
 10
-1.0
 20
-0.16439898372402537
  0
ENDBLK
  5
86
330
84
100
AcDbEntity
  8
0
100
AcDbBlockEnd
  0
BLOCK
  5
C4
330
C3
100
AcDbEntity
  8
0
100
AcDbBlockBegin
  2
*D1
 70
1
 10
0.0
 20
0.0
 30
0.0
  3
*D1
  1

  0
LINE
  5
C6
330
C3
100
AcDbEntity
  8
0
100
AcDbLine
 10
110.0
 20
345.2
 30
0.0
 11
110.0
 21
337.0
 31
0.0
  0
LINE
  5
C7
330
C3
100
AcDbEntity
  8
0
100
AcDbLine
 10
115.33333333333334
 20
345.2
 30
0.0
 11
115.33333333333334
 21
337.0
 31
0.0
  0
INSERT
  5
C8
330
C3
100
AcDbEntity
  8
COTAS
100
AcDbBlockReference
  2
_ARCHTICK
 10
110.0
 20
338.0
 30
0.0
 41
1.8
 42
1.8
 50
180.0
  0
INSERT
  5
CA
330
C3
100
AcDbEntity
  8
COTAS
100
AcDbBlockReference
  2
_ARCHTICK
 10
115.33333333333334
 20
338.0
 30
0.0
 41
1.8
 42
1.8
  0
LINE
  5
CC
330
C3
100
AcDbEntity
  8
0
100
AcDbLine
 10
110.0
 20
338.0
 30
0.0
 11
115.33333333333334
 21
338.0
 31
0.0
  0
MTEXT
  5
CD
330
C3
100
AcDbEntity
  8
COTAS
 62
3
100
AcDbMText
 10
112.66666666666667
 20
340.7
 30
0.0
 40
2.2
 71
5
  1
0.40
  7
OpenSansCondensed-Light
  0
POINT
  5
CE
330
C3
100
AcDbEntity
  8
Defpoints
100
AcDbPoint
 10
110.0
 20
338.0
 30
0.0
  0
POINT
  5
CF
330
C3
100
AcDbEntity
  8
Defpoints
100
AcDbPoint
 10
110.0
 20
346.0
 30
0.0
  0
POINT
  5
D0
330
C3
100
AcDbEntity
  8
Defpoints
100
AcDbPoint
 10
115.33333333333334
 20
346.0
 30
0.0
  0
ENDBLK
  5
C5
330
C3
100
AcDbEntity
  8
0
100
AcDbBlockEnd
  0
BLOCK
  5
D3
330
D2
100
AcDbEntity
  8
0
100
AcDbBlockBegin
  2
*D2
 70
1
 10
0.0
 20
0.0
 30
0.0
  3
*D2
  1

  0
LINE
  5
D5
330
D2
100
AcDbEntity
  8
0
100
AcDbLine
 10
115.33333333333334
 20
345.2
 30
0.0
 11
115.33333333333334
 21
337.0
 31
0.0
  0
LINE
  5
D6
330
D2
100
AcDbEntity
  8
0
100
AcDbLine
 10
171.33333333333334
 20
345.2
 30
0.0
 11
171.33333333333334
 21
337.0
 31
0.0
  0
INSERT
  5
D7
330
D2
100
AcDbEntity
  8
COTAS
100
AcDbBlockReference
  2
_ARCHTICK
 10
115.33333333333334
 20
338.0
 30
0.0
 41
1.8
 42
1.8
 50
180.0
  0
INSERT
  5
D9
330
D2
100
AcDbEntity
  8
COTAS
100
AcDbBlockReference
  2
_ARCHTICK
 10
171.33333333333334
 20
338.0
 30
0.0
 41
1.8
 42
1.8
  0
LINE
  5
DB
330
D2
100
AcDbEntity
  8
0
100
AcDbLine
 10
115.33333333333334
 20
338.0
 30
0.0
 11
171.33333333333334
 21
338.0
 31
0.0
  0
MTEXT
  5
DC
330
D2
100
AcDbEntity
  8
COTAS
 62
3
100
AcDbMText
 10
143.33333333333334
 20
339.7
 30
0.0
 40
2.2
 71
5
  1
4.20
  7
OpenSansCondensed-Light
  0
POINT
  5
DD
330
D2
100
AcDbEntity
  8
Defpoints
100
AcDbPoint
 10
115.33333333333334
 20
338.0
 30
0.0
  0
POINT
  5
DE
330
D2
100
AcDbEntity
  8
Defpoints
100
AcDbPoint
 10
115.33333333333334
 20
346.0
 30
0.0
  0
POINT
  5
DF
330
D2
100
AcDbEntity
  8
Defpoints
100
AcDbPoint
 10
171.33333333333334
 20
346.0
 30
0.0
  0
ENDBLK
  5
D4
330
D2
100
AcDbEntity
  8
0
100
AcDbBlockEnd
  0
BLOCK
  5
E2
330
E1
100
AcDbEntity
  8
0
100
AcDbBlockBegin
  2
*D3
 70
1
 10
0.0
 20
0.0
 30
0.0
  3
*D3
  1

  0
LINE
  5
E4
330
E1
100
AcDbEntity
  8
0
100
AcDbLine
 10
171.33333333333334
 20
345.2
 30
0.0
 11
171.33333333333334
 21
337.0
 31
0.0
  0
LINE
  5
E5
330
E1
100
AcDbEntity
  8
0
100
AcDbLine
 10
175.33333333333334
 20
345.2
 30
0.0
 11
175.33333333333334
 21
337.0
 31
0.0
  0
INSERT
  5
E6
330
E1
100
AcDbEntity
  8
COTAS
100
AcDbBlockReference
  2
_ARCHTICK
 10
171.33333333333334
 20
338.0
 30
0.0
 41
1.8
 42
1.8
  0
INSERT
  5
E8
330
E1
100
AcDbEntity
  8
COTAS
100
AcDbBlockReference
  2
_ARCHTICK
 10
175.33333333333334
 20
338.0
 30
0.0
 41
1.8
 42
1.8
 50
180.0
  0
LINE
  5
EA
330
E1
100
AcDbEntity
  8
0
100
AcDbLine
 10
171.33333333333334
 20
338.0
 30
0.0
 11
175.33333333333334
 21
338.0
 31
0.0
  0
MTEXT
  5
EB
330
E1
100
AcDbEntity
  8
COTAS
 62
3
100
AcDbMText
 10
173.33333333333334
 20
340.7
 30
0.0
 40
2.2
 71
5
  1
0.30
  7
OpenSansCondensed-Light
  0
POINT
  5
EC
330
E1
100
AcDbEntity
  8
Defpoints
100
AcDbPoint
 10
171.33333333333334
 20
338.0
 30
0.0
  0
POINT
  5
ED
330
E1
100
AcDbEntity
  8
Defpoints
100
AcDbPoint
 10
171.33333333333334
 20
346.0
 30
0.0
  0
POINT
  5
EE
330
E1
100
AcDbEntity
  8
Defpoints
100
AcDbPoint
 10
175.33333333333334
 20
346.0
 30
0.0
  0
ENDBLK
  5
E3
330
E1
100
AcDbEntity
  8
0
100
AcDbBlockEnd
  0
BLOCK
  5
F1
330
F0
100
AcDbEntity
  8
0
100
AcDbBlockBegin
  2
*D4
 70
1
 10
0.0
 20
0.0
 30
0.0
  3
*D4
  1

  0
LINE
  5
F3
330
F0
100
AcDbEntity
  8
0
100
AcDbLine
 10
175.33333333333334
 20
345.2
 30
0.0
 11
175.33333333333334
 21
337.0
 31
0.0
  0
LINE
  5
F4
330
F0
100
AcDbEntity
  8
0
100
AcDbLine
 10
187.33333333333331
 20
345.2
 30
0.0
 11
187.33333333333331
 21
337.0
 31
0.0
  0
INSERT
  5
F5
330
F0
100
AcDbEntity
  8
COTAS
100
AcDbBlockReference
  2
_ARCHTICK
 10
175.33333333333334
 20
338.0
 30
0.0
 41
1.8
 42
1.8
 50
180.0
  0
INSERT
  5
F7
330
F0
100
AcDbEntity
  8
COTAS
100
AcDbBlockReference
  2
_ARCHTICK
 10
187.33333333333331
 20
338.0
 30
0.0
 41
1.8
 42
1.8
  0
LINE
  5
F9
330
F0
100
AcDbEntity
  8
0
100
AcDbLine
 10
175.33333333333334
 20
338.0
 30
0.0
 11
187.33333333333331
 21
338.0
 31
0.0
  0
MTEXT
  5
FA
330
F0
100
AcDbEntity
  8
COTAS
 62
3
100
AcDbMText
 10
181.33333333333331
 20
339.7
 30
0.0
 40
2.2
 71
5
  1
0.90
  7
OpenSansCondensed-Light
  0
POINT
  5
FB
330
F0
100
AcDbEntity
  8
Defpoints
100
AcDbPoint
 10
175.33333333333334
 20
338.0
 30
0.0
  0
POINT
  5
FC
330
F0
100
AcDbEntity
  8
Defpoints
100
AcDbPoint
 10
175.33333333333334
 20
346.0
 30
0.0
  0
POINT
  5
FD
330
F0
100
AcDbEntity
  8
Defpoints
100
AcDbPoint
 10
187.33333333333331
 20
346.0
 30
0.0
  0
ENDBLK
  5
F2
330
F0
100
AcDbEntity
  8
0
100
AcDbBlockEnd
  0
BLOCK
  5
100
330
FF
100
AcDbEntity
  8
0
100
AcDbBlockBegin
  2
*D5
 70
1
 10
0.0
 20
0.0
 30
0.0
  3
*D5
  1

  0
LINE
  5
102
330
FF
100
AcDbEntity
  8
0
100
AcDbLine
 10
187.33333333333331
 20
345.2
 30
0.0
 11
187.33333333333331
 21
337.0
 31
0.0
  0
LINE
  5
103
330
FF
100
AcDbEntity
  8
0
100
AcDbLine
 10
195.33333333333334
 20
345.2
 30
0.0
 11
195.33333333333334
 21
337.0
 31
0.0
  0
INSERT
  5
104
330
FF
100
AcDbEntity
  8
COTAS
100
AcDbBlockReference
  2
_ARCHTICK
 10
187.33333333333331
 20
338.0
 30
0.0
 41
1.8
 42
1.8
 50
180.0
  0
INSERT
  5
106
330
FF
100
AcDbEntity
  8
COTAS
100
AcDbBlockReference
  2
_ARCHTICK
 10
195.33333333333334
 20
338.0
 30
0.0
 41
1.8
 42
1.8
  0
LINE
  5
108
330
FF
100
AcDbEntity
  8
0
100
AcDbLine
 10
187.33333333333331
 20
338.0
 30
0.0
 11
195.33333333333334
 21
338.0
 31
0.0
  0
MTEXT
  5
109
330
FF
100
AcDbEntity
  8
COTAS
 62
3
100
AcDbMText
 10
191.33333333333331
 20
340.7
 30
0.0
 40
2.2
 71
5
  1
0.60
  7
OpenSansCondensed-Light
  0
POINT
  5
10A
330
FF
100
AcDbEntity
  8
Defpoints
100
AcDbPoint
 10
187.33333333333331
 20
338.0
 30
0.0
  0
POINT
  5
10B
330
FF
100
AcDbEntity
  8
Defpoints
100
AcDbPoint
 10
187.33333333333331
 20
346.0
 30
0.0
  0
POINT
  5
10C
330
FF
100
AcDbEntity
  8
Defpoints
100
AcDbPoint
 10
195.33333333333334
 20
346.0
 30
0.0
  0
ENDBLK
  5
101
330
FF
100
AcDbEntity
  8
0
100
AcDbBlockEnd
  0
BLOCK
  5
10F
330
10E
100
AcDbEntity
  8
0
100
AcDbBlockBegin
  2
*D6
 70
1
 10
0.0
 20
0.0
 30
0.0
  3
*D6
  1

  0
LINE
  5
111
330
10E
100
AcDbEntity
  8
0
100
AcDbLine
 10
110.0
 20
345.2
 30
0.0
 11
110.0
 21
329.0
 31
0.0
  0
LINE
  5
112
330
10E
100
AcDbEntity
  8
0
100
AcDbLine
 10
195.33333333333334
 20
345.2
 30
0.0
 11
195.33333333333334
 21
329.0
 31
0.0
  0
INSERT
  5
113
330
10E
100
AcDbEntity
  8
COTAS
100
AcDbBlockReference
  2
_ARCHTICK
 10
110.0
 20
330.0
 30
0.0
 41
1.8
 42
1.8
 50
180.0
  0
INSERT
  5
115
330
10E
100
AcDbEntity
  8
COTAS
100
AcDbBlockReference
  2
_ARCHTICK
 10
195.33333333333334
 20
330.0
 30
0.0
 41
1.8
 42
1.8
  0
LINE
  5
117
330
10E
100
AcDbEntity
  8
0
100
AcDbLine
 10
110.0
 20
330.0
 30
0.0
 11
195.33333333333334
 21
330.0
 31
0.0
  0
MTEXT
  5
118
330
10E
100
AcDbEntity
  8
COTAS
 62
3
100
AcDbMText
 10
152.66666666666669
 20
331.7
 30
0.0
 40
2.2
 71
5
  1
6.40
  7
OpenSansCondensed-Light
  0
POINT
  5
119
330
10E
100
AcDbEntity
  8
Defpoints
100
AcDbPoint
 10
110.0
 20
330.0
 30
0.0
  0
POINT
  5
11A
330
10E
100
AcDbEntity
  8
Defpoints
100
AcDbPoint
 10
110.0
 20
346.0
 30
0.0
  0
POINT
  5
11B
330
10E
100
AcDbEntity
  8
Defpoints
100
AcDbPoint
 10
195.33333333333334
 20
346.0
 30
0.0
  0
ENDBLK
  5
110
330
10E
100
AcDbEntity
  8
0
100
AcDbBlockEnd
  0
BLOCK
  5
11E
330
11D
100
AcDbEntity
  8
0
100
AcDbBlockBegin
  2
*D7
 70
1
 10
0.0
 20
0.0
 30
0.0
  3
*D7
  1

  0
LINE
  5
120
330
11D
100
AcDbEntity
  8
0
100
AcDbLine
 10
229.4666666666667
 20
346.0
 30
0.0
 11
237.66666666666669
 21
346.0
 31
0.0
  0
LINE
  5
121
330
11D
100
AcDbEntity
  8
0
100
AcDbLine
 10
229.4666666666667
 20
456.6666666666667
 30
0.0
 11
237.66666666666669
 21
456.6666666666667
 31
0.0
  0
INSERT
  5
122
330
11D
100
AcDbEntity
  8
COTAS
100
AcDbBlockReference
  2
_ARCHTICK
 10
236.66666666666669
 20
346.0
 30
0.0
 41
1.8
 42
1.8
 50
270.0
  0
INSERT
  5
124
330
11D
100
AcDbEntity
  8
COTAS
100
AcDbBlockReference
  2
_ARCHTICK
 10
236.66666666666669
 20
456.6666666666667
 30
0.0
 41
1.8
 42
1.8
 50
90.0
  0
LINE
  5
126
330
11D
100
AcDbEntity
  8
0
100
AcDbLine
 10
236.66666666666669
 20
346.0
 30
0.0
 11
236.66666666666669
 21
456.6666666666667
 31
0.0
  0
MTEXT
  5
127
330
11D
100
AcDbEntity
  8
COTAS
 62
3
100
AcDbMText
 10
234.9666666666667
 20
401.33333333333337
 30
0.0
 40
2.2
 71
5
  1
8.30
  7
OpenSansCondensed-Light
 50
90.0
  0
POINT
  5
128
330
11D
100
AcDbEntity
  8
Defpoints
100
AcDbPoint
 10
236.66666666666669
 20
346.0
 30
0.0
  0
POINT
  5
129
330
11D
100
AcDbEntity
  8
Defpoints
100
AcDbPoint
 10
228.66666666666669
 20
346.0
 30
0.0
  0
POINT
  5
12A
330
11D
100
AcDbEntity
  8
Defpoints
100
AcDbPoint
 10
228.66666666666669
 20
456.6666666666667
 30
0.0
  0
ENDBLK
  5
11F
330
11D
100
AcDbEntity
  8
0
100
AcDbBlockEnd
  0
BLOCK
  5
12D
330
12C
100
AcDbEntity
  8
0
100
AcDbBlockBegin
  2
*D8
 70
1
 10
0.0
 20
0.0
 30
0.0
  3
*D8
  1

  0
LINE
  5
12F
330
12C
100
AcDbEntity
  8
0
100
AcDbLine
 10
229.4666666666667
 20
456.6666666666667
 30
0.0
 11
237.66666666666669
 21
456.6666666666667
 31
0.0
  0
LINE
  5
130
330
12C
100
AcDbEntity
  8
0
100
AcDbLine
 10
229.4666666666667
 20
503.33333333333337
 30
0.0
 11
237.66666666666669
 21
503.33333333333337
 31
0.0
  0
INSERT
  5
131
330
12C
100
AcDbEntity
  8
COTAS
100
AcDbBlockReference
  2
_ARCHTICK
 10
236.66666666666669
 20
456.6666666666667
 30
0.0
 41
1.8
 42
1.8
 50
270.0
  0
INSERT
  5
133
330
12C
100
AcDbEntity
  8
COTAS
100
AcDbBlockReference
  2
_ARCHTICK
 10
236.66666666666669
 20
503.33333333333337
 30
0.0
 41
1.8
 42
1.8
 50
90.0
  0
LINE
  5
135
330
12C
100
AcDbEntity
  8
0
100
AcDbLine
 10
236.66666666666669
 20
456.6666666666667
 30
0.0
 11
236.66666666666669
 21
503.33333333333337
 31
0.0
  0
MTEXT
  5
136
330
12C
100
AcDbEntity
  8
COTAS
 62
3
100
AcDbMText
 10
234.9666666666667
 20
480.0
 30
0.0
 40
2.2
 71
5
  1
3.50
  7
OpenSansCondensed-Light
 50
90.0
  0
POINT
  5
137
330
12C
100
AcDbEntity
  8
Defpoints
100
AcDbPoint
 10
236.66666666666669
 20
456.6666666666667
 30
0.0
  0
POINT
  5
138
330
12C
100
AcDbEntity
  8
Defpoints
100
AcDbPoint
 10
228.66666666666669
 20
456.6666666666667
 30
0.0
  0
POINT
  5
139
330
12C
100
AcDbEntity
  8
Defpoints
100
AcDbPoint
 10
228.66666666666669
 20
503.33333333333337
 30
0.0
  0
ENDBLK
  5
12E
330
12C
100
AcDbEntity
  8
0
100
AcDbBlockEnd
  0
BLOCK
  5
13C
330
13B
100
AcDbEntity
  8
0
100
AcDbBlockBegin
  2
*D9
 70
1
 10
0.0
 20
0.0
 30
0.0
  3
*D9
  1

  0
LINE
  5
13E
330
13B
100
AcDbEntity
  8
0
100
AcDbLine
 10
229.4666666666667
 20
503.33333333333337
 30
0.0
 11
237.66666666666669
 21
503.33333333333337
 31
0.0
  0
LINE
  5
13F
330
13B
100
AcDbEntity
  8
0
100
AcDbLine
 10
229.4666666666667
 20
563.3333333333334
 30
0.0
 11
237.66666666666669
 21
563.3333333333334
 31
0.0
  0
INSERT
  5
140
330
13B
100
AcDbEntity
  8
COTAS
100
AcDbBlockReference
  2
_ARCHTICK
 10
236.66666666666669
 20
503.33333333333337
 30
0.0
 41
1.8
 42
1.8
 50
270.0
  0
INSERT
  5
142
330
13B
100
AcDbEntity
  8
COTAS
100
AcDbBlockReference
  2
_ARCHTICK
 10
236.66666666666669
 20
563.3333333333334
 30
0.0
 41
1.8
 42
1.8
 50
90.0
  0
LINE
  5
144
330
13B
100
AcDbEntity
  8
0
100
AcDbLine
 10
236.66666666666669
 20
503.33333333333337
 30
0.0
 11
236.66666666666669
 21
563.3333333333334
 31
0.0
  0
MTEXT
  5
145
330
13B
100
AcDbEntity
  8
COTAS
 62
3
100
AcDbMText
 10
234.9666666666667
 20
533.3333333333334
 30
0.0
 40
2.2
 71
5
  1
4.50
  7
OpenSansCondensed-Light
 50
90.0
  0
POINT
  5
146
330
13B
100
AcDbEntity
  8
Defpoints
100
AcDbPoint
 10
236.66666666666669
 20
503.33333333333337
 30
0.0
  0
POINT
  5
147
330
13B
100
AcDbEntity
  8
Defpoints
100
AcDbPoint
 10
228.66666666666669
 20
503.33333333333337
 30
0.0
  0
POINT
  5
148
330
13B
100
AcDbEntity
  8
Defpoints
100
AcDbPoint
 10
228.66666666666669
 20
563.3333333333334
 30
0.0
  0
ENDBLK
  5
13D
330
13B
100
AcDbEntity
  8
0
100
AcDbBlockEnd
  0
BLOCK
  5
14B
330
14A
100
AcDbEntity
  8
0
100
AcDbBlockBegin
  2
*D10
 70
1
 10
0.0
 20
0.0
 30
0.0
  3
*D10
  1

  0
LINE
  5
14D
330
14A
100
AcDbEntity
  8
0
100
AcDbLine
 10
229.4666666666667
 20
346.0
 30
0.0
 11
245.66666666666669
 21
346.0
 31
0.0
  0
LINE
  5
14E
330
14A
100
AcDbEntity
  8
0
100
AcDbLine
 10
229.4666666666667
 20
563.3333333333334
 30
0.0
 11
245.66666666666669
 21
563.3333333333334
 31
0.0
  0
INSERT
  5
14F
330
14A
100
AcDbEntity
  8
COTAS
100
AcDbBlockReference
  2
_ARCHTICK
 10
244.66666666666669
 20
346.0
 30
0.0
 41
1.8
 42
1.8
 50
270.0
  0
INSERT
  5
151
330
14A
100
AcDbEntity
  8
COTAS
100
AcDbBlockReference
  2
_ARCHTICK
 10
244.66666666666669
 20
563.3333333333334
 30
0.0
 41
1.8
 42
1.8
 50
90.0
  0
LINE
  5
153
330
14A
100
AcDbEntity
  8
0
100
AcDbLine
 10
244.66666666666669
 20
346.0
 30
0.0
 11
244.66666666666669
 21
563.3333333333334
 31
0.0
  0
MTEXT
  5
154
330
14A
100
AcDbEntity
  8
COTAS
 62
3
100
AcDbMText
 10
242.9666666666667
 20
454.6666666666667
 30
0.0
 40
2.2
 71
5
  1
16.30
  7
OpenSansCondensed-Light
 50
90.0
  0
POINT
  5
155
330
14A
100
AcDbEntity
  8
Defpoints
100
AcDbPoint
 10
244.66666666666669
 20
346.0
 30
0.0
  0
POINT
  5
156
330
14A
100
AcDbEntity
  8
Defpoints
100
AcDbPoint
 10
228.66666666666669
 20
346.0
 30
0.0
  0
POINT
  5
157
330
14A
100
AcDbEntity
  8
Defpoints
100
AcDbPoint
 10
228.66666666666669
 20
563.3333333333334
 30
0.0
  0
ENDBLK
  5
14C
330
14A
100
AcDbEntity
  8
0
100
AcDbBlockEnd
  0
BLOCK
  5
15A
330
159
100
AcDbEntity
  8
0
100
AcDbBlockBegin
  2
*D11
 70
1
 10
0.0
 20
0.0
 30
0.0
  3
*D11
  1

  0
LINE
  5
15C
330
159
100
AcDbEntity
  8
0
100
AcDbLine
 10
195.33333333333334
 20
504.1333333333334
 30
0.0
 11
195.33333333333334
 21
512.3333333333334
 31
0.0
  0
LINE
  5
15D
330
159
100
AcDbEntity
  8
0
100
AcDbLine
 10
228.66666666666669
 20
504.1333333333334
 30
0.0
 11
228.66666666666669
 21
512.3333333333334
 31
0.0
  0
INSERT
  5
15E
330
159
100
AcDbEntity
  8
COTAS
100
AcDbBlockReference
  2
_ARCHTICK
 10
195.33333333333334
 20
511.33333333333337
 30
0.0
 41
1.8
 42
1.8
 50
180.0
  0
INSERT
  5
160
330
159
100
AcDbEntity
  8
COTAS
100
AcDbBlockReference
  2
_ARCHTICK
 10
228.66666666666669
 20
511.33333333333337
 30
0.0
 41
1.8
 42
1.8
  0
LINE
  5
162
330
159
100
AcDbEntity
  8
0
100
AcDbLine
 10
195.33333333333334
 20
511.33333333333337
 30
0.0
 11
228.66666666666669
 21
511.33333333333337
 31
0.0
  0
MTEXT
  5
163
330
159
100
AcDbEntity
  8
COTAS
 62
3
100
AcDbMText
 10
212.0
 20
513.0333333333334
 30
0.0
 40
2.2
 71
5
  1
2.50
  7
OpenSansCondensed-Light
  0
POINT
  5
164
330
159
100
AcDbEntity
  8
Defpoints
100
AcDbPoint
 10
195.33333333333334
 20
511.33333333333337
 30
0.0
  0
POINT
  5
165
330
159
100
AcDbEntity
  8
Defpoints
100
AcDbPoint
 10
195.33333333333334
 20
503.33333333333337
 30
0.0
  0
POINT
  5
166
330
159
100
AcDbEntity
  8
Defpoints
100
AcDbPoint
 10
228.66666666666669
 20
503.33333333333337
 30
0.0
  0
ENDBLK
  5
15B
330
159
100
AcDbEntity
  8
0
100
AcDbBlockEnd
  0
BLOCK
  5
169
330
168
100
AcDbEntity
  8
0
100
AcDbBlockBegin
  2
*D12
 70
1
 10
0.0
 20
0.0
 30
0.0
  3
*D12
  1

  0
LINE
  5
16B
330
168
100
AcDbEntity
  8
0
100
AcDbLine
 10
68.0
 20
564.1333333333333
 30
0.0
 11
68.0
 21
572.3333333333334
 31
0.0
  0
LINE
  5
16C
330
168
100
AcDbEntity
  8
0
100
AcDbLine
 10
195.33333333333334
 20
564.1333333333333
 30
0.0
 11
195.33333333333334
 21
572.3333333333334
 31
0.0
  0
INSERT
  5
16D
330
168
100
AcDbEntity
  8
COTAS
100
AcDbBlockReference
  2
_ARCHTICK
 10
68.0
 20
571.3333333333334
 30
0.0
 41
1.8
 42
1.8
 50
180.0
  0
INSERT
  5
16F
330
168
100
AcDbEntity
  8
COTAS
100
AcDbBlockReference
  2
_ARCHTICK
 10
195.33333333333334
 20
571.3333333333334
 30
0.0
 41
1.8
 42
1.8
  0
LINE
  5
171
330
168
100
AcDbEntity
  8
0
100
AcDbLine
 10
68.0
 20
571.3333333333334
 30
0.0
 11
195.33333333333334
 21
571.3333333333334
 31
0.0
  0
MTEXT
  5
172
330
168
100
AcDbEntity
  8
COTAS
 62
3
100
AcDbMText
 10
131.66666666666669
 20
573.0333333333334
 30
0.0
 40
2.2
 71
5
  1
9.55
  7
OpenSansCondensed-Light
  0
POINT
  5
173
330
168
100
AcDbEntity
  8
Defpoints
100
AcDbPoint
 10
68.0
 20
571.3333333333334
 30
0.0
  0
POINT
  5
174
330
168
100
AcDbEntity
  8
Defpoints
100
AcDbPoint
 10
68.0
 20
563.3333333333334
 30
0.0
  0
POINT
  5
175
330
168
100
AcDbEntity
  8
Defpoints
100
AcDbPoint
 10
195.33333333333334
 20
563.3333333333334
 30
0.0
  0
ENDBLK
  5
16A
330
168
100
AcDbEntity
  8
0
100
AcDbBlockEnd
  0
BLOCK
  5
178
330
177
100
AcDbEntity
  8
0
100
AcDbBlockBegin
  2
*D13
 70
1
 10
0.0
 20
0.0
 30
0.0
  3
*D13
  1

  0
LINE
  5
17A
330
177
100
AcDbEntity
  8
0
100
AcDbLine
 10
67.2
 20
443.6
 30
0.0
 11
59.0
 21
443.6
 31
0.0
  0
LINE
  5
17B
330
177
100
AcDbEntity
  8
0
100
AcDbLine
 10
67.2
 20
563.3333333333334
 30
0.0
 11
59.0
 21
563.3333333333334
 31
0.0
  0
INSERT
  5
17C
330
177
100
AcDbEntity
  8
COTAS
100
AcDbBlockReference
  2
_ARCHTICK
 10
60.0
 20
443.6
 30
0.0
 41
1.8
 42
1.8
 50
270.0
  0
INSERT
  5
17E
330
177
100
AcDbEntity
  8
COTAS
100
AcDbBlockReference
  2
_ARCHTICK
 10
60.0
 20
563.3333333333334
 30
0.0
 41
1.8
 42
1.8
 50
90.0
  0
LINE
  5
180
330
177
100
AcDbEntity
  8
0
100
AcDbLine
 10
60.0
 20
443.6
 30
0.0
 11
60.0
 21
563.3333333333334
 31
0.0
  0
MTEXT
  5
181
330
177
100
AcDbEntity
  8
COTAS
 62
3
100
AcDbMText
 10
58.3
 20
503.4666666666667
 30
0.0
 40
2.2
 71
5
  1
8.98
  7
OpenSansCondensed-Light
 50
90.0
  0
POINT
  5
182
330
177
100
AcDbEntity
  8
Defpoints
100
AcDbPoint
 10
60.0
 20
443.6
 30
0.0
  0
POINT
  5
183
330
177
100
AcDbEntity
  8
Defpoints
100
AcDbPoint
 10
68.0
 20
443.6
 30
0.0
  0
POINT
  5
184
330
177
100
AcDbEntity
  8
Defpoints
100
AcDbPoint
 10
68.0
 20
563.3333333333334
 30
0.0
  0
ENDBLK
  5
179
330
177
100
AcDbEntity
  8
0
100
AcDbBlockEnd
  0
BLOCK
  5
187
330
186
100
AcDbEntity
  8
0
100
AcDbBlockBegin
  2
*D14
 70
1
 10
0.0
 20
0.0
 30
0.0
  3
*D14
  1

  0
LINE
  5
189
330
186
100
AcDbEntity
  8
0
100
AcDbLine
 10
106.26666666666668
 20
442.8
 30
0.0
 11
106.26666666666668
 21
434.6
 31
0.0
  0
LINE
  5
18A
330
186
100
AcDbEntity
  8
0
100
AcDbLine
 10
195.33333333333334
 20
442.8
 30
0.0
 11
195.33333333333334
 21
434.6
 31
0.0
  0
INSERT
  5
18B
330
186
100
AcDbEntity
  8
COTAS
100
AcDbBlockReference
  2
_ARCHTICK
 10
106.26666666666668
 20
435.6
 30
0.0
 41
1.8
 42
1.8
 50
180.0
  0
INSERT
  5
18D
330
186
100
AcDbEntity
  8
COTAS
100
AcDbBlockReference
  2
_ARCHTICK
 10
195.33333333333334
 20
435.6
 30
0.0
 41
1.8
 42
1.8
  0
LINE
  5
18F
330
186
100
AcDbEntity
  8
0
100
AcDbLine
 10
106.26666666666668
 20
435.6
 30
0.0
 11
195.33333333333334
 21
435.6
 31
0.0
  0
MTEXT
  5
190
330
186
100
AcDbEntity
  8
COTAS
 62
3
100
AcDbMText
 10
150.8
 20
437.3
 30
0.0
 40
2.2
 71
5
  1
6.68
  7
OpenSansCondensed-Light
  0
POINT
  5
191
330
186
100
AcDbEntity
  8
Defpoints
100
AcDbPoint
 10
106.26666666666668
 20
435.6
 30
0.0
  0
POINT
  5
192
330
186
100
AcDbEntity
  8
Defpoints
100
AcDbPoint
 10
106.26666666666668
 20
443.6
 30
0.0
  0
POINT
  5
193
330
186
100
AcDbEntity
  8
Defpoints
100
AcDbPoint
 10
195.33333333333334
 20
443.6
 30
0.0
  0
ENDBLK
  5
188
330
186
100
AcDbEntity
  8
0
100
AcDbBlockEnd
  0
BLOCK
  5
1A9
330
1A8
100
AcDbEntity
  8
0
100
AcDbBlockBegin
  2
*D15
 70
1
 10
0.0
 20
0.0
 30
0.0
  3
*D15
  1

  0
LINE
  5
1AB
330
1A8
100
AcDbEntity
  8
0
100
AcDbLine
 10
380.0
 20
345.2
 30
0.0
 11
380.0
 21
337.0
 31
0.0
  0
LINE
  5
1AC
330
1A8
100
AcDbEntity
  8
0
100
AcDbLine
 10
385.3333333333333
 20
345.2
 30
0.0
 11
385.3333333333333
 21
337.0
 31
0.0
  0
INSERT
  5
1AD
330
1A8
100
AcDbEntity
  8
COTAS
100
AcDbBlockReference
  2
_ARCHTICK
 10
380.0
 20
338.0
 30
0.0
 41
1.8
 42
1.8
 50
180.0
  0
INSERT
  5
1AF
330
1A8
100
AcDbEntity
  8
COTAS
100
AcDbBlockReference
  2
_ARCHTICK
 10
385.3333333333333
 20
338.0
 30
0.0
 41
1.8
 42
1.8
  0
LINE
  5
1B1
330
1A8
100
AcDbEntity
  8
0
100
AcDbLine
 10
380.0
 20
338.0
 30
0.0
 11
385.3333333333333
 21
338.0
 31
0.0
  0
MTEXT
  5
1B2
330
1A8
100
AcDbEntity
  8
COTAS
 62
3
100
AcDbMText
 10
382.66666666666663
 20
340.7
 30
0.0
 40
2.2
 71
5
  1
0.40
  7
OpenSansCondensed-Light
  0
POINT
  5
1B3
330
1A8
100
AcDbEntity
  8
Defpoints
100
AcDbPoint
 10
380.0
 20
338.0
 30
0.0
  0
POINT
  5
1B4
330
1A8
100
AcDbEntity
  8
Defpoints
100
AcDbPoint
 10
380.0
 20
346.0
 30
0.0
  0
POINT
  5
1B5
330
1A8
100
AcDbEntity
  8
Defpoints
100
AcDbPoint
 10
385.3333333333333
 20
346.0
 30
0.0
  0
ENDBLK
  5
1AA
330
1A8
100
AcDbEntity
  8
0
100
AcDbBlockEnd
  0
BLOCK
  5
1B8
330
1B7
100
AcDbEntity
  8
0
100
AcDbBlockBegin
  2
*D16
 70
1
 10
0.0
 20
0.0
 30
0.0
  3
*D16
  1

  0
LINE
  5
1BA
330
1B7
100
AcDbEntity
  8
0
100
AcDbLine
 10
385.3333333333333
 20
345.2
 30
0.0
 11
385.3333333333333
 21
337.0
 31
0.0
  0
LINE
  5
1BB
330
1B7
100
AcDbEntity
  8
0
100
AcDbLine
 10
441.33333333333337
 20
345.2
 30
0.0
 11
441.33333333333337
 21
337.0
 31
0.0
  0
INSERT
  5
1BC
330
1B7
100
AcDbEntity
  8
COTAS
100
AcDbBlockReference
  2
_ARCHTICK
 10
385.3333333333333
 20
338.0
 30
0.0
 41
1.8
 42
1.8
 50
180.0
  0
INSERT
  5
1BE
330
1B7
100
AcDbEntity
  8
COTAS
100
AcDbBlockReference
  2
_ARCHTICK
 10
441.33333333333337
 20
338.0
 30
0.0
 41
1.8
 42
1.8
  0
LINE
  5
1C0
330
1B7
100
AcDbEntity
  8
0
100
AcDbLine
 10
385.3333333333333
 20
338.0
 30
0.0
 11
441.33333333333337
 21
338.0
 31
0.0
  0
MTEXT
  5
1C1
330
1B7
100
AcDbEntity
  8
COTAS
 62
3
100
AcDbMText
 10
413.33333333333337
 20
339.7
 30
0.0
 40
2.2
 71
5
  1
4.20
  7
OpenSansCondensed-Light
  0
POINT
  5
1C2
330
1B7
100
AcDbEntity
  8
Defpoints
100
AcDbPoint
 10
385.3333333333333
 20
338.0
 30
0.0
  0
POINT
  5
1C3
330
1B7
100
AcDbEntity
  8
Defpoints
100
AcDbPoint
 10
385.3333333333333
 20
346.0
 30
0.0
  0
POINT
  5
1C4
330
1B7
100
AcDbEntity
  8
Defpoints
100
AcDbPoint
 10
441.33333333333337
 20
346.0
 30
0.0
  0
ENDBLK
  5
1B9
330
1B7
100
AcDbEntity
  8
0
100
AcDbBlockEnd
  0
BLOCK
  5
1C7
330
1C6
100
AcDbEntity
  8
0
100
AcDbBlockBegin
  2
*D17
 70
1
 10
0.0
 20
0.0
 30
0.0
  3
*D17
  1

  0
LINE
  5
1C9
330
1C6
100
AcDbEntity
  8
0
100
AcDbLine
 10
441.33333333333337
 20
345.2
 30
0.0
 11
441.33333333333337
 21
337.0
 31
0.0
  0
LINE
  5
1CA
330
1C6
100
AcDbEntity
  8
0
100
AcDbLine
 10
445.33333333333337
 20
345.2
 30
0.0
 11
445.33333333333337
 21
337.0
 31
0.0
  0
INSERT
  5
1CB
330
1C6
100
AcDbEntity
  8
COTAS
100
AcDbBlockReference
  2
_ARCHTICK
 10
441.33333333333337
 20
338.0
 30
0.0
 41
1.8
 42
1.8
  0
INSERT
  5
1CD
330
1C6
100
AcDbEntity
  8
COTAS
100
AcDbBlockReference
  2
_ARCHTICK
 10
445.33333333333337
 20
338.0
 30
0.0
 41
1.8
 42
1.8
 50
180.0
  0
LINE
  5
1CF
330
1C6
100
AcDbEntity
  8
0
100
AcDbLine
 10
441.33333333333337
 20
338.0
 30
0.0
 11
445.33333333333337
 21
338.0
 31
0.0
  0
MTEXT
  5
1D0
330
1C6
100
AcDbEntity
  8
COTAS
 62
3
100
AcDbMText
 10
443.33333333333337
 20
340.7
 30
0.0
 40
2.2
 71
5
  1
0.30
  7
OpenSansCondensed-Light
  0
POINT
  5
1D1
330
1C6
100
AcDbEntity
  8
Defpoints
100
AcDbPoint
 10
441.33333333333337
 20
338.0
 30
0.0
  0
POINT
  5
1D2
330
1C6
100
AcDbEntity
  8
Defpoints
100
AcDbPoint
 10
441.33333333333337
 20
346.0
 30
0.0
  0
POINT
  5
1D3
330
1C6
100
AcDbEntity
  8
Defpoints
100
AcDbPoint
 10
445.33333333333337
 20
346.0
 30
0.0
  0
ENDBLK
  5
1C8
330
1C6
100
AcDbEntity
  8
0
100
AcDbBlockEnd
  0
BLOCK
  5
1D6
330
1D5
100
AcDbEntity
  8
0
100
AcDbBlockBegin
  2
*D18
 70
1
 10
0.0
 20
0.0
 30
0.0
  3
*D18
  1

  0
LINE
  5
1D8
330
1D5
100
AcDbEntity
  8
0
100
AcDbLine
 10
445.33333333333337
 20
345.2
 30
0.0
 11
445.33333333333337
 21
337.0
 31
0.0
  0
LINE
  5
1D9
330
1D5
100
AcDbEntity
  8
0
100
AcDbLine
 10
457.3333333333333
 20
345.2
 30
0.0
 11
457.3333333333333
 21
337.0
 31
0.0
  0
INSERT
  5
1DA
330
1D5
100
AcDbEntity
  8
COTAS
100
AcDbBlockReference
  2
_ARCHTICK
 10
445.33333333333337
 20
338.0
 30
0.0
 41
1.8
 42
1.8
 50
180.0
  0
INSERT
  5
1DC
330
1D5
100
AcDbEntity
  8
COTAS
100
AcDbBlockReference
  2
_ARCHTICK
 10
457.3333333333333
 20
338.0
 30
0.0
 41
1.8
 42
1.8
  0
LINE
  5
1DE
330
1D5
100
AcDbEntity
  8
0
100
AcDbLine
 10
445.33333333333337
 20
338.0
 30
0.0
 11
457.3333333333333
 21
338.0
 31
0.0
  0
MTEXT
  5
1DF
330
1D5
100
AcDbEntity
  8
COTAS
 62
3
100
AcDbMText
 10
451.33333333333337
 20
339.7
 30
0.0
 40
2.2
 71
5
  1
0.90
  7
OpenSansCondensed-Light
  0
POINT
  5
1E0
330
1D5
100
AcDbEntity
  8
Defpoints
100
AcDbPoint
 10
445.33333333333337
 20
338.0
 30
0.0
  0
POINT
  5
1E1
330
1D5
100
AcDbEntity
  8
Defpoints
100
AcDbPoint
 10
445.33333333333337
 20
346.0
 30
0.0
  0
POINT
  5
1E2
330
1D5
100
AcDbEntity
  8
Defpoints
100
AcDbPoint
 10
457.3333333333333
 20
346.0
 30
0.0
  0
ENDBLK
  5
1D7
330
1D5
100
AcDbEntity
  8
0
100
AcDbBlockEnd
  0
BLOCK
  5
1E5
330
1E4
100
AcDbEntity
  8
0
100
AcDbBlockBegin
  2
*D19
 70
1
 10
0.0
 20
0.0
 30
0.0
  3
*D19
  1

  0
LINE
  5
1E7
330
1E4
100
AcDbEntity
  8
0
100
AcDbLine
 10
457.3333333333333
 20
345.2
 30
0.0
 11
457.3333333333333
 21
337.0
 31
0.0
  0
LINE
  5
1E8
330
1E4
100
AcDbEntity
  8
0
100
AcDbLine
 10
465.33333333333337
 20
345.2
 30
0.0
 11
465.33333333333337
 21
337.0
 31
0.0
  0
INSERT
  5
1E9
330
1E4
100
AcDbEntity
  8
COTAS
100
AcDbBlockReference
  2
_ARCHTICK
 10
457.3333333333333
 20
338.0
 30
0.0
 41
1.8
 42
1.8
 50
180.0
  0
INSERT
  5
1EB
330
1E4
100
AcDbEntity
  8
COTAS
100
AcDbBlockReference
  2
_ARCHTICK
 10
465.33333333333337
 20
338.0
 30
0.0
 41
1.8
 42
1.8
  0
LINE
  5
1ED
330
1E4
100
AcDbEntity
  8
0
100
AcDbLine
 10
457.3333333333333
 20
338.0
 30
0.0
 11
465.33333333333337
 21
338.0
 31
0.0
  0
MTEXT
  5
1EE
330
1E4
100
AcDbEntity
  8
COTAS
 62
3
100
AcDbMText
 10
461.33333333333337
 20
340.7
 30
0.0
 40
2.2
 71
5
  1
0.60
  7
OpenSansCondensed-Light
  0
POINT
  5
1EF
330
1E4
100
AcDbEntity
  8
Defpoints
100
AcDbPoint
 10
457.3333333333333
 20
338.0
 30
0.0
  0
POINT
  5
1F0
330
1E4
100
AcDbEntity
  8
Defpoints
100
AcDbPoint
 10
457.3333333333333
 20
346.0
 30
0.0
  0
POINT
  5
1F1
330
1E4
100
AcDbEntity
  8
Defpoints
100
AcDbPoint
 10
465.33333333333337
 20
346.0
 30
0.0
  0
ENDBLK
  5
1E6
330
1E4
100
AcDbEntity
  8
0
100
AcDbBlockEnd
  0
BLOCK
  5
1F4
330
1F3
100
AcDbEntity
  8
0
100
AcDbBlockBegin
  2
*D20
 70
1
 10
0.0
 20
0.0
 30
0.0
  3
*D20
  1

  0
LINE
  5
1F6
330
1F3
100
AcDbEntity
  8
0
100
AcDbLine
 10
380.0
 20
345.2
 30
0.0
 11
380.0
 21
329.0
 31
0.0
  0
LINE
  5
1F7
330
1F3
100
AcDbEntity
  8
0
100
AcDbLine
 10
465.33333333333337
 20
345.2
 30
0.0
 11
465.33333333333337
 21
329.0
 31
0.0
  0
INSERT
  5
1F8
330
1F3
100
AcDbEntity
  8
COTAS
100
AcDbBlockReference
  2
_ARCHTICK
 10
380.0
 20
330.0
 30
0.0
 41
1.8
 42
1.8
 50
180.0
  0
INSERT
  5
1FA
330
1F3
100
AcDbEntity
  8
COTAS
100
AcDbBlockReference
  2
_ARCHTICK
 10
465.33333333333337
 20
330.0
 30
0.0
 41
1.8
 42
1.8
  0
LINE
  5
1FC
330
1F3
100
AcDbEntity
  8
0
100
AcDbLine
 10
380.0
 20
330.0
 30
0.0
 11
465.33333333333337
 21
330.0
 31
0.0
  0
MTEXT
  5
1FD
330
1F3
100
AcDbEntity
  8
COTAS
 62
3
100
AcDbMText
 10
422.6666666666667
 20
331.7
 30
0.0
 40
2.2
 71
5
  1
6.40
  7
OpenSansCondensed-Light
  0
POINT
  5
1FE
330
1F3
100
AcDbEntity
  8
Defpoints
100
AcDbPoint
 10
380.0
 20
330.0
 30
0.0
  0
POINT
  5
1FF
330
1F3
100
AcDbEntity
  8
Defpoints
100
AcDbPoint
 10
380.0
 20
346.0
 30
0.0
  0
POINT
  5
200
330
1F3
100
AcDbEntity
  8
Defpoints
100
AcDbPoint
 10
465.33333333333337
 20
346.0
 30
0.0
  0
ENDBLK
  5
1F5
330
1F3
100
AcDbEntity
  8
0
100
AcDbBlockEnd
  0
BLOCK
  5
203
330
202
100
AcDbEntity
  8
0
100
AcDbBlockBegin
  2
*D21
 70
1
 10
0.0
 20
0.0
 30
0.0
  3
*D21
  1

  0
LINE
  5
205
330
202
100
AcDbEntity
  8
0
100
AcDbLine
 10
499.4666666666667
 20
346.0
 30
0.0
 11
507.6666666666667
 21
346.0
 31
0.0
  0
LINE
  5
206
330
202
100
AcDbEntity
  8
0
100
AcDbLine
 10
499.4666666666667
 20
456.6666666666667
 30
0.0
 11
507.6666666666667
 21
456.6666666666667
 31
0.0
  0
INSERT
  5
207
330
202
100
AcDbEntity
  8
COTAS
100
AcDbBlockReference
  2
_ARCHTICK
 10
506.6666666666667
 20
346.0
 30
0.0
 41
1.8
 42
1.8
 50
270.0
  0
INSERT
  5
209
330
202
100
AcDbEntity
  8
COTAS
100
AcDbBlockReference
  2
_ARCHTICK
 10
506.6666666666667
 20
456.6666666666667
 30
0.0
 41
1.8
 42
1.8
 50
90.0
  0
LINE
  5
20B
330
202
100
AcDbEntity
  8
0
100
AcDbLine
 10
506.6666666666667
 20
346.0
 30
0.0
 11
506.6666666666667
 21
456.6666666666667
 31
0.0
  0
MTEXT
  5
20C
330
202
100
AcDbEntity
  8
COTAS
 62
3
100
AcDbMText
 10
504.9666666666667
 20
401.33333333333337
 30
0.0
 40
2.2
 71
5
  1
8.30
  7
OpenSansCondensed-Light
 50
90.0
  0
POINT
  5
20D
330
202
100
AcDbEntity
  8
Defpoints
100
AcDbPoint
 10
506.6666666666667
 20
346.0
 30
0.0
  0
POINT
  5
20E
330
202
100
AcDbEntity
  8
Defpoints
100
AcDbPoint
 10
498.6666666666667
 20
346.0
 30
0.0
  0
POINT
  5
20F
330
202
100
AcDbEntity
  8
Defpoints
100
AcDbPoint
 10
498.6666666666667
 20
456.6666666666667
 30
0.0
  0
ENDBLK
  5
204
330
202
100
AcDbEntity
  8
0
100
AcDbBlockEnd
  0
BLOCK
  5
212
330
211
100
AcDbEntity
  8
0
100
AcDbBlockBegin
  2
*D22
 70
1
 10
0.0
 20
0.0
 30
0.0
  3
*D22
  1

  0
LINE
  5
214
330
211
100
AcDbEntity
  8
0
100
AcDbLine
 10
499.4666666666667
 20
456.6666666666667
 30
0.0
 11
507.6666666666667
 21
456.6666666666667
 31
0.0
  0
LINE
  5
215
330
211
100
AcDbEntity
  8
0
100
AcDbLine
 10
499.4666666666667
 20
503.33333333333337
 30
0.0
 11
507.6666666666667
 21
503.33333333333337
 31
0.0
  0
INSERT
  5
216
330
211
100
AcDbEntity
  8
COTAS
100
AcDbBlockReference
  2
_ARCHTICK
 10
506.6666666666667
 20
456.6666666666667
 30
0.0
 41
1.8
 42
1.8
 50
270.0
  0
INSERT
  5
218
330
211
100
AcDbEntity
  8
COTAS
100
AcDbBlockReference
  2
_ARCHTICK
 10
506.6666666666667
 20
503.33333333333337
 30
0.0
 41
1.8
 42
1.8
 50
90.0
  0
LINE
  5
21A
330
211
100
AcDbEntity
  8
0
100
AcDbLine
 10
506.6666666666667
 20
456.6666666666667
 30
0.0
 11
506.6666666666667
 21
503.33333333333337
 31
0.0
  0
MTEXT
  5
21B
330
211
100
AcDbEntity
  8
COTAS
 62
3
100
AcDbMText
 10
504.9666666666667
 20
480.0
 30
0.0
 40
2.2
 71
5
  1
3.50
  7
OpenSansCondensed-Light
 50
90.0
  0
POINT
  5
21C
330
211
100
AcDbEntity
  8
Defpoints
100
AcDbPoint
 10
506.6666666666667
 20
456.6666666666667
 30
0.0
  0
POINT
  5
21D
330
211
100
AcDbEntity
  8
Defpoints
100
AcDbPoint
 10
498.6666666666667
 20
456.6666666666667
 30
0.0
  0
POINT
  5
21E
330
211
100
AcDbEntity
  8
Defpoints
100
AcDbPoint
 10
498.6666666666667
 20
503.33333333333337
 30
0.0
  0
ENDBLK
  5
213
330
211
100
AcDbEntity
  8
0
100
AcDbBlockEnd
  0
BLOCK
  5
221
330
220
100
AcDbEntity
  8
0
100
AcDbBlockBegin
  2
*D23
 70
1
 10
0.0
 20
0.0
 30
0.0
  3
*D23
  1

  0
LINE
  5
223
330
220
100
AcDbEntity
  8
0
100
AcDbLine
 10
499.4666666666667
 20
503.33333333333337
 30
0.0
 11
507.6666666666667
 21
503.33333333333337
 31
0.0
  0
LINE
  5
224
330
220
100
AcDbEntity
  8
0
100
AcDbLine
 10
499.4666666666667
 20
563.3333333333334
 30
0.0
 11
507.6666666666667
 21
563.3333333333334
 31
0.0
  0
INSERT
  5
225
330
220
100
AcDbEntity
  8
COTAS
100
AcDbBlockReference
  2
_ARCHTICK
 10
506.6666666666667
 20
503.33333333333337
 30
0.0
 41
1.8
 42
1.8
 50
270.0
  0
INSERT
  5
227
330
220
100
AcDbEntity
  8
COTAS
100
AcDbBlockReference
  2
_ARCHTICK
 10
506.6666666666667
 20
563.3333333333334
 30
0.0
 41
1.8
 42
1.8
 50
90.0
  0
LINE
  5
229
330
220
100
AcDbEntity
  8
0
100
AcDbLine
 10
506.6666666666667
 20
503.33333333333337
 30
0.0
 11
506.6666666666667
 21
563.3333333333334
 31
0.0
  0
MTEXT
  5
22A
330
220
100
AcDbEntity
  8
COTAS
 62
3
100
AcDbMText
 10
504.9666666666667
 20
533.3333333333334
 30
0.0
 40
2.2
 71
5
  1
4.50
  7
OpenSansCondensed-Light
 50
90.0
  0
POINT
  5
22B
330
220
100
AcDbEntity
  8
Defpoints
100
AcDbPoint
 10
506.6666666666667
 20
503.33333333333337
 30
0.0
  0
POINT
  5
22C
330
220
100
AcDbEntity
  8
Defpoints
100
AcDbPoint
 10
498.6666666666667
 20
503.33333333333337
 30
0.0
  0
POINT
  5
22D
330
220
100
AcDbEntity
  8
Defpoints
100
AcDbPoint
 10
498.6666666666667
 20
563.3333333333334
 30
0.0
  0
ENDBLK
  5
222
330
220
100
AcDbEntity
  8
0
100
AcDbBlockEnd
  0
BLOCK
  5
230
330
22F
100
AcDbEntity
  8
0
100
AcDbBlockBegin
  2
*D24
 70
1
 10
0.0
 20
0.0
 30
0.0
  3
*D24
  1

  0
LINE
  5
232
330
22F
100
AcDbEntity
  8
0
100
AcDbLine
 10
499.4666666666667
 20
346.0
 30
0.0
 11
515.6666666666667
 21
346.0
 31
0.0
  0
LINE
  5
233
330
22F
100
AcDbEntity
  8
0
100
AcDbLine
 10
499.4666666666667
 20
563.3333333333334
 30
0.0
 11
515.6666666666667
 21
563.3333333333334
 31
0.0
  0
INSERT
  5
234
330
22F
100
AcDbEntity
  8
COTAS
100
AcDbBlockReference
  2
_ARCHTICK
 10
514.6666666666667
 20
346.0
 30
0.0
 41
1.8
 42
1.8
 50
270.0
  0
INSERT
  5
236
330
22F
100
AcDbEntity
  8
COTAS
100
AcDbBlockReference
  2
_ARCHTICK
 10
514.6666666666667
 20
563.3333333333334
 30
0.0
 41
1.8
 42
1.8
 50
90.0
  0
LINE
  5
238
330
22F
100
AcDbEntity
  8
0
100
AcDbLine
 10
514.6666666666667
 20
346.0
 30
0.0
 11
514.6666666666667
 21
563.3333333333334
 31
0.0
  0
MTEXT
  5
239
330
22F
100
AcDbEntity
  8
COTAS
 62
3
100
AcDbMText
 10
512.9666666666667
 20
454.6666666666667
 30
0.0
 40
2.2
 71
5
  1
16.30
  7
OpenSansCondensed-Light
 50
90.0
  0
POINT
  5
23A
330
22F
100
AcDbEntity
  8
Defpoints
100
AcDbPoint
 10
514.6666666666667
 20
346.0
 30
0.0
  0
POINT
  5
23B
330
22F
100
AcDbEntity
  8
Defpoints
100
AcDbPoint
 10
498.6666666666667
 20
346.0
 30
0.0
  0
POINT
  5
23C
330
22F
100
AcDbEntity
  8
Defpoints
100
AcDbPoint
 10
498.6666666666667
 20
563.3333333333334
 30
0.0
  0
ENDBLK
  5
231
330
22F
100
AcDbEntity
  8
0
100
AcDbBlockEnd
  0
BLOCK
  5
23F
330
23E
100
AcDbEntity
  8
0
100
AcDbBlockBegin
  2
*D25
 70
1
 10
0.0
 20
0.0
 30
0.0
  3
*D25
  1

  0
LINE
  5
241
330
23E
100
AcDbEntity
  8
0
100
AcDbLine
 10
465.33333333333337
 20
504.1333333333334
 30
0.0
 11
465.33333333333337
 21
512.3333333333334
 31
0.0
  0
LINE
  5
242
330
23E
100
AcDbEntity
  8
0
100
AcDbLine
 10
498.6666666666667
 20
504.1333333333334
 30
0.0
 11
498.6666666666667
 21
512.3333333333334
 31
0.0
  0
INSERT
  5
243
330
23E
100
AcDbEntity
  8
COTAS
100
AcDbBlockReference
  2
_ARCHTICK
 10
465.33333333333337
 20
511.33333333333337
 30
0.0
 41
1.8
 42
1.8
 50
180.0
  0
INSERT
  5
245
330
23E
100
AcDbEntity
  8
COTAS
100
AcDbBlockReference
  2
_ARCHTICK
 10
498.6666666666667
 20
511.33333333333337
 30
0.0
 41
1.8
 42
1.8
  0
LINE
  5
247
330
23E
100
AcDbEntity
  8
0
100
AcDbLine
 10
465.33333333333337
 20
511.33333333333337
 30
0.0
 11
498.6666666666667
 21
511.33333333333337
 31
0.0
  0
MTEXT
  5
248
330
23E
100
AcDbEntity
  8
COTAS
 62
3
100
AcDbMText
 10
482.0
 20
513.0333333333334
 30
0.0
 40
2.2
 71
5
  1
2.50
  7
OpenSansCondensed-Light
  0
POINT
  5
249
330
23E
100
AcDbEntity
  8
Defpoints
100
AcDbPoint
 10
465.33333333333337
 20
511.33333333333337
 30
0.0
  0
POINT
  5
24A
330
23E
100
AcDbEntity
  8
Defpoints
100
AcDbPoint
 10
465.33333333333337
 20
503.33333333333337
 30
0.0
  0
POINT
  5
24B
330
23E
100
AcDbEntity
  8
Defpoints
100
AcDbPoint
 10
498.6666666666667
 20
503.33333333333337
 30
0.0
  0
ENDBLK
  5
240
330
23E
100
AcDbEntity
  8
0
100
AcDbBlockEnd
  0
BLOCK
  5
24E
330
24D
100
AcDbEntity
  8
0
100
AcDbBlockBegin
  2
*D26
 70
1
 10
0.0
 20
0.0
 30
0.0
  3
*D26
  1

  0
LINE
  5
250
330
24D
100
AcDbEntity
  8
0
100
AcDbLine
 10
338.0
 20
564.1333333333333
 30
0.0
 11
338.0
 21
572.3333333333334
 31
0.0
  0
LINE
  5
251
330
24D
100
AcDbEntity
  8
0
100
AcDbLine
 10
465.33333333333337
 20
564.1333333333333
 30
0.0
 11
465.33333333333337
 21
572.3333333333334
 31
0.0
  0
INSERT
  5
252
330
24D
100
AcDbEntity
  8
COTAS
100
AcDbBlockReference
  2
_ARCHTICK
 10
338.0
 20
571.3333333333334
 30
0.0
 41
1.8
 42
1.8
 50
180.0
  0
INSERT
  5
254
330
24D
100
AcDbEntity
  8
COTAS
100
AcDbBlockReference
  2
_ARCHTICK
 10
465.33333333333337
 20
571.3333333333334
 30
0.0
 41
1.8
 42
1.8
  0
LINE
  5
256
330
24D
100
AcDbEntity
  8
0
100
AcDbLine
 10
338.0
 20
571.3333333333334
 30
0.0
 11
465.33333333333337
 21
571.3333333333334
 31
0.0
  0
MTEXT
  5
257
330
24D
100
AcDbEntity
  8
COTAS
 62
3
100
AcDbMText
 10
401.6666666666667
 20
573.0333333333334
 30
0.0
 40
2.2
 71
5
  1
9.55
  7
OpenSansCondensed-Light
  0
POINT
  5
258
330
24D
100
AcDbEntity
  8
Defpoints
100
AcDbPoint
 10
338.0
 20
571.3333333333334
 30
0.0
  0
POINT
  5
259
330
24D
100
AcDbEntity
  8
Defpoints
100
AcDbPoint
 10
338.0
 20
563.3333333333334
 30
0.0
  0
POINT
  5
25A
330
24D
100
AcDbEntity
  8
Defpoints
100
AcDbPoint
 10
465.33333333333337
 20
563.3333333333334
 30
0.0
  0
ENDBLK
  5
24F
330
24D
100
AcDbEntity
  8
0
100
AcDbBlockEnd
  0
BLOCK
  5
25D
330
25C
100
AcDbEntity
  8
0
100
AcDbBlockBegin
  2
*D27
 70
1
 10
0.0
 20
0.0
 30
0.0
  3
*D27
  1

  0
LINE
  5
25F
330
25C
100
AcDbEntity
  8
0
100
AcDbLine
 10
337.2
 20
443.6
 30
0.0
 11
329.0
 21
443.6
 31
0.0
  0
LINE
  5
260
330
25C
100
AcDbEntity
  8
0
100
AcDbLine
 10
337.2
 20
563.3333333333334
 30
0.0
 11
329.0
 21
563.3333333333334
 31
0.0
  0
INSERT
  5
261
330
25C
100
AcDbEntity
  8
COTAS
100
AcDbBlockReference
  2
_ARCHTICK
 10
330.0
 20
443.6
 30
0.0
 41
1.8
 42
1.8
 50
270.0
  0
INSERT
  5
263
330
25C
100
AcDbEntity
  8
COTAS
100
AcDbBlockReference
  2
_ARCHTICK
 10
330.0
 20
563.3333333333334
 30
0.0
 41
1.8
 42
1.8
 50
90.0
  0
LINE
  5
265
330
25C
100
AcDbEntity
  8
0
100
AcDbLine
 10
330.0
 20
443.6
 30
0.0
 11
330.0
 21
563.3333333333334
 31
0.0
  0
MTEXT
  5
266
330
25C
100
AcDbEntity
  8
COTAS
 62
3
100
AcDbMText
 10
328.3
 20
503.4666666666667
 30
0.0
 40
2.2
 71
5
  1
8.98
  7
OpenSansCondensed-Light
 50
90.0
  0
POINT
  5
267
330
25C
100
AcDbEntity
  8
Defpoints
100
AcDbPoint
 10
330.0
 20
443.6
 30
0.0
  0
POINT
  5
268
330
25C
100
AcDbEntity
  8
Defpoints
100
AcDbPoint
 10
338.0
 20
443.6
 30
0.0
  0
POINT
  5
269
330
25C
100
AcDbEntity
  8
Defpoints
100
AcDbPoint
 10
338.0
 20
563.3333333333334
 30
0.0
  0
ENDBLK
  5
25E
330
25C
100
AcDbEntity
  8
0
100
AcDbBlockEnd
  0
BLOCK
  5
26C
330
26B
100
AcDbEntity
  8
0
100
AcDbBlockBegin
  2
*D28
 70
1
 10
0.0
 20
0.0
 30
0.0
  3
*D28
  1

  0
LINE
  5
26E
330
26B
100
AcDbEntity
  8
0
100
AcDbLine
 10
376.26666666666665
 20
442.8
 30
0.0
 11
376.26666666666665
 21
434.6
 31
0.0
  0
LINE
  5
26F
330
26B
100
AcDbEntity
  8
0
100
AcDbLine
 10
465.33333333333337
 20
442.8
 30
0.0
 11
465.33333333333337
 21
434.6
 31
0.0
  0
INSERT
  5
270
330
26B
100
AcDbEntity
  8
COTAS
100
AcDbBlockReference
  2
_ARCHTICK
 10
376.26666666666665
 20
435.6
 30
0.0
 41
1.8
 42
1.8
 50
180.0
  0
INSERT
  5
272
330
26B
100
AcDbEntity
  8
COTAS
100
AcDbBlockReference
  2
_ARCHTICK
 10
465.33333333333337
 20
435.6
 30
0.0
 41
1.8
 42
1.8
  0
LINE
  5
274
330
26B
100
AcDbEntity
  8
0
100
AcDbLine
 10
376.26666666666665
 20
435.6
 30
0.0
 11
465.33333333333337
 21
435.6
 31
0.0
  0
MTEXT
  5
275
330
26B
100
AcDbEntity
  8
COTAS
 62
3
100
AcDbMText
 10
420.8
 20
437.3
 30
0.0
 40
2.2
 71
5
  1
6.68
  7
OpenSansCondensed-Light
  0
POINT
  5
276
330
26B
100
AcDbEntity
  8
Defpoints
100
AcDbPoint
 10
376.26666666666665
 20
435.6
 30
0.0
  0
POINT
  5
277
330
26B
100
AcDbEntity
  8
Defpoints
100
AcDbPoint
 10
376.26666666666665
 20
443.6
 30
0.0
  0
POINT
  5
278
330
26B
100
AcDbEntity
  8
Defpoints
100
AcDbPoint
 10
465.33333333333337
 20
443.6
 30
0.0
  0
ENDBLK
  5
26D
330
26B
100
AcDbEntity
  8
0
100
AcDbBlockEnd
  0
BLOCK
  5
295
330
294
100
AcDbEntity
  8
0
100
AcDbBlockBegin
  2
*D29
 70
1
 10
0.0
 20
0.0
 30
0.0
  3
*D29
  1

  0
LINE
  5
297
330
294
100
AcDbEntity
  8
0
100
AcDbLine
 10
602.5333333333333
 20
329.99
 30
0.0
 11
594.3333333333333
 21
329.99
 31
0.0
  0
LINE
  5
298
330
294
100
AcDbEntity
  8
0
100
AcDbLine
 10
602.5333333333333
 20
337.99
 30
0.0
 11
594.3333333333333
 21
337.99
 31
0.0
  0
INSERT
  5
299
330
294
100
AcDbEntity
  8
COTAS
100
AcDbBlockReference
  2
_ARCHTICK
 10
595.3333333333333
 20
329.99
 30
0.0
 41
1.8
 42
1.8
 50
270.0
  0
INSERT
  5
29B
330
294
100
AcDbEntity
  8
COTAS
100
AcDbBlockReference
  2
_ARCHTICK
 10
595.3333333333333
 20
337.99
 30
0.0
 41
1.8
 42
1.8
 50
90.0
  0
LINE
  5
29D
330
294
100
AcDbEntity
  8
0
100
AcDbLine
 10
595.3333333333333
 20
329.99
 30
0.0
 11
595.3333333333333
 21
337.99
 31
0.0
  0
MTEXT
  5
29E
330
294
100
AcDbEntity
  8
COTAS
 62
3
100
AcDbMText
 10
592.6333333333332
 20
333.99
 30
0.0
 40
2.2
 71
5
  1
0.60
  7
OpenSansCondensed-Light
 50
90.0
  0
POINT
  5
29F
330
294
100
AcDbEntity
  8
Defpoints
100
AcDbPoint
 10
595.3333333333333
 20
329.99
 30
0.0
  0
POINT
  5
2A0
330
294
100
AcDbEntity
  8
Defpoints
100
AcDbPoint
 10
603.3333333333333
 20
329.99
 30
0.0
  0
POINT
  5
2A1
330
294
100
AcDbEntity
  8
Defpoints
100
AcDbPoint
 10
603.3333333333333
 20
337.99
 30
0.0
  0
ENDBLK
  5
296
330
294
100
AcDbEntity
  8
0
100
AcDbBlockEnd
  0
BLOCK
  5
2A4
330
2A3
100
AcDbEntity
  8
0
100
AcDbBlockBegin
  2
*D30
 70
1
 10
0.0
 20
0.0
 30
0.0
  3
*D30
  1

  0
LINE
  5
2A6
330
2A3
100
AcDbEntity
  8
0
100
AcDbLine
 10
602.5333333333333
 20
337.99
 30
0.0
 11
594.3333333333333
 21
337.99
 31
0.0
  0
LINE
  5
2A7
330
2A3
100
AcDbEntity
  8
0
100
AcDbLine
 10
602.5333333333333
 20
378.12333333333333
 30
0.0
 11
594.3333333333333
 21
378.12333333333333
 31
0.0
  0
INSERT
  5
2A8
330
2A3
100
AcDbEntity
  8
COTAS
100
AcDbBlockReference
  2
_ARCHTICK
 10
595.3333333333333
 20
337.99
 30
0.0
 41
1.8
 42
1.8
 50
270.0
  0
INSERT
  5
2AA
330
2A3
100
AcDbEntity
  8
COTAS
100
AcDbBlockReference
  2
_ARCHTICK
 10
595.3333333333333
 20
378.12333333333333
 30
0.0
 41
1.8
 42
1.8
 50
90.0
  0
LINE
  5
2AC
330
2A3
100
AcDbEntity
  8
0
100
AcDbLine
 10
595.3333333333333
 20
337.99
 30
0.0
 11
595.3333333333333
 21
378.12333333333333
 31
0.0
  0
MTEXT
  5
2AD
330
2A3
100
AcDbEntity
  8
COTAS
 62
3
100
AcDbMText
 10
593.6333333333332
 20
358.0566666666667
 30
0.0
 40
2.2
 71
5
  1
3.01
  7
OpenSansCondensed-Light
 50
90.0
  0
POINT
  5
2AE
330
2A3
100
AcDbEntity
  8
Defpoints
100
AcDbPoint
 10
595.3333333333333
 20
337.99
 30
0.0
  0
POINT
  5
2AF
330
2A3
100
AcDbEntity
  8
Defpoints
100
AcDbPoint
 10
603.3333333333333
 20
337.99
 30
0.0
  0
POINT
  5
2B0
330
2A3
100
AcDbEntity
  8
Defpoints
100
AcDbPoint
 10
603.3333333333333
 20
378.12333333333333
 30
0.0
  0
ENDBLK
  5
2A5
330
2A3
100
AcDbEntity
  8
0
100
AcDbBlockEnd
  0
BLOCK
  5
2B3
330
2B2
100
AcDbEntity
  8
0
100
AcDbBlockBegin
  2
*D31
 70
1
 10
0.0
 20
0.0
 30
0.0
  3
*D31
  1

  0
LINE
  5
2B5
330
2B2
100
AcDbEntity
  8
0
100
AcDbLine
 10
602.5333333333333
 20
378.12333333333333
 30
0.0
 11
594.3333333333333
 21
378.12333333333333
 31
0.0
  0
LINE
  5
2B6
330
2B2
100
AcDbEntity
  8
0
100
AcDbLine
 10
602.5333333333333
 20
381.4566666666667
 30
0.0
 11
594.3333333333333
 21
381.4566666666667
 31
0.0
  0
INSERT
  5
2B7
330
2B2
100
AcDbEntity
  8
COTAS
100
AcDbBlockReference
  2
_ARCHTICK
 10
595.3333333333333
 20
378.12333333333333
 30
0.0
 41
1.8
 42
1.8
 50
90.0
  0
INSERT
  5
2B9
330
2B2
100
AcDbEntity
  8
COTAS
100
AcDbBlockReference
  2
_ARCHTICK
 10
595.3333333333333
 20
381.4566666666667
 30
0.0
 41
1.8
 42
1.8
 50
270.0
  0
LINE
  5
2BB
330
2B2
100
AcDbEntity
  8
0
100
AcDbLine
 10
595.3333333333333
 20
378.12333333333333
 30
0.0
 11
595.3333333333333
 21
381.4566666666667
 31
0.0
  0
MTEXT
  5
2BC
330
2B2
100
AcDbEntity
  8
COTAS
 62
3
100
AcDbMText
 10
592.6333333333332
 20
379.79
 30
0.0
 40
2.2
 71
5
  1
0.25
  7
OpenSansCondensed-Light
 50
90.0
  0
POINT
  5
2BD
330
2B2
100
AcDbEntity
  8
Defpoints
100
AcDbPoint
 10
595.3333333333333
 20
378.12333333333333
 30
0.0
  0
POINT
  5
2BE
330
2B2
100
AcDbEntity
  8
Defpoints
100
AcDbPoint
 10
603.3333333333333
 20
378.12333333333333
 30
0.0
  0
POINT
  5
2BF
330
2B2
100
AcDbEntity
  8
Defpoints
100
AcDbPoint
 10
603.3333333333333
 20
381.4566666666667
 30
0.0
  0
ENDBLK
  5
2B4
330
2B2
100
AcDbEntity
  8
0
100
AcDbBlockEnd
  0
BLOCK
  5
2C2
330
2C1
100
AcDbEntity
  8
0
100
AcDbBlockBegin
  2
*D32
 70
1
 10
0.0
 20
0.0
 30
0.0
  3
*D32
  1

  0
LINE
  5
2C4
330
2C1
100
AcDbEntity
  8
0
100
AcDbLine
 10
602.5333333333333
 20
381.4566666666667
 30
0.0
 11
594.3333333333333
 21
381.4566666666667
 31
0.0
  0
LINE
  5
2C5
330
2C1
100
AcDbEntity
  8
0
100
AcDbLine
 10
602.5333333333333
 20
417.4566666666667
 30
0.0
 11
594.3333333333333
 21
417.4566666666667
 31
0.0
  0
INSERT
  5
2C6
330
2C1
100
AcDbEntity
  8
COTAS
100
AcDbBlockReference
  2
_ARCHTICK
 10
595.3333333333333
 20
381.4566666666667
 30
0.0
 41
1.8
 42
1.8
 50
270.0
  0
INSERT
  5
2C8
330
2C1
100
AcDbEntity
  8
COTAS
100
AcDbBlockReference
  2
_ARCHTICK
 10
595.3333333333333
 20
417.4566666666667
 30
0.0
 41
1.8
 42
1.8
 50
90.0
  0
LINE
  5
2CA
330
2C1
100
AcDbEntity
  8
0
100
AcDbLine
 10
595.3333333333333
 20
381.4566666666667
 30
0.0
 11
595.3333333333333
 21
417.4566666666667
 31
0.0
  0
MTEXT
  5
2CB
330
2C1
100
AcDbEntity
  8
COTAS
 62
3
100
AcDbMText
 10
593.6333333333332
 20
399.4566666666667
 30
0.0
 40
2.2
 71
5
  1
2.70
  7
OpenSansCondensed-Light
 50
90.0
  0
POINT
  5
2CC
330
2C1
100
AcDbEntity
  8
Defpoints
100
AcDbPoint
 10
595.3333333333333
 20
381.4566666666667
 30
0.0
  0
POINT
  5
2CD
330
2C1
100
AcDbEntity
  8
Defpoints
100
AcDbPoint
 10
603.3333333333333
 20
381.4566666666667
 30
0.0
  0
POINT
  5
2CE
330
2C1
100
AcDbEntity
  8
Defpoints
100
AcDbPoint
 10
603.3333333333333
 20
417.4566666666667
 30
0.0
  0
ENDBLK
  5
2C3
330
2C1
100
AcDbEntity
  8
0
100
AcDbBlockEnd
  0
BLOCK
  5
2D1
330
2D0
100
AcDbEntity
  8
0
100
AcDbBlockBegin
  2
*D33
 70
1
 10
0.0
 20
0.0
 30
0.0
  3
*D33
  1

  0
LINE
  5
2D3
330
2D0
100
AcDbEntity
  8
0
100
AcDbLine
 10
602.5333333333333
 20
417.4566666666667
 30
0.0
 11
594.3333333333333
 21
417.4566666666667
 31
0.0
  0
LINE
  5
2D4
330
2D0
100
AcDbEntity
  8
0
100
AcDbLine
 10
602.5333333333333
 20
420.79
 30
0.0
 11
594.3333333333333
 21
420.79
 31
0.0
  0
INSERT
  5
2D5
330
2D0
100
AcDbEntity
  8
COTAS
100
AcDbBlockReference
  2
_ARCHTICK
 10
595.3333333333333
 20
417.4566666666667
 30
0.0
 41
1.8
 42
1.8
 50
90.0
  0
INSERT
  5
2D7
330
2D0
100
AcDbEntity
  8
COTAS
100
AcDbBlockReference
  2
_ARCHTICK
 10
595.3333333333333
 20
420.79
 30
0.0
 41
1.8
 42
1.8
 50
270.0
  0
LINE
  5
2D9
330
2D0
100
AcDbEntity
  8
0
100
AcDbLine
 10
595.3333333333333
 20
417.4566666666667
 30
0.0
 11
595.3333333333333
 21
420.79
 31
0.0
  0
MTEXT
  5
2DA
330
2D0
100
AcDbEntity
  8
COTAS
 62
3
100
AcDbMText
 10
592.6333333333332
 20
419.12333333333333
 30
0.0
 40
2.2
 71
5
  1
0.25
  7
OpenSansCondensed-Light
 50
90.0
  0
POINT
  5
2DB
330
2D0
100
AcDbEntity
  8
Defpoints
100
AcDbPoint
 10
595.3333333333333
 20
417.4566666666667
 30
0.0
  0
POINT
  5
2DC
330
2D0
100
AcDbEntity
  8
Defpoints
100
AcDbPoint
 10
603.3333333333333
 20
417.4566666666667
 30
0.0
  0
POINT
  5
2DD
330
2D0
100
AcDbEntity
  8
Defpoints
100
AcDbPoint
 10
603.3333333333333
 20
420.79
 30
0.0
  0
ENDBLK
  5
2D2
330
2D0
100
AcDbEntity
  8
0
100
AcDbBlockEnd
  0
BLOCK
  5
2E0
330
2DF
100
AcDbEntity
  8
0
100
AcDbBlockBegin
  2
*D34
 70
1
 10
0.0
 20
0.0
 30
0.0
  3
*D34
  1

  0
LINE
  5
2E2
330
2DF
100
AcDbEntity
  8
0
100
AcDbLine
 10
602.5333333333333
 20
420.79
 30
0.0
 11
594.3333333333333
 21
420.79
 31
0.0
  0
LINE
  5
2E3
330
2DF
100
AcDbEntity
  8
0
100
AcDbLine
 10
602.5333333333333
 20
442.12333333333333
 30
0.0
 11
594.3333333333333
 21
442.12333333333333
 31
0.0
  0
INSERT
  5
2E4
330
2DF
100
AcDbEntity
  8
COTAS
100
AcDbBlockReference
  2
_ARCHTICK
 10
595.3333333333333
 20
420.79
 30
0.0
 41
1.8
 42
1.8
 50
270.0
  0
INSERT
  5
2E6
330
2DF
100
AcDbEntity
  8
COTAS
100
AcDbBlockReference
  2
_ARCHTICK
 10
595.3333333333333
 20
442.12333333333333
 30
0.0
 41
1.8
 42
1.8
 50
90.0
  0
LINE
  5
2E8
330
2DF
100
AcDbEntity
  8
0
100
AcDbLine
 10
595.3333333333333
 20
420.79
 30
0.0
 11
595.3333333333333
 21
442.12333333333333
 31
0.0
  0
MTEXT
  5
2E9
330
2DF
100
AcDbEntity
  8
COTAS
 62
3
100
AcDbMText
 10
593.6333333333332
 20
431.4566666666667
 30
0.0
 40
2.2
 71
5
  1
1.60
  7
OpenSansCondensed-Light
 50
90.0
  0
POINT
  5
2EA
330
2DF
100
AcDbEntity
  8
Defpoints
100
AcDbPoint
 10
595.3333333333333
 20
420.79
 30
0.0
  0
POINT
  5
2EB
330
2DF
100
AcDbEntity
  8
Defpoints
100
AcDbPoint
 10
603.3333333333333
 20
420.79
 30
0.0
  0
POINT
  5
2EC
330
2DF
100
AcDbEntity
  8
Defpoints
100
AcDbPoint
 10
603.3333333333333
 20
442.12333333333333
 30
0.0
  0
ENDBLK
  5
2E1
330
2DF
100
AcDbEntity
  8
0
100
AcDbBlockEnd
  0
BLOCK
  5
2EF
330
2EE
100
AcDbEntity
  8
0
100
AcDbBlockBegin
  2
*D35
 70
1
 10
0.0
 20
0.0
 30
0.0
  3
*D35
  1

  0
LINE
  5
2F1
330
2EE
100
AcDbEntity
  8
0
100
AcDbLine
 10
602.5333333333333
 20
329.99
 30
0.0
 11
586.3333333333333
 21
329.99
 31
0.0
  0
LINE
  5
2F2
330
2EE
100
AcDbEntity
  8
0
100
AcDbLine
 10
602.5333333333333
 20
442.12333333333333
 30
0.0
 11
586.3333333333333
 21
442.12333333333333
 31
0.0
  0
INSERT
  5
2F3
330
2EE
100
AcDbEntity
  8
COTAS
100
AcDbBlockReference
  2
_ARCHTICK
 10
587.3333333333333
 20
329.99
 30
0.0
 41
1.8
 42
1.8
 50
270.0
  0
INSERT
  5
2F5
330
2EE
100
AcDbEntity
  8
COTAS
100
AcDbBlockReference
  2
_ARCHTICK
 10
587.3333333333333
 20
442.12333333333333
 30
0.0
 41
1.8
 42
1.8
 50
90.0
  0
LINE
  5
2F7
330
2EE
100
AcDbEntity
  8
0
100
AcDbLine
 10
587.3333333333333
 20
329.99
 30
0.0
 11
587.3333333333333
 21
442.12333333333333
 31
0.0
  0
MTEXT
  5
2F8
330
2EE
100
AcDbEntity
  8
COTAS
 62
3
100
AcDbMText
 10
585.6333333333332
 20
386.0566666666667
 30
0.0
 40
2.2
 71
5
  1
8.41
  7
OpenSansCondensed-Light
 50
90.0
  0
POINT
  5
2F9
330
2EE
100
AcDbEntity
  8
Defpoints
100
AcDbPoint
 10
587.3333333333333
 20
329.99
 30
0.0
  0
POINT
  5
2FA
330
2EE
100
AcDbEntity
  8
Defpoints
100
AcDbPoint
 10
603.3333333333333
 20
329.99
 30
0.0
  0
POINT
  5
2FB
330
2EE
100
AcDbEntity
  8
Defpoints
100
AcDbPoint
 10
603.3333333333333
 20
442.12333333333333
 30
0.0
  0
ENDBLK
  5
2F0
330
2EE
100
AcDbEntity
  8
0
100
AcDbBlockEnd
  0
BLOCK
  5
2FE
330
2FD
100
AcDbEntity
  8
0
100
AcDbBlockBegin
  2
*D36
 70
1
 10
0.0
 20
0.0
 30
0.0
  3
*D36
  1

  0
LINE
  5
300
330
2FD
100
AcDbEntity
  8
0
100
AcDbLine
 10
603.3333333333333
 20
329.19
 30
0.0
 11
603.3333333333333
 21
319.6566666666667
 31
0.0
  0
LINE
  5
301
330
2FD
100
AcDbEntity
  8
0
100
AcDbLine
 10
830.0
 20
329.19
 30
0.0
 11
830.0
 21
319.6566666666667
 31
0.0
  0
INSERT
  5
302
330
2FD
100
AcDbEntity
  8
COTAS
100
AcDbBlockReference
  2
_ARCHTICK
 10
603.3333333333333
 20
320.6566666666667
 30
0.0
 41
1.8
 42
1.8
 50
180.0
  0
INSERT
  5
304
330
2FD
100
AcDbEntity
  8
COTAS
100
AcDbBlockReference
  2
_ARCHTICK
 10
830.0
 20
320.6566666666667
 30
0.0
 41
1.8
 42
1.8
  0
LINE
  5
306
330
2FD
100
AcDbEntity
  8
0
100
AcDbLine
 10
603.3333333333333
 20
320.6566666666667
 30
0.0
 11
830.0
 21
320.6566666666667
 31
0.0
  0
MTEXT
  5
307
330
2FD
100
AcDbEntity
  8
COTAS
 62
3
100
AcDbMText
 10
716.6666666666666
 20
322.3566666666667
 30
0.0
 40
2.2
 71
5
  1
17.00
  7
OpenSansCondensed-Light
  0
POINT
  5
308
330
2FD
100
AcDbEntity
  8
Defpoints
100
AcDbPoint
 10
603.3333333333333
 20
320.6566666666667
 30
0.0
  0
POINT
  5
309
330
2FD
100
AcDbEntity
  8
Defpoints
100
AcDbPoint
 10
603.3333333333333
 20
329.99
 30
0.0
  0
POINT
  5
30A
330
2FD
100
AcDbEntity
  8
Defpoints
100
AcDbPoint
 10
830.0
 20
329.99
 30
0.0
  0
ENDBLK
  5
2FF
330
2FD
100
AcDbEntity
  8
0
100
AcDbBlockEnd
  0
BLOCK
  5
327
330
326
100
AcDbEntity
  8
0
100
AcDbBlockBegin
  2
*D37
 70
1
 10
0.0
 20
0.0
 30
0.0
  3
*D37
  1

  0
LINE
  5
329
330
326
100
AcDbEntity
  8
0
100
AcDbLine
 10
74.23274766515239
 20
43.99
 30
0.0
 11
66.03274766515239
 21
43.99
 31
0.0
  0
LINE
  5
32A
330
326
100
AcDbEntity
  8
0
100
AcDbLine
 10
74.23274766515239
 20
51.99
 30
0.0
 11
66.03274766515239
 21
51.99
 31
0.0
  0
INSERT
  5
32B
330
326
100
AcDbEntity
  8
COTAS
100
AcDbBlockReference
  2
_ARCHTICK
 10
67.03274766515239
 20
43.99
 30
0.0
 41
1.8
 42
1.8
 50
270.0
  0
INSERT
  5
32D
330
326
100
AcDbEntity
  8
COTAS
100
AcDbBlockReference
  2
_ARCHTICK
 10
67.03274766515239
 20
51.99
 30
0.0
 41
1.8
 42
1.8
 50
90.0
  0
LINE
  5
32F
330
326
100
AcDbEntity
  8
0
100
AcDbLine
 10
67.03274766515239
 20
43.99
 30
0.0
 11
67.03274766515239
 21
51.99
 31
0.0
  0
MTEXT
  5
330
330
326
100
AcDbEntity
  8
COTAS
 62
3
100
AcDbMText
 10
64.33274766515238
 20
47.99
 30
0.0
 40
2.2
 71
5
  1
0.60
  7
OpenSansCondensed-Light
 50
90.0
  0
POINT
  5
331
330
326
100
AcDbEntity
  8
Defpoints
100
AcDbPoint
 10
67.03274766515239
 20
43.99
 30
0.0
  0
POINT
  5
332
330
326
100
AcDbEntity
  8
Defpoints
100
AcDbPoint
 10
75.03274766515239
 20
43.99
 30
0.0
  0
POINT
  5
333
330
326
100
AcDbEntity
  8
Defpoints
100
AcDbPoint
 10
75.03274766515239
 20
51.99
 30
0.0
  0
ENDBLK
  5
328
330
326
100
AcDbEntity
  8
0
100
AcDbBlockEnd
  0
BLOCK
  5
336
330
335
100
AcDbEntity
  8
0
100
AcDbBlockBegin
  2
*D38
 70
1
 10
0.0
 20
0.0
 30
0.0
  3
*D38
  1

  0
LINE
  5
338
330
335
100
AcDbEntity
  8
0
100
AcDbLine
 10
74.23274766515239
 20
51.99
 30
0.0
 11
66.03274766515239
 21
51.99
 31
0.0
  0
LINE
  5
339
330
335
100
AcDbEntity
  8
0
100
AcDbLine
 10
74.23274766515239
 20
92.12333333333333
 30
0.0
 11
66.03274766515239
 21
92.12333333333333
 31
0.0
  0
INSERT
  5
33A
330
335
100
AcDbEntity
  8
COTAS
100
AcDbBlockReference
  2
_ARCHTICK
 10
67.03274766515239
 20
51.99
 30
0.0
 41
1.8
 42
1.8
 50
270.0
  0
INSERT
  5
33C
330
335
100
AcDbEntity
  8
COTAS
100
AcDbBlockReference
  2
_ARCHTICK
 10
67.03274766515239
 20
92.12333333333333
 30
0.0
 41
1.8
 42
1.8
 50
90.0
  0
LINE
  5
33E
330
335
100
AcDbEntity
  8
0
100
AcDbLine
 10
67.03274766515239
 20
51.99
 30
0.0
 11
67.03274766515239
 21
92.12333333333333
 31
0.0
  0
MTEXT
  5
33F
330
335
100
AcDbEntity
  8
COTAS
 62
3
100
AcDbMText
 10
65.33274766515238
 20
72.05666666666667
 30
0.0
 40
2.2
 71
5
  1
3.01
  7
OpenSansCondensed-Light
 50
90.0
  0
POINT
  5
340
330
335
100
AcDbEntity
  8
Defpoints
100
AcDbPoint
 10
67.03274766515239
 20
51.99
 30
0.0
  0
POINT
  5
341
330
335
100
AcDbEntity
  8
Defpoints
100
AcDbPoint
 10
75.03274766515239
 20
51.99
 30
0.0
  0
POINT
  5
342
330
335
100
AcDbEntity
  8
Defpoints
100
AcDbPoint
 10
75.03274766515239
 20
92.12333333333333
 30
0.0
  0
ENDBLK
  5
337
330
335
100
AcDbEntity
  8
0
100
AcDbBlockEnd
  0
BLOCK
  5
345
330
344
100
AcDbEntity
  8
0
100
AcDbBlockBegin
  2
*D39
 70
1
 10
0.0
 20
0.0
 30
0.0
  3
*D39
  1

  0
LINE
  5
347
330
344
100
AcDbEntity
  8
0
100
AcDbLine
 10
74.23274766515239
 20
92.12333333333333
 30
0.0
 11
66.03274766515239
 21
92.12333333333333
 31
0.0
  0
LINE
  5
348
330
344
100
AcDbEntity
  8
0
100
AcDbLine
 10
74.23274766515239
 20
95.45666666666668
 30
0.0
 11
66.03274766515239
 21
95.45666666666668
 31
0.0
  0
INSERT
  5
349
330
344
100
AcDbEntity
  8
COTAS
100
AcDbBlockReference
  2
_ARCHTICK
 10
67.03274766515239
 20
92.12333333333333
 30
0.0
 41
1.8
 42
1.8
 50
90.0
  0
INSERT
  5
34B
330
344
100
AcDbEntity
  8
COTAS
100
AcDbBlockReference
  2
_ARCHTICK
 10
67.03274766515239
 20
95.45666666666668
 30
0.0
 41
1.8
 42
1.8
 50
270.0
  0
LINE
  5
34D
330
344
100
AcDbEntity
  8
0
100
AcDbLine
 10
67.03274766515239
 20
92.12333333333333
 30
0.0
 11
67.03274766515239
 21
95.45666666666668
 31
0.0
  0
MTEXT
  5
34E
330
344
100
AcDbEntity
  8
COTAS
 62
3
100
AcDbMText
 10
64.33274766515238
 20
93.79
 30
0.0
 40
2.2
 71
5
  1
0.25
  7
OpenSansCondensed-Light
 50
90.0
  0
POINT
  5
34F
330
344
100
AcDbEntity
  8
Defpoints
100
AcDbPoint
 10
67.03274766515239
 20
92.12333333333333
 30
0.0
  0
POINT
  5
350
330
344
100
AcDbEntity
  8
Defpoints
100
AcDbPoint
 10
75.03274766515239
 20
92.12333333333333
 30
0.0
  0
POINT
  5
351
330
344
100
AcDbEntity
  8
Defpoints
100
AcDbPoint
 10
75.03274766515239
 20
95.45666666666668
 30
0.0
  0
ENDBLK
  5
346
330
344
100
AcDbEntity
  8
0
100
AcDbBlockEnd
  0
BLOCK
  5
354
330
353
100
AcDbEntity
  8
0
100
AcDbBlockBegin
  2
*D40
 70
1
 10
0.0
 20
0.0
 30
0.0
  3
*D40
  1

  0
LINE
  5
356
330
353
100
AcDbEntity
  8
0
100
AcDbLine
 10
74.23274766515239
 20
95.45666666666668
 30
0.0
 11
66.03274766515239
 21
95.45666666666668
 31
0.0
  0
LINE
  5
357
330
353
100
AcDbEntity
  8
0
100
AcDbLine
 10
74.23274766515239
 20
131.45666666666668
 30
0.0
 11
66.03274766515239
 21
131.45666666666668
 31
0.0
  0
INSERT
  5
358
330
353
100
AcDbEntity
  8
COTAS
100
AcDbBlockReference
  2
_ARCHTICK
 10
67.03274766515239
 20
95.45666666666668
 30
0.0
 41
1.8
 42
1.8
 50
270.0
  0
INSERT
  5
35A
330
353
100
AcDbEntity
  8
COTAS
100
AcDbBlockReference
  2
_ARCHTICK
 10
67.03274766515239
 20
131.45666666666668
 30
0.0
 41
1.8
 42
1.8
 50
90.0
  0
LINE
  5
35C
330
353
100
AcDbEntity
  8
0
100
AcDbLine
 10
67.03274766515239
 20
95.45666666666668
 30
0.0
 11
67.03274766515239
 21
131.45666666666668
 31
0.0
  0
MTEXT
  5
35D
330
353
100
AcDbEntity
  8
COTAS
 62
3
100
AcDbMText
 10
65.33274766515238
 20
113.45666666666668
 30
0.0
 40
2.2
 71
5
  1
2.70
  7
OpenSansCondensed-Light
 50
90.0
  0
POINT
  5
35E
330
353
100
AcDbEntity
  8
Defpoints
100
AcDbPoint
 10
67.03274766515239
 20
95.45666666666668
 30
0.0
  0
POINT
  5
35F
330
353
100
AcDbEntity
  8
Defpoints
100
AcDbPoint
 10
75.03274766515239
 20
95.45666666666668
 30
0.0
  0
POINT
  5
360
330
353
100
AcDbEntity
  8
Defpoints
100
AcDbPoint
 10
75.03274766515239
 20
131.45666666666668
 30
0.0
  0
ENDBLK
  5
355
330
353
100
AcDbEntity
  8
0
100
AcDbBlockEnd
  0
BLOCK
  5
363
330
362
100
AcDbEntity
  8
0
100
AcDbBlockBegin
  2
*D41
 70
1
 10
0.0
 20
0.0
 30
0.0
  3
*D41
  1

  0
LINE
  5
365
330
362
100
AcDbEntity
  8
0
100
AcDbLine
 10
74.23274766515239
 20
131.45666666666668
 30
0.0
 11
66.03274766515239
 21
131.45666666666668
 31
0.0
  0
LINE
  5
366
330
362
100
AcDbEntity
  8
0
100
AcDbLine
 10
74.23274766515239
 20
134.79
 30
0.0
 11
66.03274766515239
 21
134.79
 31
0.0
  0
INSERT
  5
367
330
362
100
AcDbEntity
  8
COTAS
100
AcDbBlockReference
  2
_ARCHTICK
 10
67.03274766515239
 20
131.45666666666668
 30
0.0
 41
1.8
 42
1.8
 50
90.0
  0
INSERT
  5
369
330
362
100
AcDbEntity
  8
COTAS
100
AcDbBlockReference
  2
_ARCHTICK
 10
67.03274766515239
 20
134.79
 30
0.0
 41
1.8
 42
1.8
 50
270.0
  0
LINE
  5
36B
330
362
100
AcDbEntity
  8
0
100
AcDbLine
 10
67.03274766515239
 20
131.45666666666668
 30
0.0
 11
67.03274766515239
 21
134.79
 31
0.0
  0
MTEXT
  5
36C
330
362
100
AcDbEntity
  8
COTAS
 62
3
100
AcDbMText
 10
64.33274766515238
 20
133.12333333333333
 30
0.0
 40
2.2
 71
5
  1
0.25
  7
OpenSansCondensed-Light
 50
90.0
  0
POINT
  5
36D
330
362
100
AcDbEntity
  8
Defpoints
100
AcDbPoint
 10
67.03274766515239
 20
131.45666666666668
 30
0.0
  0
POINT
  5
36E
330
362
100
AcDbEntity
  8
Defpoints
100
AcDbPoint
 10
75.03274766515239
 20
131.45666666666668
 30
0.0
  0
POINT
  5
36F
330
362
100
AcDbEntity
  8
Defpoints
100
AcDbPoint
 10
75.03274766515239
 20
134.79
 30
0.0
  0
ENDBLK
  5
364
330
362
100
AcDbEntity
  8
0
100
AcDbBlockEnd
  0
BLOCK
  5
372
330
371
100
AcDbEntity
  8
0
100
AcDbBlockBegin
  2
*D42
 70
1
 10
0.0
 20
0.0
 30
0.0
  3
*D42
  1

  0
LINE
  5
374
330
371
100
AcDbEntity
  8
0
100
AcDbLine
 10
74.23274766515239
 20
134.79
 30
0.0
 11
66.03274766515239
 21
134.79
 31
0.0
  0
LINE
  5
375
330
371
100
AcDbEntity
  8
0
100
AcDbLine
 10
74.23274766515239
 20
156.12333333333333
 30
0.0
 11
66.03274766515239
 21
156.12333333333333
 31
0.0
  0
INSERT
  5
376
330
371
100
AcDbEntity
  8
COTAS
100
AcDbBlockReference
  2
_ARCHTICK
 10
67.03274766515239
 20
134.79
 30
0.0
 41
1.8
 42
1.8
 50
270.0
  0
INSERT
  5
378
330
371
100
AcDbEntity
  8
COTAS
100
AcDbBlockReference
  2
_ARCHTICK
 10
67.03274766515239
 20
156.12333333333333
 30
0.0
 41
1.8
 42
1.8
 50
90.0
  0
LINE
  5
37A
330
371
100
AcDbEntity
  8
0
100
AcDbLine
 10
67.03274766515239
 20
134.79
 30
0.0
 11
67.03274766515239
 21
156.12333333333333
 31
0.0
  0
MTEXT
  5
37B
330
371
100
AcDbEntity
  8
COTAS
 62
3
100
AcDbMText
 10
65.33274766515238
 20
145.45666666666665
 30
0.0
 40
2.2
 71
5
  1
1.60
  7
OpenSansCondensed-Light
 50
90.0
  0
POINT
  5
37C
330
371
100
AcDbEntity
  8
Defpoints
100
AcDbPoint
 10
67.03274766515239
 20
134.79
 30
0.0
  0
POINT
  5
37D
330
371
100
AcDbEntity
  8
Defpoints
100
AcDbPoint
 10
75.03274766515239
 20
134.79
 30
0.0
  0
POINT
  5
37E
330
371
100
AcDbEntity
  8
Defpoints
100
AcDbPoint
 10
75.03274766515239
 20
156.12333333333333
 30
0.0
  0
ENDBLK
  5
373
330
371
100
AcDbEntity
  8
0
100
AcDbBlockEnd
  0
BLOCK
  5
381
330
380
100
AcDbEntity
  8
0
100
AcDbBlockBegin
  2
*D43
 70
1
 10
0.0
 20
0.0
 30
0.0
  3
*D43
  1

  0
LINE
  5
383
330
380
100
AcDbEntity
  8
0
100
AcDbLine
 10
74.23274766515239
 20
43.99
 30
0.0
 11
58.032747665152385
 21
43.99
 31
0.0
  0
LINE
  5
384
330
380
100
AcDbEntity
  8
0
100
AcDbLine
 10
74.23274766515239
 20
156.12333333333333
 30
0.0
 11
58.032747665152385
 21
156.12333333333333
 31
0.0
  0
INSERT
  5
385
330
380
100
AcDbEntity
  8
COTAS
100
AcDbBlockReference
  2
_ARCHTICK
 10
59.032747665152385
 20
43.99
 30
0.0
 41
1.8
 42
1.8
 50
270.0
  0
INSERT
  5
387
330
380
100
AcDbEntity
  8
COTAS
100
AcDbBlockReference
  2
_ARCHTICK
 10
59.032747665152385
 20
156.12333333333333
 30
0.0
 41
1.8
 42
1.8
 50
90.0
  0
LINE
  5
389
330
380
100
AcDbEntity
  8
0
100
AcDbLine
 10
59.032747665152385
 20
43.99
 30
0.0
 11
59.032747665152385
 21
156.12333333333333
 31
0.0
  0
MTEXT
  5
38A
330
380
100
AcDbEntity
  8
COTAS
 62
3
100
AcDbMText
 10
57.33274766515238
 20
100.05666666666667
 30
0.0
 40
2.2
 71
5
  1
8.41
  7
OpenSansCondensed-Light
 50
90.0
  0
POINT
  5
38B
330
380
100
AcDbEntity
  8
Defpoints
100
AcDbPoint
 10
59.032747665152385
 20
43.99
 30
0.0
  0
POINT
  5
38C
330
380
100
AcDbEntity
  8
Defpoints
100
AcDbPoint
 10
75.03274766515239
 20
43.99
 30
0.0
  0
POINT
  5
38D
330
380
100
AcDbEntity
  8
Defpoints
100
AcDbPoint
 10
75.03274766515239
 20
156.12333333333333
 30
0.0
  0
ENDBLK
  5
382
330
380
100
AcDbEntity
  8
0
100
AcDbBlockEnd
  0
BLOCK
  5
390
330
38F
100
AcDbEntity
  8
0
100
AcDbBlockBegin
  2
*D44
 70
1
 10
0.0
 20
0.0
 30
0.0
  3
*D44
  1

  0
LINE
  5
392
330
38F
100
AcDbEntity
  8
0
100
AcDbLine
 10
75.03274766515239
 20
43.190000000000005
 30
0.0
 11
75.03274766515239
 21
33.656666666666666
 31
0.0
  0
LINE
  5
393
330
38F
100
AcDbEntity
  8
0
100
AcDbLine
 10
171.7429
 20
43.190000000000005
 30
0.0
 11
171.7429
 21
33.656666666666666
 31
0.0
  0
INSERT
  5
394
330
38F
100
AcDbEntity
  8
COTAS
100
AcDbBlockReference
  2
_ARCHTICK
 10
75.03274766515239
 20
34.656666666666666
 30
0.0
 41
1.8
 42
1.8
 50
180.0
  0
INSERT
  5
396
330
38F
100
AcDbEntity
  8
COTAS
100
AcDbBlockReference
  2
_ARCHTICK
 10
171.7429
 20
34.656666666666666
 30
0.0
 41
1.8
 42
1.8
  0
LINE
  5
398
330
38F
100
AcDbEntity
  8
0
100
AcDbLine
 10
75.03274766515239
 20
34.656666666666666
 30
0.0
 11
171.7429
 21
34.656666666666666
 31
0.0
  0
MTEXT
  5
399
330
38F
100
AcDbEntity
  8
COTAS
 62
3
100
AcDbMText
 10
123.38782383257619
 20
36.35666666666667
 30
0.0
 40
2.2
 71
5
  1
7.25
  7
OpenSansCondensed-Light
  0
POINT
  5
39A
330
38F
100
AcDbEntity
  8
Defpoints
100
AcDbPoint
 10
75.03274766515239
 20
34.656666666666666
 30
0.0
  0
POINT
  5
39B
330
38F
100
AcDbEntity
  8
Defpoints
100
AcDbPoint
 10
75.03274766515239
 20
43.99
 30
0.0
  0
POINT
  5
39C
330
38F
100
AcDbEntity
  8
Defpoints
100
AcDbPoint
 10
171.7429
 20
43.99
 30
0.0
  0
ENDBLK
  5
391
330
38F
100
AcDbEntity
  8
0
100
AcDbBlockEnd
  0
ENDSEC
  0
SECTION
  2
ENTITIES
  0
LWPOLYLINE
  5
A3
330
17
100
AcDbEntity
  8
MARCO
100
AcDbPolyline
 90
4
 70
1
 10
0.0
 20
0.0
 10
841.0
 20
0.0
 10
841.0
 20
594.0
 10
0.0
 20
594.0
  0
LWPOLYLINE
  5
A4
330
17
100
AcDbEntity
  8
MARCO
100
AcDbPolyline
 90
4
 70
1
 10
8.0
 20
8.0
 10
833.0
 20
8.0
 10
833.0
 20
586.0
 10
8.0
 20
586.0
  0
LWPOLYLINE
  5
A5
330
17
100
AcDbEntity
  8
muros_PB
100
AcDbPolyline
 90
24
 70
1
 10
106.26666666666668
 20
443.6
 10
110.0
 20
346.0
 10
115.33333333333334
 20
346.0
 10
115.33333333333334
 20
351.3333333333333
 10
115.13322639985708
 20
351.3333333333333
 10
111.39989306652375
 20
448.93333333333334
 10
73.33333333333333
 20
448.93333333333334
 10
73.33333333333334
 20
558.0
 10
190.0
 20
558.0
 10
190.0
 20
498.0
 10
223.33333333333337
 20
498.0
 10
223.33333333333334
 20
462.0
 10
190.0
 20
462.0
 10
190.0
 20
351.3333333333333
 10
187.33333333333331
 20
351.3333333333333
 10
187.33333333333331
 20
346.0
 10
195.33333333333334
 20
346.0
 10
195.33333333333334
 20
456.6666666666667
 10
228.66666666666669
 20
456.6666666666667
 10
228.66666666666669
 20
503.33333333333337
 10
195.33333333333334
 20
503.33333333333337
 10
195.33333333333334
 20
563.3333333333334
 10
68.0
 20
563.3333333333334
 10
68.0
 20
443.6
  0
HATCH
  5
A6
330
17
100
AcDbEntity
  8
RAYADO_MURO
 62
7
100
AcDbHatch
 10
0.0
 20
0.0
 30
0.0
210
0.0
220
0.0
230
1.0
  2
ANSI31
 70
0
 71
0
 91
1
 92
3
 72
0
 73
1
 93
24
 10
106.26666666666668
 20
443.6
 10
110.0
 20
346.0
 10
115.33333333333334
 20
346.0
 10
115.33333333333334
 20
351.3333333333333
 10
115.13322639985708
 20
351.3333333333333
 10
111.39989306652375
 20
448.93333333333334
 10
73.33333333333333
 20
448.93333333333334
 10
73.33333333333334
 20
558.0
 10
190.0
 20
558.0
 10
190.0
 20
498.0
 10
223.33333333333337
 20
498.0
 10
223.33333333333334
 20
462.0
 10
190.0
 20
462.0
 10
190.0
 20
351.3333333333333
 10
187.33333333333331
 20
351.3333333333333
 10
187.33333333333331
 20
346.0
 10
195.33333333333334
 20
346.0
 10
195.33333333333334
 20
456.6666666666667
 10
228.66666666666669
 20
456.6666666666667
 10
228.66666666666669
 20
503.33333333333337
 10
195.33333333333334
 20
503.33333333333337
 10
195.33333333333334
 20
563.3333333333334
 10
68.0
 20
563.3333333333334
 10
68.0
 20
443.6
 97
0
 75
1
 76
1
 52
45.0
 41
0.6
 77
0
 78
1
 53
90.0
 43
0.0
 44
0.0
 45
-1.905
 46
0.0
 79
0
 98
0
  0
LWPOLYLINE
  5
A7
330
17
100
AcDbEntity
  8
muros_PB
100
AcDbPolyline
 90
4
 70
1
 10
171.33333333333334
 20
351.3333333333333
 10
171.33333333333334
 20
346.0
 10
175.33333333333334
 20
346.0
 10
175.33333333333334
 20
351.3333333333333
  0
HATCH
  5
A8
330
17
100
AcDbEntity
  8
RAYADO_MURO
 62
7
100
AcDbHatch
 10
0.0
 20
0.0
 30
0.0
210
0.0
220
0.0
230
1.0
  2
ANSI31
 70
0
 71
0
 91
1
 92
3
 72
0
 73
1
 93
4
 10
171.33333333333334
 20
351.3333333333333
 10
171.33333333333334
 20
346.0
 10
175.33333333333334
 20
346.0
 10
175.33333333333334
 20
351.3333333333333
 97
0
 75
1
 76
1
 52
45.0
 41
0.6
 77
0
 78
1
 53
90.0
 43
0.0
 44
0.0
 45
-1.905
 46
0.0
 79
0
 98
0
  0
LWPOLYLINE
  5
A9
330
17
100
AcDbEntity
  8
MURO_CENTRAL
100
AcDbPolyline
 90
4
 70
1
 10
73.33333333333333
 20
448.93333333333334
 10
175.33333333333334
 20
448.93333333333334
 10
175.33333333333334
 20
444.93333333333334
 10
73.33333333333333
 20
444.93333333333334
  0
HATCH
  5
AA
330
17
100
AcDbEntity
  8
RAYADO_MURO_CENTRAL
 62
7
100
AcDbHatch
 10
0.0
 20
0.0
 30
0.0
210
0.0
220
0.0
230
1.0
  2
ANSI37
 70
0
 71
0
 91
1
 92
3
 72
0
 73
1
 93
4
 10
73.33333333333333
 20
448.93333333333334
 10
175.33333333333334
 20
448.93333333333334
 10
175.33333333333334
 20
444.93333333333334
 10
73.33333333333333
 20
444.93333333333334
 97
0
 75
1
 76
1
 52
45.0
 41
0.6
 77
0
 78
2
 53
90.0
 43
0.0
 44
0.0
 45
-1.905
 46
0.0
 79
0
 53
180.0
 43
0.0
 44
0.0
 45
0.0
 46
-1.905
 79
0
 98
0
  0
LWPOLYLINE
  5
AB
330
17
100
AcDbEntity
  8
MURO_CENTRAL
100
AcDbPolyline
 90
4
 70
1
 10
187.33333333333331
 20
448.93333333333334
 10
187.33333333333331
 20
444.93333333333334
 10
190.0
 20
444.93333333333334
 10
190.0
 20
448.93333333333334
  0
HATCH
  5
AC
330
17
100
AcDbEntity
  8
RAYADO_MURO_CENTRAL
 62
7
100
AcDbHatch
 10
0.0
 20
0.0
 30
0.0
210
0.0
220
0.0
230
1.0
  2
ANSI37
 70
0
 71
0
 91
1
 92
3
 72
0
 73
1
 93
4
 10
187.33333333333331
 20
448.93333333333334
 10
187.33333333333331
 20
444.93333333333334
 10
190.0
 20
444.93333333333334
 10
190.0
 20
448.93333333333334
 97
0
 75
1
 76
1
 52
45.0
 41
0.6
 77
0
 78
2
 53
90.0
 43
0.0
 44
0.0
 45
-1.905
 46
0.0
 79
0
 53
180.0
 43
0.0
 44
0.0
 45
0.0
 46
-1.905
 79
0
 98
0
  0
LWPOLYLINE
  5
AD
330
17
100
AcDbEntity
  8
murete_pasillo
100
AcDbPolyline
 90
4
 70
1
 10
171.33333333333334
 20
444.93333333333334
 10
172.66666666666669
 20
444.93333333333334
 10
172.66666666666669
 20
351.3333333333333
 10
171.33333333333334
 20
351.3333333333333
  0
HATCH
  5
AE
330
17
100
AcDbEntity
  8
RAYADO_OTROS
 62
7
100
AcDbHatch
 10
0.0
 20
0.0
 30
0.0
210
0.0
220
0.0
230
1.0
  2
SOLID
 70
1
 71
0
 91
1
 92
3
 72
0
 73
1
 93
4
 10
171.33333333333334
 20
444.93333333333334
 10
172.66666666666669
 20
444.93333333333334
 10
172.66666666666669
 20
351.3333333333333
 10
171.33333333333334
 20
351.3333333333333
 97
0
 75
1
 76
1
 98
0
  0
LINE
  5
AF
330
17
100
AcDbEntity
  8
HUECOS
100
AcDbLine
 10
115.33333333333334
 20
346.0
 30
0.0
 11
115.33333333333334
 21
351.3333333333333
 31
0.0
  0
LINE
  5
B0
330
17
100
AcDbEntity
  8
HUECOS
100
AcDbLine
 10
171.33333333333334
 20
346.0
 30
0.0
 11
171.33333333333334
 21
351.3333333333333
 31
0.0
  0
LINE
  5
B1
330
17
100
AcDbEntity
  8
CARPINTERIA
100
AcDbLine
 10
115.33333333333334
 20
347.6
 30
0.0
 11
171.33333333333334
 21
347.6
 31
0.0
  0
LINE
  5
B2
330
17
100
AcDbEntity
  8
CARPINTERIA
100
AcDbLine
 10
115.33333333333334
 20
348.6666666666667
 30
0.0
 11
171.33333333333334
 21
348.6666666666667
 31
0.0
  0
LINE
  5
B3
330
17
100
AcDbEntity
  8
CARPINTERIA
100
AcDbLine
 10
115.33333333333334
 20
349.73333333333335
 30
0.0
 11
171.33333333333334
 21
349.73333333333335
 31
0.0
  0
LINE
  5
B4
330
17
100
AcDbEntity
  8
HUECOS
100
AcDbLine
 10
175.33333333333334
 20
346.0
 30
0.0
 11
175.33333333333334
 21
351.3333333333333
 31
0.0
  0
LINE
  5
B5
330
17
100
AcDbEntity
  8
HUECOS
100
AcDbLine
 10
187.33333333333331
 20
346.0
 30
0.0
 11
187.33333333333331
 21
351.3333333333333
 31
0.0
  0
LINE
  5
B6
330
17
100
AcDbEntity
  8
CARPINTERIA
100
AcDbLine
 10
187.33333333333331
 20
351.3333333333333
 30
0.0
 11
187.33333333333331
 21
363.3333333333333
 31
0.0
  0
ARC
  5
B7
330
17
100
AcDbEntity
  8
CARPINTERIA
100
AcDbCircle
 10
187.33333333333331
 20
351.3333333333333
 30
0.0
 40
11.999999999999982
100
AcDbArc
 50
90.0
 51
180.0
  0
TEXT
  5
B8
330
17
100
AcDbEntity
  8
TEXTO
100
AcDbText
 10
143.33333333333334
 20
341.3333333333333
 30
0.0
 40
1.8
  1
CRISTALERA DOBLE
 72
1
 11
143.33333333333334
 21
341.3333333333333
 31
0.0
100
AcDbText
 73
2
  0
TEXT
  5
B9
330
17
100
AcDbEntity
  8
TEXTO
100
AcDbText
 10
181.33333333333334
 20
341.3333333333333
 30
0.0
 40
1.8
  1
PUERTA
 72
1
 11
181.33333333333334
 21
341.3333333333333
 31
0.0
100
AcDbText
 73
2
  0
LINE
  5
BA
330
17
100
AcDbEntity
  8
HUECOS
100
AcDbLine
 10
175.33333333333334
 20
444.93333333333334
 30
0.0
 11
175.33333333333334
 21
448.93333333333334
 31
0.0
  0
LINE
  5
BB
330
17
100
AcDbEntity
  8
HUECOS
100
AcDbLine
 10
187.33333333333331
 20
444.93333333333334
 30
0.0
 11
187.33333333333331
 21
448.93333333333334
 31
0.0
  0
TEXT
  5
BC
330
17
100
AcDbEntity
  8
TEXTO
100
AcDbText
 10
138.66666666666669
 20
398.0
 30
0.0
 40
3.0
  1
SALÓN (supuesto)
 72
1
 11
138.66666666666669
 21
398.0
 31
0.0
100
AcDbText
 73
2
  0
TEXT
  5
BD
330
17
100
AcDbEntity
  8
TEXTO
100
AcDbText
 10
138.66666666666669
 20
390.0
 30
0.0
 40
2.0
  1
salón: unos 30 m²
 72
1
 11
138.66666666666669
 21
390.0
 31
0.0
100
AcDbText
 73
2
  0
TEXT
  5
BE
330
17
100
AcDbEntity
  8
TEXTO
100
AcDbText
 10
182.0
 20
398.0
 30
0.0
 40
2.2
  1
PASILLO DE ENTRADA
 50
90.0
 72
1
 11
182.0
 21
398.0
 31
0.0
100
AcDbText
 73
2
  0
TEXT
  5
BF
330
17
100
AcDbEntity
  8
TEXTO
100
AcDbText
 10
172.0
 20
430.0
 30
0.0
 40
1.8
  1
murete bajo
 50
90.0
 72
1
 11
172.0
 21
430.0
 31
0.0
100
AcDbText
 73
2
  0
TEXT
  5
C0
330
17
100
AcDbEntity
  8
TEXTO
100
AcDbText
 10
132.0
 20
504.6666666666667
 30
0.0
 40
3.0
  1
ZONA NORTE: POR DEFINIR
 72
1
 11
132.0
 21
504.6666666666667
 31
0.0
100
AcDbText
 73
2
  0
TEXT
  5
C1
330
17
100
AcDbEntity
  8
TEXTO
100
AcDbText
 10
212.00000000000003
 20
479.33333333333337
 30
0.0
 40
2.0
  1
anexo este
 50
90.0
 72
1
 11
212.00000000000003
 21
479.33333333333337
 31
0.0
100
AcDbText
 73
2
  0
DIMENSION
  5
C2
330
17
100
AcDbEntity
  8
COTAS
100
AcDbDimension
280
0
  2
*D1
  3
EZDXF
 10
110.0
 20
338.0
 30
0.0
 11
112.66666666666667
 21
340.7
 31
0.0
 70
32
 71
5
  1
0.40
100
AcDbAlignedDimension
 13
110.0
 23
346.0
 33
0.0
 14
115.33333333333334
 24
346.0
 34
0.0
 50
0.0
100
AcDbRotatedDimension
1001
ACAD
1000
DSTYLE
1002
{
1070
140
1040
2.2
1070
41
1040
1.8
1070
44
1040
1.0
1070
42
1040
0.8
1070
147
1040
0.6
1070
77
1070
1
1070
178
1070
3
1002
}
  0
DIMENSION
  5
D1
330
17
100
AcDbEntity
  8
COTAS
100
AcDbDimension
280
0
  2
*D2
  3
EZDXF
 10
115.33333333333334
 20
338.0
 30
0.0
 11
143.33333333333334
 21
339.7
 31
0.0
 70
32
 71
5
  1
4.20
100
AcDbAlignedDimension
 13
115.33333333333334
 23
346.0
 33
0.0
 14
171.33333333333334
 24
346.0
 34
0.0
 50
0.0
100
AcDbRotatedDimension
1001
ACAD
1000
DSTYLE
1002
{
1070
140
1040
2.2
1070
41
1040
1.8
1070
44
1040
1.0
1070
42
1040
0.8
1070
147
1040
0.6
1070
77
1070
1
1070
178
1070
3
1002
}
  0
DIMENSION
  5
E0
330
17
100
AcDbEntity
  8
COTAS
100
AcDbDimension
280
0
  2
*D3
  3
EZDXF
 10
171.33333333333334
 20
338.0
 30
0.0
 11
173.33333333333334
 21
340.7
 31
0.0
 70
32
 71
5
  1
0.30
100
AcDbAlignedDimension
 13
171.33333333333334
 23
346.0
 33
0.0
 14
175.33333333333334
 24
346.0
 34
0.0
 50
0.0
100
AcDbRotatedDimension
1001
ACAD
1000
DSTYLE
1002
{
1070
140
1040
2.2
1070
41
1040
1.8
1070
44
1040
1.0
1070
42
1040
0.8
1070
147
1040
0.6
1070
77
1070
1
1070
178
1070
3
1002
}
  0
DIMENSION
  5
EF
330
17
100
AcDbEntity
  8
COTAS
100
AcDbDimension
280
0
  2
*D4
  3
EZDXF
 10
175.33333333333334
 20
338.0
 30
0.0
 11
181.33333333333331
 21
339.7
 31
0.0
 70
32
 71
5
  1
0.90
100
AcDbAlignedDimension
 13
175.33333333333334
 23
346.0
 33
0.0
 14
187.33333333333331
 24
346.0
 34
0.0
 50
0.0
100
AcDbRotatedDimension
1001
ACAD
1000
DSTYLE
1002
{
1070
140
1040
2.2
1070
41
1040
1.8
1070
44
1040
1.0
1070
42
1040
0.8
1070
147
1040
0.6
1070
77
1070
1
1070
178
1070
3
1002
}
  0
DIMENSION
  5
FE
330
17
100
AcDbEntity
  8
COTAS
100
AcDbDimension
280
0
  2
*D5
  3
EZDXF
 10
187.33333333333331
 20
338.0
 30
0.0
 11
191.33333333333331
 21
340.7
 31
0.0
 70
32
 71
5
  1
0.60
100
AcDbAlignedDimension
 13
187.33333333333331
 23
346.0
 33
0.0
 14
195.33333333333334
 24
346.0
 34
0.0
 50
0.0
100
AcDbRotatedDimension
1001
ACAD
1000
DSTYLE
1002
{
1070
140
1040
2.2
1070
41
1040
1.8
1070
44
1040
1.0
1070
42
1040
0.8
1070
147
1040
0.6
1070
77
1070
1
1070
178
1070
3
1002
}
  0
DIMENSION
  5
10D
330
17
100
AcDbEntity
  8
COTAS
100
AcDbDimension
280
0
  2
*D6
  3
EZDXF
 10
110.0
 20
330.0
 30
0.0
 11
152.66666666666669
 21
331.7
 31
0.0
 70
32
 71
5
  1
6.40
100
AcDbAlignedDimension
 13
110.0
 23
346.0
 33
0.0
 14
195.33333333333334
 24
346.0
 34
0.0
 50
0.0
100
AcDbRotatedDimension
1001
ACAD
1000
DSTYLE
1002
{
1070
140
1040
2.2
1070
41
1040
1.8
1070
44
1040
1.0
1070
42
1040
0.8
1070
147
1040
0.6
1070
77
1070
1
1070
178
1070
3
1002
}
  0
DIMENSION
  5
11C
330
17
100
AcDbEntity
  8
COTAS
100
AcDbDimension
280
0
  2
*D7
  3
EZDXF
 10
236.66666666666669
 20
346.0
 30
0.0
 11
234.9666666666667
 21
401.33333333333337
 31
0.0
 70
32
 71
5
  1
8.30
100
AcDbAlignedDimension
 13
228.66666666666669
 23
346.0
 33
0.0
 14
228.66666666666669
 24
456.6666666666667
 34
0.0
 50
90.0
100
AcDbRotatedDimension
1001
ACAD
1000
DSTYLE
1002
{
1070
140
1040
2.2
1070
41
1040
1.8
1070
44
1040
1.0
1070
42
1040
0.8
1070
147
1040
0.6
1070
77
1070
1
1070
178
1070
3
1002
}
  0
DIMENSION
  5
12B
330
17
100
AcDbEntity
  8
COTAS
100
AcDbDimension
280
0
  2
*D8
  3
EZDXF
 10
236.66666666666669
 20
456.6666666666667
 30
0.0
 11
234.9666666666667
 21
480.0
 31
0.0
 70
32
 71
5
  1
3.50
100
AcDbAlignedDimension
 13
228.66666666666669
 23
456.6666666666667
 33
0.0
 14
228.66666666666669
 24
503.33333333333337
 34
0.0
 50
90.0
100
AcDbRotatedDimension
1001
ACAD
1000
DSTYLE
1002
{
1070
140
1040
2.2
1070
41
1040
1.8
1070
44
1040
1.0
1070
42
1040
0.8
1070
147
1040
0.6
1070
77
1070
1
1070
178
1070
3
1002
}
  0
DIMENSION
  5
13A
330
17
100
AcDbEntity
  8
COTAS
100
AcDbDimension
280
0
  2
*D9
  3
EZDXF
 10
236.66666666666669
 20
503.33333333333337
 30
0.0
 11
234.9666666666667
 21
533.3333333333334
 31
0.0
 70
32
 71
5
  1
4.50
100
AcDbAlignedDimension
 13
228.66666666666669
 23
503.33333333333337
 33
0.0
 14
228.66666666666669
 24
563.3333333333334
 34
0.0
 50
90.0
100
AcDbRotatedDimension
1001
ACAD
1000
DSTYLE
1002
{
1070
140
1040
2.2
1070
41
1040
1.8
1070
44
1040
1.0
1070
42
1040
0.8
1070
147
1040
0.6
1070
77
1070
1
1070
178
1070
3
1002
}
  0
DIMENSION
  5
149
330
17
100
AcDbEntity
  8
COTAS
100
AcDbDimension
280
0
  2
*D10
  3
EZDXF
 10
244.66666666666669
 20
346.0
 30
0.0
 11
242.9666666666667
 21
454.6666666666667
 31
0.0
 70
32
 71
5
  1
16.30
100
AcDbAlignedDimension
 13
228.66666666666669
 23
346.0
 33
0.0
 14
228.66666666666669
 24
563.3333333333334
 34
0.0
 50
90.0
100
AcDbRotatedDimension
1001
ACAD
1000
DSTYLE
1002
{
1070
140
1040
2.2
1070
41
1040
1.8
1070
44
1040
1.0
1070
42
1040
0.8
1070
147
1040
0.6
1070
77
1070
1
1070
178
1070
3
1002
}
  0
DIMENSION
  5
158
330
17
100
AcDbEntity
  8
COTAS
100
AcDbDimension
280
0
  2
*D11
  3
EZDXF
 10
195.33333333333334
 20
511.33333333333337
 30
0.0
 11
212.0
 21
513.0333333333334
 31
0.0
 70
32
 71
5
  1
2.50
100
AcDbAlignedDimension
 13
195.33333333333334
 23
503.33333333333337
 33
0.0
 14
228.66666666666669
 24
503.33333333333337
 34
0.0
 50
0.0
100
AcDbRotatedDimension
1001
ACAD
1000
DSTYLE
1002
{
1070
140
1040
2.2
1070
41
1040
1.8
1070
44
1040
1.0
1070
42
1040
0.8
1070
147
1040
0.6
1070
77
1070
1
1070
178
1070
3
1002
}
  0
DIMENSION
  5
167
330
17
100
AcDbEntity
  8
COTAS
100
AcDbDimension
280
0
  2
*D12
  3
EZDXF
 10
68.0
 20
571.3333333333334
 30
0.0
 11
131.66666666666669
 21
573.0333333333334
 31
0.0
 70
32
 71
5
  1
9.55
100
AcDbAlignedDimension
 13
68.0
 23
563.3333333333334
 33
0.0
 14
195.33333333333334
 24
563.3333333333334
 34
0.0
 50
0.0
100
AcDbRotatedDimension
1001
ACAD
1000
DSTYLE
1002
{
1070
140
1040
2.2
1070
41
1040
1.8
1070
44
1040
1.0
1070
42
1040
0.8
1070
147
1040
0.6
1070
77
1070
1
1070
178
1070
3
1002
}
  0
DIMENSION
  5
176
330
17
100
AcDbEntity
  8
COTAS
100
AcDbDimension
280
0
  2
*D13
  3
EZDXF
 10
60.0
 20
443.6
 30
0.0
 11
58.3
 21
503.4666666666667
 31
0.0
 70
32
 71
5
  1
8.98
100
AcDbAlignedDimension
 13
68.0
 23
443.6
 33
0.0
 14
68.0
 24
563.3333333333334
 34
0.0
 50
90.0
100
AcDbRotatedDimension
1001
ACAD
1000
DSTYLE
1002
{
1070
140
1040
2.2
1070
41
1040
1.8
1070
44
1040
1.0
1070
42
1040
0.8
1070
147
1040
0.6
1070
77
1070
1
1070
178
1070
3
1002
}
  0
DIMENSION
  5
185
330
17
100
AcDbEntity
  8
COTAS
100
AcDbDimension
280
0
  2
*D14
  3
EZDXF
 10
106.26666666666668
 20
435.6
 30
0.0
 11
150.8
 21
437.3
 31
0.0
 70
32
 71
5
  1
6.68
100
AcDbAlignedDimension
 13
106.26666666666668
 23
443.6
 33
0.0
 14
195.33333333333334
 24
443.6
 34
0.0
 50
0.0
100
AcDbRotatedDimension
1001
ACAD
1000
DSTYLE
1002
{
1070
140
1040
2.2
1070
41
1040
1.8
1070
44
1040
1.0
1070
42
1040
0.8
1070
147
1040
0.6
1070
77
1070
1
1070
178
1070
3
1002
}
  0
LINE
  5
194
330
17
100
AcDbEntity
  8
CORTES
100
AcDbLine
 10
141.33333333333334
 20
341.3333333333333
 30
0.0
 11
141.33333333333334
 21
568.0
 31
0.0
  0
LINE
  5
195
330
17
100
AcDbEntity
  8
CORTES
100
AcDbLine
 10
102.26666666666668
 20
399.3333333333333
 30
0.0
 11
200.0
 21
399.3333333333333
 31
0.0
  0
TEXT
  5
196
330
17
100
AcDbEntity
  8
CORTES
100
AcDbText
 10
141.33333333333334
 20
338.0
 30
0.0
 40
3.0
  1
A
 72
1
 11
141.33333333333334
 21
338.0
 31
0.0
100
AcDbText
 73
2
  0
TEXT
  5
197
330
17
100
AcDbEntity
  8
CORTES
100
AcDbText
 10
141.33333333333334
 20
571.3333333333334
 30
0.0
 40
3.0
  1
A'
 72
1
 11
141.33333333333334
 21
571.3333333333334
 31
0.0
100
AcDbText
 73
2
  0
TEXT
  5
198
330
17
100
AcDbEntity
  8
CORTES
100
AcDbText
 10
98.93333333333335
 20
399.3333333333333
 30
0.0
 40
3.0
  1
B
 72
1
 11
98.93333333333335
 21
399.3333333333333
 31
0.0
100
AcDbText
 73
2
  0
TEXT
  5
199
330
17
100
AcDbEntity
  8
CORTES
100
AcDbText
 10
203.33333333333334
 20
399.3333333333333
 30
0.0
 40
3.0
  1
B'
 72
1
 11
203.33333333333334
 21
399.3333333333333
 31
0.0
100
AcDbText
 73
2
  0
LINE
  5
19A
330
17
100
AcDbEntity
  8
COTAS
100
AcDbLine
 10
52.0
 20
576.6666666666667
 30
0.0
 11
52.0
 21
590.0
 31
0.0
  0
TEXT
  5
19B
330
17
100
AcDbEntity
  8
TEXTO
100
AcDbText
 10
52.0
 20
596.6666666666667
 30
0.0
 40
2.0
  1
N (supuesto)
 72
1
 11
52.0
 21
596.6666666666667
 31
0.0
100
AcDbText
 73
2
  0
TEXT
  5
19C
330
17
100
AcDbEntity
  8
TEXTO
100
AcDbText
 10
147.66666666666669
 20
319.3333333333333
 30
0.0
 40
4.0
  1
PLANTA BAJA  esc. 1/75
 72
1
 11
147.66666666666669
 21
319.3333333333333
 31
0.0
100
AcDbText
 73
2
  0
LWPOLYLINE
  5
19D
330
17
100
AcDbEntity
  8
muros_PA
100
AcDbPolyline
 90
10
 70
1
 10
376.26666666666665
 20
443.6
 10
380.0
 20
346.0
 10
465.33333333333337
 20
346.0
 10
465.33333333333337
 20
456.6666666666667
 10
498.6666666666667
 20
456.6666666666667
 10
498.6666666666667
 20
503.33333333333337
 10
465.33333333333337
 20
503.33333333333337
 10
465.33333333333337
 20
563.3333333333334
 10
338.0
 20
563.3333333333334
 10
338.0
 20
443.6
  0
LWPOLYLINE
  5
19E
330
17
100
AcDbEntity
  8
muros_PA
100
AcDbPolyline
 90
10
 70
1
 10
460.0
 20
351.3333333333333
 10
460.0
 20
462.0
 10
493.33333333333337
 20
462.0
 10
493.33333333333337
 20
498.0
 10
460.0
 20
498.0
 10
460.0
 20
558.0
 10
343.3333333333333
 20
558.0
 10
343.3333333333333
 20
448.93333333333334
 10
381.39989306652376
 20
448.93333333333334
 10
385.13322639985705
 20
351.3333333333333
  0
HATCH
  5
19F
330
17
100
AcDbEntity
  8
RAYADO_MURO
 62
7
100
AcDbHatch
 10
0.0
 20
0.0
 30
0.0
210
0.0
220
0.0
230
1.0
  2
ANSI31
 70
0
 71
0
 91
2
 92
3
 72
0
 73
1
 93
10
 10
376.26666666666665
 20
443.6
 10
380.0
 20
346.0
 10
465.33333333333337
 20
346.0
 10
465.33333333333337
 20
456.6666666666667
 10
498.6666666666667
 20
456.6666666666667
 10
498.6666666666667
 20
503.33333333333337
 10
465.33333333333337
 20
503.33333333333337
 10
465.33333333333337
 20
563.3333333333334
 10
338.0
 20
563.3333333333334
 10
338.0
 20
443.6
 97
0
 92
3
 72
0
 73
1
 93
10
 10
460.0
 20
351.3333333333333
 10
460.0
 20
462.0
 10
493.33333333333337
 20
462.0
 10
493.33333333333337
 20
498.0
 10
460.0
 20
498.0
 10
460.0
 20
558.0
 10
343.3333333333333
 20
558.0
 10
343.3333333333333
 20
448.93333333333334
 10
381.39989306652376
 20
448.93333333333334
 10
385.13322639985705
 20
351.3333333333333
 97
0
 75
1
 76
1
 52
45.0
 41
0.6
 77
0
 78
1
 53
90.0
 43
0.0
 44
0.0
 45
-1.905
 46
0.0
 79
0
 98
0
  0
LWPOLYLINE
  5
1A0
330
17
100
AcDbEntity
  8
MURO_CENTRAL
100
AcDbPolyline
 90
4
 70
1
 10
343.3333333333333
 20
448.93333333333334
 10
445.33333333333337
 20
448.93333333333334
 10
445.33333333333337
 20
444.93333333333334
 10
343.3333333333333
 20
444.93333333333334
  0
HATCH
  5
1A1
330
17
100
AcDbEntity
  8
RAYADO_MURO_CENTRAL
 62
7
100
AcDbHatch
 10
0.0
 20
0.0
 30
0.0
210
0.0
220
0.0
230
1.0
  2
ANSI37
 70
0
 71
0
 91
1
 92
3
 72
0
 73
1
 93
4
 10
343.3333333333333
 20
448.93333333333334
 10
445.33333333333337
 20
448.93333333333334
 10
445.33333333333337
 20
444.93333333333334
 10
343.3333333333333
 20
444.93333333333334
 97
0
 75
1
 76
1
 52
45.0
 41
0.6
 77
0
 78
2
 53
90.0
 43
0.0
 44
0.0
 45
-1.905
 46
0.0
 79
0
 53
180.0
 43
0.0
 44
0.0
 45
0.0
 46
-1.905
 79
0
 98
0
  0
LWPOLYLINE
  5
1A2
330
17
100
AcDbEntity
  8
MURO_CENTRAL
100
AcDbPolyline
 90
4
 70
1
 10
457.3333333333333
 20
448.93333333333334
 10
457.3333333333333
 20
444.93333333333334
 10
460.0
 20
444.93333333333334
 10
460.0
 20
448.93333333333334
  0
HATCH
  5
1A3
330
17
100
AcDbEntity
  8
RAYADO_MURO_CENTRAL
 62
7
100
AcDbHatch
 10
0.0
 20
0.0
 30
0.0
210
0.0
220
0.0
230
1.0
  2
ANSI37
 70
0
 71
0
 91
1
 92
3
 72
0
 73
1
 93
4
 10
457.3333333333333
 20
448.93333333333334
 10
457.3333333333333
 20
444.93333333333334
 10
460.0
 20
444.93333333333334
 10
460.0
 20
448.93333333333334
 97
0
 75
1
 76
1
 52
45.0
 41
0.6
 77
0
 78
2
 53
90.0
 43
0.0
 44
0.0
 45
-1.905
 46
0.0
 79
0
 53
180.0
 43
0.0
 44
0.0
 45
0.0
 46
-1.905
 79
0
 98
0
  0
TEXT
  5
1A4
330
17
100
AcDbEntity
  8
TEXTO
100
AcDbText
 10
408.6666666666667
 20
398.0
 30
0.0
 40
2.4
  1
sobre el salón: por definir
 72
1
 11
408.6666666666667
 21
398.0
 31
0.0
100
AcDbText
 73
2
  0
TEXT
  5
1A5
330
17
100
AcDbEntity
  8
TEXTO
100
AcDbText
 10
402.0
 20
504.6666666666667
 30
0.0
 40
3.0
  1
ZONA NORTE: POR DEFINIR
 72
1
 11
402.0
 21
504.6666666666667
 31
0.0
100
AcDbText
 73
2
  0
TEXT
  5
1A6
330
17
100
AcDbEntity
  8
TEXTO
100
AcDbText
 10
482.0
 20
479.33333333333337
 30
0.0
 40
2.0
  1
anexo este
 50
90.0
 72
1
 11
482.0
 21
479.33333333333337
 31
0.0
100
AcDbText
 73
2
  0
DIMENSION
  5
1A7
330
17
100
AcDbEntity
  8
COTAS
100
AcDbDimension
280
0
  2
*D15
  3
EZDXF
 10
380.0
 20
338.0
 30
0.0
 11
382.66666666666663
 21
340.7
 31
0.0
 70
32
 71
5
  1
0.40
100
AcDbAlignedDimension
 13
380.0
 23
346.0
 33
0.0
 14
385.3333333333333
 24
346.0
 34
0.0
 50
0.0
100
AcDbRotatedDimension
1001
ACAD
1000
DSTYLE
1002
{
1070
140
1040
2.2
1070
41
1040
1.8
1070
44
1040
1.0
1070
42
1040
0.8
1070
147
1040
0.6
1070
77
1070
1
1070
178
1070
3
1002
}
  0
DIMENSION
  5
1B6
330
17
100
AcDbEntity
  8
COTAS
100
AcDbDimension
280
0
  2
*D16
  3
EZDXF
 10
385.3333333333333
 20
338.0
 30
0.0
 11
413.33333333333337
 21
339.7
 31
0.0
 70
32
 71
5
  1
4.20
100
AcDbAlignedDimension
 13
385.3333333333333
 23
346.0
 33
0.0
 14
441.33333333333337
 24
346.0
 34
0.0
 50
0.0
100
AcDbRotatedDimension
1001
ACAD
1000
DSTYLE
1002
{
1070
140
1040
2.2
1070
41
1040
1.8
1070
44
1040
1.0
1070
42
1040
0.8
1070
147
1040
0.6
1070
77
1070
1
1070
178
1070
3
1002
}
  0
DIMENSION
  5
1C5
330
17
100
AcDbEntity
  8
COTAS
100
AcDbDimension
280
0
  2
*D17
  3
EZDXF
 10
441.33333333333337
 20
338.0
 30
0.0
 11
443.33333333333337
 21
340.7
 31
0.0
 70
32
 71
5
  1
0.30
100
AcDbAlignedDimension
 13
441.33333333333337
 23
346.0
 33
0.0
 14
445.33333333333337
 24
346.0
 34
0.0
 50
0.0
100
AcDbRotatedDimension
1001
ACAD
1000
DSTYLE
1002
{
1070
140
1040
2.2
1070
41
1040
1.8
1070
44
1040
1.0
1070
42
1040
0.8
1070
147
1040
0.6
1070
77
1070
1
1070
178
1070
3
1002
}
  0
DIMENSION
  5
1D4
330
17
100
AcDbEntity
  8
COTAS
100
AcDbDimension
280
0
  2
*D18
  3
EZDXF
 10
445.33333333333337
 20
338.0
 30
0.0
 11
451.33333333333337
 21
339.7
 31
0.0
 70
32
 71
5
  1
0.90
100
AcDbAlignedDimension
 13
445.33333333333337
 23
346.0
 33
0.0
 14
457.3333333333333
 24
346.0
 34
0.0
 50
0.0
100
AcDbRotatedDimension
1001
ACAD
1000
DSTYLE
1002
{
1070
140
1040
2.2
1070
41
1040
1.8
1070
44
1040
1.0
1070
42
1040
0.8
1070
147
1040
0.6
1070
77
1070
1
1070
178
1070
3
1002
}
  0
DIMENSION
  5
1E3
330
17
100
AcDbEntity
  8
COTAS
100
AcDbDimension
280
0
  2
*D19
  3
EZDXF
 10
457.3333333333333
 20
338.0
 30
0.0
 11
461.33333333333337
 21
340.7
 31
0.0
 70
32
 71
5
  1
0.60
100
AcDbAlignedDimension
 13
457.3333333333333
 23
346.0
 33
0.0
 14
465.33333333333337
 24
346.0
 34
0.0
 50
0.0
100
AcDbRotatedDimension
1001
ACAD
1000
DSTYLE
1002
{
1070
140
1040
2.2
1070
41
1040
1.8
1070
44
1040
1.0
1070
42
1040
0.8
1070
147
1040
0.6
1070
77
1070
1
1070
178
1070
3
1002
}
  0
DIMENSION
  5
1F2
330
17
100
AcDbEntity
  8
COTAS
100
AcDbDimension
280
0
  2
*D20
  3
EZDXF
 10
380.0
 20
330.0
 30
0.0
 11
422.6666666666667
 21
331.7
 31
0.0
 70
32
 71
5
  1
6.40
100
AcDbAlignedDimension
 13
380.0
 23
346.0
 33
0.0
 14
465.33333333333337
 24
346.0
 34
0.0
 50
0.0
100
AcDbRotatedDimension
1001
ACAD
1000
DSTYLE
1002
{
1070
140
1040
2.2
1070
41
1040
1.8
1070
44
1040
1.0
1070
42
1040
0.8
1070
147
1040
0.6
1070
77
1070
1
1070
178
1070
3
1002
}
  0
DIMENSION
  5
201
330
17
100
AcDbEntity
  8
COTAS
100
AcDbDimension
280
0
  2
*D21
  3
EZDXF
 10
506.6666666666667
 20
346.0
 30
0.0
 11
504.9666666666667
 21
401.33333333333337
 31
0.0
 70
32
 71
5
  1
8.30
100
AcDbAlignedDimension
 13
498.6666666666667
 23
346.0
 33
0.0
 14
498.6666666666667
 24
456.6666666666667
 34
0.0
 50
90.0
100
AcDbRotatedDimension
1001
ACAD
1000
DSTYLE
1002
{
1070
140
1040
2.2
1070
41
1040
1.8
1070
44
1040
1.0
1070
42
1040
0.8
1070
147
1040
0.6
1070
77
1070
1
1070
178
1070
3
1002
}
  0
DIMENSION
  5
210
330
17
100
AcDbEntity
  8
COTAS
100
AcDbDimension
280
0
  2
*D22
  3
EZDXF
 10
506.6666666666667
 20
456.6666666666667
 30
0.0
 11
504.9666666666667
 21
480.0
 31
0.0
 70
32
 71
5
  1
3.50
100
AcDbAlignedDimension
 13
498.6666666666667
 23
456.6666666666667
 33
0.0
 14
498.6666666666667
 24
503.33333333333337
 34
0.0
 50
90.0
100
AcDbRotatedDimension
1001
ACAD
1000
DSTYLE
1002
{
1070
140
1040
2.2
1070
41
1040
1.8
1070
44
1040
1.0
1070
42
1040
0.8
1070
147
1040
0.6
1070
77
1070
1
1070
178
1070
3
1002
}
  0
DIMENSION
  5
21F
330
17
100
AcDbEntity
  8
COTAS
100
AcDbDimension
280
0
  2
*D23
  3
EZDXF
 10
506.6666666666667
 20
503.33333333333337
 30
0.0
 11
504.9666666666667
 21
533.3333333333334
 31
0.0
 70
32
 71
5
  1
4.50
100
AcDbAlignedDimension
 13
498.6666666666667
 23
503.33333333333337
 33
0.0
 14
498.6666666666667
 24
563.3333333333334
 34
0.0
 50
90.0
100
AcDbRotatedDimension
1001
ACAD
1000
DSTYLE
1002
{
1070
140
1040
2.2
1070
41
1040
1.8
1070
44
1040
1.0
1070
42
1040
0.8
1070
147
1040
0.6
1070
77
1070
1
1070
178
1070
3
1002
}
  0
DIMENSION
  5
22E
330
17
100
AcDbEntity
  8
COTAS
100
AcDbDimension
280
0
  2
*D24
  3
EZDXF
 10
514.6666666666667
 20
346.0
 30
0.0
 11
512.9666666666667
 21
454.6666666666667
 31
0.0
 70
32
 71
5
  1
16.30
100
AcDbAlignedDimension
 13
498.6666666666667
 23
346.0
 33
0.0
 14
498.6666666666667
 24
563.3333333333334
 34
0.0
 50
90.0
100
AcDbRotatedDimension
1001
ACAD
1000
DSTYLE
1002
{
1070
140
1040
2.2
1070
41
1040
1.8
1070
44
1040
1.0
1070
42
1040
0.8
1070
147
1040
0.6
1070
77
1070
1
1070
178
1070
3
1002
}
  0
DIMENSION
  5
23D
330
17
100
AcDbEntity
  8
COTAS
100
AcDbDimension
280
0
  2
*D25
  3
EZDXF
 10
465.33333333333337
 20
511.33333333333337
 30
0.0
 11
482.0
 21
513.0333333333334
 31
0.0
 70
32
 71
5
  1
2.50
100
AcDbAlignedDimension
 13
465.33333333333337
 23
503.33333333333337
 33
0.0
 14
498.6666666666667
 24
503.33333333333337
 34
0.0
 50
0.0
100
AcDbRotatedDimension
1001
ACAD
1000
DSTYLE
1002
{
1070
140
1040
2.2
1070
41
1040
1.8
1070
44
1040
1.0
1070
42
1040
0.8
1070
147
1040
0.6
1070
77
1070
1
1070
178
1070
3
1002
}
  0
DIMENSION
  5
24C
330
17
100
AcDbEntity
  8
COTAS
100
AcDbDimension
280
0
  2
*D26
  3
EZDXF
 10
338.0
 20
571.3333333333334
 30
0.0
 11
401.6666666666667
 21
573.0333333333334
 31
0.0
 70
32
 71
5
  1
9.55
100
AcDbAlignedDimension
 13
338.0
 23
563.3333333333334
 33
0.0
 14
465.33333333333337
 24
563.3333333333334
 34
0.0
 50
0.0
100
AcDbRotatedDimension
1001
ACAD
1000
DSTYLE
1002
{
1070
140
1040
2.2
1070
41
1040
1.8
1070
44
1040
1.0
1070
42
1040
0.8
1070
147
1040
0.6
1070
77
1070
1
1070
178
1070
3
1002
}
  0
DIMENSION
  5
25B
330
17
100
AcDbEntity
  8
COTAS
100
AcDbDimension
280
0
  2
*D27
  3
EZDXF
 10
330.0
 20
443.6
 30
0.0
 11
328.3
 21
503.4666666666667
 31
0.0
 70
32
 71
5
  1
8.98
100
AcDbAlignedDimension
 13
338.0
 23
443.6
 33
0.0
 14
338.0
 24
563.3333333333334
 34
0.0
 50
90.0
100
AcDbRotatedDimension
1001
ACAD
1000
DSTYLE
1002
{
1070
140
1040
2.2
1070
41
1040
1.8
1070
44
1040
1.0
1070
42
1040
0.8
1070
147
1040
0.6
1070
77
1070
1
1070
178
1070
3
1002
}
  0
DIMENSION
  5
26A
330
17
100
AcDbEntity
  8
COTAS
100
AcDbDimension
280
0
  2
*D28
  3
EZDXF
 10
376.26666666666665
 20
435.6
 30
0.0
 11
420.8
 21
437.3
 31
0.0
 70
32
 71
5
  1
6.68
100
AcDbAlignedDimension
 13
376.26666666666665
 23
443.6
 33
0.0
 14
465.33333333333337
 24
443.6
 34
0.0
 50
0.0
100
AcDbRotatedDimension
1001
ACAD
1000
DSTYLE
1002
{
1070
140
1040
2.2
1070
41
1040
1.8
1070
44
1040
1.0
1070
42
1040
0.8
1070
147
1040
0.6
1070
77
1070
1
1070
178
1070
3
1002
}
  0
LINE
  5
279
330
17
100
AcDbEntity
  8
COTAS
100
AcDbLine
 10
322.0
 20
576.6666666666667
 30
0.0
 11
322.0
 21
590.0
 31
0.0
  0
TEXT
  5
27A
330
17
100
AcDbEntity
  8
TEXTO
100
AcDbText
 10
322.0
 20
596.6666666666667
 30
0.0
 40
2.0
  1
N (supuesto)
 72
1
 11
322.0
 21
596.6666666666667
 31
0.0
100
AcDbText
 73
2
  0
TEXT
  5
27B
330
17
100
AcDbEntity
  8
TEXTO
100
AcDbText
 10
417.6666666666667
 20
319.3333333333333
 30
0.0
 40
4.0
  1
PLANTA ALTA  esc. 1/75
 72
1
 11
417.6666666666667
 21
319.3333333333333
 31
0.0
100
AcDbText
 73
2
  0
LWPOLYLINE
  5
27C
330
17
100
AcDbEntity
  8
cimentacion
100
AcDbPolyline
 90
4
 70
1
 10
603.3333333333333
 20
337.99
 10
618.0
 20
337.99
 10
618.0
 20
329.99
 10
603.3333333333333
 20
329.99
  0
HATCH
  5
27D
330
17
100
AcDbEntity
  8
RAYADO_OTROS
 62
8
100
AcDbHatch
 10
0.0
 20
0.0
 30
0.0
210
0.0
220
0.0
230
1.0
  2
SOLID
 70
1
 71
0
 91
1
 92
3
 72
0
 73
1
 93
4
 10
603.3333333333333
 20
337.99
 10
618.0
 20
337.99
 10
618.0
 20
329.99
 10
603.3333333333333
 20
329.99
 97
0
 75
1
 76
1
 98
0
  0
LWPOLYLINE
  5
27E
330
17
100
AcDbEntity
  8
cimentacion
100
AcDbPolyline
 90
4
 70
1
 10
701.6
 20
337.99
 10
701.6
 20
329.99
 10
716.2666666666667
 20
329.99
 10
716.2666666666667
 20
337.99
  0
HATCH
  5
27F
330
17
100
AcDbEntity
  8
RAYADO_OTROS
 62
8
100
AcDbHatch
 10
0.0
 20
0.0
 30
0.0
210
0.0
220
0.0
230
1.0
  2
SOLID
 70
1
 71
0
 91
1
 92
3
 72
0
 73
1
 93
4
 10
701.6
 20
337.99
 10
701.6
 20
329.99
 10
716.2666666666667
 20
329.99
 10
716.2666666666667
 20
337.99
 97
0
 75
1
 76
1
 98
0
  0
LWPOLYLINE
  5
280
330
17
100
AcDbEntity
  8
cimentacion
100
AcDbPolyline
 90
4
 70
1
 10
815.3333333333334
 20
329.99
 10
815.3333333333334
 20
337.99
 10
830.0
 20
337.99
 10
830.0
 20
329.99
  0
HATCH
  5
281
330
17
100
AcDbEntity
  8
RAYADO_OTROS
 62
8
100
AcDbHatch
 10
0.0
 20
0.0
 30
0.0
210
0.0
220
0.0
230
1.0
  2
SOLID
 70
1
 71
0
 91
1
 92
3
 72
0
 73
1
 93
4
 10
815.3333333333334
 20
329.99
 10
815.3333333333334
 20
337.99
 10
830.0
 20
337.99
 10
830.0
 20
329.99
 97
0
 75
1
 76
1
 98
0
  0
LWPOLYLINE
  5
282
330
17
100
AcDbEntity
  8
muros_PB
100
AcDbPolyline
 90
4
 70
1
 10
608.0
 20
378.12333333333333
 10
613.3333333333334
 20
378.12333333333333
 10
613.3333333333334
 20
371.99
 10
608.0
 20
371.99
  0
HATCH
  5
283
330
17
100
AcDbEntity
  8
RAYADO_MURO
 62
7
100
AcDbHatch
 10
0.0
 20
0.0
 30
0.0
210
0.0
220
0.0
230
1.0
  2
ANSI31
 70
0
 71
0
 91
1
 92
3
 72
0
 73
1
 93
4
 10
608.0
 20
378.12333333333333
 10
613.3333333333334
 20
378.12333333333333
 10
613.3333333333334
 20
371.99
 10
608.0
 20
371.99
 97
0
 75
1
 76
1
 52
45.0
 41
0.6
 77
0
 78
1
 53
90.0
 43
0.0
 44
0.0
 45
-1.905
 46
0.0
 79
0
 98
0
  0
LWPOLYLINE
  5
284
330
17
100
AcDbEntity
  8
muros_PB
100
AcDbPolyline
 90
4
 70
1
 10
608.0
 20
339.3233333333333
 10
613.3333333333334
 20
339.3233333333333
 10
613.3333333333334
 20
337.99
 10
608.0
 20
337.99
  0
HATCH
  5
285
330
17
100
AcDbEntity
  8
RAYADO_MURO
 62
7
100
AcDbHatch
 10
0.0
 20
0.0
 30
0.0
210
0.0
220
0.0
230
1.0
  2
ANSI31
 70
0
 71
0
 91
1
 92
3
 72
0
 73
1
 93
4
 10
608.0
 20
339.3233333333333
 10
613.3333333333334
 20
339.3233333333333
 10
613.3333333333334
 20
337.99
 10
608.0
 20
337.99
 97
0
 75
1
 76
1
 52
45.0
 41
0.6
 77
0
 78
1
 53
90.0
 43
0.0
 44
0.0
 45
-1.905
 46
0.0
 79
0
 98
0
  0
LWPOLYLINE
  5
286
330
17
100
AcDbEntity
  8
muros_PB
100
AcDbPolyline
 90
4
 70
1
 10
820.0
 20
337.99
 10
820.0
 20
378.12333333333333
 10
825.3333333333334
 20
378.12333333333333
 10
825.3333333333334
 20
337.99
  0
HATCH
  5
287
330
17
100
AcDbEntity
  8
RAYADO_MURO
 62
7
100
AcDbHatch
 10
0.0
 20
0.0
 30
0.0
210
0.0
220
0.0
230
1.0
  2
ANSI31
 70
0
 71
0
 91
1
 92
3
 72
0
 73
1
 93
4
 10
820.0
 20
337.99
 10
820.0
 20
378.12333333333333
 10
825.3333333333334
 20
378.12333333333333
 10
825.3333333333334
 20
337.99
 97
0
 75
1
 76
1
 52
45.0
 41
0.6
 77
0
 78
1
 53
90.0
 43
0.0
 44
0.0
 45
-1.905
 46
0.0
 79
0
 98
0
  0
LWPOLYLINE
  5
288
330
17
100
AcDbEntity
  8
muros_PA
100
AcDbPolyline
 90
4
 70
1
 10
608.0
 20
417.4566666666667
 10
613.3333333333334
 20
417.4566666666667
 10
613.3333333333334
 20
381.4566666666667
 10
608.0
 20
381.4566666666667
  0
HATCH
  5
289
330
17
100
AcDbEntity
  8
RAYADO_MURO
 62
7
100
AcDbHatch
 10
0.0
 20
0.0
 30
0.0
210
0.0
220
0.0
230
1.0
  2
ANSI31
 70
0
 71
0
 91
1
 92
3
 72
0
 73
1
 93
4
 10
608.0
 20
417.4566666666667
 10
613.3333333333334
 20
417.4566666666667
 10
613.3333333333334
 20
381.4566666666667
 10
608.0
 20
381.4566666666667
 97
0
 75
1
 76
1
 52
45.0
 41
0.6
 77
0
 78
1
 53
90.0
 43
0.0
 44
0.0
 45
-1.905
 46
0.0
 79
0
 98
0
  0
LWPOLYLINE
  5
28A
330
17
100
AcDbEntity
  8
muros_PA
100
AcDbPolyline
 90
4
 70
1
 10
820.0
 20
381.4566666666667
 10
820.0
 20
417.4566666666667
 10
825.3333333333334
 20
417.4566666666667
 10
825.3333333333334
 20
381.45666666666665
  0
HATCH
  5
28B
330
17
100
AcDbEntity
  8
RAYADO_MURO
 62
7
100
AcDbHatch
 10
0.0
 20
0.0
 30
0.0
210
0.0
220
0.0
230
1.0
  2
ANSI31
 70
0
 71
0
 91
1
 92
3
 72
0
 73
1
 93
4
 10
820.0
 20
381.4566666666667
 10
820.0
 20
417.4566666666667
 10
825.3333333333334
 20
417.4566666666667
 10
825.3333333333334
 20
381.45666666666665
 97
0
 75
1
 76
1
 52
45.0
 41
0.6
 77
0
 78
1
 53
90.0
 43
0.0
 44
0.0
 45
-1.905
 46
0.0
 79
0
 98
0
  0
LWPOLYLINE
  5
28C
330
17
100
AcDbEntity
  8
MURO_CENTRAL
100
AcDbPolyline
 90
4
 70
1
 10
706.9333333333334
 20
417.45666666666665
 10
710.9333333333334
 20
417.45666666666665
 10
710.9333333333334
 20
337.99
 10
706.9333333333334
 20
337.99
  0
HATCH
  5
28D
330
17
100
AcDbEntity
  8
RAYADO_MURO_CENTRAL
 62
7
100
AcDbHatch
 10
0.0
 20
0.0
 30
0.0
210
0.0
220
0.0
230
1.0
  2
ANSI37
 70
0
 71
0
 91
1
 92
3
 72
0
 73
1
 93
4
 10
706.9333333333334
 20
417.45666666666665
 10
710.9333333333334
 20
417.45666666666665
 10
710.9333333333334
 20
337.99
 10
706.9333333333334
 20
337.99
 97
0
 75
1
 76
1
 52
45.0
 41
0.6
 77
0
 78
2
 53
90.0
 43
0.0
 44
0.0
 45
-1.905
 46
0.0
 79
0
 53
180.0
 43
0.0
 44
0.0
 45
0.0
 46
-1.905
 79
0
 98
0
  0
LWPOLYLINE
  5
28E
330
17
100
AcDbEntity
  8
forjado_PB_PA
100
AcDbPolyline
 90
4
 70
1
 10
608.0
 20
381.4566666666667
 10
825.3333333333334
 20
381.4566666666667
 10
825.3333333333334
 20
378.12333333333333
 10
608.0
 20
378.12333333333333
  0
HATCH
  5
28F
330
17
100
AcDbEntity
  8
RAYADO_FORJADO
 62
7
100
AcDbHatch
 10
0.0
 20
0.0
 30
0.0
210
0.0
220
0.0
230
1.0
  2
SOLID
 70
1
 71
0
 91
1
 92
3
 72
0
 73
1
 93
4
 10
608.0
 20
381.4566666666667
 10
825.3333333333334
 20
381.4566666666667
 10
825.3333333333334
 20
378.12333333333333
 10
608.0
 20
378.12333333333333
 97
0
 75
1
 76
1
 98
0
  0
LWPOLYLINE
  5
290
330
17
100
AcDbEntity
  8
forjado_cubierta
100
AcDbPolyline
 90
4
 70
1
 10
608.0
 20
420.78999999999996
 10
825.3333333333334
 20
420.78999999999996
 10
825.3333333333334
 20
417.45666666666665
 10
608.0
 20
417.45666666666665
  0
HATCH
  5
291
330
17
100
AcDbEntity
  8
RAYADO_FORJADO
 62
7
100
AcDbHatch
 10
0.0
 20
0.0
 30
0.0
210
0.0
220
0.0
230
1.0
  2
SOLID
 70
1
 71
0
 91
1
 92
3
 72
0
 73
1
 93
4
 10
608.0
 20
420.78999999999996
 10
825.3333333333334
 20
420.78999999999996
 10
825.3333333333334
 20
417.45666666666665
 10
608.0
 20
417.45666666666665
 97
0
 75
1
 76
1
 98
0
  0
LWPOLYLINE
  5
292
330
17
100
AcDbEntity
  8
cubierta
100
AcDbPolyline
 90
97
 70
1
 10
706.2172839506173
 20
422.5458299039781
 10
709.5347643097643
 20
423.6482117471007
 10
712.8522446689113
 20
424.75059359022316
 10
716.1697250280583
 20
425.8529754333458
 10
719.4872053872054
 20
426.9553572764685
 10
722.8046857463524
 20
428.05773911959096
 10
726.1221661054994
 20
429.16012096271356
 10
729.4396464646464
 20
430.2625028058361
 10
732.7571268237936
 20
431.36488464895876
 10
736.0746071829406
 20
432.4672664920813
 10
739.3920875420876
 20
433.5696483352039
 10
742.7095679012345
 20
434.67203017832645
 10
746.0270482603817
 20
435.77441202144905
 10
749.3445286195287
 20
436.87679386457165
 10
752.6620089786757
 20
437.97917570769425
 10
755.9794893378228
 20
439.0815575508168
 10
759.2969696969697
 20
440.1839393939394
 10
760.0681818181819
 20
440.1839393939394
 10
760.839393939394
 20
440.1839393939394
 10
761.6106060606061
 20
440.1839393939394
 10
762.3818181818182
 20
440.1839393939394
 10
763.1530303030303
 20
440.1839393939394
 10
763.9242424242424
 20
440.1839393939394
 10
764.6954545454546
 20
440.1839393939394
 10
765.4666666666667
 20
440.1839393939394
 10
766.2378787878788
 20
440.1839393939394
 10
767.0090909090909
 20
440.1839393939394
 10
767.780303030303
 20
440.1839393939394
 10
768.5515151515151
 20
440.1839393939394
 10
769.3227272727272
 20
440.1839393939394
 10
770.0939393939393
 20
440.1839393939394
 10
770.8651515151514
 20
440.1839393939394
 10
771.6363636363636
 20
440.1839393939394
 10
775.284090909091
 20
438.9718181818182
 10
778.9318181818182
 20
437.759696969697
 10
782.5795454545455
 20
436.54757575757577
 10
786.2272727272727
 20
435.3354545454546
 10
789.875
 20
434.12333333333333
 10
793.5227272727273
 20
432.9112121212121
 10
797.1704545454545
 20
431.6990909090909
 10
800.8181818181818
 20
430.4869696969697
 10
804.4659090909091
 20
429.2748484848485
 10
808.1136363636364
 20
428.06272727272733
 10
811.7613636363637
 20
426.8506060606062
 10
815.4090909090909
 20
425.6384848484847
 10
819.0568181818182
 20
424.4263636363637
 10
822.7045454545455
 20
423.2142424242425
 10
826.3522727272726
 20
422.00212121212104
 10
830.0
 20
420.79
 10
603.3333333333334
 20
420.79
 10
605.8336061846294
 20
421.8741291496135
 10
608.3338790359254
 20
422.95825829922694
 10
610.8341518872214
 20
424.0423874488404
 10
613.3344247385176
 20
425.1265165984538
 10
615.8346975898136
 20
426.2106457480673
 10
618.3349704411096
 20
427.2947748976808
 10
620.8352432924056
 20
428.3789040472942
 10
623.3355161437016
 20
429.4630331969077
 10
625.8357889949978
 20
430.54716234652113
 10
628.3360618462938
 20
431.6312914961346
 10
630.8363346975898
 20
432.71542064574805
 10
633.3366075488858
 20
433.79954979536154
 10
635.8368804001818
 20
434.883678944975
 10
638.337153251478
 20
435.96780809458846
 10
640.837426102774
 20
437.0519372442019
 10
643.33769895407
 20
438.1360663938154
 10
645.0204865848112
 20
438.1360663938154
 10
646.7032742155525
 20
438.1360663938154
 10
648.3860618462937
 20
438.1360663938154
 10
650.068849477035
 20
438.1360663938154
 10
651.7516371077762
 20
438.1360663938154
 10
653.4344247385175
 20
438.1360663938154
 10
655.1172123692587
 20
438.1360663938154
 10
656.8
 20
438.1360663938154
 10
658.4827876307413
 20
438.1360663938154
 10
660.1655752614824
 20
438.1360663938154
 10
661.8483628922238
 20
438.1360663938154
 10
663.531150522965
 20
438.1360663938154
 10
665.2139381537063
 20
438.1360663938154
 10
666.8967257844475
 20
438.1360663938154
 10
668.5795134151888
 20
438.1360663938154
 10
670.26230104593
 20
438.1360663938154
 10
672.5094874774729
 20
437.16167661320054
 10
674.756673909016
 20
436.18728683258576
 10
677.0038603405588
 20
435.2128970519709
 10
679.2510467721017
 20
434.23850727135607
 10
681.4982332036448
 20
433.2641174907412
 10
683.7454196351878
 20
432.2897277101264
 10
685.9926060667307
 20
431.31533792951154
 10
688.2397924982737
 20
430.3409481488967
 10
690.4869789298166
 20
429.36655836828186
 10
692.7341653613596
 20
428.3921685876671
 10
694.9813517929026
 20
427.41777880705234
 10
697.2285382244455
 20
426.4433890264374
 10
699.4757246559884
 20
425.4689992458225
 10
701.7229110875314
 20
424.49460946520776
 10
703.9700975190744
 20
423.520219684593
  0
DIMENSION
  5
293
330
17
100
AcDbEntity
  8
COTAS
100
AcDbDimension
280
0
  2
*D29
  3
EZDXF
 10
595.3333333333333
 20
329.99
 30
0.0
 11
592.6333333333332
 21
333.99
 31
0.0
 70
32
 71
5
  1
0.60
100
AcDbAlignedDimension
 13
603.3333333333333
 23
329.99
 33
0.0
 14
603.3333333333333
 24
337.99
 34
0.0
 50
90.0
100
AcDbRotatedDimension
1001
ACAD
1000
DSTYLE
1002
{
1070
140
1040
2.2
1070
41
1040
1.8
1070
44
1040
1.0
1070
42
1040
0.8
1070
147
1040
0.6
1070
77
1070
1
1070
178
1070
3
1002
}
  0
DIMENSION
  5
2A2
330
17
100
AcDbEntity
  8
COTAS
100
AcDbDimension
280
0
  2
*D30
  3
EZDXF
 10
595.3333333333333
 20
337.99
 30
0.0
 11
593.6333333333332
 21
358.0566666666667
 31
0.0
 70
32
 71
5
  1
3.01
100
AcDbAlignedDimension
 13
603.3333333333333
 23
337.99
 33
0.0
 14
603.3333333333333
 24
378.12333333333333
 34
0.0
 50
90.0
100
AcDbRotatedDimension
1001
ACAD
1000
DSTYLE
1002
{
1070
140
1040
2.2
1070
41
1040
1.8
1070
44
1040
1.0
1070
42
1040
0.8
1070
147
1040
0.6
1070
77
1070
1
1070
178
1070
3
1002
}
  0
DIMENSION
  5
2B1
330
17
100
AcDbEntity
  8
COTAS
100
AcDbDimension
280
0
  2
*D31
  3
EZDXF
 10
595.3333333333333
 20
378.12333333333333
 30
0.0
 11
592.6333333333332
 21
379.79
 31
0.0
 70
32
 71
5
  1
0.25
100
AcDbAlignedDimension
 13
603.3333333333333
 23
378.12333333333333
 33
0.0
 14
603.3333333333333
 24
381.4566666666667
 34
0.0
 50
90.0
100
AcDbRotatedDimension
1001
ACAD
1000
DSTYLE
1002
{
1070
140
1040
2.2
1070
41
1040
1.8
1070
44
1040
1.0
1070
42
1040
0.8
1070
147
1040
0.6
1070
77
1070
1
1070
178
1070
3
1002
}
  0
DIMENSION
  5
2C0
330
17
100
AcDbEntity
  8
COTAS
100
AcDbDimension
280
0
  2
*D32
  3
EZDXF
 10
595.3333333333333
 20
381.4566666666667
 30
0.0
 11
593.6333333333332
 21
399.4566666666667
 31
0.0
 70
32
 71
5
  1
2.70
100
AcDbAlignedDimension
 13
603.3333333333333
 23
381.4566666666667
 33
0.0
 14
603.3333333333333
 24
417.4566666666667
 34
0.0
 50
90.0
100
AcDbRotatedDimension
1001
ACAD
1000
DSTYLE
1002
{
1070
140
1040
2.2
1070
41
1040
1.8
1070
44
1040
1.0
1070
42
1040
0.8
1070
147
1040
0.6
1070
77
1070
1
1070
178
1070
3
1002
}
  0
DIMENSION
  5
2CF
330
17
100
AcDbEntity
  8
COTAS
100
AcDbDimension
280
0
  2
*D33
  3
EZDXF
 10
595.3333333333333
 20
417.4566666666667
 30
0.0
 11
592.6333333333332
 21
419.12333333333333
 31
0.0
 70
32
 71
5
  1
0.25
100
AcDbAlignedDimension
 13
603.3333333333333
 23
417.4566666666667
 33
0.0
 14
603.3333333333333
 24
420.79
 34
0.0
 50
90.0
100
AcDbRotatedDimension
1001
ACAD
1000
DSTYLE
1002
{
1070
140
1040
2.2
1070
41
1040
1.8
1070
44
1040
1.0
1070
42
1040
0.8
1070
147
1040
0.6
1070
77
1070
1
1070
178
1070
3
1002
}
  0
DIMENSION
  5
2DE
330
17
100
AcDbEntity
  8
COTAS
100
AcDbDimension
280
0
  2
*D34
  3
EZDXF
 10
595.3333333333333
 20
420.79
 30
0.0
 11
593.6333333333332
 21
431.4566666666667
 31
0.0
 70
32
 71
5
  1
1.60
100
AcDbAlignedDimension
 13
603.3333333333333
 23
420.79
 33
0.0
 14
603.3333333333333
 24
442.12333333333333
 34
0.0
 50
90.0
100
AcDbRotatedDimension
1001
ACAD
1000
DSTYLE
1002
{
1070
140
1040
2.2
1070
41
1040
1.8
1070
44
1040
1.0
1070
42
1040
0.8
1070
147
1040
0.6
1070
77
1070
1
1070
178
1070
3
1002
}
  0
DIMENSION
  5
2ED
330
17
100
AcDbEntity
  8
COTAS
100
AcDbDimension
280
0
  2
*D35
  3
EZDXF
 10
587.3333333333333
 20
329.99
 30
0.0
 11
585.6333333333332
 21
386.0566666666667
 31
0.0
 70
32
 71
5
  1
8.41
100
AcDbAlignedDimension
 13
603.3333333333333
 23
329.99
 33
0.0
 14
603.3333333333333
 24
442.12333333333333
 34
0.0
 50
90.0
100
AcDbRotatedDimension
1001
ACAD
1000
DSTYLE
1002
{
1070
140
1040
2.2
1070
41
1040
1.8
1070
44
1040
1.0
1070
42
1040
0.8
1070
147
1040
0.6
1070
77
1070
1
1070
178
1070
3
1002
}
  0
DIMENSION
  5
2FC
330
17
100
AcDbEntity
  8
COTAS
100
AcDbDimension
280
0
  2
*D36
  3
EZDXF
 10
603.3333333333333
 20
320.6566666666667
 30
0.0
 11
716.6666666666666
 21
322.3566666666667
 31
0.0
 70
32
 71
5
  1
17.00
100
AcDbAlignedDimension
 13
603.3333333333333
 23
329.99
 33
0.0
 14
830.0
 24
329.99
 34
0.0
 50
0.0
100
AcDbRotatedDimension
1001
ACAD
1000
DSTYLE
1002
{
1070
140
1040
2.2
1070
41
1040
1.8
1070
44
1040
1.0
1070
42
1040
0.8
1070
147
1040
0.6
1070
77
1070
1
1070
178
1070
3
1002
}
  0
LINE
  5
30B
330
17
100
AcDbEntity
  8
COTAS
100
AcDbLine
 10
834.0
 20
337.99
 30
0.0
 11
843.3333333333333
 21
337.99
 31
0.0
  0
TEXT
  5
30C
330
17
100
AcDbEntity
  8
TEXTO
100
AcDbText
 10
844.0
 20
337.99
 30
0.0
 40
1.8
  1
±0.00 SUELO PB
 11
844.0
 21
337.99
 31
0.0
100
AcDbText
 73
2
  0
LINE
  5
30D
330
17
100
AcDbEntity
  8
COTAS
100
AcDbLine
 10
834.0
 20
381.4566666666667
 30
0.0
 11
843.3333333333333
 21
381.4566666666667
 31
0.0
  0
TEXT
  5
30E
330
17
100
AcDbEntity
  8
TEXTO
100
AcDbText
 10
844.0
 20
381.4566666666667
 30
0.0
 40
1.8
  1
+3.26 SUELO PA
 11
844.0
 21
381.4566666666667
 31
0.0
100
AcDbText
 73
2
  0
LINE
  5
30F
330
17
100
AcDbEntity
  8
COTAS
100
AcDbLine
 10
834.0
 20
417.4566666666667
 30
0.0
 11
843.3333333333333
 21
417.4566666666667
 31
0.0
  0
TEXT
  5
310
330
17
100
AcDbEntity
  8
TEXTO
100
AcDbText
 10
844.0
 20
417.4566666666667
 30
0.0
 40
1.8
  1
+5.96 FORJ. CUBIERTA
 11
844.0
 21
417.4566666666667
 31
0.0
100
AcDbText
 73
2
  0
TEXT
  5
311
330
17
100
AcDbEntity
  8
TEXTO
100
AcDbText
 10
716.6666666666666
 20
304.6566666666667
 30
0.0
 40
4.0
  1
SECCIÓN A-A' (por salón y muro central)  esc. 1/75
 72
1
 11
716.6666666666666
 21
304.6566666666667
 31
0.0
100
AcDbText
 73
2
  0
LWPOLYLINE
  5
312
330
17
100
AcDbEntity
  8
cimentacion
100
AcDbPolyline
 90
4
 70
1
 10
89.71014030118917
 20
43.989999999999995
 10
75.03274766515239
 20
43.989999999999995
 10
75.03274766515239
 20
51.989999999999995
 10
89.71014030118917
 20
51.989999999999995
  0
HATCH
  5
313
330
17
100
AcDbEntity
  8
RAYADO_OTROS
 62
8
100
AcDbHatch
 10
0.0
 20
0.0
 30
0.0
210
0.0
220
0.0
230
1.0
  2
SOLID
 70
1
 71
0
 91
1
 92
3
 72
0
 73
1
 93
4
 10
89.71014030118917
 20
43.989999999999995
 10
75.03274766515239
 20
43.989999999999995
 10
75.03274766515239
 20
51.989999999999995
 10
89.71014030118917
 20
51.989999999999995
 97
0
 75
1
 76
1
 98
0
  0
LWPOLYLINE
  5
314
330
17
100
AcDbEntity
  8
cimentacion
100
AcDbPolyline
 90
4
 70
1
 10
171.7429
 20
51.989999999999995
 10
171.7429
 20
43.989999999999995
 10
157.07623333333333
 20
43.989999999999995
 10
157.07623333333333
 20
51.989999999999995
  0
HATCH
  5
315
330
17
100
AcDbEntity
  8
RAYADO_OTROS
 62
8
100
AcDbHatch
 10
0.0
 20
0.0
 30
0.0
210
0.0
220
0.0
230
1.0
  2
SOLID
 70
1
 71
0
 91
1
 92
3
 72
0
 73
1
 93
4
 10
171.7429
 20
51.989999999999995
 10
171.7429
 20
43.989999999999995
 10
157.07623333333333
 20
43.989999999999995
 10
157.07623333333333
 20
51.989999999999995
 97
0
 75
1
 76
1
 98
0
  0
LWPOLYLINE
  5
316
330
17
100
AcDbEntity
  8
muros_PB
100
AcDbPolyline
 90
4
 70
1
 10
167.07623333333333
 20
92.12333333333333
 10
167.07623333333333
 20
51.989999999999995
 10
161.7429
 20
51.989999999999995
 10
161.7429
 20
92.12333333333333
  0
HATCH
  5
317
330
17
100
AcDbEntity
  8
RAYADO_MURO
 62
7
100
AcDbHatch
 10
0.0
 20
0.0
 30
0.0
210
0.0
220
0.0
230
1.0
  2
ANSI31
 70
0
 71
0
 91
1
 92
3
 72
0
 73
1
 93
4
 10
167.07623333333333
 20
92.12333333333333
 10
167.07623333333333
 20
51.989999999999995
 10
161.7429
 20
51.989999999999995
 10
161.7429
 20
92.12333333333333
 97
0
 75
1
 76
1
 52
45.0
 41
0.6
 77
0
 78
1
 53
90.0
 43
0.0
 44
0.0
 45
-1.905
 46
0.0
 79
0
 98
0
  0
LWPOLYLINE
  5
318
330
17
100
AcDbEntity
  8
muros_PB
100
AcDbPolyline
 90
4
 70
1
 10
85.04006082608657
 20
51.989999999999995
 10
85.04006082608657
 20
92.12333333333333
 10
79.70282714025501
 20
92.12333333333333
 10
79.70282714025501
 20
51.989999999999995
  0
HATCH
  5
319
330
17
100
AcDbEntity
  8
RAYADO_MURO
 62
7
100
AcDbHatch
 10
0.0
 20
0.0
 30
0.0
210
0.0
220
0.0
230
1.0
  2
ANSI31
 70
0
 71
0
 91
1
 92
3
 72
0
 73
1
 93
4
 10
85.04006082608657
 20
51.989999999999995
 10
85.04006082608657
 20
92.12333333333333
 10
79.70282714025501
 20
92.12333333333333
 10
79.70282714025501
 20
51.989999999999995
 97
0
 75
1
 76
1
 52
45.0
 41
0.6
 77
0
 78
1
 53
90.0
 43
0.0
 44
0.0
 45
-1.905
 46
0.0
 79
0
 98
0
  0
LWPOLYLINE
  5
31A
330
17
100
AcDbEntity
  8
muros_PA
100
AcDbPolyline
 90
4
 70
1
 10
85.04006082608656
 20
95.45666666666668
 10
79.70282714025501
 20
95.45666666666668
 10
79.70282714025501
 20
131.45666666666665
 10
85.04006082608656
 20
131.45666666666668
  0
HATCH
  5
31B
330
17
100
AcDbEntity
  8
RAYADO_MURO
 62
7
100
AcDbHatch
 10
0.0
 20
0.0
 30
0.0
210
0.0
220
0.0
230
1.0
  2
ANSI31
 70
0
 71
0
 91
1
 92
3
 72
0
 73
1
 93
4
 10
85.04006082608656
 20
95.45666666666668
 10
79.70282714025501
 20
95.45666666666668
 10
79.70282714025501
 20
131.45666666666665
 10
85.04006082608656
 20
131.45666666666668
 97
0
 75
1
 76
1
 52
45.0
 41
0.6
 77
0
 78
1
 53
90.0
 43
0.0
 44
0.0
 45
-1.905
 46
0.0
 79
0
 98
0
  0
LWPOLYLINE
  5
31C
330
17
100
AcDbEntity
  8
muros_PA
100
AcDbPolyline
 90
4
 70
1
 10
167.07623333333333
 20
131.45666666666668
 10
161.7429
 20
131.45666666666668
 10
161.7429
 20
95.45666666666668
 10
167.07623333333333
 20
95.45666666666668
  0
HATCH
  5
31D
330
17
100
AcDbEntity
  8
RAYADO_MURO
 62
7
100
AcDbHatch
 10
0.0
 20
0.0
 30
0.0
210
0.0
220
0.0
230
1.0
  2
ANSI31
 70
0
 71
0
 91
1
 92
3
 72
0
 73
1
 93
4
 10
167.07623333333333
 20
131.45666666666668
 10
161.7429
 20
131.45666666666668
 10
161.7429
 20
95.45666666666668
 10
167.07623333333333
 20
95.45666666666668
 97
0
 75
1
 76
1
 52
45.0
 41
0.6
 77
0
 78
1
 53
90.0
 43
0.0
 44
0.0
 45
-1.905
 46
0.0
 79
0
 98
0
  0
LWPOLYLINE
  5
31E
330
17
100
AcDbEntity
  8
murete_pasillo
100
AcDbPolyline
 90
4
 70
1
 10
144.40956666666665
 20
51.989999999999995
 10
143.07623333333333
 20
51.989999999999995
 10
143.07623333333333
 20
65.32333333333332
 10
144.40956666666665
 20
65.32333333333332
  0
HATCH
  5
31F
330
17
100
AcDbEntity
  8
RAYADO_OTROS
 62
7
100
AcDbHatch
 10
0.0
 20
0.0
 30
0.0
210
0.0
220
0.0
230
1.0
  2
SOLID
 70
1
 71
0
 91
1
 92
3
 72
0
 73
1
 93
4
 10
144.40956666666665
 20
51.989999999999995
 10
143.07623333333333
 20
51.989999999999995
 10
143.07623333333333
 20
65.32333333333332
 10
144.40956666666665
 20
65.32333333333332
 97
0
 75
1
 76
1
 98
0
  0
LWPOLYLINE
  5
320
330
17
100
AcDbEntity
  8
forjado_PB_PA
100
AcDbPolyline
 90
4
 70
1
 10
167.07623333333333
 20
95.45666666666668
 10
79.70282714025501
 20
95.45666666666668
 10
79.70282714025501
 20
92.12333333333333
 10
167.07623333333333
 20
92.12333333333333
  0
HATCH
  5
321
330
17
100
AcDbEntity
  8
RAYADO_FORJADO
 62
7
100
AcDbHatch
 10
0.0
 20
0.0
 30
0.0
210
0.0
220
0.0
230
1.0
  2
SOLID
 70
1
 71
0
 91
1
 92
3
 72
0
 73
1
 93
4
 10
167.07623333333333
 20
95.45666666666668
 10
79.70282714025501
 20
95.45666666666668
 10
79.70282714025501
 20
92.12333333333333
 10
167.07623333333333
 20
92.12333333333333
 97
0
 75
1
 76
1
 98
0
  0
LWPOLYLINE
  5
322
330
17
100
AcDbEntity
  8
forjado_cubierta
100
AcDbPolyline
 90
4
 70
1
 10
167.07623333333333
 20
134.78999999999996
 10
79.70282714025501
 20
134.78999999999996
 10
79.70282714025501
 20
131.45666666666665
 10
167.07623333333333
 20
131.45666666666665
  0
HATCH
  5
323
330
17
100
AcDbEntity
  8
RAYADO_FORJADO
 62
7
100
AcDbHatch
 10
0.0
 20
0.0
 30
0.0
210
0.0
220
0.0
230
1.0
  2
SOLID
 70
1
 71
0
 91
1
 92
3
 72
0
 73
1
 93
4
 10
167.07623333333333
 20
134.78999999999996
 10
79.70282714025501
 20
134.78999999999996
 10
79.70282714025501
 20
131.45666666666665
 10
167.07623333333333
 20
131.45666666666665
 97
0
 75
1
 76
1
 98
0
  0
LWPOLYLINE
  5
324
330
17
100
AcDbEntity
  8
cubierta
100
AcDbPolyline
 90
49
 70
1
 10
73.3429
 20
134.79
 10
171.7429
 20
134.79
 10
168.70528708220405
 20
136.11610659439904
 10
165.66767416440837
 20
137.44221318879875
 10
162.63006124661243
 20
138.76831978319777
 10
159.5924483288166
 20
140.09442637759705
 10
156.55483541102083
 20
141.42053297199658
 10
153.51722249322495
 20
142.74663956639566
 10
150.4796095754291
 20
144.07274616079494
 10
147.44199665763327
 20
145.39885275519424
 10
144.4043837398374
 20
146.72495934959352
 10
141.36677082204153
 20
148.0510659439928
 10
138.3291579042457
 20
149.37717253839205
 10
135.29154498644985
 20
150.70327913279132
 10
132.253932068654
 20
152.0293857271906
 10
129.21631915085817
 20
153.3554923215899
 10
126.17870623306231
 20
154.68159891598918
 10
123.14109331526646
 20
156.00770551038843
 10
123.06631915085816
 20
156.00770551038846
 10
122.99154498644987
 20
156.00770551038846
 10
122.91677082204154
 20
156.00770551038846
 10
122.84199665763325
 20
156.00770551038846
 10
122.76722249322492
 20
156.00770551038846
 10
122.69244832881662
 20
156.00770551038846
 10
122.6176741644083
 20
156.00770551038846
 10
122.5429
 20
156.00770551038846
 10
122.4681258355917
 20
156.00770551038846
 10
122.39335167118338
 20
156.00770551038846
 10
122.31857750677506
 20
156.00770551038846
 10
122.24380334236676
 20
156.00770551038846
 10
122.16902917795846
 20
156.00770551038846
 10
122.09425501355014
 20
156.00770551038846
 10
122.01948084914184
 20
156.00770551038846
 10
121.94470668473352
 20
156.00770551038846
 10
118.90709376693766
 20
154.68159891598918
 10
115.86948084914184
 20
153.3554923215899
 10
112.83186793134598
 20
152.02938572719063
 10
109.79425501355013
 20
150.70327913279135
 10
106.7566420957543
 20
149.37717253839207
 10
103.71902917795845
 20
148.0510659439928
 10
100.68141626016262
 20
146.7249593495935
 10
97.64380334236677
 20
145.39885275519424
 10
94.60619042457091
 20
144.07274616079496
 10
91.56857750677507
 20
142.7466395663957
 10
88.53096458897919
 20
141.4205329719965
 10
85.49335167118339
 20
140.0944263775971
 10
82.45573875338756
 20
138.7683197831978
 10
79.41812583559167
 20
137.44221318879863
 10
76.3805129177959
 20
136.11610659439918
  0
DIMENSION
  5
325
330
17
100
AcDbEntity
  8
COTAS
100
AcDbDimension
280
0
  2
*D37
  3
EZDXF
 10
67.03274766515239
 20
43.99
 30
0.0
 11
64.33274766515238
 21
47.99
 31
0.0
 70
32
 71
5
  1
0.60
100
AcDbAlignedDimension
 13
75.03274766515239
 23
43.99
 33
0.0
 14
75.03274766515239
 24
51.99
 34
0.0
 50
90.0
100
AcDbRotatedDimension
1001
ACAD
1000
DSTYLE
1002
{
1070
140
1040
2.2
1070
41
1040
1.8
1070
44
1040
1.0
1070
42
1040
0.8
1070
147
1040
0.6
1070
77
1070
1
1070
178
1070
3
1002
}
  0
DIMENSION
  5
334
330
17
100
AcDbEntity
  8
COTAS
100
AcDbDimension
280
0
  2
*D38
  3
EZDXF
 10
67.03274766515239
 20
51.99
 30
0.0
 11
65.33274766515238
 21
72.05666666666667
 31
0.0
 70
32
 71
5
  1
3.01
100
AcDbAlignedDimension
 13
75.03274766515239
 23
51.99
 33
0.0
 14
75.03274766515239
 24
92.12333333333333
 34
0.0
 50
90.0
100
AcDbRotatedDimension
1001
ACAD
1000
DSTYLE
1002
{
1070
140
1040
2.2
1070
41
1040
1.8
1070
44
1040
1.0
1070
42
1040
0.8
1070
147
1040
0.6
1070
77
1070
1
1070
178
1070
3
1002
}
  0
DIMENSION
  5
343
330
17
100
AcDbEntity
  8
COTAS
100
AcDbDimension
280
0
  2
*D39
  3
EZDXF
 10
67.03274766515239
 20
92.12333333333333
 30
0.0
 11
64.33274766515238
 21
93.79
 31
0.0
 70
32
 71
5
  1
0.25
100
AcDbAlignedDimension
 13
75.03274766515239
 23
92.12333333333333
 33
0.0
 14
75.03274766515239
 24
95.45666666666668
 34
0.0
 50
90.0
100
AcDbRotatedDimension
1001
ACAD
1000
DSTYLE
1002
{
1070
140
1040
2.2
1070
41
1040
1.8
1070
44
1040
1.0
1070
42
1040
0.8
1070
147
1040
0.6
1070
77
1070
1
1070
178
1070
3
1002
}
  0
DIMENSION
  5
352
330
17
100
AcDbEntity
  8
COTAS
100
AcDbDimension
280
0
  2
*D40
  3
EZDXF
 10
67.03274766515239
 20
95.45666666666668
 30
0.0
 11
65.33274766515238
 21
113.45666666666668
 31
0.0
 70
32
 71
5
  1
2.70
100
AcDbAlignedDimension
 13
75.03274766515239
 23
95.45666666666668
 33
0.0
 14
75.03274766515239
 24
131.45666666666668
 34
0.0
 50
90.0
100
AcDbRotatedDimension
1001
ACAD
1000
DSTYLE
1002
{
1070
140
1040
2.2
1070
41
1040
1.8
1070
44
1040
1.0
1070
42
1040
0.8
1070
147
1040
0.6
1070
77
1070
1
1070
178
1070
3
1002
}
  0
DIMENSION
  5
361
330
17
100
AcDbEntity
  8
COTAS
100
AcDbDimension
280
0
  2
*D41
  3
EZDXF
 10
67.03274766515239
 20
131.45666666666668
 30
0.0
 11
64.33274766515238
 21
133.12333333333333
 31
0.0
 70
32
 71
5
  1
0.25
100
AcDbAlignedDimension
 13
75.03274766515239
 23
131.45666666666668
 33
0.0
 14
75.03274766515239
 24
134.79
 34
0.0
 50
90.0
100
AcDbRotatedDimension
1001
ACAD
1000
DSTYLE
1002
{
1070
140
1040
2.2
1070
41
1040
1.8
1070
44
1040
1.0
1070
42
1040
0.8
1070
147
1040
0.6
1070
77
1070
1
1070
178
1070
3
1002
}
  0
DIMENSION
  5
370
330
17
100
AcDbEntity
  8
COTAS
100
AcDbDimension
280
0
  2
*D42
  3
EZDXF
 10
67.03274766515239
 20
134.79
 30
0.0
 11
65.33274766515238
 21
145.45666666666665
 31
0.0
 70
32
 71
5
  1
1.60
100
AcDbAlignedDimension
 13
75.03274766515239
 23
134.79
 33
0.0
 14
75.03274766515239
 24
156.12333333333333
 34
0.0
 50
90.0
100
AcDbRotatedDimension
1001
ACAD
1000
DSTYLE
1002
{
1070
140
1040
2.2
1070
41
1040
1.8
1070
44
1040
1.0
1070
42
1040
0.8
1070
147
1040
0.6
1070
77
1070
1
1070
178
1070
3
1002
}
  0
DIMENSION
  5
37F
330
17
100
AcDbEntity
  8
COTAS
100
AcDbDimension
280
0
  2
*D43
  3
EZDXF
 10
59.032747665152385
 20
43.99
 30
0.0
 11
57.33274766515238
 21
100.05666666666667
 31
0.0
 70
32
 71
5
  1
8.41
100
AcDbAlignedDimension
 13
75.03274766515239
 23
43.99
 33
0.0
 14
75.03274766515239
 24
156.12333333333333
 34
0.0
 50
90.0
100
AcDbRotatedDimension
1001
ACAD
1000
DSTYLE
1002
{
1070
140
1040
2.2
1070
41
1040
1.8
1070
44
1040
1.0
1070
42
1040
0.8
1070
147
1040
0.6
1070
77
1070
1
1070
178
1070
3
1002
}
  0
DIMENSION
  5
38E
330
17
100
AcDbEntity
  8
COTAS
100
AcDbDimension
280
0
  2
*D44
  3
EZDXF
 10
75.03274766515239
 20
34.656666666666666
 30
0.0
 11
123.38782383257619
 21
36.35666666666667
 31
0.0
 70
32
 71
5
  1
7.25
100
AcDbAlignedDimension
 13
75.03274766515239
 23
43.99
 33
0.0
 14
171.7429
 24
43.99
 34
0.0
 50
0.0
100
AcDbRotatedDimension
1001
ACAD
1000
DSTYLE
1002
{
1070
140
1040
2.2
1070
41
1040
1.8
1070
44
1040
1.0
1070
42
1040
0.8
1070
147
1040
0.6
1070
77
1070
1
1070
178
1070
3
1002
}
  0
LINE
  5
39D
330
17
100
AcDbEntity
  8
COTAS
100
AcDbLine
 10
175.74290000000002
 20
51.99
 30
0.0
 11
185.07623333333333
 21
51.99
 31
0.0
  0
TEXT
  5
39E
330
17
100
AcDbEntity
  8
TEXTO
100
AcDbText
 10
185.74290000000002
 20
51.99
 30
0.0
 40
1.8
  1
±0.00 SUELO PB
 11
185.74290000000002
 21
51.99
 31
0.0
100
AcDbText
 73
2
  0
LINE
  5
39F
330
17
100
AcDbEntity
  8
COTAS
100
AcDbLine
 10
175.74290000000002
 20
95.45666666666668
 30
0.0
 11
185.07623333333333
 21
95.45666666666668
 31
0.0
  0
TEXT
  5
3A0
330
17
100
AcDbEntity
  8
TEXTO
100
AcDbText
 10
185.74290000000002
 20
95.45666666666668
 30
0.0
 40
1.8
  1
+3.26 SUELO PA
 11
185.74290000000002
 21
95.45666666666668
 31
0.0
100
AcDbText
 73
2
  0
LINE
  5
3A1
330
17
100
AcDbEntity
  8
COTAS
100
AcDbLine
 10
175.74290000000002
 20
131.45666666666668
 30
0.0
 11
185.07623333333333
 21
131.45666666666668
 31
0.0
  0
TEXT
  5
3A2
330
17
100
AcDbEntity
  8
TEXTO
100
AcDbText
 10
185.74290000000002
 20
131.45666666666668
 30
0.0
 40
1.8
  1
+5.96 FORJ. CUBIERTA
 11
185.74290000000002
 21
131.45666666666668
 31
0.0
100
AcDbText
 73
2
  0
TEXT
  5
3A3
330
17
100
AcDbEntity
  8
TEXTO
100
AcDbText
 10
123.38782383257617
 20
18.656666666666666
 30
0.0
 40
4.0
  1
SECCIÓN B-B' (por salón y murete)  esc. 1/75
 72
1
 11
123.38782383257617
 21
18.656666666666666
 31
0.0
100
AcDbText
 73
2
  0
TEXT
  5
3A4
330
17
100
AcDbEntity
  8
TEXTO
100
AcDbText
 10
300.0
 20
284.0
 30
0.0
 40
3.5
  1
CUADRO DE SUPERFICIES (croquis, exteriores)
100
AcDbText
  0
TEXT
  5
3A5
330
17
100
AcDbEntity
  8
TEXTO
100
AcDbText
 10
302.0
 20
275.0
 30
0.0
 40
2.5
  1
CONCEPTO
100
AcDbText
  0
TEXT
  5
3A6
330
17
100
AcDbEntity
  8
TEXTO
100
AcDbText
 10
407.0
 20
275.0
 30
0.0
 40
2.5
  1
PLANTA
100
AcDbText
  0
TEXT
  5
3A7
330
17
100
AcDbEntity
  8
TEXTO
100
AcDbText
 10
447.0
 20
275.0
 30
0.0
 40
2.5
  1
m²
100
AcDbText
  0
LWPOLYLINE
  5
3A8
330
17
100
AcDbEntity
  8
TABLA
100
AcDbPolyline
 90
4
 70
1
 10
300.0
 20
280.0
 10
480.0
 20
280.0
 10
480.0
 20
273.0
 10
300.0
 20
273.0
  0
TEXT
  5
3A9
330
17
100
AcDbEntity
  8
TEXTO
100
AcDbText
 10
302.0
 20
268.0
 30
0.0
 40
2.5
  1
Superficie construida (exterior)
100
AcDbText
  0
TEXT
  5
3AA
330
17
100
AcDbEntity
  8
TEXTO
100
AcDbText
 10
407.0
 20
268.0
 30
0.0
 40
2.5
  1
cada una
100
AcDbText
  0
TEXT
  5
3AB
330
17
100
AcDbEntity
  8
TEXTO
100
AcDbText
 10
447.0
 20
268.0
 30
0.0
 40
2.5
  1
142.38
100
AcDbText
  0
LWPOLYLINE
  5
3AC
330
17
100
AcDbEntity
  8
TABLA
100
AcDbPolyline
 90
4
 70
1
 10
300.0
 20
273.0
 10
480.0
 20
273.0
 10
480.0
 20
266.0
 10
300.0
 20
266.0
  0
TEXT
  5
3AD
330
17
100
AcDbEntity
  8
TEXTO
100
AcDbText
 10
302.0
 20
261.0
 30
0.0
 40
2.5
  1
Superficie interior (sin muro central)
100
AcDbText
  0
TEXT
  5
3AE
330
17
100
AcDbEntity
  8
TEXTO
100
AcDbText
 10
407.0
 20
261.0
 30
0.0
 40
2.5
  1
cada una
100
AcDbText
  0
TEXT
  5
3AF
330
17
100
AcDbEntity
  8
TEXTO
100
AcDbText
 10
447.0
 20
261.0
 30
0.0
 40
2.5
  1
120.45
100
AcDbText
  0
LWPOLYLINE
  5
3B0
330
17
100
AcDbEntity
  8
TABLA
100
AcDbPolyline
 90
4
 70
1
 10
300.0
 20
266.0
 10
480.0
 20
266.0
 10
480.0
 20
259.0
 10
300.0
 20
259.0
  0
TEXT
  5
3B1
330
17
100
AcDbEntity
  8
TEXTO
100
AcDbText
 10
302.0
 20
254.0
 30
0.0
 40
2.5
  1
Salón (aprox.)
100
AcDbText
  0
TEXT
  5
3B2
330
17
100
AcDbEntity
  8
TEXTO
100
AcDbText
 10
407.0
 20
254.0
 30
0.0
 40
2.5
  1
PB
100
AcDbText
  0
TEXT
  5
3B3
330
17
100
AcDbEntity
  8
TEXTO
100
AcDbText
 10
447.0
 20
254.0
 30
0.0
 40
2.5
  1
30.47
100
AcDbText
  0
LWPOLYLINE
  5
3B4
330
17
100
AcDbEntity
  8
TABLA
100
AcDbPolyline
 90
4
 70
1
 10
300.0
 20
259.0
 10
480.0
 20
259.0
 10
480.0
 20
252.0
 10
300.0
 20
252.0
  0
TEXT
  5
3B5
330
17
100
AcDbEntity
  8
TEXTO
100
AcDbText
 10
302.0
 20
247.0
 30
0.0
 40
2.5
  1
Pasillo de entrada (aprox.)
100
AcDbText
  0
TEXT
  5
3B6
330
17
100
AcDbEntity
  8
TEXTO
100
AcDbText
 10
407.0
 20
247.0
 30
0.0
 40
2.5
  1
PB
100
AcDbText
  0
TEXT
  5
3B7
330
17
100
AcDbEntity
  8
TEXTO
100
AcDbText
 10
447.0
 20
247.0
 30
0.0
 40
2.5
  1
9.13
100
AcDbText
  0
LWPOLYLINE
  5
3B8
330
17
100
AcDbEntity
  8
TABLA
100
AcDbPolyline
 90
4
 70
1
 10
300.0
 20
252.0
 10
480.0
 20
252.0
 10
480.0
 20
245.0
 10
300.0
 20
245.0
  0
TEXT
  5
3B9
330
17
100
AcDbEntity
  8
TEXTO
100
AcDbText
 10
302.0
 20
240.0
 30
0.0
 40
2.5
  1
Zona norte y anexo este
100
AcDbText
  0
TEXT
  5
3BA
330
17
100
AcDbEntity
  8
TEXTO
100
AcDbText
 10
407.0
 20
240.0
 30
0.0
 40
2.5
  1
PB/PA
100
AcDbText
  0
TEXT
  5
3BB
330
17
100
AcDbEntity
  8
TEXTO
100
AcDbText
 10
447.0
 20
240.0
 30
0.0
 40
2.5
  1
por definir
100
AcDbText
  0
LWPOLYLINE
  5
3BC
330
17
100
AcDbEntity
  8
TABLA
100
AcDbPolyline
 90
4
 70
1
 10
300.0
 20
245.0
 10
480.0
 20
245.0
 10
480.0
 20
238.0
 10
300.0
 20
238.0
  0
TEXT
  5
3BD
330
17
100
AcDbEntity
  8
TEXTO
100
AcDbText
 10
300.0
 20
230.0
 30
0.0
 40
2.2
  1
NOTAS: cotas en metros, exteriores según croquis a mano. Muros exteriores 0.40 m (supuesto).
100
AcDbText
  0
TEXT
  5
3BE
330
17
100
AcDbEntity
  8
TEXTO
100
AcDbText
 10
300.0
 20
225.0
 30
0.0
 40
2.2
  1
Muro central (0.30 m) continuo de cimentación a cubierta, en la línea sur del bloque norte (supuesto).
100
AcDbText
  0
TEXT
  5
3BF
330
17
100
AcDbEntity
  8
TEXTO
100
AcDbText
 10
300.0
 20
220.0
 30
0.0
 40
2.2
  1
Fondo del salón: 6.40 m en fachada y 6.68 m al fondo. Sin definir: habitaciones, escalera, huecos N/E, anexo este.
100
AcDbText
  0
TEXT
  5
3C0
330
17
100
AcDbEntity
  8
TEXTO
100
AcDbText
 10
300.0
 20
215.0
 30
0.0
 40
2.2
  1
Discrepancias del croquis: ancho 9.55 (arriba) / 9.64 (abajo); lado oeste del bloque sur sin acotar (7.32 supuesto).
100
AcDbText
  0
LWPOLYLINE
  5
3C1
330
17
100
AcDbEntity
  8
MARCO
100
AcDbPolyline
 90
4
 70
1
 10
640.0
 20
14.0
 10
825.0
 20
14.0
 10
825.0
 20
100.0
 10
640.0
 20
100.0
  0
LINE
  5
3C2
330
17
100
AcDbEntity
  8
TABLA
100
AcDbLine
 10
640.0
 20
32.0
 30
0.0
 11
825.0
 21
32.0
 31
0.0
  0
LINE
  5
3C3
330
17
100
AcDbEntity
  8
TABLA
100
AcDbLine
 10
640.0
 20
50.0
 30
0.0
 11
825.0
 21
50.0
 31
0.0
  0
LINE
  5
3C4
330
17
100
AcDbEntity
  8
TABLA
100
AcDbLine
 10
640.0
 20
68.0
 30
0.0
 11
825.0
 21
68.0
 31
0.0
  0
LINE
  5
3C5
330
17
100
AcDbEntity
  8
TABLA
100
AcDbLine
 10
640.0
 20
84.0
 30
0.0
 11
825.0
 21
84.0
 31
0.0
  0
LINE
  5
3C6
330
17
100
AcDbEntity
  8
TABLA
100
AcDbLine
 10
760.0
 20
14.0
 30
0.0
 11
760.0
 21
50.0
 31
0.0
  0
TEXT
  5
3C7
330
17
100
AcDbEntity
  8
TEXTO
100
AcDbText
 10
643.0
 20
94.0
 30
0.0
 40
2.0
  1
BORRADOR - SIN VISADO. Croquis de obra sobre base del proyecto exp. 25-01150-BE (COAA).
100
AcDbText
  0
TEXT
  5
3C8
330
17
100
AcDbEntity
  8
TEXTO
100
AcDbText
 10
643.0
 20
87.0
 30
0.0
 40
2.4
  1
VIVIENDA UNIFAMILIAR - Pol. 33, parc. 198, San Roque, Albox (Almería)
100
AcDbText
  0
TEXT
  5
3C9
330
17
100
AcDbEntity
  8
TEXTO
100
AcDbText
 10
643.0
 20
71.0
 30
0.0
 40
3.0
  1
ENVOLVENTE SOBRE CROQUIS - PLANTAS Y SECCIONES
100
AcDbText
  0
TEXT
  5
3CA
330
17
100
AcDbEntity
  8
TEXTO
100
AcDbText
 10
643.0
 20
54.0
 30
0.0
 40
2.6
  1
Plano: PLANTAS, SECCIONES Y COTAS
100
AcDbText
  0
TEXT
  5
3CB
330
17
100
AcDbEntity
  8
TEXTO
100
AcDbText
 10
763.0
 20
54.0
 30
0.0
 40
2.6
  1
Hoja: 01 / 01
100
AcDbText
  0
TEXT
  5
3CC
330
17
100
AcDbEntity
  8
TEXTO
100
AcDbText
 10
643.0
 20
36.0
 30
0.0
 40
2.6
  1
Escala: 1/75 (A1)
100
AcDbText
  0
TEXT
  5
3CD
330
17
100
AcDbEntity
  8
TEXTO
100
AcDbText
 10
763.0
 20
36.0
 30
0.0
 40
2.6
  1
Fecha: 29/09/2026
100
AcDbText
  0
TEXT
  5
3CE
330
17
100
AcDbEntity
  8
TEXTO
100
AcDbText
 10
643.0
 20
18.0
 30
0.0
 40
2.2
  1
Unidades: mm (papel)
100
AcDbText
  0
TEXT
  5
3CF
330
17
100
AcDbEntity
  8
TEXTO
100
AcDbText
 10
763.0
 20
18.0
 30
0.0
 40
2.6
  1
Rev.: R01
100
AcDbText
  0
ENDSEC
  0
SECTION
  2
OBJECTS
  0
DICTIONARY
  5
A
330
0
100
AcDbDictionary
281
1
  3
ACAD_COLOR
350
B
  3
ACAD_GROUP
350
C
  3
ACAD_LAYOUT
350
D
  3
ACAD_MATERIAL
350
E
  3
ACAD_MLEADERSTYLE
350
F
  3
ACAD_MLINESTYLE
350
10
  3
ACAD_PLOTSETTINGS
350
11
  3
ACAD_PLOTSTYLENAME
350
12
  3
ACAD_SCALELIST
350
14
  3
ACAD_TABLESTYLE
350
15
  3
ACAD_VISUALSTYLE
350
16
  3
EZDXF_META
350
2D
  0
DICTIONARY
  5
B
330
A
100
AcDbDictionary
281
1
  0
DICTIONARY
  5
C
330
A
100
AcDbDictionary
281
1
  0
DICTIONARY
  5
D
330
A
100
AcDbDictionary
281
1
  3
Model
350
1A
  3
Layout1
350
1E
  0
DICTIONARY
  5
E
330
A
100
AcDbDictionary
281
1
  3
ByBlock
350
1F
  3
ByLayer
350
20
  3
Global
350
21
  0
DICTIONARY
  5
F
330
A
100
AcDbDictionary
281
1
  3
Standard
350
2C
  0
DICTIONARY
  5
10
330
A
100
AcDbDictionary
281
1
  3
Standard
350
22
  0
DICTIONARY
  5
11
330
A
100
AcDbDictionary
281
1
  0
ACDBDICTIONARYWDFLT
  5
12
330
A
100
AcDbDictionary
281
1
  3
Normal
350
13
100
AcDbDictionaryWithDefault
340
13
  0
ACDBPLACEHOLDER
  5
13
330
12
  0
DICTIONARY
  5
14
330
A
100
AcDbDictionary
281
1
  0
DICTIONARY
  5
15
330
A
100
AcDbDictionary
281
1
  0
DICTIONARY
  5
16
330
A
100
AcDbDictionary
281
1
  3
2dWireframe
350
5A
  3
Basic
350
5B
  3
Brighten
350
5C
  3
ColorChange
350
5D
  3
Conceptual
350
5E
  3
Dim
350
5F
  3
EdgeColorOff
350
60
  3
Facepattern
350
61
  3
Flat
350
62
  3
FlatWithEdges
350
63
  3
Gouraud
350
64
  3
GouraudWithEdges
350
65
  3
Hidden
350
66
  3
JitterOff
350
67
  3
Linepattern
350
68
  3
Modeling
350
69
  3
OverhangOff
350
6A
  3
Realistic
350
6B
  3
Shaded
350
6C
  3
Shaded with edges
350
6D
  3
Shades of Gray
350
6E
  3
Sketchy
350
6F
  3
Thicken
350
70
  3
Wireframe
350
71
  3
X-Ray
350
72
  0
LAYOUT
  5
1A
330
D
100
AcDbPlotSettings
  1

  4
A3
  6

 40
7.5
 41
20.0
 42
7.5
 43
20.0
 44
420.0
 45
297.0
 46
0.0
 47
0.0
 48
0.0
 49
0.0
140
0.0
141
0.0
142
1.0
143
1.0
 70
1024
 72
1
 73
0
 74
5
  7

 75
16
 76
0
 77
2
 78
300
147
1.0
148
0.0
149
0.0
100
AcDbLayout
  1
Model
 70
1
 71
0
 10
0.0
 20
0.0
 11
420.0
 21
297.0
 12
0.0
 22
0.0
 32
0.0
 14
1e+20
 24
1e+20
 34
1e+20
 15
-1e+20
 25
-1e+20
 35
-1e+20
146
0.0
 13
0.0
 23
0.0
 33
0.0
 16
1.0
 26
0.0
 36
0.0
 17
0.0
 27
1.0
 37
0.0
 76
1
330
17
  0
LAYOUT
  5
1E
330
D
100
AcDbPlotSettings
  1

  4
A3
  6

 40
7.5
 41
20.0
 42
7.5
 43
20.0
 44
420.0
 45
297.0
 46
0.0
 47
0.0
 48
0.0
 49
0.0
140
0.0
141
0.0
142
1.0
143
1.0
 70
0
 72
1
 73
0
 74
5
  7

 75
16
 76
0
 77
2
 78
300
147
1.0
148
0.0
149
0.0
100
AcDbLayout
  1
Layout1
 70
1
 71
1
 10
0.0
 20
0.0
 11
420.0
 21
297.0
 12
0.0
 22
0.0
 32
0.0
 14
1e+20
 24
1e+20
 34
1e+20
 15
-1e+20
 25
-1e+20
 35
-1e+20
146
0.0
 13
0.0
 23
0.0
 33
0.0
 16
1.0
 26
0.0
 36
0.0
 17
0.0
 27
1.0
 37
0.0
 76
1
330
1B
  0
MATERIAL
  5
1F
102
{ACAD_REACTORS
330
E
102
}
330
E
100
AcDbMaterial
  1
ByBlock
  2

 70
0
 40
1.0
 71
1
 41
1.0
 91
-1023410177
 42
1.0
 72
1
  3

 73
1
 74
1
 75
1
 44
0.5
 73
0
 45
1.0
 46
1.0
 77
1
  4

 78
1
 79
1
170
1
 48
1.0
171
1
  6

172
1
173
1
174
1
140
1.0
141
1.0
175
1
  7

176
1
177
1
178
1
143
1.0
179
1
  8

270
1
271
1
272
1
145
1.0
146
1.0
273
1
  9

274
1
275
1
276
1
 42
1.0
 72
1
  3

 73
1
 74
1
 75
1
 94
63
  0
MATERIAL
  5
20
102
{ACAD_REACTORS
330
E
102
}
330
E
100
AcDbMaterial
  1
ByLayer
  2

 70
0
 40
1.0
 71
1
 41
1.0
 91
-1023410177
 42
1.0
 72
1
  3

 73
1
 74
1
 75
1
 44
0.5
 73
0
 45
1.0
 46
1.0
 77
1
  4

 78
1
 79
1
170
1
 48
1.0
171
1
  6

172
1
173
1
174
1
140
1.0
141
1.0
175
1
  7

176
1
177
1
178
1
143
1.0
179
1
  8

270
1
271
1
272
1
145
1.0
146
1.0
273
1
  9

274
1
275
1
276
1
 42
1.0
 72
1
  3

 73
1
 74
1
 75
1
 94
63
  0
MATERIAL
  5
21
102
{ACAD_REACTORS
330
E
102
}
330
E
100
AcDbMaterial
  1
Global
  2

 70
0
 40
1.0
 71
1
 41
1.0
 91
-1023410177
 42
1.0
 72
1
  3

 73
1
 74
1
 75
1
 44
0.5
 73
0
 45
1.0
 46
1.0
 77
1
  4

 78
1
 79
1
170
1
 48
1.0
171
1
  6

172
1
173
1
174
1
140
1.0
141
1.0
175
1
  7

176
1
177
1
178
1
143
1.0
179
1
  8

270
1
271
1
272
1
145
1.0
146
1.0
273
1
  9

274
1
275
1
276
1
 42
1.0
 72
1
  3

 73
1
 74
1
 75
1
 94
63
  0
MLINESTYLE
  5
22
102
{ACAD_REACTORS
330
10
102
}
330
10
100
AcDbMlineStyle
  2
Standard
 70
0
  3

 62
256
 51
90.0
 52
90.0
 71
2
 49
0.5
 62
256
  6
BYLAYER
 49
-0.5
 62
256
  6
BYLAYER
  0
MLEADERSTYLE
  5
2C
102
{ACAD_REACTORS
330
F
102
}
330
F
100
AcDbMLeaderStyle
179
2
170
2
171
1
172
0
 90
2
 40
0.0
 41
0.0
173
1
 91
-1056964608
 92
-2
290
1
 42
2.0
291
1
 43
8.0
  3
Standard
 44
4.0
300

342
29
174
1
175
1
176
0
178
1
 93
-1056964608
 45
4.0
292
0
297
0
 46
4.0
 94
-1056964608
 47
1.0
 49
1.0
140
1.0
294
1
141
0.0
177
0
142
1.0
295
0
296
0
143
3.75
271
0
272
9
273
9
  0
DICTIONARY
  5
2D
330
A
100
AcDbDictionary
280
1
281
1
  3
CREATED_BY_EZDXF
350
2E
  3
WRITTEN_BY_EZDXF
350
3D2
  0
DICTIONARYVAR
  5
2E
330
2D
100
DictionaryVariables
280
0
  1
1.4.4 @ 2026-09-29T12:45:52.146289+00:00
  0
VISUALSTYLE
  5
5A
102
{ACAD_REACTORS
330
16
102
}
330
16
100
AcDbVisualStyle
  2
2dWireframe
 70
4
 90
0
 40
0.6
 62
7
290
0
291
0
  0
VISUALSTYLE
  5
5B
102
{ACAD_REACTORS
330
16
102
}
330
16
100
AcDbVisualStyle
  2
Basic
 70
7
 90
1
 40
0.6
 62
7
290
0
291
1
  0
VISUALSTYLE
  5
5C
102
{ACAD_REACTORS
330
16
102
}
330
16
100
AcDbVisualStyle
  2
Brighten
 70
12
 90
2
 40
0.6
 62
7
290
0
291
1
  0
VISUALSTYLE
  5
5D
102
{ACAD_REACTORS
330
16
102
}
330
16
100
AcDbVisualStyle
  2
ColorChange
 70
16
 90
2
 40
0.6
 62
8
290
0
291
1
  0
VISUALSTYLE
  5
5E
102
{ACAD_REACTORS
330
16
102
}
330
16
100
AcDbVisualStyle
  2
Conceptual
 70
9
 90
3
 40
0.6
 62
7
290
0
291
0
  0
VISUALSTYLE
  5
5F
102
{ACAD_REACTORS
330
16
102
}
330
16
100
AcDbVisualStyle
  2
Dim
 70
11
 90
2
 40
0.6
 62
7
290
0
291
1
  0
VISUALSTYLE
  5
60
102
{ACAD_REACTORS
330
16
102
}
330
16
100
AcDbVisualStyle
  2
EdgeColorOff
 70
22
 90
2
 40
0.6
 62
7
290
0
291
1
  0
VISUALSTYLE
  5
61
102
{ACAD_REACTORS
330
16
102
}
330
16
100
AcDbVisualStyle
  2
Facepattern
 70
15
 90
2
 40
0.6
 62
7
290
0
291
1
  0
VISUALSTYLE
  5
62
102
{ACAD_REACTORS
330
16
102
}
330
16
100
AcDbVisualStyle
  2
Flat
 70
0
 90
2
 40
0.6
 62
7
290
0
291
1
  0
VISUALSTYLE
  5
63
102
{ACAD_REACTORS
330
16
102
}
330
16
100
AcDbVisualStyle
  2
FlatWithEdges
 70
1
 90
2
 40
0.6
 62
7
290
0
291
1
  0
VISUALSTYLE
  5
64
102
{ACAD_REACTORS
330
16
102
}
330
16
100
AcDbVisualStyle
  2
Gouraud
 70
2
 90
2
 40
0.6
 62
7
290
0
291
1
  0
VISUALSTYLE
  5
65
102
{ACAD_REACTORS
330
16
102
}
330
16
100
AcDbVisualStyle
  2
GouraudWithEdges
 70
3
 90
2
 40
0.6
 62
7
290
0
291
1
  0
VISUALSTYLE
  5
66
102
{ACAD_REACTORS
330
16
102
}
330
16
100
AcDbVisualStyle
  2
Hidden
 70
6
 90
1
 40
0.6
 62
7
290
0
291
0
  0
VISUALSTYLE
  5
67
102
{ACAD_REACTORS
330
16
102
}
330
16
100
AcDbVisualStyle
  2
JitterOff
 70
20
 90
2
 40
0.6
 62
7
290
0
291
1
  0
VISUALSTYLE
  5
68
102
{ACAD_REACTORS
330
16
102
}
330
16
100
AcDbVisualStyle
  2
Linepattern
 70
14
 90
2
 40
0.6
 62
7
290
0
291
1
  0
VISUALSTYLE
  5
69
102
{ACAD_REACTORS
330
16
102
}
330
16
100
AcDbVisualStyle
  2
Modeling
 70
10
 90
2
 40
0.6
 62
7
290
0
291
0
  0
VISUALSTYLE
  5
6A
102
{ACAD_REACTORS
330
16
102
}
330
16
100
AcDbVisualStyle
  2
OverhangOff
 70
21
 90
2
 40
0.6
 62
7
290
0
291
1
  0
VISUALSTYLE
  5
6B
102
{ACAD_REACTORS
330
16
102
}
330
16
100
AcDbVisualStyle
  2
Realistic
 70
8
 90
2
 40
0.6
 62
7
290
0
291
0
  0
VISUALSTYLE
  5
6C
102
{ACAD_REACTORS
330
16
102
}
330
16
100
AcDbVisualStyle
  2
Shaded
 70
27
 90
2
 40
0.6
 62
7
290
0
291
0
  0
VISUALSTYLE
  5
6D
102
{ACAD_REACTORS
330
16
102
}
330
16
100
AcDbVisualStyle
  2
Shaded with edges
 70
26
 90
2
 40
0.6
 62
7
290
0
291
0
  0
VISUALSTYLE
  5
6E
102
{ACAD_REACTORS
330
16
102
}
330
16
100
AcDbVisualStyle
  2
Shades of Gray
 70
23
 90
2
 40
0.6
 62
7
290
0
291
0
  0
VISUALSTYLE
  5
6F
102
{ACAD_REACTORS
330
16
102
}
330
16
100
AcDbVisualStyle
  2
Sketchy
 70
24
 90
1
 40
0.6
 62
7
290
0
291
0
  0
VISUALSTYLE
  5
70
102
{ACAD_REACTORS
330
16
102
}
330
16
100
AcDbVisualStyle
  2
Thicken
 70
13
 90
2
 40
0.6
 62
7
290
0
291
1
  0
VISUALSTYLE
  5
71
102
{ACAD_REACTORS
330
16
102
}
330
16
100
AcDbVisualStyle
  2
Wireframe
 70
5
 90
0
 40
0.6
 62
7
290
0
291
0
  0
VISUALSTYLE
  5
72
102
{ACAD_REACTORS
330
16
102
}
330
16
100
AcDbVisualStyle
  2
X-Ray
 70
25
 90
2
 40
0.5
 62
7
290
0
291
0
  0
DICTIONARYVAR
  5
3D2
330
2D
100
DictionaryVariables
280
0
  1
1.4.4 @ 2026-09-29T12:45:52.589074+00:00
  0
ENDSEC
  0
EOF
