  0
SECTION
  2
HEADER
  9
$ACADVER
  1
AC1024
  9
$ACADMAINTVER
 70
6
  9
$DWGCODEPAGE
  3
ANSI_1252
  9
$LASTSAVEDBY
  1
ezdxf
  9
$INSBASE
 10
0.0
 20
0.0
 30
0.0
  9
$EXTMIN
 10
1e+20
 20
1e+20
 30
1e+20
  9
$EXTMAX
 10
-1e+20
 20
-1e+20
 30
-1e+20
  9
$LIMMIN
 10
0.0
 20
0.0
  9
$LIMMAX
 10
420.0
 20
297.0
  9
$ORTHOMODE
 70
0
  9
$REGENMODE
 70
1
  9
$FILLMODE
 70
1
  9
$QTEXTMODE
 70
0
  9
$MIRRTEXT
 70
1
  9
$LTSCALE
 40
1.0
  9
$ATTMODE
 70
1
  9
$TEXTSIZE
 40
2.5
  9
$TRACEWID
 40
1.0
  9
$TEXTSTYLE
  7
OpenSans
  9
$CLAYER
  8
0
  9
$CELTYPE
  6
ByLayer
  9
$CECOLOR
 62
256
  9
$CELTSCALE
 40
1.0
  9
$DISPSILH
 70
0
  9
$DIMSCALE
 40
1.0
  9
$DIMASZ
 40
0.175
  9
$DIMEXO
 40
0.125
  9
$DIMDLI
 40
3.75
  9
$DIMRND
 40
0.0
  9
$DIMDLE
 40
0.0
  9
$DIMEXE
 40
0.375
  9
$DIMTP
 40
0.0
  9
$DIMTM
 40
0.0
  9
$DIMTXT
 40
0.25
  9
$DIMCEN
 40
2.5
  9
$DIMTSZ
 40
0.0
  9
$DIMTOL
 70
0
  9
$DIMLIM
 70
0
  9
$DIMTIH
 70
0
  9
$DIMTOH
 70
0
  9
$DIMSE1
 70
0
  9
$DIMSE2
 70
0
  9
$DIMTAD
 70
1
  9
$DIMZIN
 70
12
  9
$DIMBLK
  1
ARCHTICK
  9
$DIMASO
 70
1
  9
$DIMSHO
 70
1
  9
$DIMPOST
  1

  9
$DIMAPOST
  1

  9
$DIMALT
 70
0
  9
$DIMALTD
 70
3
  9
$DIMALTF
 40
0.03937007874
  9
$DIMLFAC
 40
100.0
  9
$DIMTOFL
 70
1
  9
$DIMTVP
 40
0.0
  9
$DIMTIX
 70
0
  9
$DIMSOXD
 70
0
  9
$DIMSAH
 70
0
  9
$DIMBLK1
  1

  9
$DIMBLK2
  1

  9
$DIMSTYLE
  2
EZDXF
  9
$DIMCLRD
 70
0
  9
$DIMCLRE
 70
0
  9
$DIMCLRT
 70
0
  9
$DIMTFAC
 40
0.5
  9
$DIMGAP
 40
0.1
  9
$DIMJUST
 70
0
  9
$DIMSD1
 70
0
  9
$DIMSD2
 70
0
  9
$DIMTOLJ
 70
0
  9
$DIMTZIN
 70
8
  9
$DIMALTZ
 70
0
  9
$DIMALTTZ
 70
0
  9
$DIMUPT
 70
1
  9
$DIMDEC
 70
2
  9
$DIMTDEC
 70
2
  9
$DIMALTU
 70
2
  9
$DIMALTTD
 70
3
  9
$DIMTXSTY
  7
OpenSansCondensed-Light
  9
$DIMAUNIT
 70
0
  9
$DIMADEC
 70
2
  9
$DIMALTRND
 40
0.0
  9
$DIMAZIN
 70
3
  9
$DIMDSEP
 70
46
  9
$DIMATFIT
 70
3
  9
$DIMFRAC
 70
0
  9
$DIMLDRBLK
  1

  9
$DIMLUNIT
 70
2
  9
$DIMLWD
 70
-2
  9
$DIMLWE
 70
-2
  9
$DIMTMOVE
 70
2
  9
$DIMFXL
 40
1.0
  9
$DIMFXLON
 70
0
  9
$DIMJOGANG
 40
0.785398163397
  9
$DIMTFILL
 70
0
  9
$DIMTFILLCLR
 70
0
  9
$DIMARCSYM
 70
0
  9
$DIMLTYPE
  6

  9
$DIMLTEX1
  6

  9
$DIMLTEX2
  6

  9
$DIMTXTDIRECTION
 70
0
  9
$LUNITS
 70
2
  9
$LUPREC
 70
4
  9
$SKETCHINC
 40
1.0
  9
$FILLETRAD
 40
10.0
  9
$AUNITS
 70
0
  9
$AUPREC
 70
2
  9
$MENU
  1
.
  9
$ELEVATION
 40
0.0
  9
$PELEVATION
 40
0.0
  9
$THICKNESS
 40
0.0
  9
$LIMCHECK
 70
0
  9
$CHAMFERA
 40
0.0
  9
$CHAMFERB
 40
0.0
  9
$CHAMFERC
 40
0.0
  9
$CHAMFERD
 40
0.0
  9
$SKPOLY
 70
0
  9
$TDCREATE
 40
2461313.581759259
  9
$TDUCREATE
 40
2458532.153996898
  9
$TDUPDATE
 40
2461313.581770833
  9
$TDUUPDATE
 40
2458532.1544311
  9
$TDINDWG
 40
0.0
  9
$TDUSRTIMER
 40
0.0
  9
$USRTIMER
 70
1
  9
$ANGBASE
 50
0.0
  9
$ANGDIR
 70
0
  9
$PDMODE
 70
0
  9
$PDSIZE
 40
0.0
  9
$PLINEWID
 40
0.0
  9
$SPLFRAME
 70
0
  9
$SPLINETYPE
 70
6
  9
$SPLINESEGS
 70
8
  9
$HANDSEED
  5
3C8
  9
$SURFTAB1
 70
6
  9
$SURFTAB2
 70
6
  9
$SURFTYPE
 70
6
  9
$SURFU
 70
6
  9
$SURFV
 70
6
  9
$UCSBASE
  2

  9
$UCSNAME
  2

  9
$UCSORG
 10
0.0
 20
0.0
 30
0.0
  9
$UCSXDIR
 10
1.0
 20
0.0
 30
0.0
  9
$UCSYDIR
 10
0.0
 20
1.0
 30
0.0
  9
$UCSORTHOREF
  2

  9
$UCSORTHOVIEW
 70
0
  9
$UCSORGTOP
 10
0.0
 20
0.0
 30
0.0
  9
$UCSORGBOTTOM
 10
0.0
 20
0.0
 30
0.0
  9
$UCSORGLEFT
 10
0.0
 20
0.0
 30
0.0
  9
$UCSORGRIGHT
 10
0.0
 20
0.0
 30
0.0
  9
$UCSORGFRONT
 10
0.0
 20
0.0
 30
0.0
  9
$UCSORGBACK
 10
0.0
 20
0.0
 30
0.0
  9
$PUCSBASE
  2

  9
$PUCSNAME
  2

  9
$PUCSORG
 10
0.0
 20
0.0
 30
0.0
  9
$PUCSXDIR
 10
1.0
 20
0.0
 30
0.0
  9
$PUCSYDIR
 10
0.0
 20
1.0
 30
0.0
  9
$PUCSORTHOREF
  2

  9
$PUCSORTHOVIEW
 70
0
  9
$PUCSORGTOP
 10
0.0
 20
0.0
 30
0.0
  9
$PUCSORGBOTTOM
 10
0.0
 20
0.0
 30
0.0
  9
$PUCSORGLEFT
 10
0.0
 20
0.0
 30
0.0
  9
$PUCSORGRIGHT
 10
0.0
 20
0.0
 30
0.0
  9
$PUCSORGFRONT
 10
0.0
 20
0.0
 30
0.0
  9
$PUCSORGBACK
 10
0.0
 20
0.0
 30
0.0
  9
$USERI1
 70
0
  9
$USERI2
 70
0
  9
$USERI3
 70
0
  9
$USERI4
 70
0
  9
$USERI5
 70
0
  9
$USERR1
 40
0.0
  9
$USERR2
 40
0.0
  9
$USERR3
 40
0.0
  9
$USERR4
 40
0.0
  9
$USERR5
 40
0.0
  9
$WORLDVIEW
 70
1
  9
$SHADEDGE
 70
3
  9
$SHADEDIF
 70
70
  9
$TILEMODE
 70
1
  9
$MAXACTVP
 70
64
  9
$PINSBASE
 10
0.0
 20
0.0
 30
0.0
  9
$PLIMCHECK
 70
0
  9
$PEXTMIN
 10
1e+20
 20
1e+20
 30
1e+20
  9
$PEXTMAX
 10
-1e+20
 20
-1e+20
 30
-1e+20
  9
$PLIMMIN
 10
0.0
 20
0.0
  9
$PLIMMAX
 10
420.0
 20
297.0
  9
$UNITMODE
 70
0
  9
$VISRETAIN
 70
1
  9
$PLINEGEN
 70
0
  9
$PSLTSCALE
 70
1
  9
$TREEDEPTH
 70
3020
  9
$CMLSTYLE
  2
Standard
  9
$CMLJUST
 70
0
  9
$CMLSCALE
 40
20.0
  9
$PROXYGRAPHICS
 70
1
  9
$MEASUREMENT
 70
1
  9
$CELWEIGHT
370
-1
  9
$ENDCAPS
280
0
  9
$JOINSTYLE
280
0
  9
$LWDISPLAY
290
0
  9
$INSUNITS
 70
4
  9
$HYPERLINKBASE
  1

  9
$STYLESHEET
  1

  9
$XEDIT
290
1
  9
$CEPSNTYPE
380
0
  9
$PSTYLEMODE
290
1
  9
$FINGERPRINTGUID
  2
{09DE35FA-48FB-4A34-A419-650B26302A9C}
  9
$VERSIONGUID
  2
{4A9A5611-57E0-4593-B92E-80365EACEA7A}
  9
$EXTNAMES
290
1
  9
$PSVPSCALE
 40
0.0
  9
$OLESTARTUP
290
0
  9
$SORTENTS
280
127
  9
$INDEXCTL
280
0
  9
$HIDETEXT
280
1
  9
$XCLIPFRAME
280
1
  9
$HALOGAP
280
0
  9
$OBSCOLOR
 70
257
  9
$OBSLTYPE
280
0
  9
$INTERSECTIONDISPLAY
280
0
  9
$INTERSECTIONCOLOR
 70
257
  9
$DIMASSOC
280
2
  9
$PROJECTNAME
  1

  9
$CAMERADISPLAY
290
0
  9
$LENSLENGTH
 40
50.0
  9
$CAMERAHEIGHT
 40
0.0
  9
$STEPSPERSEC
 40
24.0
  9
$STEPSIZE
 40
100.0
  9
$3DDWFPREC
 40
2.0
  9
$PSOLWIDTH
 40
0.005
  9
$PSOLHEIGHT
 40
0.08
  9
$LOFTANG1
 40
1.570796326795
  9
$LOFTANG2
 40
1.570796326795
  9
$LOFTMAG1
 40
0.0
  9
$LOFTMAG2
 40
0.0
  9
$LOFTPARAM
 70
7
  9
$LOFTNORMALS
280
1
  9
$LATITUDE
 40
37.795
  9
$LONGITUDE
 40
-122.394
  9
$NORTHDIRECTION
 40
0.0
  9
$TIMEZONE
 70
-8000
  9
$LIGHTGLYPHDISPLAY
280
1
  9
$TILEMODELIGHTSYNCH
280
1
  9
$CMATERIAL
347
20
  9
$SOLIDHIST
280
0
  9
$SHOWHIST
280
1
  9
$DWFFRAME
280
2
  9
$DGNFRAME
280
2
  9
$REALWORLDSCALE
290
1
  9
$INTERFERECOLOR
 62
256
  9
$CSHADOW
280
0
  9
$SHADOWPLANELOCATION
 40
0.0
  0
ENDSEC
  0
SECTION
  2
CLASSES
  0
CLASS
  1
ACDBDICTIONARYWDFLT
  2
AcDbDictionaryWithDefault
  3
ObjectDBX Classes
 90
0
 91
0
280
0
281
0
  0
CLASS
  1
SUN
  2
AcDbSun
  3
SCENEOE
 90
1153
 91
0
280
0
281
0
  0
CLASS
  1
VISUALSTYLE
  2
AcDbVisualStyle
  3
ObjectDBX Classes
 90
4095
 91
0
280
0
281
0
  0
CLASS
  1
MATERIAL
  2
AcDbMaterial
  3
ObjectDBX Classes
 90
1153
 91
0
280
0
281
0
  0
CLASS
  1
SCALE
  2
AcDbScale
  3
ObjectDBX Classes
 90
1153
 91
0
280
0
281
0
  0
CLASS
  1
TABLESTYLE
  2
AcDbTableStyle
  3
ObjectDBX Classes
 90
4095
 91
0
280
0
281
0
  0
CLASS
  1
MLEADERSTYLE
  2
AcDbMLeaderStyle
  3
ACDB_MLEADERSTYLE_CLASS
 90
4095
 91
0
280
0
281
0
  0
CLASS
  1
DICTIONARYVAR
  2
AcDbDictionaryVar
  3
ObjectDBX Classes
 90
0
 91
0
280
0
281
0
  0
CLASS
  1
CELLSTYLEMAP
  2
AcDbCellStyleMap
  3
ObjectDBX Classes
 90
1152
 91
0
280
0
281
0
  0
CLASS
  1
MENTALRAYRENDERSETTINGS
  2
AcDbMentalRayRenderSettings
  3
SCENEOE
 90
1024
 91
0
280
0
281
0
  0
CLASS
  1
ACDBDETAILVIEWSTYLE
  2
AcDbDetailViewStyle
  3
ObjectDBX Classes
 90
1025
 91
0
280
0
281
0
  0
CLASS
  1
ACDBSECTIONVIEWSTYLE
  2
AcDbSectionViewStyle
  3
ObjectDBX Classes
 90
1025
 91
0
280
0
281
0
  0
CLASS
  1
RASTERVARIABLES
  2
AcDbRasterVariables
  3
ISM
 90
0
 91
0
280
0
281
0
  0
CLASS
  1
LAYOUT
  2
AcDbLayout
  3
ObjectDBX Classes
 90
0
 91
0
280
0
281
0
  0
CLASS
  1
ACDBPLACEHOLDER
  2
AcDbPlaceHolder
  3
ObjectDBX Classes
 90
0
 91
0
280
0
281
0
  0
ENDSEC
  0
SECTION
  2
TABLES
  0
TABLE
  2
VPORT
  5
8
330
0
100
AcDbSymbolTable
 70
1
  0
VPORT
  5
23
330
8
100
AcDbSymbolTableRecord
100
AcDbViewportTableRecord
  2
*Active
 70
0
 10
0.0
 20
0.0
 11
1.0
 21
1.0
 12
0.0
 22
0.0
 13
0.0
 23
0.0
 14
0.5
 24
0.5
 15
0.5
 25
0.5
 16
0.0
 26
0.0
 36
1.0
 17
0.0
 27
0.0
 37
0.0
 40
1000.0
 41
1.34
 42
50.0
 43
0.0
 44
0.0
 50
0.0
 51
0.0
 71
0
 72
1000
 73
1
 74
3
 75
0
 76
0
 77
0
 78
0
281
0
 65
0
146
0.0
  0
ENDTAB
  0
TABLE
  2
LTYPE
  5
2
330
0
100
AcDbSymbolTable
 70
21
  0
LTYPE
  5
24
330
2
100
AcDbSymbolTableRecord
100
AcDbLinetypeTableRecord
  2
ByBlock
 70
0
  3

 72
65
 73
0
 40
0.0
  0
LTYPE
  5
25
330
2
100
AcDbSymbolTableRecord
100
AcDbLinetypeTableRecord
  2
ByLayer
 70
0
  3

 72
65
 73
0
 40
0.0
  0
LTYPE
  5
26
330
2
100
AcDbSymbolTableRecord
100
AcDbLinetypeTableRecord
  2
Continuous
 70
0
  3

 72
65
 73
0
 40
0.0
  0
LTYPE
  5
2F
330
2
100
AcDbSymbolTableRecord
100
AcDbLinetypeTableRecord
  2
CENTER
 70
0
  3
Center ____ _ ____ _ ____ _ ____ _ ____ _ ____
 72
65
 73
4
 40
5.08
 49
3.175
 74
0
 49
-0.635
 74
0
 49
0.635
 74
0
 49
-0.635
 74
0
  0
LTYPE
  5
30
330
2
100
AcDbSymbolTableRecord
100
AcDbLinetypeTableRecord
  2
CENTERX2
 70
0
  3
Center (2x) ________  __  ________  __  ________
 72
65
 73
4
 40
8.89
 49
6.35
 74
0
 49
-0.635
 74
0
 49
1.27
 74
0
 49
-0.635
 74
0
  0
LTYPE
  5
31
330
2
100
AcDbSymbolTableRecord
100
AcDbLinetypeTableRecord
  2
CENTER2
 70
0
  3
Center (.5x) ____ _ ____ _ ____ _ ____ _ ____
 72
65
 73
4
 40
2.54
 49
1.587
 74
0
 49
-0.318
 74
0
 49
0.318
 74
0
 49
-0.318
 74
0
  0
LTYPE
  5
32
330
2
100
AcDbSymbolTableRecord
100
AcDbLinetypeTableRecord
  2
DASHED
 70
0
  3
Dashed __ __ __ __ __ __ __ __ __ __ __ __ __ _
 72
65
 73
2
 40
1.524
 49
1.27
 74
0
 49
-0.254
 74
0
  0
LTYPE
  5
33
330
2
100
AcDbSymbolTableRecord
100
AcDbLinetypeTableRecord
  2
DASHEDX2
 70
0
  3
Dashed (2x) ____  ____  ____  ____  ____  ____
 72
65
 73
2
 40
3.048
 49
2.54
 74
0
 49
-0.508
 74
0
  0
LTYPE
  5
34
330
2
100
AcDbSymbolTableRecord
100
AcDbLinetypeTableRecord
  2
DASHED2
 70
0
  3
Dashed (.5x) _ _ _ _ _ _ _ _ _ _ _ _ _ _
 72
65
 73
2
 40
0.762
 49
0.635
 74
0
 49
-0.127
 74
0
  0
LTYPE
  5
35
330
2
100
AcDbSymbolTableRecord
100
AcDbLinetypeTableRecord
  2
PHANTOM
 70
0
  3
Phantom ______  __  __  ______  __  __  ______
 72
65
 73
6
 40
6.35
 49
3.175
 74
0
 49
-0.635
 74
0
 49
0.635
 74
0
 49
-0.635
 74
0
 49
0.635
 74
0
 49
-0.635
 74
0
  0
LTYPE
  5
36
330
2
100
AcDbSymbolTableRecord
100
AcDbLinetypeTableRecord
  2
PHANTOMX2
 70
0
  3
Phantom (2x)____________    ____    ____    ____________
 72
65
 73
6
 40
10.795
 49
6.35
 74
0
 49
-0.635
 74
0
 49
1.27
 74
0
 49
-0.635
 74
0
 49
1.27
 74
0
 49
-0.635
 74
0
  0
LTYPE
  5
37
330
2
100
AcDbSymbolTableRecord
100
AcDbLinetypeTableRecord
  2
PHANTOM2
 70
0
  3
Phantom (.5x) ___ _ _ ___ _ _ ___ _ _ ___ _ _ ___
 72
65
 73
6
 40
3.175
 49
1.587
 74
0
 49
-0.318
 74
0
 49
0.318
 74
0
 49
-0.318
 74
0
 49
0.318
 74
0
 49
-0.318
 74
0
  0
LTYPE
  5
38
330
2
100
AcDbSymbolTableRecord
100
AcDbLinetypeTableRecord
  2
DASHDOT
 70
0
  3
Dash dot __ . __ . __ . __ . __ . __ . __ . __
 72
65
 73
4
 40
3.556
 49
2.54
 74
0
 49
-0.508
 74
0
 49
0.0
 74
0
 49
-0.508
 74
0
  0
LTYPE
  5
39
330
2
100
AcDbSymbolTableRecord
100
AcDbLinetypeTableRecord
  2
DASHDOTX2
 70
0
  3
Dash dot (2x) ____  .  ____  .  ____  .  ____
 72
65
 73
4
 40
6.096
 49
5.08
 74
0
 49
-0.508
 74
0
 49
0.0
 74
0
 49
-0.508
 74
0
  0
LTYPE
  5
3A
330
2
100
AcDbSymbolTableRecord
100
AcDbLinetypeTableRecord
  2
DASHDOT2
 70
0
  3
Dash dot (.5x) _ . _ . _ . _ . _ . _ . _ . _
 72
65
 73
4
 40
1.778
 49
1.27
 74
0
 49
-0.254
 74
0
 49
0.0
 74
0
 49
-0.254
 74
0
  0
LTYPE
  5
3B
330
2
100
AcDbSymbolTableRecord
100
AcDbLinetypeTableRecord
  2
DOT
 70
0
  3
Dot .  .  .  .  .  .  .  .  .  .  .  .  .  .  .  .
 72
65
 73
2
 40
0.508
 49
0.0
 74
0
 49
-0.508
 74
0
  0
LTYPE
  5
3C
330
2
100
AcDbSymbolTableRecord
100
AcDbLinetypeTableRecord
  2
DOTX2
 70
0
  3
Dot (2x) .    .    .    .    .    .    .    . 
 72
65
 73
2
 40
1.016
 49
0.0
 74
0
 49
-1.016
 74
0
  0
LTYPE
  5
3D
330
2
100
AcDbSymbolTableRecord
100
AcDbLinetypeTableRecord
  2
DOT2
 70
0
  3
Dot (.5) . . . . . . . . . . . . . . . . . . . 
 72
65
 73
2
 40
0.254
 49
0.0
 74
0
 49
-0.254
 74
0
  0
LTYPE
  5
3E
330
2
100
AcDbSymbolTableRecord
100
AcDbLinetypeTableRecord
  2
DIVIDE
 70
0
  3
Divide __ . . __ . . __ . . __ . . __ . . __
 72
65
 73
6
 40
4.064
 49
2.54
 74
0
 49
-0.508
 74
0
 49
0.0
 74
0
 49
-0.508
 74
0
 49
0.0
 74
0
 49
-0.508
 74
0
  0
LTYPE
  5
3F
330
2
100
AcDbSymbolTableRecord
100
AcDbLinetypeTableRecord
  2
DIVIDEX2
 70
0
  3
Divide (2x) ____  . .  ____  . .  ____  . .  ____
 72
65
 73
6
 40
6.604
 49
5.08
 74
0
 49
-0.508
 74
0
 49
0.0
 74
0
 49
-0.508
 74
0
 49
0.0
 74
0
 49
-0.508
 74
0
  0
LTYPE
  5
40
330
2
100
AcDbSymbolTableRecord
100
AcDbLinetypeTableRecord
  2
DIVIDE2
 70
0
  3
Divide(.5x) _ . _ . _ . _ . _ . _ . _ . _
 72
65
 73
6
 40
2.032
 49
1.27
 74
0
 49
-0.254
 74
0
 49
0.0
 74
0
 49
-0.254
 74
0
 49
0.0
 74
0
 49
-0.254
 74
0
  0
ENDTAB
  0
TABLE
  2
LAYER
  5
1
330
0
100
AcDbSymbolTable
 70
42
  0
LAYER
  5
27
330
1
100
AcDbSymbolTableRecord
100
AcDbLayerTableRecord
  2
0
 70
0
 62
7
  6
Continuous
370
-3
390
13
347
21
  0
LAYER
  5
28
330
1
100
AcDbSymbolTableRecord
100
AcDbLayerTableRecord
  2
Defpoints
 70
0
 62
7
  6
Continuous
290
0
370
-3
390
13
347
21
  0
LAYER
  5
8A
330
1
100
AcDbSymbolTableRecord
100
AcDbLayerTableRecord
  2
cimentacion
 70
0
 62
8
  6
Continuous
370
25
390
13
347
21
  0
LAYER
  5
8B
330
1
100
AcDbSymbolTableRecord
100
AcDbLayerTableRecord
  2
muros_PB
 70
0
 62
7
  6
Continuous
370
50
390
13
347
21
  0
LAYER
  5
8C
330
1
100
AcDbSymbolTableRecord
100
AcDbLayerTableRecord
  2
muros_PA
 70
0
 62
7
  6
Continuous
370
50
390
13
347
21
  0
LAYER
  5
8D
330
1
100
AcDbSymbolTableRecord
100
AcDbLayerTableRecord
  2
MURO_CENTRAL
 70
0
 62
1
  6
Continuous
370
70
390
13
347
21
  0
LAYER
  5
8E
330
1
100
AcDbSymbolTableRecord
100
AcDbLayerTableRecord
  2
tabiques
 70
0
 62
3
  6
Continuous
370
25
390
13
347
21
  0
LAYER
  5
8F
330
1
100
AcDbSymbolTableRecord
100
AcDbLayerTableRecord
  2
forjado_PB_PA
 70
0
 62
5
  6
Continuous
370
35
390
13
347
21
  0
LAYER
  5
90
330
1
100
AcDbSymbolTableRecord
100
AcDbLayerTableRecord
  2
escalera
 70
0
 62
30
  6
Continuous
370
18
390
13
347
21
  0
LAYER
  5
91
330
1
100
AcDbSymbolTableRecord
100
AcDbLayerTableRecord
  2
losa_terraza
 70
0
 62
5
  6
Continuous
370
35
390
13
347
21
  0
LAYER
  5
92
330
1
100
AcDbSymbolTableRecord
100
AcDbLayerTableRecord
  2
pilares
 70
0
 62
1
  6
Continuous
370
50
390
13
347
21
  0
LAYER
  5
93
330
1
100
AcDbSymbolTableRecord
100
AcDbLayerTableRecord
  2
antepecho
 70
0
 62
7
  6
Continuous
370
35
390
13
347
21
  0
LAYER
  5
94
330
1
100
AcDbSymbolTableRecord
100
AcDbLayerTableRecord
  2
forjado_cubierta
 70
0
 62
5
  6
Continuous
370
35
390
13
347
21
  0
LAYER
  5
95
330
1
100
AcDbSymbolTableRecord
100
AcDbLayerTableRecord
  2
cubierta
 70
0
 62
6
  6
Continuous
370
35
390
13
347
21
  0
LAYER
  5
96
330
1
100
AcDbSymbolTableRecord
100
AcDbLayerTableRecord
  2
HUECOS
 70
0
 62
7
  6
Continuous
370
25
390
13
347
21
  0
LAYER
  5
97
330
1
100
AcDbSymbolTableRecord
100
AcDbLayerTableRecord
  2
CARPINTERIA
 70
0
 62
4
  6
Continuous
370
18
390
13
347
21
  0
LAYER
  5
98
330
1
100
AcDbSymbolTableRecord
100
AcDbLayerTableRecord
  2
COTAS
 70
0
 62
3
  6
Continuous
370
13
390
13
347
21
  0
LAYER
  5
99
330
1
100
AcDbSymbolTableRecord
100
AcDbLayerTableRecord
  2
TEXTO
 70
0
 62
2
  6
Continuous
370
13
390
13
347
21
  0
LAYER
  5
9A
330
1
100
AcDbSymbolTableRecord
100
AcDbLayerTableRecord
  2
ESCALERA_ALTA
 70
0
 62
30
  6
DASHED
370
18
390
13
347
21
  0
LAYER
  5
9B
330
1
100
AcDbSymbolTableRecord
100
AcDbLayerTableRecord
  2
CORTES
 70
0
 62
1
  6
DASHDOT
370
35
390
13
347
21
  0
LAYER
  5
9C
330
1
100
AcDbSymbolTableRecord
100
AcDbLayerTableRecord
  2
RAYADO_MURO
 70
0
 62
7
  6
Continuous
370
9
390
13
347
21
  0
LAYER
  5
9D
330
1
100
AcDbSymbolTableRecord
100
AcDbLayerTableRecord
  2
RAYADO_MURO_CENTRAL
 70
0
 62
1
  6
Continuous
370
9
390
13
347
21
  0
LAYER
  5
9E
330
1
100
AcDbSymbolTableRecord
100
AcDbLayerTableRecord
  2
RAYADO_FORJADO
 70
0
 62
7
  6
Continuous
370
9
390
13
347
21
  0
LAYER
  5
9F
330
1
100
AcDbSymbolTableRecord
100
AcDbLayerTableRecord
  2
RAYADO_OTROS
 70
0
 62
8
  6
Continuous
370
9
390
13
347
21
  0
LAYER
  5
A0
330
1
100
AcDbSymbolTableRecord
100
AcDbLayerTableRecord
  2
MARCO
 70
0
 62
7
  6
Continuous
370
70
390
13
347
21
  0
LAYER
  5
A1
330
1
100
AcDbSymbolTableRecord
100
AcDbLayerTableRecord
  2
TABLA
 70
0
 62
7
  6
Continuous
370
25
390
13
347
21
  0
LAYER
  5
A2
330
1
100
AcDbSymbolTableRecord
100
AcDbLayerTableRecord
  2
VIGUETAS
 70
0
 62
5
  6
Continuous
370
25
390
13
347
21
  0
LAYER
  5
A3
330
1
100
AcDbSymbolTableRecord
100
AcDbLayerTableRecord
  2
VIGAS
 70
0
 62
1
  6
Continuous
370
60
390
13
347
21
  0
LAYER
  5
A4
330
1
100
AcDbSymbolTableRecord
100
AcDbLayerTableRecord
  2
ZAPATAS
 70
0
 62
8
  6
DASHED
370
18
390
13
347
21
  0
LAYER
  5
A5
330
1
100
AcDbSymbolTableRecord
100
AcDbLayerTableRecord
  2
LUCERNARIO
 70
0
 62
30
  6
Continuous
370
18
390
13
347
21
  0
LAYER
  5
A6
330
1
100
AcDbSymbolTableRecord
100
AcDbLayerTableRecord
  2
parapeto_terraza
 70
0
 62
7
  6
Continuous
370
35
390
13
347
21
  0
LAYER
  5
A7
330
1
100
AcDbSymbolTableRecord
100
AcDbLayerTableRecord
  2
parapeto_cubierta
 70
0
 62
7
  6
Continuous
370
35
390
13
347
21
  0
LAYER
  5
A8
330
1
100
AcDbSymbolTableRecord
100
AcDbLayerTableRecord
  2
tabiques_PB
 70
0
 62
7
  6
Continuous
370
35
390
13
347
21
  0
LAYER
  5
A9
330
1
100
AcDbSymbolTableRecord
100
AcDbLayerTableRecord
  2
tabiques_PA
 70
0
 62
7
  6
Continuous
370
35
390
13
347
21
  0
LAYER
  5
AA
330
1
100
AcDbSymbolTableRecord
100
AcDbLayerTableRecord
  2
murete_pasillo
 70
0
 62
7
  6
Continuous
370
35
390
13
347
21
  0
LAYER
  5
AB
330
1
100
AcDbSymbolTableRecord
100
AcDbLayerTableRecord
  2
acero_viguetas_salon
 70
0
 62
5
  6
Continuous
370
35
390
13
347
21
  0
LAYER
  5
AC
330
1
100
AcDbSymbolTableRecord
100
AcDbLayerTableRecord
  2
acero_viguetas_casa
 70
0
 62
5
  6
Continuous
370
35
390
13
347
21
  0
LAYER
  5
AD
330
1
100
AcDbSymbolTableRecord
100
AcDbLayerTableRecord
  2
acero_viguetas_cubierta
 70
0
 62
5
  6
Continuous
370
35
390
13
347
21
  0
LAYER
  5
AE
330
1
100
AcDbSymbolTableRecord
100
AcDbLayerTableRecord
  2
acero_vigas_forjado
 70
0
 62
5
  6
Continuous
370
35
390
13
347
21
  0
LAYER
  5
AF
330
1
100
AcDbSymbolTableRecord
100
AcDbLayerTableRecord
  2
acero_vigas_cubierta
 70
0
 62
5
  6
Continuous
370
35
390
13
347
21
  0
LAYER
  5
B0
330
1
100
AcDbSymbolTableRecord
100
AcDbLayerTableRecord
  2
acero_pilares
 70
0
 62
5
  6
Continuous
370
35
390
13
347
21
  0
LAYER
  5
B1
330
1
100
AcDbSymbolTableRecord
100
AcDbLayerTableRecord
  2
acero_dintel
 70
0
 62
5
  6
Continuous
370
35
390
13
347
21
  0
ENDTAB
  0
TABLE
  2
STYLE
  5
5
330
0
100
AcDbSymbolTable
 70
26
  0
STYLE
  5
29
330
5
100
AcDbSymbolTableRecord
100
AcDbTextStyleTableRecord
  2
Standard
 70
0
 40
0.0
 41
1.0
 50
0.0
 71
0
 42
2.5
  3
txt
  4

  0
STYLE
  5
41
330
5
100
AcDbSymbolTableRecord
100
AcDbTextStyleTableRecord
  2
OpenSans-Light
 70
0
 40
0.0
 41
1.0
 50
0.0
 71
0
 42
2.5
  3
OpenSans-Light.ttf
  4

  0
STYLE
  5
42
330
5
100
AcDbSymbolTableRecord
100
AcDbTextStyleTableRecord
  2
OpenSans-Light-Italic
 70
0
 40
0.0
 41
1.0
 50
0.0
 71
0
 42
2.5
  3
OpenSans-LightItalic.ttf
  4

  0
STYLE
  5
43
330
5
100
AcDbSymbolTableRecord
100
AcDbTextStyleTableRecord
  2
OpenSans
 70
0
 40
0.0
 41
1.0
 50
0.0
 71
0
 42
2.5
  3
OpenSans-Regular.ttf
  4

  0
STYLE
  5
44
330
5
100
AcDbSymbolTableRecord
100
AcDbTextStyleTableRecord
  2
OpenSans-Italic
 70
0
 40
0.0
 41
1.0
 50
0.0
 71
0
 42
2.5
  3
OpenSans-Italic.ttf
  4

  0
STYLE
  5
45
330
5
100
AcDbSymbolTableRecord
100
AcDbTextStyleTableRecord
  2
OpenSans-SemiBold
 70
0
 40
0.0
 41
1.0
 50
0.0
 71
0
 42
2.5
  3
OpenSans-SemiBold.ttf
  4

  0
STYLE
  5
46
330
5
100
AcDbSymbolTableRecord
100
AcDbTextStyleTableRecord
  2
OpenSans-SemiBoldItalic
 70
0
 40
0.0
 41
1.0
 50
0.0
 71
0
 42
2.5
  3
OpenSans-SemiBoldItalic.ttf
  4

  0
STYLE
  5
47
330
5
100
AcDbSymbolTableRecord
100
AcDbTextStyleTableRecord
  2
OpenSans-Bold
 70
0
 40
0.0
 41
1.0
 50
0.0
 71
0
 42
2.5
  3
OpenSans-Bold.ttf
  4

  0
STYLE
  5
48
330
5
100
AcDbSymbolTableRecord
100
AcDbTextStyleTableRecord
  2
OpenSans-BoldItalic
 70
0
 40
0.0
 41
1.0
 50
0.0
 71
0
 42
2.5
  3
OpenSans-BoldItalic.ttf
  4

  0
STYLE
  5
49
330
5
100
AcDbSymbolTableRecord
100
AcDbTextStyleTableRecord
  2
OpenSans-ExtraBold
 70
0
 40
0.0
 41
1.0
 50
0.0
 71
0
 42
2.5
  3
OpenSans-ExtraBold.ttf
  4

  0
STYLE
  5
4A
330
5
100
AcDbSymbolTableRecord
100
AcDbTextStyleTableRecord
  2
OpenSans-ExtraBoldItalic
 70
0
 40
0.0
 41
1.0
 50
0.0
 71
0
 42
2.5
  3
OpenSans-ExtraBoldItalic.ttf
  4

  0
STYLE
  5
4B
330
5
100
AcDbSymbolTableRecord
100
AcDbTextStyleTableRecord
  2
OpenSansCondensed-Bold
 70
0
 40
0.0
 41
1.0
 50
0.0
 71
0
 42
2.5
  3
OpenSansCondensed-Bold.ttf
  4

  0
STYLE
  5
4C
330
5
100
AcDbSymbolTableRecord
100
AcDbTextStyleTableRecord
  2
OpenSansCondensed-Light
 70
0
 40
0.0
 41
1.0
 50
0.0
 71
0
 42
2.5
  3
OpenSansCondensed-Light.ttf
  4

  0
STYLE
  5
4D
330
5
100
AcDbSymbolTableRecord
100
AcDbTextStyleTableRecord
  2
OpenSansCondensed-Italic
 70
0
 40
0.0
 41
1.0
 50
0.0
 71
0
 42
2.5
  3
OpenSansCondensed-LightItalic.ttf
  4

  0
STYLE
  5
4E
330
5
100
AcDbSymbolTableRecord
100
AcDbTextStyleTableRecord
  2
LiberationSans
 70
0
 40
0.0
 41
1.0
 50
0.0
 71
0
 42
2.5
  3
LiberationSans-Regular.ttf
  4

  0
STYLE
  5
4F
330
5
100
AcDbSymbolTableRecord
100
AcDbTextStyleTableRecord
  2
LiberationSans-Bold
 70
0
 40
0.0
 41
1.0
 50
0.0
 71
0
 42
2.5
  3
LiberationSans-Bold.ttf
  4

  0
STYLE
  5
50
330
5
100
AcDbSymbolTableRecord
100
AcDbTextStyleTableRecord
  2
LiberationSans-BoldItalic
 70
0
 40
0.0
 41
1.0
 50
0.0
 71
0
 42
2.5
  3
LiberationSans-BoldItalic.ttf
  4

  0
STYLE
  5
51
330
5
100
AcDbSymbolTableRecord
100
AcDbTextStyleTableRecord
  2
LiberationSans-Italic
 70
0
 40
0.0
 41
1.0
 50
0.0
 71
0
 42
2.5
  3
LiberationSans-Italic.ttf
  4

  0
STYLE
  5
52
330
5
100
AcDbSymbolTableRecord
100
AcDbTextStyleTableRecord
  2
LiberationSerif
 70
0
 40
0.0
 41
1.0
 50
0.0
 71
0
 42
2.5
  3
LiberationSerif-Regular.ttf
  4

  0
STYLE
  5
53
330
5
100
AcDbSymbolTableRecord
100
AcDbTextStyleTableRecord
  2
LiberationSerif-Bold
 70
0
 40
0.0
 41
1.0
 50
0.0
 71
0
 42
2.5
  3
LiberationSerif-Bold.ttf
  4

  0
STYLE
  5
54
330
5
100
AcDbSymbolTableRecord
100
AcDbTextStyleTableRecord
  2
LiberationSerif-BoldItalic
 70
0
 40
0.0
 41
1.0
 50
0.0
 71
0
 42
2.5
  3
LiberationSerif-BoldItalic.ttf
  4

  0
STYLE
  5
55
330
5
100
AcDbSymbolTableRecord
100
AcDbTextStyleTableRecord
  2
LiberationSerif-Italic
 70
0
 40
0.0
 41
1.0
 50
0.0
 71
0
 42
2.5
  3
LiberationSerif-Italic.ttf
  4

  0
STYLE
  5
56
330
5
100
AcDbSymbolTableRecord
100
AcDbTextStyleTableRecord
  2
LiberationMono
 70
0
 40
0.0
 41
1.0
 50
0.0
 71
0
 42
2.5
  3
LiberationMono-Regular.ttf
  4

  0
STYLE
  5
57
330
5
100
AcDbSymbolTableRecord
100
AcDbTextStyleTableRecord
  2
LiberationMono-Bold
 70
0
 40
0.0
 41
1.0
 50
0.0
 71
0
 42
2.5
  3
LiberationMono-Bold.ttf
  4

  0
STYLE
  5
58
330
5
100
AcDbSymbolTableRecord
100
AcDbTextStyleTableRecord
  2
LiberationMono-BoldItalic
 70
0
 40
0.0
 41
1.0
 50
0.0
 71
0
 42
2.5
  3
LiberationMono-BoldItalic.ttf
  4

  0
STYLE
  5
59
330
5
100
AcDbSymbolTableRecord
100
AcDbTextStyleTableRecord
  2
LiberationMono-Italic
 70
0
 40
0.0
 41
1.0
 50
0.0
 71
0
 42
2.5
  3
LiberationMono-Italic.ttf
  4

  0
ENDTAB
  0
TABLE
  2
VIEW
  5
7
330
0
100
AcDbSymbolTable
 70
0
  0
ENDTAB
  0
TABLE
  2
UCS
  5
6
330
0
100
AcDbSymbolTable
 70
0
  0
ENDTAB
  0
TABLE
  2
APPID
  5
3
330
0
100
AcDbSymbolTable
 70
3
  0
APPID
  5
2A
330
3
100
AcDbSymbolTableRecord
100
AcDbRegAppTableRecord
  2
ACAD
 70
0
  0
APPID
  5
3C5
330
3
100
AcDbSymbolTableRecord
100
AcDbRegAppTableRecord
  2
HATCHBACKGROUNDCOLOR
 70
0
  0
APPID
  5
3C6
330
3
100
AcDbSymbolTableRecord
100
AcDbRegAppTableRecord
  2
EZDXF
 70
0
  0
ENDTAB
  0
TABLE
  2
DIMSTYLE
  5
4
330
0
100
AcDbSymbolTable
 70
12
100
AcDbDimStyleTable
  0
DIMSTYLE
105
2B
330
4
100
AcDbSymbolTableRecord
100
AcDbDimStyleTableRecord
  2
Standard
 70
0
 40
1.0
 41
2.5
 42
0.625
 43
3.75
 44
1.25
 45
0.0
 46
0.0
 47
0.0
 48
0.0
 49
2.5
140
2.5
141
2.5
142
0.0
143
0.03937007874
144
1.0
145
0.0
146
1.0
147
0.625
148
0.0
 69
0
 70
0
 71
0
 72
0
 73
0
 74
0
 75
0
 76
0
 77
1
 78
8
 79
3
170
0
171
3
172
1
173
0
174
0
175
0
176
0
177
0
178
0
179
2
271
2
272
2
273
2
274
3
275
0
276
0
277
2
278
44
279
0
280
0
281
0
282
0
283
0
284
8
285
0
286
0
288
0
289
3
290
0
371
-2
372
-2
  0
DIMSTYLE
105
73
330
4
100
AcDbSymbolTableRecord
100
AcDbDimStyleTableRecord
  2
EZDXF
 70
0
 40
1.0
 41
0.175
 42
0.125
 43
3.75
 44
0.375
 45
0.0
 46
0.0
 47
0.0
 48
0.0
 49
2.5
140
0.25
141
2.5
142
0.0
143
0.03937007874
144
100.0
145
0.0
146
0.5
147
0.1
148
0.0
 69
0
 70
0
 71
0
 72
0
 73
0
 74
0
 75
0
 76
0
 77
1
 78
12
 79
3
170
0
171
3
172
1
173
0
174
0
175
0
176
0
177
0
178
0
179
2
271
2
272
2
273
2
274
3
275
0
276
0
277
2
278
46
279
2
280
0
281
0
282
0
283
0
284
8
285
0
286
0
288
1
289
3
290
0
340
4C
342
74
371
-2
372
-2
  0
DIMSTYLE
105
7C
330
4
100
AcDbSymbolTableRecord
100
AcDbDimStyleTableRecord
  2
EZ_M_100_H25_CM
 70
0
 40
1.0
 41
0.25
 42
0.125
 43
3.75
 44
0.375
 45
0.0
 46
0.0
 47
0.0
 48
0.0
 49
2.5
140
0.25
141
2.5
142
0.125
143
0.03937007874
144
100.0
145
0.0
146
0.5
147
0.1
148
0.0
 69
0
 70
0
 71
0
 72
0
 73
0
 74
0
 75
0
 76
0
 77
1
 78
12
 79
3
170
0
171
3
172
1
173
0
174
0
175
0
176
0
177
0
178
0
179
2
271
2
272
2
273
2
274
3
275
0
276
0
277
2
278
46
279
2
280
0
281
0
282
0
283
0
284
8
285
0
286
0
288
1
289
3
290
0
340
4C
371
-2
372
-2
  0
DIMSTYLE
105
7D
330
4
100
AcDbSymbolTableRecord
100
AcDbDimStyleTableRecord
  2
EZ_M_50_H25_CM
 70
0
 40
1.0
 41
0.125
 42
0.0625
 43
3.75
 44
0.1875
 45
0.0
 46
0.0
 47
0.0
 48
0.0
 49
2.5
140
0.125
141
2.5
142
0.0625
143
0.03937007874
144
100.0
145
0.0
146
0.5
147
0.05
148
0.0
 69
0
 70
0
 71
0
 72
0
 73
0
 74
0
 75
0
 76
0
 77
1
 78
12
 79
3
170
0
171
3
172
1
173
0
174
0
175
0
176
0
177
0
178
0
179
2
271
2
272
2
273
2
274
3
275
0
276
0
277
2
278
46
279
2
280
0
281
0
282
0
283
0
284
8
285
0
286
0
288
1
289
3
290
0
340
4C
371
-2
372
-2
  0
DIMSTYLE
105
7E
330
4
100
AcDbSymbolTableRecord
100
AcDbDimStyleTableRecord
  2
EZ_M_25_H25_CM
 70
0
 40
1.0
 41
0.0625
 42
0.03125
 43
3.75
 44
0.09375
 45
0.0
 46
0.0
 47
0.0
 48
0.0
 49
2.5
140
0.0625
141
2.5
142
0.03125
143
0.03937007874
144
100.0
145
0.0
146
0.5
147
0.025
148
0.0
 69
0
 70
0
 71
0
 72
0
 73
0
 74
0
 75
0
 76
0
 77
1
 78
12
 79
3
170
0
171
3
172
1
173
0
174
0
175
0
176
0
177
0
178
0
179
2
271
2
272
2
273
2
274
3
275
0
276
0
277
2
278
46
279
2
280
0
281
0
282
0
283
0
284
8
285
0
286
0
288
1
289
3
290
0
340
4C
371
-2
372
-2
  0
DIMSTYLE
105
7F
330
4
100
AcDbSymbolTableRecord
100
AcDbDimStyleTableRecord
  2
EZ_M_20_H25_CM
 70
0
 40
1.0
 41
0.05
 42
0.025
 43
3.75
 44
0.07500000000000001
 45
0.0
 46
0.0
 47
0.0
 48
0.0
 49
2.5
140
0.05
141
2.5
142
0.025
143
0.03937007874
144
100.0
145
0.0
146
0.5
147
0.020000000000000004
148
0.0
 69
0
 70
0
 71
0
 72
0
 73
0
 74
0
 75
0
 76
0
 77
1
 78
12
 79
3
170
0
171
3
172
1
173
0
174
0
175
0
176
0
177
0
178
0
179
2
271
2
272
2
273
2
274
3
275
0
276
0
277
2
278
46
279
2
280
0
281
0
282
0
283
0
284
8
285
0
286
0
288
1
289
3
290
0
340
4C
371
-2
372
-2
  0
DIMSTYLE
105
80
330
4
100
AcDbSymbolTableRecord
100
AcDbDimStyleTableRecord
  2
EZ_M_10_H25_CM
 70
0
 40
1.0
 41
0.025
 42
0.0125
 43
3.75
 44
0.037500000000000006
 45
0.0
 46
0.0
 47
0.0
 48
0.0
 49
2.5
140
0.025
141
2.5
142
0.0125
143
0.03937007874
144
100.0
145
0.0
146
0.5
147
0.010000000000000002
148
0.0
 69
0
 70
0
 71
0
 72
0
 73
0
 74
0
 75
0
 76
0
 77
1
 78
12
 79
3
170
0
171
3
172
1
173
0
174
0
175
0
176
0
177
0
178
0
179
2
271
2
272
2
273
2
274
3
275
0
276
0
277
2
278
46
279
2
280
0
281
0
282
0
283
0
284
8
285
0
286
0
288
1
289
3
290
0
340
4C
371
-2
372
-2
  0
DIMSTYLE
105
81
330
4
100
AcDbSymbolTableRecord
100
AcDbDimStyleTableRecord
  2
EZ_M_5_H25_CM
 70
0
 40
1.0
 41
0.0125
 42
0.00625
 43
3.75
 44
0.018750000000000003
 45
0.0
 46
0.0
 47
0.0
 48
0.0
 49
2.5
140
0.0125
141
2.5
142
0.00625
143
0.03937007874
144
100.0
145
0.0
146
0.5
147
0.005000000000000001
148
0.0
 69
0
 70
0
 71
0
 72
0
 73
0
 74
0
 75
0
 76
0
 77
1
 78
12
 79
3
170
0
171
3
172
1
173
0
174
0
175
0
176
0
177
0
178
0
179
2
271
2
272
2
273
2
274
3
275
0
276
0
277
2
278
46
279
2
280
0
281
0
282
0
283
0
284
8
285
0
286
0
288
1
289
3
290
0
340
4C
371
-2
372
-2
  0
DIMSTYLE
105
82
330
4
100
AcDbSymbolTableRecord
100
AcDbDimStyleTableRecord
  2
EZ_M_1_H25_CM
 70
0
 40
1.0
 41
0.0025
 42
0.00125
 43
3.75
 44
0.00375
 45
0.0
 46
0.0
 47
0.0
 48
0.0
 49
2.5
140
0.0025
141
2.5
142
0.00125
143
0.03937007874
144
100.0
145
0.0
146
0.5
147
0.001
148
0.0
 69
0
 70
0
 71
0
 72
0
 73
0
 74
0
 75
0
 76
0
 77
1
 78
12
 79
3
170
0
171
3
172
1
173
0
174
0
175
0
176
0
177
0
178
0
179
2
271
2
272
2
273
2
274
3
275
0
276
0
277
2
278
46
279
2
280
0
281
0
282
0
283
0
284
8
285
0
286
0
288
1
289
3
290
0
340
4C
371
-2
372
-2
  0
DIMSTYLE
105
83
330
4
100
AcDbSymbolTableRecord
100
AcDbDimStyleTableRecord
  2
EZ_RADIUS
 70
0
 40
1.0
 41
0.25
 42
0.125
 43
3.75
 44
0.375
 45
0.0
 46
0.0
 47
0.0
 48
0.0
 49
2.5
140
0.25
141
0.0
142
0.0
143
0.03937007874
144
100.0
145
0.0
146
0.5
147
0.1
148
0.0
 69
0
 70
0
 71
0
 72
0
 73
0
 74
0
 75
0
 76
0
 77
1
 78
12
 79
3
170
0
171
3
172
0
173
0
174
0
175
0
176
0
177
0
178
0
179
2
271
2
272
2
273
2
274
3
275
0
276
0
277
2
278
46
279
1
280
0
281
0
282
0
283
0
284
8
285
0
286
0
288
1
289
3
290
0
340
4C
342
84
371
-2
372
-2
  0
DIMSTYLE
105
88
330
4
100
AcDbSymbolTableRecord
100
AcDbDimStyleTableRecord
  2
EZ_RADIUS_INSIDE
 70
0
 40
1.0
 41
0.25
 42
0.125
 43
3.75
 44
0.375
 45
0.0
 46
0.0
 47
0.0
 48
0.0
 49
2.5
140
0.25
141
0.0
142
0.0
143
0.03937007874
144
100.0
145
0.0
146
0.5
147
0.1
148
0.0
 69
0
 70
0
 71
0
 72
0
 73
0
 74
0
 75
0
 76
0
 77
0
 78
12
 79
3
170
0
171
3
172
0
173
0
174
1
175
0
176
0
177
0
178
0
179
2
271
2
272
2
273
2
274
3
275
0
276
0
277
2
278
46
279
0
280
0
281
0
282
0
283
0
284
8
285
0
286
0
288
1
289
0
290
0
340
4C
342
84
371
-2
372
-2
  0
DIMSTYLE
105
89
330
4
100
AcDbSymbolTableRecord
100
AcDbDimStyleTableRecord
  2
EZ_CURVED
 70
0
 40
1.0
 41
0.25
 42
0.125
 43
3.75
 44
0.375
 45
0.0
 46
0.0
 47
0.0
 48
0.0
 49
2.5
140
0.25
141
2.5
142
0.0
143
0.03937007874
144
100.0
145
0.0
146
0.5
147
0.1
148
0.0
 69
0
 70
0
 71
0
 72
0
 73
0
 74
0
 75
0
 76
0
 77
1
 78
12
 79
2
 90
2
170
0
171
3
172
1
173
0
174
0
175
0
176
0
177
0
178
0
179
2
271
2
272
2
273
2
274
3
275
0
276
0
277
2
278
46
279
2
280
0
281
0
282
0
283
0
284
8
285
0
286
0
288
1
289
3
290
0
340
4C
371
-2
372
-2
  0
ENDTAB
  0
TABLE
  2
BLOCK_RECORD
  5
9
330
0
100
AcDbSymbolTable
 70
37
  0
BLOCK_RECORD
  5
17
330
9
100
AcDbSymbolTableRecord
100
AcDbBlockTableRecord
  2
*Model_Space
340
1A
 70
0
280
1
281
0
  0
BLOCK_RECORD
  5
1B
330
9
100
AcDbSymbolTableRecord
100
AcDbBlockTableRecord
  2
*Paper_Space
340
1E
 70
0
280
1
281
0
  0
BLOCK_RECORD
  5
74
330
9
100
AcDbSymbolTableRecord
100
AcDbBlockTableRecord
  2
_ARCHTICK
340
0
 70
0
280
1
281
0
  0
BLOCK_RECORD
  5
78
330
9
100
AcDbSymbolTableRecord
100
AcDbBlockTableRecord
  2
_CLOSEDFILLED
340
0
 70
0
280
1
281
0
  0
BLOCK_RECORD
  5
84
330
9
100
AcDbSymbolTableRecord
100
AcDbBlockTableRecord
  2
_CLOSEDBLANK
340
0
 70
0
280
1
281
0
  0
BLOCK_RECORD
  5
115
330
9
100
AcDbSymbolTableRecord
100
AcDbBlockTableRecord
  2
*D1
340
0
 70
0
280
1
281
0
  0
BLOCK_RECORD
  5
124
330
9
100
AcDbSymbolTableRecord
100
AcDbBlockTableRecord
  2
*D2
340
0
 70
0
280
1
281
0
  0
BLOCK_RECORD
  5
133
330
9
100
AcDbSymbolTableRecord
100
AcDbBlockTableRecord
  2
*D3
340
0
 70
0
280
1
281
0
  0
BLOCK_RECORD
  5
142
330
9
100
AcDbSymbolTableRecord
100
AcDbBlockTableRecord
  2
*D4
340
0
 70
0
280
1
281
0
  0
BLOCK_RECORD
  5
151
330
9
100
AcDbSymbolTableRecord
100
AcDbBlockTableRecord
  2
*D5
340
0
 70
0
280
1
281
0
  0
BLOCK_RECORD
  5
160
330
9
100
AcDbSymbolTableRecord
100
AcDbBlockTableRecord
  2
*D6
340
0
 70
0
280
1
281
0
  0
BLOCK_RECORD
  5
16F
330
9
100
AcDbSymbolTableRecord
100
AcDbBlockTableRecord
  2
*D7
340
0
 70
0
280
1
281
0
  0
BLOCK_RECORD
  5
17E
330
9
100
AcDbSymbolTableRecord
100
AcDbBlockTableRecord
  2
*D8
340
0
 70
0
280
1
281
0
  0
BLOCK_RECORD
  5
18D
330
9
100
AcDbSymbolTableRecord
100
AcDbBlockTableRecord
  2
*D9
340
0
 70
0
280
1
281
0
  0
BLOCK_RECORD
  5
19C
330
9
100
AcDbSymbolTableRecord
100
AcDbBlockTableRecord
  2
*D10
340
0
 70
0
280
1
281
0
  0
BLOCK_RECORD
  5
1AB
330
9
100
AcDbSymbolTableRecord
100
AcDbBlockTableRecord
  2
*D11
340
0
 70
0
280
1
281
0
  0
BLOCK_RECORD
  5
1BA
330
9
100
AcDbSymbolTableRecord
100
AcDbBlockTableRecord
  2
*D12
340
0
 70
0
280
1
281
0
  0
BLOCK_RECORD
  5
1C9
330
9
100
AcDbSymbolTableRecord
100
AcDbBlockTableRecord
  2
*D13
340
0
 70
0
280
1
281
0
  0
BLOCK_RECORD
  5
222
330
9
100
AcDbSymbolTableRecord
100
AcDbBlockTableRecord
  2
*D14
340
0
 70
0
280
1
281
0
  0
BLOCK_RECORD
  5
231
330
9
100
AcDbSymbolTableRecord
100
AcDbBlockTableRecord
  2
*D15
340
0
 70
0
280
1
281
0
  0
BLOCK_RECORD
  5
240
330
9
100
AcDbSymbolTableRecord
100
AcDbBlockTableRecord
  2
*D16
340
0
 70
0
280
1
281
0
  0
BLOCK_RECORD
  5
24F
330
9
100
AcDbSymbolTableRecord
100
AcDbBlockTableRecord
  2
*D17
340
0
 70
0
280
1
281
0
  0
BLOCK_RECORD
  5
25E
330
9
100
AcDbSymbolTableRecord
100
AcDbBlockTableRecord
  2
*D18
340
0
 70
0
280
1
281
0
  0
BLOCK_RECORD
  5
26D
330
9
100
AcDbSymbolTableRecord
100
AcDbBlockTableRecord
  2
*D19
340
0
 70
0
280
1
281
0
  0
BLOCK_RECORD
  5
27C
330
9
100
AcDbSymbolTableRecord
100
AcDbBlockTableRecord
  2
*D20
340
0
 70
0
280
1
281
0
  0
BLOCK_RECORD
  5
28B
330
9
100
AcDbSymbolTableRecord
100
AcDbBlockTableRecord
  2
*D21
340
0
 70
0
280
1
281
0
  0
BLOCK_RECORD
  5
29A
330
9
100
AcDbSymbolTableRecord
100
AcDbBlockTableRecord
  2
*D22
340
0
 70
0
280
1
281
0
  0
BLOCK_RECORD
  5
2A9
330
9
100
AcDbSymbolTableRecord
100
AcDbBlockTableRecord
  2
*D23
340
0
 70
0
280
1
281
0
  0
BLOCK_RECORD
  5
2B8
330
9
100
AcDbSymbolTableRecord
100
AcDbBlockTableRecord
  2
*D24
340
0
 70
0
280
1
281
0
  0
BLOCK_RECORD
  5
2C7
330
9
100
AcDbSymbolTableRecord
100
AcDbBlockTableRecord
  2
*D25
340
0
 70
0
280
1
281
0
  0
BLOCK_RECORD
  5
2D6
330
9
100
AcDbSymbolTableRecord
100
AcDbBlockTableRecord
  2
*D26
340
0
 70
0
280
1
281
0
  0
BLOCK_RECORD
  5
33C
330
9
100
AcDbSymbolTableRecord
100
AcDbBlockTableRecord
  2
*D27
340
0
 70
0
280
1
281
0
  0
BLOCK_RECORD
  5
34B
330
9
100
AcDbSymbolTableRecord
100
AcDbBlockTableRecord
  2
*D28
340
0
 70
0
280
1
281
0
  0
BLOCK_RECORD
  5
35A
330
9
100
AcDbSymbolTableRecord
100
AcDbBlockTableRecord
  2
*D29
340
0
 70
0
280
1
281
0
  0
BLOCK_RECORD
  5
369
330
9
100
AcDbSymbolTableRecord
100
AcDbBlockTableRecord
  2
*D30
340
0
 70
0
280
1
281
0
  0
BLOCK_RECORD
  5
378
330
9
100
AcDbSymbolTableRecord
100
AcDbBlockTableRecord
  2
*D31
340
0
 70
0
280
1
281
0
  0
BLOCK_RECORD
  5
387
330
9
100
AcDbSymbolTableRecord
100
AcDbBlockTableRecord
  2
*D32
340
0
 70
0
280
1
281
0
  0
ENDTAB
  0
ENDSEC
  0
SECTION
  2
BLOCKS
  0
BLOCK
  5
18
330
17
100
AcDbEntity
  8
0
100
AcDbBlockBegin
  2
*Model_Space
 70
0
 10
0.0
 20
0.0
 30
0.0
  3
*Model_Space
  1

  0
ENDBLK
  5
19
330
17
100
AcDbEntity
  8
0
100
AcDbBlockEnd
  0
BLOCK
  5
1C
330
1B
100
AcDbEntity
  8
0
100
AcDbBlockBegin
  2
*Paper_Space
 70
0
 10
0.0
 20
0.0
 30
0.0
  3
*Paper_Space
  1

  0
ENDBLK
  5
1D
330
1B
100
AcDbEntity
  8
0
100
AcDbBlockEnd
  0
BLOCK
  5
75
330
74
100
AcDbEntity
  8
0
100
AcDbBlockBegin
  2
_ARCHTICK
 70
0
 10
0.0
 20
0.0
 30
0.0
  3
_ARCHTICK
  1

  0
LWPOLYLINE
  5
77
330
74
100
AcDbEntity
  8
0
  6
BYBLOCK
 62
0
100
AcDbPolyline
 90
2
 70
0
 43
0.15
 10
-0.5
 20
-0.5
 10
0.5
 20
0.5
  0
ENDBLK
  5
76
330
74
100
AcDbEntity
  8
0
100
AcDbBlockEnd
  0
BLOCK
  5
79
330
78
100
AcDbEntity
  8
0
100
AcDbBlockBegin
  2
_CLOSEDFILLED
 70
0
 10
0.0
 20
0.0
 30
0.0
  3
_CLOSEDFILLED
  1

  0
SOLID
  5
7B
330
78
100
AcDbEntity
  8
0
  6
BYBLOCK
 62
0
100
AcDbTrace
 10
-1.0
 20
0.16439898372402537
 30
0.0
 11
0.0
 21
0.0
 31
0.0
 12
-1.0
 22
-0.16439898372402537
 32
0.0
 13
-1.0
 23
-0.16439898372402537
 33
0.0
  0
ENDBLK
  5
7A
330
78
100
AcDbEntity
  8
0
100
AcDbBlockEnd
  0
BLOCK
  5
85
330
84
100
AcDbEntity
  8
0
100
AcDbBlockBegin
  2
_CLOSEDBLANK
 70
0
 10
0.0
 20
0.0
 30
0.0
  3
_CLOSEDBLANK
  1

  0
LWPOLYLINE
  5
87
330
84
100
AcDbEntity
  8
0
  6
BYBLOCK
 62
0
100
AcDbPolyline
 90
3
 70
1
 10
-1.0
 20
0.16439898372402537
 10
0.0
 20
0.0
 10
-1.0
 20
-0.16439898372402537
  0
ENDBLK
  5
86
330
84
100
AcDbEntity
  8
0
100
AcDbBlockEnd
  0
BLOCK
  5
116
330
115
100
AcDbEntity
  8
0
100
AcDbBlockBegin
  2
*D1
 70
1
 10
0.0
 20
0.0
 30
0.0
  3
*D1
  1

  0
LINE
  5
118
330
115
100
AcDbEntity
  8
0
100
AcDbLine
 10
69.66666666666667
 20
560.1333333333333
 30
0.0
 11
69.66666666666667
 21
577.6666666666667
 31
0.0
  0
LINE
  5
119
330
115
100
AcDbEntity
  8
0
100
AcDbLine
 10
107.33333333333334
 20
560.1333333333333
 30
0.0
 11
107.33333333333334
 21
577.6666666666667
 31
0.0
  0
INSERT
  5
11A
330
115
100
AcDbEntity
  8
COTAS
100
AcDbBlockReference
  2
_ARCHTICK
 10
69.66666666666667
 20
576.6666666666667
 30
0.0
 41
1.8
 42
1.8
 50
180.0
  0
INSERT
  5
11C
330
115
100
AcDbEntity
  8
COTAS
100
AcDbBlockReference
  2
_ARCHTICK
 10
107.33333333333334
 20
576.6666666666667
 30
0.0
 41
1.8
 42
1.8
  0
LINE
  5
11E
330
115
100
AcDbEntity
  8
0
100
AcDbLine
 10
69.66666666666667
 20
576.6666666666667
 30
0.0
 11
107.33333333333334
 21
576.6666666666667
 31
0.0
  0
MTEXT
  5
11F
330
115
100
AcDbEntity
  8
COTAS
 62
3
100
AcDbMText
 10
88.5
 20
578.3666666666668
 30
0.0
 40
2.2
 71
5
  1
2.83
  7
OpenSansCondensed-Light
  0
POINT
  5
120
330
115
100
AcDbEntity
  8
Defpoints
100
AcDbPoint
 10
69.66666666666667
 20
576.6666666666667
 30
0.0
  0
POINT
  5
121
330
115
100
AcDbEntity
  8
Defpoints
100
AcDbPoint
 10
69.66666666666667
 20
559.3333333333334
 30
0.0
  0
POINT
  5
122
330
115
100
AcDbEntity
  8
Defpoints
100
AcDbPoint
 10
107.33333333333334
 20
559.3333333333334
 30
0.0
  0
ENDBLK
  5
117
330
115
100
AcDbEntity
  8
0
100
AcDbBlockEnd
  0
BLOCK
  5
125
330
124
100
AcDbEntity
  8
0
100
AcDbBlockBegin
  2
*D2
 70
1
 10
0.0
 20
0.0
 30
0.0
  3
*D2
  1

  0
LINE
  5
127
330
124
100
AcDbEntity
  8
0
100
AcDbLine
 10
107.33333333333334
 20
560.1333333333333
 30
0.0
 11
107.33333333333334
 21
577.6666666666667
 31
0.0
  0
LINE
  5
128
330
124
100
AcDbEntity
  8
0
100
AcDbLine
 10
136.66666666666669
 20
560.1333333333333
 30
0.0
 11
136.66666666666669
 21
577.6666666666667
 31
0.0
  0
INSERT
  5
129
330
124
100
AcDbEntity
  8
COTAS
100
AcDbBlockReference
  2
_ARCHTICK
 10
107.33333333333334
 20
576.6666666666667
 30
0.0
 41
1.8
 42
1.8
 50
180.0
  0
INSERT
  5
12B
330
124
100
AcDbEntity
  8
COTAS
100
AcDbBlockReference
  2
_ARCHTICK
 10
136.66666666666669
 20
576.6666666666667
 30
0.0
 41
1.8
 42
1.8
  0
LINE
  5
12D
330
124
100
AcDbEntity
  8
0
100
AcDbLine
 10
107.33333333333334
 20
576.6666666666667
 30
0.0
 11
136.66666666666669
 21
576.6666666666667
 31
0.0
  0
MTEXT
  5
12E
330
124
100
AcDbEntity
  8
COTAS
 62
3
100
AcDbMText
 10
122.00000000000001
 20
578.3666666666668
 30
0.0
 40
2.2
 71
5
  1
2.20
  7
OpenSansCondensed-Light
  0
POINT
  5
12F
330
124
100
AcDbEntity
  8
Defpoints
100
AcDbPoint
 10
107.33333333333334
 20
576.6666666666667
 30
0.0
  0
POINT
  5
130
330
124
100
AcDbEntity
  8
Defpoints
100
AcDbPoint
 10
107.33333333333334
 20
559.3333333333334
 30
0.0
  0
POINT
  5
131
330
124
100
AcDbEntity
  8
Defpoints
100
AcDbPoint
 10
136.66666666666669
 20
559.3333333333334
 30
0.0
  0
ENDBLK
  5
126
330
124
100
AcDbEntity
  8
0
100
AcDbBlockEnd
  0
BLOCK
  5
134
330
133
100
AcDbEntity
  8
0
100
AcDbBlockBegin
  2
*D3
 70
1
 10
0.0
 20
0.0
 30
0.0
  3
*D3
  1

  0
LINE
  5
136
330
133
100
AcDbEntity
  8
0
100
AcDbLine
 10
136.66666666666669
 20
560.1333333333333
 30
0.0
 11
136.66666666666669
 21
577.6666666666667
 31
0.0
  0
LINE
  5
137
330
133
100
AcDbEntity
  8
0
100
AcDbLine
 10
162.0
 20
560.1333333333333
 30
0.0
 11
162.0
 21
577.6666666666667
 31
0.0
  0
INSERT
  5
138
330
133
100
AcDbEntity
  8
COTAS
100
AcDbBlockReference
  2
_ARCHTICK
 10
136.66666666666669
 20
576.6666666666667
 30
0.0
 41
1.8
 42
1.8
 50
180.0
  0
INSERT
  5
13A
330
133
100
AcDbEntity
  8
COTAS
100
AcDbBlockReference
  2
_ARCHTICK
 10
162.0
 20
576.6666666666667
 30
0.0
 41
1.8
 42
1.8
  0
LINE
  5
13C
330
133
100
AcDbEntity
  8
0
100
AcDbLine
 10
136.66666666666669
 20
576.6666666666667
 30
0.0
 11
162.0
 21
576.6666666666667
 31
0.0
  0
MTEXT
  5
13D
330
133
100
AcDbEntity
  8
COTAS
 62
3
100
AcDbMText
 10
149.33333333333334
 20
578.3666666666668
 30
0.0
 40
2.2
 71
5
  1
1.90
  7
OpenSansCondensed-Light
  0
POINT
  5
13E
330
133
100
AcDbEntity
  8
Defpoints
100
AcDbPoint
 10
136.66666666666669
 20
576.6666666666667
 30
0.0
  0
POINT
  5
13F
330
133
100
AcDbEntity
  8
Defpoints
100
AcDbPoint
 10
136.66666666666669
 20
559.3333333333334
 30
0.0
  0
POINT
  5
140
330
133
100
AcDbEntity
  8
Defpoints
100
AcDbPoint
 10
162.0
 20
559.3333333333334
 30
0.0
  0
ENDBLK
  5
135
330
133
100
AcDbEntity
  8
0
100
AcDbBlockEnd
  0
BLOCK
  5
143
330
142
100
AcDbEntity
  8
0
100
AcDbBlockBegin
  2
*D4
 70
1
 10
0.0
 20
0.0
 30
0.0
  3
*D4
  1

  0
LINE
  5
145
330
142
100
AcDbEntity
  8
0
100
AcDbLine
 10
162.0
 20
560.1333333333333
 30
0.0
 11
162.0
 21
577.6666666666667
 31
0.0
  0
LINE
  5
146
330
142
100
AcDbEntity
  8
0
100
AcDbLine
 10
189.66666666666669
 20
560.1333333333333
 30
0.0
 11
189.66666666666669
 21
577.6666666666667
 31
0.0
  0
INSERT
  5
147
330
142
100
AcDbEntity
  8
COTAS
100
AcDbBlockReference
  2
_ARCHTICK
 10
162.0
 20
576.6666666666667
 30
0.0
 41
1.8
 42
1.8
 50
180.0
  0
INSERT
  5
149
330
142
100
AcDbEntity
  8
COTAS
100
AcDbBlockReference
  2
_ARCHTICK
 10
189.66666666666669
 20
576.6666666666667
 30
0.0
 41
1.8
 42
1.8
  0
LINE
  5
14B
330
142
100
AcDbEntity
  8
0
100
AcDbLine
 10
162.0
 20
576.6666666666667
 30
0.0
 11
189.66666666666669
 21
576.6666666666667
 31
0.0
  0
MTEXT
  5
14C
330
142
100
AcDbEntity
  8
COTAS
 62
3
100
AcDbMText
 10
175.83333333333334
 20
578.3666666666668
 30
0.0
 40
2.2
 71
5
  1
2.08
  7
OpenSansCondensed-Light
  0
POINT
  5
14D
330
142
100
AcDbEntity
  8
Defpoints
100
AcDbPoint
 10
162.0
 20
576.6666666666667
 30
0.0
  0
POINT
  5
14E
330
142
100
AcDbEntity
  8
Defpoints
100
AcDbPoint
 10
162.0
 20
559.3333333333334
 30
0.0
  0
POINT
  5
14F
330
142
100
AcDbEntity
  8
Defpoints
100
AcDbPoint
 10
189.66666666666669
 20
559.3333333333334
 30
0.0
  0
ENDBLK
  5
144
330
142
100
AcDbEntity
  8
0
100
AcDbBlockEnd
  0
BLOCK
  5
152
330
151
100
AcDbEntity
  8
0
100
AcDbBlockBegin
  2
*D5
 70
1
 10
0.0
 20
0.0
 30
0.0
  3
*D5
  1

  0
LINE
  5
154
330
151
100
AcDbEntity
  8
0
100
AcDbLine
 10
65.2
 20
443.3333333333333
 30
0.0
 11
53.0
 21
443.3333333333333
 31
0.0
  0
LINE
  5
155
330
151
100
AcDbEntity
  8
0
100
AcDbLine
 10
65.2
 20
499.33333333333337
 30
0.0
 11
53.0
 21
499.33333333333337
 31
0.0
  0
INSERT
  5
156
330
151
100
AcDbEntity
  8
COTAS
100
AcDbBlockReference
  2
_ARCHTICK
 10
54.0
 20
443.3333333333333
 30
0.0
 41
1.8
 42
1.8
 50
270.0
  0
INSERT
  5
158
330
151
100
AcDbEntity
  8
COTAS
100
AcDbBlockReference
  2
_ARCHTICK
 10
54.0
 20
499.33333333333337
 30
0.0
 41
1.8
 42
1.8
 50
90.0
  0
LINE
  5
15A
330
151
100
AcDbEntity
  8
0
100
AcDbLine
 10
54.0
 20
443.3333333333333
 30
0.0
 11
54.0
 21
499.33333333333337
 31
0.0
  0
MTEXT
  5
15B
330
151
100
AcDbEntity
  8
COTAS
 62
3
100
AcDbMText
 10
52.3
 20
471.33333333333337
 30
0.0
 40
2.2
 71
5
  1
4.20
  7
OpenSansCondensed-Light
 50
90.0
  0
POINT
  5
15C
330
151
100
AcDbEntity
  8
Defpoints
100
AcDbPoint
 10
54.0
 20
443.3333333333333
 30
0.0
  0
POINT
  5
15D
330
151
100
AcDbEntity
  8
Defpoints
100
AcDbPoint
 10
66.0
 20
443.3333333333333
 30
0.0
  0
POINT
  5
15E
330
151
100
AcDbEntity
  8
Defpoints
100
AcDbPoint
 10
66.0
 20
499.33333333333337
 30
0.0
  0
ENDBLK
  5
153
330
151
100
AcDbEntity
  8
0
100
AcDbBlockEnd
  0
BLOCK
  5
161
330
160
100
AcDbEntity
  8
0
100
AcDbBlockBegin
  2
*D6
 70
1
 10
0.0
 20
0.0
 30
0.0
  3
*D6
  1

  0
LINE
  5
163
330
160
100
AcDbEntity
  8
0
100
AcDbLine
 10
65.2
 20
499.33333333333337
 30
0.0
 11
53.0
 21
499.33333333333337
 31
0.0
  0
LINE
  5
164
330
160
100
AcDbEntity
  8
0
100
AcDbLine
 10
65.2
 20
555.6666666666667
 30
0.0
 11
53.0
 21
555.6666666666667
 31
0.0
  0
INSERT
  5
165
330
160
100
AcDbEntity
  8
COTAS
100
AcDbBlockReference
  2
_ARCHTICK
 10
54.0
 20
499.33333333333337
 30
0.0
 41
1.8
 42
1.8
 50
270.0
  0
INSERT
  5
167
330
160
100
AcDbEntity
  8
COTAS
100
AcDbBlockReference
  2
_ARCHTICK
 10
54.0
 20
555.6666666666667
 30
0.0
 41
1.8
 42
1.8
 50
90.0
  0
LINE
  5
169
330
160
100
AcDbEntity
  8
0
100
AcDbLine
 10
54.0
 20
499.33333333333337
 30
0.0
 11
54.0
 21
555.6666666666667
 31
0.0
  0
MTEXT
  5
16A
330
160
100
AcDbEntity
  8
COTAS
 62
3
100
AcDbMText
 10
52.3
 20
527.5
 30
0.0
 40
2.2
 71
5
  1
4.23
  7
OpenSansCondensed-Light
 50
90.0
  0
POINT
  5
16B
330
160
100
AcDbEntity
  8
Defpoints
100
AcDbPoint
 10
54.0
 20
499.33333333333337
 30
0.0
  0
POINT
  5
16C
330
160
100
AcDbEntity
  8
Defpoints
100
AcDbPoint
 10
66.0
 20
499.33333333333337
 30
0.0
  0
POINT
  5
16D
330
160
100
AcDbEntity
  8
Defpoints
100
AcDbPoint
 10
66.0
 20
555.6666666666667
 30
0.0
  0
ENDBLK
  5
162
330
160
100
AcDbEntity
  8
0
100
AcDbBlockEnd
  0
BLOCK
  5
170
330
16F
100
AcDbEntity
  8
0
100
AcDbBlockBegin
  2
*D7
 70
1
 10
0.0
 20
0.0
 30
0.0
  3
*D7
  1

  0
LINE
  5
172
330
16F
100
AcDbEntity
  8
0
100
AcDbLine
 10
108.0
 20
341.2
 30
0.0
 11
108.0
 21
331.6666666666667
 31
0.0
  0
LINE
  5
173
330
16F
100
AcDbEntity
  8
0
100
AcDbLine
 10
193.33333333333334
 20
341.2
 30
0.0
 11
193.33333333333334
 21
331.6666666666667
 31
0.0
  0
INSERT
  5
174
330
16F
100
AcDbEntity
  8
COTAS
100
AcDbBlockReference
  2
_ARCHTICK
 10
108.0
 20
332.6666666666667
 30
0.0
 41
1.8
 42
1.8
 50
180.0
  0
INSERT
  5
176
330
16F
100
AcDbEntity
  8
COTAS
100
AcDbBlockReference
  2
_ARCHTICK
 10
193.33333333333334
 20
332.6666666666667
 30
0.0
 41
1.8
 42
1.8
  0
LINE
  5
178
330
16F
100
AcDbEntity
  8
0
100
AcDbLine
 10
108.0
 20
332.6666666666667
 30
0.0
 11
193.33333333333334
 21
332.6666666666667
 31
0.0
  0
MTEXT
  5
179
330
16F
100
AcDbEntity
  8
COTAS
 62
3
100
AcDbMText
 10
150.66666666666669
 20
334.3666666666667
 30
0.0
 40
2.2
 71
5
  1
6.40
  7
OpenSansCondensed-Light
  0
POINT
  5
17A
330
16F
100
AcDbEntity
  8
Defpoints
100
AcDbPoint
 10
108.0
 20
332.6666666666667
 30
0.0
  0
POINT
  5
17B
330
16F
100
AcDbEntity
  8
Defpoints
100
AcDbPoint
 10
108.0
 20
342.0
 30
0.0
  0
POINT
  5
17C
330
16F
100
AcDbEntity
  8
Defpoints
100
AcDbPoint
 10
193.33333333333334
 20
342.0
 30
0.0
  0
ENDBLK
  5
171
330
16F
100
AcDbEntity
  8
0
100
AcDbBlockEnd
  0
BLOCK
  5
17F
330
17E
100
AcDbEntity
  8
0
100
AcDbBlockBegin
  2
*D8
 70
1
 10
0.0
 20
0.0
 30
0.0
  3
*D8
  1

  0
LINE
  5
181
330
17E
100
AcDbEntity
  8
0
100
AcDbLine
 10
227.4666666666667
 20
342.0
 30
0.0
 11
235.66666666666669
 21
342.0
 31
0.0
  0
LINE
  5
182
330
17E
100
AcDbEntity
  8
0
100
AcDbLine
 10
227.4666666666667
 20
452.6666666666667
 30
0.0
 11
235.66666666666669
 21
452.6666666666667
 31
0.0
  0
INSERT
  5
183
330
17E
100
AcDbEntity
  8
COTAS
100
AcDbBlockReference
  2
_ARCHTICK
 10
234.66666666666669
 20
342.0
 30
0.0
 41
1.8
 42
1.8
 50
270.0
  0
INSERT
  5
185
330
17E
100
AcDbEntity
  8
COTAS
100
AcDbBlockReference
  2
_ARCHTICK
 10
234.66666666666669
 20
452.6666666666667
 30
0.0
 41
1.8
 42
1.8
 50
90.0
  0
LINE
  5
187
330
17E
100
AcDbEntity
  8
0
100
AcDbLine
 10
234.66666666666669
 20
342.0
 30
0.0
 11
234.66666666666669
 21
452.6666666666667
 31
0.0
  0
MTEXT
  5
188
330
17E
100
AcDbEntity
  8
COTAS
 62
3
100
AcDbMText
 10
232.9666666666667
 20
397.33333333333337
 30
0.0
 40
2.2
 71
5
  1
8.30
  7
OpenSansCondensed-Light
 50
90.0
  0
POINT
  5
189
330
17E
100
AcDbEntity
  8
Defpoints
100
AcDbPoint
 10
234.66666666666669
 20
342.0
 30
0.0
  0
POINT
  5
18A
330
17E
100
AcDbEntity
  8
Defpoints
100
AcDbPoint
 10
226.66666666666669
 20
342.0
 30
0.0
  0
POINT
  5
18B
330
17E
100
AcDbEntity
  8
Defpoints
100
AcDbPoint
 10
226.66666666666669
 20
452.6666666666667
 30
0.0
  0
ENDBLK
  5
180
330
17E
100
AcDbEntity
  8
0
100
AcDbBlockEnd
  0
BLOCK
  5
18E
330
18D
100
AcDbEntity
  8
0
100
AcDbBlockBegin
  2
*D9
 70
1
 10
0.0
 20
0.0
 30
0.0
  3
*D9
  1

  0
LINE
  5
190
330
18D
100
AcDbEntity
  8
0
100
AcDbLine
 10
227.4666666666667
 20
452.6666666666667
 30
0.0
 11
235.66666666666669
 21
452.6666666666667
 31
0.0
  0
LINE
  5
191
330
18D
100
AcDbEntity
  8
0
100
AcDbLine
 10
227.4666666666667
 20
499.33333333333337
 30
0.0
 11
235.66666666666669
 21
499.33333333333337
 31
0.0
  0
INSERT
  5
192
330
18D
100
AcDbEntity
  8
COTAS
100
AcDbBlockReference
  2
_ARCHTICK
 10
234.66666666666669
 20
452.6666666666667
 30
0.0
 41
1.8
 42
1.8
 50
270.0
  0
INSERT
  5
194
330
18D
100
AcDbEntity
  8
COTAS
100
AcDbBlockReference
  2
_ARCHTICK
 10
234.66666666666669
 20
499.33333333333337
 30
0.0
 41
1.8
 42
1.8
 50
90.0
  0
LINE
  5
196
330
18D
100
AcDbEntity
  8
0
100
AcDbLine
 10
234.66666666666669
 20
452.6666666666667
 30
0.0
 11
234.66666666666669
 21
499.33333333333337
 31
0.0
  0
MTEXT
  5
197
330
18D
100
AcDbEntity
  8
COTAS
 62
3
100
AcDbMText
 10
232.9666666666667
 20
476.0
 30
0.0
 40
2.2
 71
5
  1
3.50
  7
OpenSansCondensed-Light
 50
90.0
  0
POINT
  5
198
330
18D
100
AcDbEntity
  8
Defpoints
100
AcDbPoint
 10
234.66666666666669
 20
452.6666666666667
 30
0.0
  0
POINT
  5
199
330
18D
100
AcDbEntity
  8
Defpoints
100
AcDbPoint
 10
226.66666666666669
 20
452.6666666666667
 30
0.0
  0
POINT
  5
19A
330
18D
100
AcDbEntity
  8
Defpoints
100
AcDbPoint
 10
226.66666666666669
 20
499.33333333333337
 30
0.0
  0
ENDBLK
  5
18F
330
18D
100
AcDbEntity
  8
0
100
AcDbBlockEnd
  0
BLOCK
  5
19D
330
19C
100
AcDbEntity
  8
0
100
AcDbBlockBegin
  2
*D10
 70
1
 10
0.0
 20
0.0
 30
0.0
  3
*D10
  1

  0
LINE
  5
19F
330
19C
100
AcDbEntity
  8
0
100
AcDbLine
 10
227.4666666666667
 20
499.33333333333337
 30
0.0
 11
235.66666666666669
 21
499.33333333333337
 31
0.0
  0
LINE
  5
1A0
330
19C
100
AcDbEntity
  8
0
100
AcDbLine
 10
227.4666666666667
 20
559.3333333333334
 30
0.0
 11
235.66666666666669
 21
559.3333333333334
 31
0.0
  0
INSERT
  5
1A1
330
19C
100
AcDbEntity
  8
COTAS
100
AcDbBlockReference
  2
_ARCHTICK
 10
234.66666666666669
 20
499.33333333333337
 30
0.0
 41
1.8
 42
1.8
 50
270.0
  0
INSERT
  5
1A3
330
19C
100
AcDbEntity
  8
COTAS
100
AcDbBlockReference
  2
_ARCHTICK
 10
234.66666666666669
 20
559.3333333333334
 30
0.0
 41
1.8
 42
1.8
 50
90.0
  0
LINE
  5
1A5
330
19C
100
AcDbEntity
  8
0
100
AcDbLine
 10
234.66666666666669
 20
499.33333333333337
 30
0.0
 11
234.66666666666669
 21
559.3333333333334
 31
0.0
  0
MTEXT
  5
1A6
330
19C
100
AcDbEntity
  8
COTAS
 62
3
100
AcDbMText
 10
232.9666666666667
 20
529.3333333333334
 30
0.0
 40
2.2
 71
5
  1
4.50
  7
OpenSansCondensed-Light
 50
90.0
  0
POINT
  5
1A7
330
19C
100
AcDbEntity
  8
Defpoints
100
AcDbPoint
 10
234.66666666666669
 20
499.33333333333337
 30
0.0
  0
POINT
  5
1A8
330
19C
100
AcDbEntity
  8
Defpoints
100
AcDbPoint
 10
226.66666666666669
 20
499.33333333333337
 30
0.0
  0
POINT
  5
1A9
330
19C
100
AcDbEntity
  8
Defpoints
100
AcDbPoint
 10
226.66666666666669
 20
559.3333333333334
 30
0.0
  0
ENDBLK
  5
19E
330
19C
100
AcDbEntity
  8
0
100
AcDbBlockEnd
  0
BLOCK
  5
1AC
330
1AB
100
AcDbEntity
  8
0
100
AcDbBlockBegin
  2
*D11
 70
1
 10
0.0
 20
0.0
 30
0.0
  3
*D11
  1

  0
LINE
  5
1AE
330
1AB
100
AcDbEntity
  8
0
100
AcDbLine
 10
227.4666666666667
 20
342.0
 30
0.0
 11
243.66666666666669
 21
342.0
 31
0.0
  0
LINE
  5
1AF
330
1AB
100
AcDbEntity
  8
0
100
AcDbLine
 10
227.4666666666667
 20
559.3333333333334
 30
0.0
 11
243.66666666666669
 21
559.3333333333334
 31
0.0
  0
INSERT
  5
1B0
330
1AB
100
AcDbEntity
  8
COTAS
100
AcDbBlockReference
  2
_ARCHTICK
 10
242.66666666666669
 20
342.0
 30
0.0
 41
1.8
 42
1.8
 50
270.0
  0
INSERT
  5
1B2
330
1AB
100
AcDbEntity
  8
COTAS
100
AcDbBlockReference
  2
_ARCHTICK
 10
242.66666666666669
 20
559.3333333333334
 30
0.0
 41
1.8
 42
1.8
 50
90.0
  0
LINE
  5
1B4
330
1AB
100
AcDbEntity
  8
0
100
AcDbLine
 10
242.66666666666669
 20
342.0
 30
0.0
 11
242.66666666666669
 21
559.3333333333334
 31
0.0
  0
MTEXT
  5
1B5
330
1AB
100
AcDbEntity
  8
COTAS
 62
3
100
AcDbMText
 10
240.9666666666667
 20
450.6666666666667
 30
0.0
 40
2.2
 71
5
  1
16.30
  7
OpenSansCondensed-Light
 50
90.0
  0
POINT
  5
1B6
330
1AB
100
AcDbEntity
  8
Defpoints
100
AcDbPoint
 10
242.66666666666669
 20
342.0
 30
0.0
  0
POINT
  5
1B7
330
1AB
100
AcDbEntity
  8
Defpoints
100
AcDbPoint
 10
226.66666666666669
 20
342.0
 30
0.0
  0
POINT
  5
1B8
330
1AB
100
AcDbEntity
  8
Defpoints
100
AcDbPoint
 10
226.66666666666669
 20
559.3333333333334
 30
0.0
  0
ENDBLK
  5
1AD
330
1AB
100
AcDbEntity
  8
0
100
AcDbBlockEnd
  0
BLOCK
  5
1BB
330
1BA
100
AcDbEntity
  8
0
100
AcDbBlockBegin
  2
*D12
 70
1
 10
0.0
 20
0.0
 30
0.0
  3
*D12
  1

  0
LINE
  5
1BD
330
1BA
100
AcDbEntity
  8
0
100
AcDbLine
 10
66.0
 20
560.1333333333333
 30
0.0
 11
66.0
 21
568.3333333333334
 31
0.0
  0
LINE
  5
1BE
330
1BA
100
AcDbEntity
  8
0
100
AcDbLine
 10
193.33333333333334
 20
560.1333333333333
 30
0.0
 11
193.33333333333334
 21
568.3333333333334
 31
0.0
  0
INSERT
  5
1BF
330
1BA
100
AcDbEntity
  8
COTAS
100
AcDbBlockReference
  2
_ARCHTICK
 10
66.0
 20
567.3333333333334
 30
0.0
 41
1.8
 42
1.8
 50
180.0
  0
INSERT
  5
1C1
330
1BA
100
AcDbEntity
  8
COTAS
100
AcDbBlockReference
  2
_ARCHTICK
 10
193.33333333333334
 20
567.3333333333334
 30
0.0
 41
1.8
 42
1.8
  0
LINE
  5
1C3
330
1BA
100
AcDbEntity
  8
0
100
AcDbLine
 10
66.0
 20
567.3333333333334
 30
0.0
 11
193.33333333333334
 21
567.3333333333334
 31
0.0
  0
MTEXT
  5
1C4
330
1BA
100
AcDbEntity
  8
COTAS
 62
3
100
AcDbMText
 10
129.66666666666669
 20
569.0333333333334
 30
0.0
 40
2.2
 71
5
  1
9.55
  7
OpenSansCondensed-Light
  0
POINT
  5
1C5
330
1BA
100
AcDbEntity
  8
Defpoints
100
AcDbPoint
 10
66.0
 20
567.3333333333334
 30
0.0
  0
POINT
  5
1C6
330
1BA
100
AcDbEntity
  8
Defpoints
100
AcDbPoint
 10
66.0
 20
559.3333333333334
 30
0.0
  0
POINT
  5
1C7
330
1BA
100
AcDbEntity
  8
Defpoints
100
AcDbPoint
 10
193.33333333333334
 20
559.3333333333334
 30
0.0
  0
ENDBLK
  5
1BC
330
1BA
100
AcDbEntity
  8
0
100
AcDbBlockEnd
  0
BLOCK
  5
1CA
330
1C9
100
AcDbEntity
  8
0
100
AcDbBlockBegin
  2
*D13
 70
1
 10
0.0
 20
0.0
 30
0.0
  3
*D13
  1

  0
LINE
  5
1CC
330
1C9
100
AcDbEntity
  8
0
100
AcDbLine
 10
65.2
 20
439.6
 30
0.0
 11
57.0
 21
439.6
 31
0.0
  0
LINE
  5
1CD
330
1C9
100
AcDbEntity
  8
0
100
AcDbLine
 10
65.2
 20
559.3333333333334
 30
0.0
 11
57.0
 21
559.3333333333334
 31
0.0
  0
INSERT
  5
1CE
330
1C9
100
AcDbEntity
  8
COTAS
100
AcDbBlockReference
  2
_ARCHTICK
 10
58.0
 20
439.6
 30
0.0
 41
1.8
 42
1.8
 50
270.0
  0
INSERT
  5
1D0
330
1C9
100
AcDbEntity
  8
COTAS
100
AcDbBlockReference
  2
_ARCHTICK
 10
58.0
 20
559.3333333333334
 30
0.0
 41
1.8
 42
1.8
 50
90.0
  0
LINE
  5
1D2
330
1C9
100
AcDbEntity
  8
0
100
AcDbLine
 10
58.0
 20
439.6
 30
0.0
 11
58.0
 21
559.3333333333334
 31
0.0
  0
MTEXT
  5
1D3
330
1C9
100
AcDbEntity
  8
COTAS
 62
3
100
AcDbMText
 10
56.3
 20
499.4666666666667
 30
0.0
 40
2.2
 71
5
  1
8.98
  7
OpenSansCondensed-Light
 50
90.0
  0
POINT
  5
1D4
330
1C9
100
AcDbEntity
  8
Defpoints
100
AcDbPoint
 10
58.0
 20
439.6
 30
0.0
  0
POINT
  5
1D5
330
1C9
100
AcDbEntity
  8
Defpoints
100
AcDbPoint
 10
66.0
 20
439.6
 30
0.0
  0
POINT
  5
1D6
330
1C9
100
AcDbEntity
  8
Defpoints
100
AcDbPoint
 10
66.0
 20
559.3333333333334
 30
0.0
  0
ENDBLK
  5
1CB
330
1C9
100
AcDbEntity
  8
0
100
AcDbBlockEnd
  0
BLOCK
  5
223
330
222
100
AcDbEntity
  8
0
100
AcDbBlockBegin
  2
*D14
 70
1
 10
0.0
 20
0.0
 30
0.0
  3
*D14
  1

  0
LINE
  5
225
330
222
100
AcDbEntity
  8
0
100
AcDbLine
 10
339.6666666666667
 20
560.1333333333333
 30
0.0
 11
339.6666666666667
 21
577.6666666666667
 31
0.0
  0
LINE
  5
226
330
222
100
AcDbEntity
  8
0
100
AcDbLine
 10
377.3333333333333
 20
560.1333333333333
 30
0.0
 11
377.3333333333333
 21
577.6666666666667
 31
0.0
  0
INSERT
  5
227
330
222
100
AcDbEntity
  8
COTAS
100
AcDbBlockReference
  2
_ARCHTICK
 10
339.6666666666667
 20
576.6666666666667
 30
0.0
 41
1.8
 42
1.8
 50
180.0
  0
INSERT
  5
229
330
222
100
AcDbEntity
  8
COTAS
100
AcDbBlockReference
  2
_ARCHTICK
 10
377.3333333333333
 20
576.6666666666667
 30
0.0
 41
1.8
 42
1.8
  0
LINE
  5
22B
330
222
100
AcDbEntity
  8
0
100
AcDbLine
 10
339.6666666666667
 20
576.6666666666667
 30
0.0
 11
377.3333333333333
 21
576.6666666666667
 31
0.0
  0
MTEXT
  5
22C
330
222
100
AcDbEntity
  8
COTAS
 62
3
100
AcDbMText
 10
358.5
 20
578.3666666666668
 30
0.0
 40
2.2
 71
5
  1
2.83
  7
OpenSansCondensed-Light
  0
POINT
  5
22D
330
222
100
AcDbEntity
  8
Defpoints
100
AcDbPoint
 10
339.6666666666667
 20
576.6666666666667
 30
0.0
  0
POINT
  5
22E
330
222
100
AcDbEntity
  8
Defpoints
100
AcDbPoint
 10
339.6666666666667
 20
559.3333333333334
 30
0.0
  0
POINT
  5
22F
330
222
100
AcDbEntity
  8
Defpoints
100
AcDbPoint
 10
377.3333333333333
 20
559.3333333333334
 30
0.0
  0
ENDBLK
  5
224
330
222
100
AcDbEntity
  8
0
100
AcDbBlockEnd
  0
BLOCK
  5
232
330
231
100
AcDbEntity
  8
0
100
AcDbBlockBegin
  2
*D15
 70
1
 10
0.0
 20
0.0
 30
0.0
  3
*D15
  1

  0
LINE
  5
234
330
231
100
AcDbEntity
  8
0
100
AcDbLine
 10
377.3333333333333
 20
560.1333333333333
 30
0.0
 11
377.3333333333333
 21
577.6666666666667
 31
0.0
  0
LINE
  5
235
330
231
100
AcDbEntity
  8
0
100
AcDbLine
 10
406.6666666666667
 20
560.1333333333333
 30
0.0
 11
406.6666666666667
 21
577.6666666666667
 31
0.0
  0
INSERT
  5
236
330
231
100
AcDbEntity
  8
COTAS
100
AcDbBlockReference
  2
_ARCHTICK
 10
377.3333333333333
 20
576.6666666666667
 30
0.0
 41
1.8
 42
1.8
 50
180.0
  0
INSERT
  5
238
330
231
100
AcDbEntity
  8
COTAS
100
AcDbBlockReference
  2
_ARCHTICK
 10
406.6666666666667
 20
576.6666666666667
 30
0.0
 41
1.8
 42
1.8
  0
LINE
  5
23A
330
231
100
AcDbEntity
  8
0
100
AcDbLine
 10
377.3333333333333
 20
576.6666666666667
 30
0.0
 11
406.6666666666667
 21
576.6666666666667
 31
0.0
  0
MTEXT
  5
23B
330
231
100
AcDbEntity
  8
COTAS
 62
3
100
AcDbMText
 10
392.0
 20
578.3666666666668
 30
0.0
 40
2.2
 71
5
  1
2.20
  7
OpenSansCondensed-Light
  0
POINT
  5
23C
330
231
100
AcDbEntity
  8
Defpoints
100
AcDbPoint
 10
377.3333333333333
 20
576.6666666666667
 30
0.0
  0
POINT
  5
23D
330
231
100
AcDbEntity
  8
Defpoints
100
AcDbPoint
 10
377.3333333333333
 20
559.3333333333334
 30
0.0
  0
POINT
  5
23E
330
231
100
AcDbEntity
  8
Defpoints
100
AcDbPoint
 10
406.6666666666667
 20
559.3333333333334
 30
0.0
  0
ENDBLK
  5
233
330
231
100
AcDbEntity
  8
0
100
AcDbBlockEnd
  0
BLOCK
  5
241
330
240
100
AcDbEntity
  8
0
100
AcDbBlockBegin
  2
*D16
 70
1
 10
0.0
 20
0.0
 30
0.0
  3
*D16
  1

  0
LINE
  5
243
330
240
100
AcDbEntity
  8
0
100
AcDbLine
 10
406.6666666666667
 20
560.1333333333333
 30
0.0
 11
406.6666666666667
 21
577.6666666666667
 31
0.0
  0
LINE
  5
244
330
240
100
AcDbEntity
  8
0
100
AcDbLine
 10
432.0
 20
560.1333333333333
 30
0.0
 11
432.0
 21
577.6666666666667
 31
0.0
  0
INSERT
  5
245
330
240
100
AcDbEntity
  8
COTAS
100
AcDbBlockReference
  2
_ARCHTICK
 10
406.6666666666667
 20
576.6666666666667
 30
0.0
 41
1.8
 42
1.8
 50
180.0
  0
INSERT
  5
247
330
240
100
AcDbEntity
  8
COTAS
100
AcDbBlockReference
  2
_ARCHTICK
 10
432.0
 20
576.6666666666667
 30
0.0
 41
1.8
 42
1.8
  0
LINE
  5
249
330
240
100
AcDbEntity
  8
0
100
AcDbLine
 10
406.6666666666667
 20
576.6666666666667
 30
0.0
 11
432.0
 21
576.6666666666667
 31
0.0
  0
MTEXT
  5
24A
330
240
100
AcDbEntity
  8
COTAS
 62
3
100
AcDbMText
 10
419.33333333333337
 20
578.3666666666668
 30
0.0
 40
2.2
 71
5
  1
1.90
  7
OpenSansCondensed-Light
  0
POINT
  5
24B
330
240
100
AcDbEntity
  8
Defpoints
100
AcDbPoint
 10
406.6666666666667
 20
576.6666666666667
 30
0.0
  0
POINT
  5
24C
330
240
100
AcDbEntity
  8
Defpoints
100
AcDbPoint
 10
406.6666666666667
 20
559.3333333333334
 30
0.0
  0
POINT
  5
24D
330
240
100
AcDbEntity
  8
Defpoints
100
AcDbPoint
 10
432.0
 20
559.3333333333334
 30
0.0
  0
ENDBLK
  5
242
330
240
100
AcDbEntity
  8
0
100
AcDbBlockEnd
  0
BLOCK
  5
250
330
24F
100
AcDbEntity
  8
0
100
AcDbBlockBegin
  2
*D17
 70
1
 10
0.0
 20
0.0
 30
0.0
  3
*D17
  1

  0
LINE
  5
252
330
24F
100
AcDbEntity
  8
0
100
AcDbLine
 10
432.0
 20
560.1333333333333
 30
0.0
 11
432.0
 21
577.6666666666667
 31
0.0
  0
LINE
  5
253
330
24F
100
AcDbEntity
  8
0
100
AcDbLine
 10
459.6666666666667
 20
560.1333333333333
 30
0.0
 11
459.6666666666667
 21
577.6666666666667
 31
0.0
  0
INSERT
  5
254
330
24F
100
AcDbEntity
  8
COTAS
100
AcDbBlockReference
  2
_ARCHTICK
 10
432.0
 20
576.6666666666667
 30
0.0
 41
1.8
 42
1.8
 50
180.0
  0
INSERT
  5
256
330
24F
100
AcDbEntity
  8
COTAS
100
AcDbBlockReference
  2
_ARCHTICK
 10
459.6666666666667
 20
576.6666666666667
 30
0.0
 41
1.8
 42
1.8
  0
LINE
  5
258
330
24F
100
AcDbEntity
  8
0
100
AcDbLine
 10
432.0
 20
576.6666666666667
 30
0.0
 11
459.6666666666667
 21
576.6666666666667
 31
0.0
  0
MTEXT
  5
259
330
24F
100
AcDbEntity
  8
COTAS
 62
3
100
AcDbMText
 10
445.83333333333337
 20
578.3666666666668
 30
0.0
 40
2.2
 71
5
  1
2.08
  7
OpenSansCondensed-Light
  0
POINT
  5
25A
330
24F
100
AcDbEntity
  8
Defpoints
100
AcDbPoint
 10
432.0
 20
576.6666666666667
 30
0.0
  0
POINT
  5
25B
330
24F
100
AcDbEntity
  8
Defpoints
100
AcDbPoint
 10
432.0
 20
559.3333333333334
 30
0.0
  0
POINT
  5
25C
330
24F
100
AcDbEntity
  8
Defpoints
100
AcDbPoint
 10
459.6666666666667
 20
559.3333333333334
 30
0.0
  0
ENDBLK
  5
251
330
24F
100
AcDbEntity
  8
0
100
AcDbBlockEnd
  0
BLOCK
  5
25F
330
25E
100
AcDbEntity
  8
0
100
AcDbBlockBegin
  2
*D18
 70
1
 10
0.0
 20
0.0
 30
0.0
  3
*D18
  1

  0
LINE
  5
261
330
25E
100
AcDbEntity
  8
0
100
AcDbLine
 10
335.2
 20
443.3333333333333
 30
0.0
 11
323.0
 21
443.3333333333333
 31
0.0
  0
LINE
  5
262
330
25E
100
AcDbEntity
  8
0
100
AcDbLine
 10
335.2
 20
499.33333333333337
 30
0.0
 11
323.0
 21
499.33333333333337
 31
0.0
  0
INSERT
  5
263
330
25E
100
AcDbEntity
  8
COTAS
100
AcDbBlockReference
  2
_ARCHTICK
 10
324.0
 20
443.3333333333333
 30
0.0
 41
1.8
 42
1.8
 50
270.0
  0
INSERT
  5
265
330
25E
100
AcDbEntity
  8
COTAS
100
AcDbBlockReference
  2
_ARCHTICK
 10
324.0
 20
499.33333333333337
 30
0.0
 41
1.8
 42
1.8
 50
90.0
  0
LINE
  5
267
330
25E
100
AcDbEntity
  8
0
100
AcDbLine
 10
324.0
 20
443.3333333333333
 30
0.0
 11
324.0
 21
499.33333333333337
 31
0.0
  0
MTEXT
  5
268
330
25E
100
AcDbEntity
  8
COTAS
 62
3
100
AcDbMText
 10
322.3
 20
471.33333333333337
 30
0.0
 40
2.2
 71
5
  1
4.20
  7
OpenSansCondensed-Light
 50
90.0
  0
POINT
  5
269
330
25E
100
AcDbEntity
  8
Defpoints
100
AcDbPoint
 10
324.0
 20
443.3333333333333
 30
0.0
  0
POINT
  5
26A
330
25E
100
AcDbEntity
  8
Defpoints
100
AcDbPoint
 10
336.0
 20
443.3333333333333
 30
0.0
  0
POINT
  5
26B
330
25E
100
AcDbEntity
  8
Defpoints
100
AcDbPoint
 10
336.0
 20
499.33333333333337
 30
0.0
  0
ENDBLK
  5
260
330
25E
100
AcDbEntity
  8
0
100
AcDbBlockEnd
  0
BLOCK
  5
26E
330
26D
100
AcDbEntity
  8
0
100
AcDbBlockBegin
  2
*D19
 70
1
 10
0.0
 20
0.0
 30
0.0
  3
*D19
  1

  0
LINE
  5
270
330
26D
100
AcDbEntity
  8
0
100
AcDbLine
 10
335.2
 20
499.33333333333337
 30
0.0
 11
323.0
 21
499.33333333333337
 31
0.0
  0
LINE
  5
271
330
26D
100
AcDbEntity
  8
0
100
AcDbLine
 10
335.2
 20
555.6666666666667
 30
0.0
 11
323.0
 21
555.6666666666667
 31
0.0
  0
INSERT
  5
272
330
26D
100
AcDbEntity
  8
COTAS
100
AcDbBlockReference
  2
_ARCHTICK
 10
324.0
 20
499.33333333333337
 30
0.0
 41
1.8
 42
1.8
 50
270.0
  0
INSERT
  5
274
330
26D
100
AcDbEntity
  8
COTAS
100
AcDbBlockReference
  2
_ARCHTICK
 10
324.0
 20
555.6666666666667
 30
0.0
 41
1.8
 42
1.8
 50
90.0
  0
LINE
  5
276
330
26D
100
AcDbEntity
  8
0
100
AcDbLine
 10
324.0
 20
499.33333333333337
 30
0.0
 11
324.0
 21
555.6666666666667
 31
0.0
  0
MTEXT
  5
277
330
26D
100
AcDbEntity
  8
COTAS
 62
3
100
AcDbMText
 10
322.3
 20
527.5
 30
0.0
 40
2.2
 71
5
  1
4.23
  7
OpenSansCondensed-Light
 50
90.0
  0
POINT
  5
278
330
26D
100
AcDbEntity
  8
Defpoints
100
AcDbPoint
 10
324.0
 20
499.33333333333337
 30
0.0
  0
POINT
  5
279
330
26D
100
AcDbEntity
  8
Defpoints
100
AcDbPoint
 10
336.0
 20
499.33333333333337
 30
0.0
  0
POINT
  5
27A
330
26D
100
AcDbEntity
  8
Defpoints
100
AcDbPoint
 10
336.0
 20
555.6666666666667
 30
0.0
  0
ENDBLK
  5
26F
330
26D
100
AcDbEntity
  8
0
100
AcDbBlockEnd
  0
BLOCK
  5
27D
330
27C
100
AcDbEntity
  8
0
100
AcDbBlockBegin
  2
*D20
 70
1
 10
0.0
 20
0.0
 30
0.0
  3
*D20
  1

  0
LINE
  5
27F
330
27C
100
AcDbEntity
  8
0
100
AcDbLine
 10
378.0
 20
341.2
 30
0.0
 11
378.0
 21
331.6666666666667
 31
0.0
  0
LINE
  5
280
330
27C
100
AcDbEntity
  8
0
100
AcDbLine
 10
463.33333333333337
 20
341.2
 30
0.0
 11
463.33333333333337
 21
331.6666666666667
 31
0.0
  0
INSERT
  5
281
330
27C
100
AcDbEntity
  8
COTAS
100
AcDbBlockReference
  2
_ARCHTICK
 10
378.0
 20
332.6666666666667
 30
0.0
 41
1.8
 42
1.8
 50
180.0
  0
INSERT
  5
283
330
27C
100
AcDbEntity
  8
COTAS
100
AcDbBlockReference
  2
_ARCHTICK
 10
463.33333333333337
 20
332.6666666666667
 30
0.0
 41
1.8
 42
1.8
  0
LINE
  5
285
330
27C
100
AcDbEntity
  8
0
100
AcDbLine
 10
378.0
 20
332.6666666666667
 30
0.0
 11
463.33333333333337
 21
332.6666666666667
 31
0.0
  0
MTEXT
  5
286
330
27C
100
AcDbEntity
  8
COTAS
 62
3
100
AcDbMText
 10
420.6666666666667
 20
334.3666666666667
 30
0.0
 40
2.2
 71
5
  1
6.40
  7
OpenSansCondensed-Light
  0
POINT
  5
287
330
27C
100
AcDbEntity
  8
Defpoints
100
AcDbPoint
 10
378.0
 20
332.6666666666667
 30
0.0
  0
POINT
  5
288
330
27C
100
AcDbEntity
  8
Defpoints
100
AcDbPoint
 10
378.0
 20
342.0
 30
0.0
  0
POINT
  5
289
330
27C
100
AcDbEntity
  8
Defpoints
100
AcDbPoint
 10
463.33333333333337
 20
342.0
 30
0.0
  0
ENDBLK
  5
27E
330
27C
100
AcDbEntity
  8
0
100
AcDbBlockEnd
  0
BLOCK
  5
28C
330
28B
100
AcDbEntity
  8
0
100
AcDbBlockBegin
  2
*D21
 70
1
 10
0.0
 20
0.0
 30
0.0
  3
*D21
  1

  0
LINE
  5
28E
330
28B
100
AcDbEntity
  8
0
100
AcDbLine
 10
497.4666666666667
 20
342.0
 30
0.0
 11
505.6666666666667
 21
342.0
 31
0.0
  0
LINE
  5
28F
330
28B
100
AcDbEntity
  8
0
100
AcDbLine
 10
497.4666666666667
 20
452.6666666666667
 30
0.0
 11
505.6666666666667
 21
452.6666666666667
 31
0.0
  0
INSERT
  5
290
330
28B
100
AcDbEntity
  8
COTAS
100
AcDbBlockReference
  2
_ARCHTICK
 10
504.6666666666667
 20
342.0
 30
0.0
 41
1.8
 42
1.8
 50
270.0
  0
INSERT
  5
292
330
28B
100
AcDbEntity
  8
COTAS
100
AcDbBlockReference
  2
_ARCHTICK
 10
504.6666666666667
 20
452.6666666666667
 30
0.0
 41
1.8
 42
1.8
 50
90.0
  0
LINE
  5
294
330
28B
100
AcDbEntity
  8
0
100
AcDbLine
 10
504.6666666666667
 20
342.0
 30
0.0
 11
504.6666666666667
 21
452.6666666666667
 31
0.0
  0
MTEXT
  5
295
330
28B
100
AcDbEntity
  8
COTAS
 62
3
100
AcDbMText
 10
502.9666666666667
 20
397.33333333333337
 30
0.0
 40
2.2
 71
5
  1
8.30
  7
OpenSansCondensed-Light
 50
90.0
  0
POINT
  5
296
330
28B
100
AcDbEntity
  8
Defpoints
100
AcDbPoint
 10
504.6666666666667
 20
342.0
 30
0.0
  0
POINT
  5
297
330
28B
100
AcDbEntity
  8
Defpoints
100
AcDbPoint
 10
496.6666666666667
 20
342.0
 30
0.0
  0
POINT
  5
298
330
28B
100
AcDbEntity
  8
Defpoints
100
AcDbPoint
 10
496.6666666666667
 20
452.6666666666667
 30
0.0
  0
ENDBLK
  5
28D
330
28B
100
AcDbEntity
  8
0
100
AcDbBlockEnd
  0
BLOCK
  5
29B
330
29A
100
AcDbEntity
  8
0
100
AcDbBlockBegin
  2
*D22
 70
1
 10
0.0
 20
0.0
 30
0.0
  3
*D22
  1

  0
LINE
  5
29D
330
29A
100
AcDbEntity
  8
0
100
AcDbLine
 10
497.4666666666667
 20
452.6666666666667
 30
0.0
 11
505.6666666666667
 21
452.6666666666667
 31
0.0
  0
LINE
  5
29E
330
29A
100
AcDbEntity
  8
0
100
AcDbLine
 10
497.4666666666667
 20
499.33333333333337
 30
0.0
 11
505.6666666666667
 21
499.33333333333337
 31
0.0
  0
INSERT
  5
29F
330
29A
100
AcDbEntity
  8
COTAS
100
AcDbBlockReference
  2
_ARCHTICK
 10
504.6666666666667
 20
452.6666666666667
 30
0.0
 41
1.8
 42
1.8
 50
270.0
  0
INSERT
  5
2A1
330
29A
100
AcDbEntity
  8
COTAS
100
AcDbBlockReference
  2
_ARCHTICK
 10
504.6666666666667
 20
499.33333333333337
 30
0.0
 41
1.8
 42
1.8
 50
90.0
  0
LINE
  5
2A3
330
29A
100
AcDbEntity
  8
0
100
AcDbLine
 10
504.6666666666667
 20
452.6666666666667
 30
0.0
 11
504.6666666666667
 21
499.33333333333337
 31
0.0
  0
MTEXT
  5
2A4
330
29A
100
AcDbEntity
  8
COTAS
 62
3
100
AcDbMText
 10
502.9666666666667
 20
476.0
 30
0.0
 40
2.2
 71
5
  1
3.50
  7
OpenSansCondensed-Light
 50
90.0
  0
POINT
  5
2A5
330
29A
100
AcDbEntity
  8
Defpoints
100
AcDbPoint
 10
504.6666666666667
 20
452.6666666666667
 30
0.0
  0
POINT
  5
2A6
330
29A
100
AcDbEntity
  8
Defpoints
100
AcDbPoint
 10
496.6666666666667
 20
452.6666666666667
 30
0.0
  0
POINT
  5
2A7
330
29A
100
AcDbEntity
  8
Defpoints
100
AcDbPoint
 10
496.6666666666667
 20
499.33333333333337
 30
0.0
  0
ENDBLK
  5
29C
330
29A
100
AcDbEntity
  8
0
100
AcDbBlockEnd
  0
BLOCK
  5
2AA
330
2A9
100
AcDbEntity
  8
0
100
AcDbBlockBegin
  2
*D23
 70
1
 10
0.0
 20
0.0
 30
0.0
  3
*D23
  1

  0
LINE
  5
2AC
330
2A9
100
AcDbEntity
  8
0
100
AcDbLine
 10
497.4666666666667
 20
499.33333333333337
 30
0.0
 11
505.6666666666667
 21
499.33333333333337
 31
0.0
  0
LINE
  5
2AD
330
2A9
100
AcDbEntity
  8
0
100
AcDbLine
 10
497.4666666666667
 20
559.3333333333334
 30
0.0
 11
505.6666666666667
 21
559.3333333333334
 31
0.0
  0
INSERT
  5
2AE
330
2A9
100
AcDbEntity
  8
COTAS
100
AcDbBlockReference
  2
_ARCHTICK
 10
504.6666666666667
 20
499.33333333333337
 30
0.0
 41
1.8
 42
1.8
 50
270.0
  0
INSERT
  5
2B0
330
2A9
100
AcDbEntity
  8
COTAS
100
AcDbBlockReference
  2
_ARCHTICK
 10
504.6666666666667
 20
559.3333333333334
 30
0.0
 41
1.8
 42
1.8
 50
90.0
  0
LINE
  5
2B2
330
2A9
100
AcDbEntity
  8
0
100
AcDbLine
 10
504.6666666666667
 20
499.33333333333337
 30
0.0
 11
504.6666666666667
 21
559.3333333333334
 31
0.0
  0
MTEXT
  5
2B3
330
2A9
100
AcDbEntity
  8
COTAS
 62
3
100
AcDbMText
 10
502.9666666666667
 20
529.3333333333334
 30
0.0
 40
2.2
 71
5
  1
4.50
  7
OpenSansCondensed-Light
 50
90.0
  0
POINT
  5
2B4
330
2A9
100
AcDbEntity
  8
Defpoints
100
AcDbPoint
 10
504.6666666666667
 20
499.33333333333337
 30
0.0
  0
POINT
  5
2B5
330
2A9
100
AcDbEntity
  8
Defpoints
100
AcDbPoint
 10
496.6666666666667
 20
499.33333333333337
 30
0.0
  0
POINT
  5
2B6
330
2A9
100
AcDbEntity
  8
Defpoints
100
AcDbPoint
 10
496.6666666666667
 20
559.3333333333334
 30
0.0
  0
ENDBLK
  5
2AB
330
2A9
100
AcDbEntity
  8
0
100
AcDbBlockEnd
  0
BLOCK
  5
2B9
330
2B8
100
AcDbEntity
  8
0
100
AcDbBlockBegin
  2
*D24
 70
1
 10
0.0
 20
0.0
 30
0.0
  3
*D24
  1

  0
LINE
  5
2BB
330
2B8
100
AcDbEntity
  8
0
100
AcDbLine
 10
497.4666666666667
 20
342.0
 30
0.0
 11
513.6666666666667
 21
342.0
 31
0.0
  0
LINE
  5
2BC
330
2B8
100
AcDbEntity
  8
0
100
AcDbLine
 10
497.4666666666667
 20
559.3333333333334
 30
0.0
 11
513.6666666666667
 21
559.3333333333334
 31
0.0
  0
INSERT
  5
2BD
330
2B8
100
AcDbEntity
  8
COTAS
100
AcDbBlockReference
  2
_ARCHTICK
 10
512.6666666666667
 20
342.0
 30
0.0
 41
1.8
 42
1.8
 50
270.0
  0
INSERT
  5
2BF
330
2B8
100
AcDbEntity
  8
COTAS
100
AcDbBlockReference
  2
_ARCHTICK
 10
512.6666666666667
 20
559.3333333333334
 30
0.0
 41
1.8
 42
1.8
 50
90.0
  0
LINE
  5
2C1
330
2B8
100
AcDbEntity
  8
0
100
AcDbLine
 10
512.6666666666667
 20
342.0
 30
0.0
 11
512.6666666666667
 21
559.3333333333334
 31
0.0
  0
MTEXT
  5
2C2
330
2B8
100
AcDbEntity
  8
COTAS
 62
3
100
AcDbMText
 10
510.96666666666675
 20
450.6666666666667
 30
0.0
 40
2.2
 71
5
  1
16.30
  7
OpenSansCondensed-Light
 50
90.0
  0
POINT
  5
2C3
330
2B8
100
AcDbEntity
  8
Defpoints
100
AcDbPoint
 10
512.6666666666667
 20
342.0
 30
0.0
  0
POINT
  5
2C4
330
2B8
100
AcDbEntity
  8
Defpoints
100
AcDbPoint
 10
496.6666666666667
 20
342.0
 30
0.0
  0
POINT
  5
2C5
330
2B8
100
AcDbEntity
  8
Defpoints
100
AcDbPoint
 10
496.6666666666667
 20
559.3333333333334
 30
0.0
  0
ENDBLK
  5
2BA
330
2B8
100
AcDbEntity
  8
0
100
AcDbBlockEnd
  0
BLOCK
  5
2C8
330
2C7
100
AcDbEntity
  8
0
100
AcDbBlockBegin
  2
*D25
 70
1
 10
0.0
 20
0.0
 30
0.0
  3
*D25
  1

  0
LINE
  5
2CA
330
2C7
100
AcDbEntity
  8
0
100
AcDbLine
 10
336.0
 20
560.1333333333333
 30
0.0
 11
336.0
 21
568.3333333333334
 31
0.0
  0
LINE
  5
2CB
330
2C7
100
AcDbEntity
  8
0
100
AcDbLine
 10
463.33333333333337
 20
560.1333333333333
 30
0.0
 11
463.33333333333337
 21
568.3333333333334
 31
0.0
  0
INSERT
  5
2CC
330
2C7
100
AcDbEntity
  8
COTAS
100
AcDbBlockReference
  2
_ARCHTICK
 10
336.0
 20
567.3333333333334
 30
0.0
 41
1.8
 42
1.8
 50
180.0
  0
INSERT
  5
2CE
330
2C7
100
AcDbEntity
  8
COTAS
100
AcDbBlockReference
  2
_ARCHTICK
 10
463.33333333333337
 20
567.3333333333334
 30
0.0
 41
1.8
 42
1.8
  0
LINE
  5
2D0
330
2C7
100
AcDbEntity
  8
0
100
AcDbLine
 10
336.0
 20
567.3333333333334
 30
0.0
 11
463.33333333333337
 21
567.3333333333334
 31
0.0
  0
MTEXT
  5
2D1
330
2C7
100
AcDbEntity
  8
COTAS
 62
3
100
AcDbMText
 10
399.6666666666667
 20
569.0333333333334
 30
0.0
 40
2.2
 71
5
  1
9.55
  7
OpenSansCondensed-Light
  0
POINT
  5
2D2
330
2C7
100
AcDbEntity
  8
Defpoints
100
AcDbPoint
 10
336.0
 20
567.3333333333334
 30
0.0
  0
POINT
  5
2D3
330
2C7
100
AcDbEntity
  8
Defpoints
100
AcDbPoint
 10
336.0
 20
559.3333333333334
 30
0.0
  0
POINT
  5
2D4
330
2C7
100
AcDbEntity
  8
Defpoints
100
AcDbPoint
 10
463.33333333333337
 20
559.3333333333334
 30
0.0
  0
ENDBLK
  5
2C9
330
2C7
100
AcDbEntity
  8
0
100
AcDbBlockEnd
  0
BLOCK
  5
2D7
330
2D6
100
AcDbEntity
  8
0
100
AcDbBlockBegin
  2
*D26
 70
1
 10
0.0
 20
0.0
 30
0.0
  3
*D26
  1

  0
LINE
  5
2D9
330
2D6
100
AcDbEntity
  8
0
100
AcDbLine
 10
335.2
 20
439.6
 30
0.0
 11
327.0
 21
439.6
 31
0.0
  0
LINE
  5
2DA
330
2D6
100
AcDbEntity
  8
0
100
AcDbLine
 10
335.2
 20
559.3333333333334
 30
0.0
 11
327.0
 21
559.3333333333334
 31
0.0
  0
INSERT
  5
2DB
330
2D6
100
AcDbEntity
  8
COTAS
100
AcDbBlockReference
  2
_ARCHTICK
 10
328.0
 20
439.6
 30
0.0
 41
1.8
 42
1.8
 50
270.0
  0
INSERT
  5
2DD
330
2D6
100
AcDbEntity
  8
COTAS
100
AcDbBlockReference
  2
_ARCHTICK
 10
328.0
 20
559.3333333333334
 30
0.0
 41
1.8
 42
1.8
 50
90.0
  0
LINE
  5
2DF
330
2D6
100
AcDbEntity
  8
0
100
AcDbLine
 10
328.0
 20
439.6
 30
0.0
 11
328.0
 21
559.3333333333334
 31
0.0
  0
MTEXT
  5
2E0
330
2D6
100
AcDbEntity
  8
COTAS
 62
3
100
AcDbMText
 10
326.3
 20
499.4666666666667
 30
0.0
 40
2.2
 71
5
  1
8.98
  7
OpenSansCondensed-Light
 50
90.0
  0
POINT
  5
2E1
330
2D6
100
AcDbEntity
  8
Defpoints
100
AcDbPoint
 10
328.0
 20
439.6
 30
0.0
  0
POINT
  5
2E2
330
2D6
100
AcDbEntity
  8
Defpoints
100
AcDbPoint
 10
336.0
 20
439.6
 30
0.0
  0
POINT
  5
2E3
330
2D6
100
AcDbEntity
  8
Defpoints
100
AcDbPoint
 10
336.0
 20
559.3333333333334
 30
0.0
  0
ENDBLK
  5
2D8
330
2D6
100
AcDbEntity
  8
0
100
AcDbBlockEnd
  0
BLOCK
  5
33D
330
33C
100
AcDbEntity
  8
0
100
AcDbBlockBegin
  2
*D27
 70
1
 10
0.0
 20
0.0
 30
0.0
  3
*D27
  1

  0
LINE
  5
33F
330
33C
100
AcDbEntity
  8
0
100
AcDbLine
 10
573.5333333333334
 20
329.99
 30
0.0
 11
565.3333333333334
 21
329.99
 31
0.0
  0
LINE
  5
340
330
33C
100
AcDbEntity
  8
0
100
AcDbLine
 10
573.5333333333334
 20
337.99
 30
0.0
 11
565.3333333333334
 21
337.99
 31
0.0
  0
INSERT
  5
341
330
33C
100
AcDbEntity
  8
COTAS
100
AcDbBlockReference
  2
_ARCHTICK
 10
566.3333333333334
 20
329.99
 30
0.0
 41
1.8
 42
1.8
 50
270.0
  0
INSERT
  5
343
330
33C
100
AcDbEntity
  8
COTAS
100
AcDbBlockReference
  2
_ARCHTICK
 10
566.3333333333334
 20
337.99
 30
0.0
 41
1.8
 42
1.8
 50
90.0
  0
LINE
  5
345
330
33C
100
AcDbEntity
  8
0
100
AcDbLine
 10
566.3333333333334
 20
329.99
 30
0.0
 11
566.3333333333334
 21
337.99
 31
0.0
  0
MTEXT
  5
346
330
33C
100
AcDbEntity
  8
COTAS
 62
3
100
AcDbMText
 10
563.6333333333333
 20
333.99
 30
0.0
 40
2.2
 71
5
  1
0.60
  7
OpenSansCondensed-Light
 50
90.0
  0
POINT
  5
347
330
33C
100
AcDbEntity
  8
Defpoints
100
AcDbPoint
 10
566.3333333333334
 20
329.99
 30
0.0
  0
POINT
  5
348
330
33C
100
AcDbEntity
  8
Defpoints
100
AcDbPoint
 10
574.3333333333334
 20
329.99
 30
0.0
  0
POINT
  5
349
330
33C
100
AcDbEntity
  8
Defpoints
100
AcDbPoint
 10
574.3333333333334
 20
337.99
 30
0.0
  0
ENDBLK
  5
33E
330
33C
100
AcDbEntity
  8
0
100
AcDbBlockEnd
  0
BLOCK
  5
34C
330
34B
100
AcDbEntity
  8
0
100
AcDbBlockBegin
  2
*D28
 70
1
 10
0.0
 20
0.0
 30
0.0
  3
*D28
  1

  0
LINE
  5
34E
330
34B
100
AcDbEntity
  8
0
100
AcDbLine
 10
573.5333333333334
 20
337.99
 30
0.0
 11
565.3333333333334
 21
337.99
 31
0.0
  0
LINE
  5
34F
330
34B
100
AcDbEntity
  8
0
100
AcDbLine
 10
573.5333333333334
 20
381.4566666666667
 30
0.0
 11
565.3333333333334
 21
381.4566666666667
 31
0.0
  0
INSERT
  5
350
330
34B
100
AcDbEntity
  8
COTAS
100
AcDbBlockReference
  2
_ARCHTICK
 10
566.3333333333334
 20
337.99
 30
0.0
 41
1.8
 42
1.8
 50
270.0
  0
INSERT
  5
352
330
34B
100
AcDbEntity
  8
COTAS
100
AcDbBlockReference
  2
_ARCHTICK
 10
566.3333333333334
 20
381.4566666666667
 30
0.0
 41
1.8
 42
1.8
 50
90.0
  0
LINE
  5
354
330
34B
100
AcDbEntity
  8
0
100
AcDbLine
 10
566.3333333333334
 20
337.99
 30
0.0
 11
566.3333333333334
 21
381.4566666666667
 31
0.0
  0
MTEXT
  5
355
330
34B
100
AcDbEntity
  8
COTAS
 62
3
100
AcDbMText
 10
564.6333333333333
 20
359.72333333333336
 30
0.0
 40
2.2
 71
5
  1
3.26
  7
OpenSansCondensed-Light
 50
90.0
  0
POINT
  5
356
330
34B
100
AcDbEntity
  8
Defpoints
100
AcDbPoint
 10
566.3333333333334
 20
337.99
 30
0.0
  0
POINT
  5
357
330
34B
100
AcDbEntity
  8
Defpoints
100
AcDbPoint
 10
574.3333333333334
 20
337.99
 30
0.0
  0
POINT
  5
358
330
34B
100
AcDbEntity
  8
Defpoints
100
AcDbPoint
 10
574.3333333333334
 20
381.4566666666667
 30
0.0
  0
ENDBLK
  5
34D
330
34B
100
AcDbEntity
  8
0
100
AcDbBlockEnd
  0
BLOCK
  5
35B
330
35A
100
AcDbEntity
  8
0
100
AcDbBlockBegin
  2
*D29
 70
1
 10
0.0
 20
0.0
 30
0.0
  3
*D29
  1

  0
LINE
  5
35D
330
35A
100
AcDbEntity
  8
0
100
AcDbLine
 10
573.5333333333334
 20
381.4566666666667
 30
0.0
 11
565.3333333333334
 21
381.4566666666667
 31
0.0
  0
LINE
  5
35E
330
35A
100
AcDbEntity
  8
0
100
AcDbLine
 10
573.5333333333334
 20
417.4566666666667
 30
0.0
 11
565.3333333333334
 21
417.4566666666667
 31
0.0
  0
INSERT
  5
35F
330
35A
100
AcDbEntity
  8
COTAS
100
AcDbBlockReference
  2
_ARCHTICK
 10
566.3333333333334
 20
381.4566666666667
 30
0.0
 41
1.8
 42
1.8
 50
270.0
  0
INSERT
  5
361
330
35A
100
AcDbEntity
  8
COTAS
100
AcDbBlockReference
  2
_ARCHTICK
 10
566.3333333333334
 20
417.4566666666667
 30
0.0
 41
1.8
 42
1.8
 50
90.0
  0
LINE
  5
363
330
35A
100
AcDbEntity
  8
0
100
AcDbLine
 10
566.3333333333334
 20
381.4566666666667
 30
0.0
 11
566.3333333333334
 21
417.4566666666667
 31
0.0
  0
MTEXT
  5
364
330
35A
100
AcDbEntity
  8
COTAS
 62
3
100
AcDbMText
 10
564.6333333333333
 20
399.4566666666667
 30
0.0
 40
2.2
 71
5
  1
2.70
  7
OpenSansCondensed-Light
 50
90.0
  0
POINT
  5
365
330
35A
100
AcDbEntity
  8
Defpoints
100
AcDbPoint
 10
566.3333333333334
 20
381.4566666666667
 30
0.0
  0
POINT
  5
366
330
35A
100
AcDbEntity
  8
Defpoints
100
AcDbPoint
 10
574.3333333333334
 20
381.4566666666667
 30
0.0
  0
POINT
  5
367
330
35A
100
AcDbEntity
  8
Defpoints
100
AcDbPoint
 10
574.3333333333334
 20
417.4566666666667
 30
0.0
  0
ENDBLK
  5
35C
330
35A
100
AcDbEntity
  8
0
100
AcDbBlockEnd
  0
BLOCK
  5
36A
330
369
100
AcDbEntity
  8
0
100
AcDbBlockBegin
  2
*D30
 70
1
 10
0.0
 20
0.0
 30
0.0
  3
*D30
  1

  0
LINE
  5
36C
330
369
100
AcDbEntity
  8
0
100
AcDbLine
 10
573.5333333333334
 20
417.4566666666667
 30
0.0
 11
565.3333333333334
 21
417.4566666666667
 31
0.0
  0
LINE
  5
36D
330
369
100
AcDbEntity
  8
0
100
AcDbLine
 10
573.5333333333334
 20
424.12333333333333
 30
0.0
 11
565.3333333333334
 21
424.12333333333333
 31
0.0
  0
INSERT
  5
36E
330
369
100
AcDbEntity
  8
COTAS
100
AcDbBlockReference
  2
_ARCHTICK
 10
566.3333333333334
 20
417.4566666666667
 30
0.0
 41
1.8
 42
1.8
 50
270.0
  0
INSERT
  5
370
330
369
100
AcDbEntity
  8
COTAS
100
AcDbBlockReference
  2
_ARCHTICK
 10
566.3333333333334
 20
424.12333333333333
 30
0.0
 41
1.8
 42
1.8
 50
90.0
  0
LINE
  5
372
330
369
100
AcDbEntity
  8
0
100
AcDbLine
 10
566.3333333333334
 20
417.4566666666667
 30
0.0
 11
566.3333333333334
 21
424.12333333333333
 31
0.0
  0
MTEXT
  5
373
330
369
100
AcDbEntity
  8
COTAS
 62
3
100
AcDbMText
 10
563.6333333333333
 20
420.79
 30
0.0
 40
2.2
 71
5
  1
0.50
  7
OpenSansCondensed-Light
 50
90.0
  0
POINT
  5
374
330
369
100
AcDbEntity
  8
Defpoints
100
AcDbPoint
 10
566.3333333333334
 20
417.4566666666667
 30
0.0
  0
POINT
  5
375
330
369
100
AcDbEntity
  8
Defpoints
100
AcDbPoint
 10
574.3333333333334
 20
417.4566666666667
 30
0.0
  0
POINT
  5
376
330
369
100
AcDbEntity
  8
Defpoints
100
AcDbPoint
 10
574.3333333333334
 20
424.12333333333333
 30
0.0
  0
ENDBLK
  5
36B
330
369
100
AcDbEntity
  8
0
100
AcDbBlockEnd
  0
BLOCK
  5
379
330
378
100
AcDbEntity
  8
0
100
AcDbBlockBegin
  2
*D31
 70
1
 10
0.0
 20
0.0
 30
0.0
  3
*D31
  1

  0
LINE
  5
37B
330
378
100
AcDbEntity
  8
0
100
AcDbLine
 10
573.5333333333334
 20
329.99
 30
0.0
 11
557.3333333333334
 21
329.99
 31
0.0
  0
LINE
  5
37C
330
378
100
AcDbEntity
  8
0
100
AcDbLine
 10
573.5333333333334
 20
424.12333333333333
 30
0.0
 11
557.3333333333334
 21
424.12333333333333
 31
0.0
  0
INSERT
  5
37D
330
378
100
AcDbEntity
  8
COTAS
100
AcDbBlockReference
  2
_ARCHTICK
 10
558.3333333333334
 20
329.99
 30
0.0
 41
1.8
 42
1.8
 50
270.0
  0
INSERT
  5
37F
330
378
100
AcDbEntity
  8
COTAS
100
AcDbBlockReference
  2
_ARCHTICK
 10
558.3333333333334
 20
424.12333333333333
 30
0.0
 41
1.8
 42
1.8
 50
90.0
  0
LINE
  5
381
330
378
100
AcDbEntity
  8
0
100
AcDbLine
 10
558.3333333333334
 20
329.99
 30
0.0
 11
558.3333333333334
 21
424.12333333333333
 31
0.0
  0
MTEXT
  5
382
330
378
100
AcDbEntity
  8
COTAS
 62
3
100
AcDbMText
 10
556.6333333333333
 20
377.0566666666667
 30
0.0
 40
2.2
 71
5
  1
7.06
  7
OpenSansCondensed-Light
 50
90.0
  0
POINT
  5
383
330
378
100
AcDbEntity
  8
Defpoints
100
AcDbPoint
 10
558.3333333333334
 20
329.99
 30
0.0
  0
POINT
  5
384
330
378
100
AcDbEntity
  8
Defpoints
100
AcDbPoint
 10
574.3333333333334
 20
329.99
 30
0.0
  0
POINT
  5
385
330
378
100
AcDbEntity
  8
Defpoints
100
AcDbPoint
 10
574.3333333333334
 20
424.12333333333333
 30
0.0
  0
ENDBLK
  5
37A
330
378
100
AcDbEntity
  8
0
100
AcDbBlockEnd
  0
BLOCK
  5
388
330
387
100
AcDbEntity
  8
0
100
AcDbBlockBegin
  2
*D32
 70
1
 10
0.0
 20
0.0
 30
0.0
  3
*D32
  1

  0
LINE
  5
38A
330
387
100
AcDbEntity
  8
0
100
AcDbLine
 10
574.3333333333334
 20
329.19
 30
0.0
 11
574.3333333333334
 21
319.6566666666667
 31
0.0
  0
LINE
  5
38B
330
387
100
AcDbEntity
  8
0
100
AcDbLine
 10
799.0
 20
329.19
 30
0.0
 11
799.0
 21
319.6566666666667
 31
0.0
  0
INSERT
  5
38C
330
387
100
AcDbEntity
  8
COTAS
100
AcDbBlockReference
  2
_ARCHTICK
 10
574.3333333333334
 20
320.6566666666667
 30
0.0
 41
1.8
 42
1.8
 50
180.0
  0
INSERT
  5
38E
330
387
100
AcDbEntity
  8
COTAS
100
AcDbBlockReference
  2
_ARCHTICK
 10
799.0
 20
320.6566666666667
 30
0.0
 41
1.8
 42
1.8
  0
LINE
  5
390
330
387
100
AcDbEntity
  8
0
100
AcDbLine
 10
574.3333333333334
 20
320.6566666666667
 30
0.0
 11
799.0
 21
320.6566666666667
 31
0.0
  0
MTEXT
  5
391
330
387
100
AcDbEntity
  8
COTAS
 62
3
100
AcDbMText
 10
686.6666666666667
 20
322.3566666666667
 30
0.0
 40
2.2
 71
5
  1
16.85
  7
OpenSansCondensed-Light
  0
POINT
  5
392
330
387
100
AcDbEntity
  8
Defpoints
100
AcDbPoint
 10
574.3333333333334
 20
320.6566666666667
 30
0.0
  0
POINT
  5
393
330
387
100
AcDbEntity
  8
Defpoints
100
AcDbPoint
 10
574.3333333333334
 20
329.99
 30
0.0
  0
POINT
  5
394
330
387
100
AcDbEntity
  8
Defpoints
100
AcDbPoint
 10
799.0
 20
329.99
 30
0.0
  0
ENDBLK
  5
389
330
387
100
AcDbEntity
  8
0
100
AcDbBlockEnd
  0
ENDSEC
  0
SECTION
  2
ENTITIES
  0
LWPOLYLINE
  5
B2
330
17
100
AcDbEntity
  8
MARCO
100
AcDbPolyline
 90
4
 70
1
 10
0.0
 20
0.0
 10
841.0
 20
0.0
 10
841.0
 20
594.0
 10
0.0
 20
594.0
  0
LWPOLYLINE
  5
B3
330
17
100
AcDbEntity
  8
MARCO
100
AcDbPolyline
 90
4
 70
1
 10
8.0
 20
8.0
 10
833.0
 20
8.0
 10
833.0
 20
586.0
 10
8.0
 20
586.0
  0
LWPOLYLINE
  5
B4
330
17
100
AcDbEntity
  8
MARCO
100
AcDbPolyline
 90
4
 70
1
 10
640.0
 20
14.0
 10
825.0
 20
14.0
 10
825.0
 20
100.0
 10
640.0
 20
100.0
  0
LINE
  5
B5
330
17
100
AcDbEntity
  8
TABLA
100
AcDbLine
 10
640.0
 20
32.0
 30
0.0
 11
825.0
 21
32.0
 31
0.0
  0
LINE
  5
B6
330
17
100
AcDbEntity
  8
TABLA
100
AcDbLine
 10
640.0
 20
50.0
 30
0.0
 11
825.0
 21
50.0
 31
0.0
  0
LINE
  5
B7
330
17
100
AcDbEntity
  8
TABLA
100
AcDbLine
 10
640.0
 20
68.0
 30
0.0
 11
825.0
 21
68.0
 31
0.0
  0
LINE
  5
B8
330
17
100
AcDbEntity
  8
TABLA
100
AcDbLine
 10
640.0
 20
84.0
 30
0.0
 11
825.0
 21
84.0
 31
0.0
  0
LINE
  5
B9
330
17
100
AcDbEntity
  8
TABLA
100
AcDbLine
 10
760.0
 20
14.0
 30
0.0
 11
760.0
 21
50.0
 31
0.0
  0
TEXT
  5
BA
330
17
100
AcDbEntity
  8
TEXTO
100
AcDbText
 10
643.0
 20
94.0
 30
0.0
 40
1.9
  1
BORRADOR - SIN VISADO. Propuesta de diseño y predimensionado; no sustituye proyecto visado.
100
AcDbText
  0
TEXT
  5
BB
330
17
100
AcDbEntity
  8
TEXTO
100
AcDbText
 10
643.0
 20
87.0
 30
0.0
 40
2.4
  1
VIVIENDA UNIFAMILIAR - Pol. 33, parc. 198, San Roque, Albox (Almería)
100
AcDbText
  0
TEXT
  5
BC
330
17
100
AcDbEntity
  8
TEXTO
100
AcDbText
 10
643.0
 20
71.0
 30
0.0
 40
3.0
  1
ESTRUCTURA DE ACERO - PREDIMENSIONADO
100
AcDbText
  0
TEXT
  5
BD
330
17
100
AcDbEntity
  8
TEXTO
100
AcDbText
 10
643.0
 20
54.0
 30
0.0
 40
2.6
  1
Plano: ESTRUCTURA (planta forjado, cubierta)
100
AcDbText
  0
TEXT
  5
BE
330
17
100
AcDbEntity
  8
TEXTO
100
AcDbText
 10
763.0
 20
54.0
 30
0.0
 40
2.6
  1
Hoja: 02 / 02
100
AcDbText
  0
TEXT
  5
BF
330
17
100
AcDbEntity
  8
TEXTO
100
AcDbText
 10
643.0
 20
36.0
 30
0.0
 40
2.6
  1
Escala: 1/75 (A1)
100
AcDbText
  0
TEXT
  5
C0
330
17
100
AcDbEntity
  8
TEXTO
100
AcDbText
 10
763.0
 20
36.0
 30
0.0
 40
2.6
  1
Fecha: 29/09/2026
100
AcDbText
  0
TEXT
  5
C1
330
17
100
AcDbEntity
  8
TEXTO
100
AcDbText
 10
643.0
 20
18.0
 30
0.0
 40
2.2
  1
Unidades: mm (papel); cotas en m
100
AcDbText
  0
TEXT
  5
C2
330
17
100
AcDbEntity
  8
TEXTO
100
AcDbText
 10
763.0
 20
18.0
 30
0.0
 40
2.6
  1
Rev.: R02
100
AcDbText
  0
LWPOLYLINE
  5
C3
330
17
100
AcDbEntity
  8
muros_PB
100
AcDbPolyline
 90
14
 70
1
 10
104.26666666666668
 20
439.6
 10
108.0
 20
342.0
 10
115.33333333333334
 20
342.0
 10
115.33333333333334
 20
349.33333333333337
 10
115.05818629980348
 20
349.33333333333337
 10
111.60536298468509
 20
439.6
 10
112.0
 20
439.6
 10
112.0
 20
446.93333333333334
 10
73.33333333333333
 20
446.93333333333334
 10
73.33333333333333
 20
552.0
 10
79.33333333333333
 20
552.0
 10
79.33333333333333
 20
559.3333333333334
 10
66.0
 20
559.3333333333334
 10
66.0
 20
439.6
  0
HATCH
  5
C4
330
17
100
AcDbEntity
  8
RAYADO_MURO
 62
7
100
AcDbHatch
 10
0.0
 20
0.0
 30
0.0
210
0.0
220
0.0
230
1.0
  2
ANSI31
 70
0
 71
0
 91
1
 92
3
 72
0
 73
1
 93
14
 10
104.26666666666668
 20
439.6
 10
108.0
 20
342.0
 10
115.33333333333334
 20
342.0
 10
115.33333333333334
 20
349.33333333333337
 10
115.05818629980348
 20
349.33333333333337
 10
111.60536298468509
 20
439.6
 10
112.0
 20
439.6
 10
112.0
 20
446.93333333333334
 10
73.33333333333333
 20
446.93333333333334
 10
73.33333333333333
 20
552.0
 10
79.33333333333333
 20
552.0
 10
79.33333333333333
 20
559.3333333333334
 10
66.0
 20
559.3333333333334
 10
66.0
 20
439.6
 97
0
 75
1
 76
1
 52
45.0
 41
0.6
 77
0
 78
1
 53
90.0
 43
0.0
 44
0.0
 45
-1.905
 46
0.0
 79
0
 98
0
  0
LWPOLYLINE
  5
C5
330
17
100
AcDbEntity
  8
muros_PB
100
AcDbPolyline
 90
4
 70
1
 10
164.0
 20
349.33333333333337
 10
164.0
 20
342.0
 10
166.66666666666669
 20
342.0
 10
166.66666666666669
 20
349.33333333333337
  0
HATCH
  5
C6
330
17
100
AcDbEntity
  8
RAYADO_MURO
 62
7
100
AcDbHatch
 10
0.0
 20
0.0
 30
0.0
210
0.0
220
0.0
230
1.0
  2
ANSI31
 70
0
 71
0
 91
1
 92
3
 72
0
 73
1
 93
4
 10
164.0
 20
349.33333333333337
 10
164.0
 20
342.0
 10
166.66666666666669
 20
342.0
 10
166.66666666666669
 20
349.33333333333337
 97
0
 75
1
 76
1
 52
45.0
 41
0.6
 77
0
 78
1
 53
90.0
 43
0.0
 44
0.0
 45
-1.905
 46
0.0
 79
0
 98
0
  0
LWPOLYLINE
  5
C7
330
17
100
AcDbEntity
  8
muros_PB
100
AcDbPolyline
 90
14
 70
1
 10
185.33333333333331
 20
349.33333333333337
 10
185.33333333333331
 20
342.0
 10
193.33333333333334
 20
342.0
 10
193.33333333333334
 20
452.6666666666667
 10
226.66666666666669
 20
452.6666666666667
 10
226.66666666666669
 20
499.33333333333337
 10
193.33333333333334
 20
499.33333333333337
 10
193.33333333333334
 20
515.3333333333334
 10
186.0
 20
515.3333333333334
 10
186.0
 20
492.0
 10
219.33333333333334
 20
492.0
 10
219.33333333333334
 20
460.0
 10
186.0
 20
460.0
 10
186.0
 20
349.3333333333333
  0
HATCH
  5
C8
330
17
100
AcDbEntity
  8
RAYADO_MURO
 62
7
100
AcDbHatch
 10
0.0
 20
0.0
 30
0.0
210
0.0
220
0.0
230
1.0
  2
ANSI31
 70
0
 71
0
 91
1
 92
3
 72
0
 73
1
 93
14
 10
185.33333333333331
 20
349.33333333333337
 10
185.33333333333331
 20
342.0
 10
193.33333333333334
 20
342.0
 10
193.33333333333334
 20
452.6666666666667
 10
226.66666666666669
 20
452.6666666666667
 10
226.66666666666669
 20
499.33333333333337
 10
193.33333333333334
 20
499.33333333333337
 10
193.33333333333334
 20
515.3333333333334
 10
186.0
 20
515.3333333333334
 10
186.0
 20
492.0
 10
219.33333333333334
 20
492.0
 10
219.33333333333334
 20
460.0
 10
186.0
 20
460.0
 10
186.0
 20
349.3333333333333
 97
0
 75
1
 76
1
 52
45.0
 41
0.6
 77
0
 78
1
 53
90.0
 43
0.0
 44
0.0
 45
-1.905
 46
0.0
 79
0
 98
0
  0
LWPOLYLINE
  5
C9
330
17
100
AcDbEntity
  8
muros_PB
100
AcDbPolyline
 90
6
 70
1
 10
193.33333333333334
 20
536.6666666666666
 10
193.33333333333334
 20
559.3333333333334
 10
179.33333333333334
 20
559.3333333333334
 10
179.33333333333334
 20
552.0
 10
186.0
 20
552.0
 10
186.0
 20
536.6666666666666
  0
HATCH
  5
CA
330
17
100
AcDbEntity
  8
RAYADO_MURO
 62
7
100
AcDbHatch
 10
0.0
 20
0.0
 30
0.0
210
0.0
220
0.0
230
1.0
  2
ANSI31
 70
0
 71
0
 91
1
 92
3
 72
0
 73
1
 93
6
 10
193.33333333333334
 20
536.6666666666666
 10
193.33333333333334
 20
559.3333333333334
 10
179.33333333333334
 20
559.3333333333334
 10
179.33333333333334
 20
552.0
 10
186.0
 20
552.0
 10
186.0
 20
536.6666666666666
 97
0
 75
1
 76
1
 52
45.0
 41
0.6
 77
0
 78
1
 53
90.0
 43
0.0
 44
0.0
 45
-1.905
 46
0.0
 79
0
 98
0
  0
LWPOLYLINE
  5
CB
330
17
100
AcDbEntity
  8
muros_PB
100
AcDbPolyline
 90
4
 70
1
 10
166.0
 20
559.3333333333334
 10
166.0
 20
552.0
 10
156.0
 20
552.0
 10
156.0
 20
559.3333333333334
  0
HATCH
  5
CC
330
17
100
AcDbEntity
  8
RAYADO_MURO
 62
7
100
AcDbHatch
 10
0.0
 20
0.0
 30
0.0
210
0.0
220
0.0
230
1.0
  2
ANSI31
 70
0
 71
0
 91
1
 92
3
 72
0
 73
1
 93
4
 10
166.0
 20
559.3333333333334
 10
166.0
 20
552.0
 10
156.0
 20
552.0
 10
156.0
 20
559.3333333333334
 97
0
 75
1
 76
1
 52
45.0
 41
0.6
 77
0
 78
1
 53
90.0
 43
0.0
 44
0.0
 45
-1.905
 46
0.0
 79
0
 98
0
  0
LWPOLYLINE
  5
CD
330
17
100
AcDbEntity
  8
muros_PB
100
AcDbPolyline
 90
4
 70
1
 10
140.0
 20
559.3333333333334
 10
140.0
 20
552.0
 10
122.0
 20
552.0
 10
122.0
 20
559.3333333333334
  0
HATCH
  5
CE
330
17
100
AcDbEntity
  8
RAYADO_MURO
 62
7
100
AcDbHatch
 10
0.0
 20
0.0
 30
0.0
210
0.0
220
0.0
230
1.0
  2
ANSI31
 70
0
 71
0
 91
1
 92
3
 72
0
 73
1
 93
4
 10
140.0
 20
559.3333333333334
 10
140.0
 20
552.0
 10
122.0
 20
552.0
 10
122.0
 20
559.3333333333334
 97
0
 75
1
 76
1
 52
45.0
 41
0.6
 77
0
 78
1
 53
90.0
 43
0.0
 44
0.0
 45
-1.905
 46
0.0
 79
0
 98
0
  0
LWPOLYLINE
  5
CF
330
17
100
AcDbEntity
  8
muros_PB
100
AcDbPolyline
 90
4
 70
1
 10
106.0
 20
559.3333333333334
 10
106.0
 20
552.0
 10
95.33333333333334
 20
552.0
 10
95.33333333333334
 20
559.3333333333334
  0
HATCH
  5
D0
330
17
100
AcDbEntity
  8
RAYADO_MURO
 62
7
100
AcDbHatch
 10
0.0
 20
0.0
 30
0.0
210
0.0
220
0.0
230
1.0
  2
ANSI31
 70
0
 71
0
 91
1
 92
3
 72
0
 73
1
 93
4
 10
106.0
 20
559.3333333333334
 10
106.0
 20
552.0
 10
95.33333333333334
 20
552.0
 10
95.33333333333334
 20
559.3333333333334
 97
0
 75
1
 76
1
 52
45.0
 41
0.6
 77
0
 78
1
 53
90.0
 43
0.0
 44
0.0
 45
-1.905
 46
0.0
 79
0
 98
0
  0
LWPOLYLINE
  5
D1
330
17
100
AcDbEntity
  8
VIGUETAS
100
AcDbPolyline
 90
2
 70
0
 10
111.15664845173043
 20
355.3333333333333
 10
189.66666666666669
 20
355.3333333333333
  0
LWPOLYLINE
  5
D2
330
17
100
AcDbEntity
  8
VIGUETAS
100
AcDbPolyline
 90
2
 70
0
 10
110.64663023679418
 20
368.6666666666667
 10
189.66666666666669
 20
368.6666666666667
  0
LWPOLYLINE
  5
D3
330
17
100
AcDbEntity
  8
VIGUETAS
100
AcDbPolyline
 90
2
 70
0
 10
110.13661202185793
 20
382.0
 10
189.66666666666669
 20
382.0
  0
LWPOLYLINE
  5
D4
330
17
100
AcDbEntity
  8
VIGUETAS
100
AcDbPolyline
 90
2
 70
0
 10
109.62659380692168
 20
395.3333333333333
 10
189.66666666666669
 20
395.3333333333333
  0
LWPOLYLINE
  5
D5
330
17
100
AcDbEntity
  8
VIGUETAS
100
AcDbPolyline
 90
2
 70
0
 10
109.11657559198544
 20
408.6666666666667
 10
189.66666666666669
 20
408.6666666666667
  0
LWPOLYLINE
  5
D6
330
17
100
AcDbEntity
  8
VIGUETAS
100
AcDbPolyline
 90
2
 70
0
 10
108.6065573770492
 20
422.0
 10
189.66666666666669
 20
422.0
  0
LWPOLYLINE
  5
D7
330
17
100
AcDbEntity
  8
VIGUETAS
100
AcDbPolyline
 90
2
 70
0
 10
108.22404371584702
 20
432.0
 10
189.66666666666669
 20
432.0
  0
LWPOLYLINE
  5
D8
330
17
100
AcDbEntity
  8
VIGUETAS
100
AcDbPolyline
 90
2
 70
0
 10
69.66666666666667
 20
452.93333333333334
 10
107.33333333333334
 20
452.93333333333334
  0
LWPOLYLINE
  5
D9
330
17
100
AcDbEntity
  8
VIGUETAS
100
AcDbPolyline
 90
2
 70
0
 10
107.33333333333334
 20
452.93333333333334
 10
136.66666666666669
 20
452.93333333333334
  0
LWPOLYLINE
  5
DA
330
17
100
AcDbEntity
  8
VIGUETAS
100
AcDbPolyline
 90
2
 70
0
 10
136.66666666666669
 20
452.93333333333334
 10
162.0
 20
452.93333333333334
  0
LWPOLYLINE
  5
DB
330
17
100
AcDbEntity
  8
VIGUETAS
100
AcDbPolyline
 90
2
 70
0
 10
162.0
 20
452.93333333333334
 10
189.66666666666669
 20
452.93333333333334
  0
LWPOLYLINE
  5
DC
330
17
100
AcDbEntity
  8
VIGUETAS
100
AcDbPolyline
 90
2
 70
0
 10
69.66666666666667
 20
466.26666666666665
 10
107.33333333333334
 20
466.26666666666665
  0
LWPOLYLINE
  5
DD
330
17
100
AcDbEntity
  8
VIGUETAS
100
AcDbPolyline
 90
2
 70
0
 10
107.33333333333334
 20
466.26666666666665
 10
136.66666666666669
 20
466.26666666666665
  0
LWPOLYLINE
  5
DE
330
17
100
AcDbEntity
  8
VIGUETAS
100
AcDbPolyline
 90
2
 70
0
 10
136.66666666666669
 20
466.26666666666665
 10
162.0
 20
466.26666666666665
  0
LWPOLYLINE
  5
DF
330
17
100
AcDbEntity
  8
VIGUETAS
100
AcDbPolyline
 90
2
 70
0
 10
69.66666666666667
 20
479.6
 10
107.33333333333334
 20
479.6
  0
LWPOLYLINE
  5
E0
330
17
100
AcDbEntity
  8
VIGUETAS
100
AcDbPolyline
 90
2
 70
0
 10
107.33333333333334
 20
479.6
 10
136.66666666666669
 20
479.6
  0
LWPOLYLINE
  5
E1
330
17
100
AcDbEntity
  8
VIGUETAS
100
AcDbPolyline
 90
2
 70
0
 10
136.66666666666669
 20
479.6
 10
162.0
 20
479.6
  0
LWPOLYLINE
  5
E2
330
17
100
AcDbEntity
  8
VIGUETAS
100
AcDbPolyline
 90
2
 70
0
 10
69.66666666666667
 20
492.93333333333334
 10
107.33333333333334
 20
492.93333333333334
  0
LWPOLYLINE
  5
E3
330
17
100
AcDbEntity
  8
VIGUETAS
100
AcDbPolyline
 90
2
 70
0
 10
107.33333333333334
 20
492.93333333333334
 10
136.66666666666669
 20
492.93333333333334
  0
LWPOLYLINE
  5
E4
330
17
100
AcDbEntity
  8
VIGUETAS
100
AcDbPolyline
 90
2
 70
0
 10
136.66666666666669
 20
492.93333333333334
 10
162.0
 20
492.93333333333334
  0
LWPOLYLINE
  5
E5
330
17
100
AcDbEntity
  8
VIGUETAS
100
AcDbPolyline
 90
2
 70
0
 10
69.66666666666667
 20
506.26666666666665
 10
107.33333333333334
 20
506.26666666666665
  0
LWPOLYLINE
  5
E6
330
17
100
AcDbEntity
  8
VIGUETAS
100
AcDbPolyline
 90
2
 70
0
 10
107.33333333333334
 20
506.26666666666665
 10
136.66666666666669
 20
506.26666666666665
  0
LWPOLYLINE
  5
E7
330
17
100
AcDbEntity
  8
VIGUETAS
100
AcDbPolyline
 90
2
 70
0
 10
136.66666666666669
 20
506.26666666666665
 10
162.0
 20
506.26666666666665
  0
LWPOLYLINE
  5
E8
330
17
100
AcDbEntity
  8
VIGUETAS
100
AcDbPolyline
 90
2
 70
0
 10
162.0
 20
506.26666666666665
 10
189.66666666666669
 20
506.26666666666665
  0
LWPOLYLINE
  5
E9
330
17
100
AcDbEntity
  8
VIGUETAS
100
AcDbPolyline
 90
2
 70
0
 10
69.66666666666667
 20
519.6
 10
107.33333333333334
 20
519.6
  0
LWPOLYLINE
  5
EA
330
17
100
AcDbEntity
  8
VIGUETAS
100
AcDbPolyline
 90
2
 70
0
 10
107.33333333333334
 20
519.6
 10
136.66666666666669
 20
519.6
  0
LWPOLYLINE
  5
EB
330
17
100
AcDbEntity
  8
VIGUETAS
100
AcDbPolyline
 90
2
 70
0
 10
136.66666666666669
 20
519.6
 10
162.0
 20
519.6
  0
LWPOLYLINE
  5
EC
330
17
100
AcDbEntity
  8
VIGUETAS
100
AcDbPolyline
 90
2
 70
0
 10
162.0
 20
519.6
 10
189.66666666666669
 20
519.6
  0
LWPOLYLINE
  5
ED
330
17
100
AcDbEntity
  8
VIGUETAS
100
AcDbPolyline
 90
2
 70
0
 10
69.66666666666667
 20
532.9333333333334
 10
107.33333333333334
 20
532.9333333333334
  0
LWPOLYLINE
  5
EE
330
17
100
AcDbEntity
  8
VIGUETAS
100
AcDbPolyline
 90
2
 70
0
 10
107.33333333333334
 20
532.9333333333334
 10
136.66666666666669
 20
532.9333333333334
  0
LWPOLYLINE
  5
EF
330
17
100
AcDbEntity
  8
VIGUETAS
100
AcDbPolyline
 90
2
 70
0
 10
136.66666666666669
 20
532.9333333333334
 10
162.0
 20
532.9333333333334
  0
LWPOLYLINE
  5
F0
330
17
100
AcDbEntity
  8
VIGUETAS
100
AcDbPolyline
 90
2
 70
0
 10
162.0
 20
532.9333333333334
 10
189.66666666666669
 20
532.9333333333334
  0
LWPOLYLINE
  5
F1
330
17
100
AcDbEntity
  8
VIGUETAS
100
AcDbPolyline
 90
2
 70
0
 10
69.66666666666667
 20
546.2666666666667
 10
107.33333333333334
 20
546.2666666666667
  0
LWPOLYLINE
  5
F2
330
17
100
AcDbEntity
  8
VIGUETAS
100
AcDbPolyline
 90
2
 70
0
 10
107.33333333333334
 20
546.2666666666667
 10
136.66666666666669
 20
546.2666666666667
  0
LWPOLYLINE
  5
F3
330
17
100
AcDbEntity
  8
VIGUETAS
100
AcDbPolyline
 90
2
 70
0
 10
136.66666666666669
 20
546.2666666666667
 10
162.0
 20
546.2666666666667
  0
LWPOLYLINE
  5
F4
330
17
100
AcDbEntity
  8
VIGUETAS
100
AcDbPolyline
 90
2
 70
0
 10
162.0
 20
546.2666666666667
 10
189.66666666666669
 20
546.2666666666667
  0
LWPOLYLINE
  5
F5
330
17
100
AcDbEntity
  8
VIGUETAS
100
AcDbPolyline
 90
2
 70
0
 10
189.66666666666669
 20
466.6666666666667
 10
223.0
 20
466.6666666666667
  0
LWPOLYLINE
  5
F6
330
17
100
AcDbEntity
  8
VIGUETAS
100
AcDbPolyline
 90
2
 70
0
 10
189.66666666666669
 20
480.0
 10
223.0
 20
480.0
  0
LWPOLYLINE
  5
F7
330
17
100
AcDbEntity
  8
VIGAS
100
AcDbPolyline
 90
2
 70
0
 10
107.33333333333334
 20
443.3333333333333
 10
107.33333333333334
 20
555.6666666666667
  0
LWPOLYLINE
  5
F8
330
17
100
AcDbEntity
  8
VIGAS
100
AcDbPolyline
 90
2
 70
0
 10
136.66666666666669
 20
443.3333333333333
 10
136.66666666666669
 20
555.6666666666667
  0
LWPOLYLINE
  5
F9
330
17
100
AcDbEntity
  8
VIGAS
100
AcDbPolyline
 90
2
 70
0
 10
162.0
 20
443.3333333333333
 10
162.0
 20
555.6666666666667
  0
LWPOLYLINE
  5
FA
330
17
100
AcDbEntity
  8
VIGAS
100
AcDbPolyline
 90
2
 70
0
 10
100.66666666666669
 20
443.3333333333333
 10
107.33333333333334
 20
443.3333333333333
  0
LWPOLYLINE
  5
FB
330
17
100
AcDbEntity
  8
VIGAS
100
AcDbPolyline
 90
2
 70
0
 10
107.33333333333334
 20
443.3333333333333
 10
136.66666666666669
 20
443.3333333333333
  0
LWPOLYLINE
  5
FC
330
17
100
AcDbEntity
  8
VIGAS
100
AcDbPolyline
 90
2
 70
0
 10
136.66666666666669
 20
443.3333333333333
 10
162.0
 20
443.3333333333333
  0
LWPOLYLINE
  5
FD
330
17
100
AcDbEntity
  8
VIGAS
100
AcDbPolyline
 90
2
 70
0
 10
162.0
 20
443.3333333333333
 10
189.66666666666669
 20
443.3333333333333
  0
LWPOLYLINE
  5
FE
330
17
100
AcDbEntity
  8
VIGAS
100
AcDbPolyline
 90
2
 70
0
 10
112.66666666666667
 20
345.6666666666667
 10
166.66666666666669
 20
345.6666666666667
  0
LWPOLYLINE
  5
FF
330
17
100
AcDbEntity
  8
PILARES
100
AcDbPolyline
 90
4
 70
1
 10
106.53333333333333
 20
442.5333333333333
 10
108.13333333333334
 20
442.5333333333333
 10
108.13333333333334
 20
444.1333333333333
 10
106.53333333333333
 20
444.1333333333333
  0
LWPOLYLINE
  5
100
330
17
100
AcDbEntity
  8
ZAPATAS
100
AcDbPolyline
 90
4
 70
1
 10
98.66666666666667
 20
434.66666666666663
 10
116.0
 20
434.66666666666663
 10
116.0
 20
452.0
 10
98.66666666666667
 20
452.0
  0
LWPOLYLINE
  5
101
330
17
100
AcDbEntity
  8
PILARES
100
AcDbPolyline
 90
4
 70
1
 10
106.53333333333333
 20
498.5333333333333
 10
108.13333333333334
 20
498.5333333333333
 10
108.13333333333334
 20
500.1333333333333
 10
106.53333333333333
 20
500.1333333333333
  0
LWPOLYLINE
  5
102
330
17
100
AcDbEntity
  8
ZAPATAS
100
AcDbPolyline
 90
4
 70
1
 10
98.66666666666667
 20
490.6666666666667
 10
116.0
 20
490.6666666666667
 10
116.0
 20
508.0
 10
98.66666666666667
 20
508.0
  0
LWPOLYLINE
  5
103
330
17
100
AcDbEntity
  8
PILARES
100
AcDbPolyline
 90
4
 70
1
 10
135.86666666666667
 20
442.5333333333333
 10
137.46666666666667
 20
442.5333333333333
 10
137.46666666666667
 20
444.1333333333333
 10
135.86666666666667
 20
444.1333333333333
  0
LWPOLYLINE
  5
104
330
17
100
AcDbEntity
  8
ZAPATAS
100
AcDbPolyline
 90
4
 70
1
 10
128.0
 20
434.66666666666663
 10
145.33333333333334
 20
434.66666666666663
 10
145.33333333333334
 20
452.0
 10
128.0
 20
452.0
  0
LWPOLYLINE
  5
105
330
17
100
AcDbEntity
  8
PILARES
100
AcDbPolyline
 90
4
 70
1
 10
135.86666666666667
 20
498.5333333333333
 10
137.46666666666667
 20
498.5333333333333
 10
137.46666666666667
 20
500.1333333333333
 10
135.86666666666667
 20
500.1333333333333
  0
LWPOLYLINE
  5
106
330
17
100
AcDbEntity
  8
ZAPATAS
100
AcDbPolyline
 90
4
 70
1
 10
128.0
 20
490.6666666666667
 10
145.33333333333334
 20
490.6666666666667
 10
145.33333333333334
 20
508.0
 10
128.0
 20
508.0
  0
LWPOLYLINE
  5
107
330
17
100
AcDbEntity
  8
PILARES
100
AcDbPolyline
 90
4
 70
1
 10
161.20000000000002
 20
442.5333333333333
 10
162.8
 20
442.5333333333333
 10
162.8
 20
444.1333333333333
 10
161.20000000000002
 20
444.1333333333333
  0
LWPOLYLINE
  5
108
330
17
100
AcDbEntity
  8
ZAPATAS
100
AcDbPolyline
 90
4
 70
1
 10
153.33333333333331
 20
434.66666666666663
 10
170.66666666666669
 20
434.66666666666663
 10
170.66666666666669
 20
452.0
 10
153.33333333333331
 20
452.0
  0
LWPOLYLINE
  5
109
330
17
100
AcDbEntity
  8
PILARES
100
AcDbPolyline
 90
4
 70
1
 10
161.20000000000002
 20
498.5333333333333
 10
162.8
 20
498.5333333333333
 10
162.8
 20
500.1333333333333
 10
161.20000000000002
 20
500.1333333333333
  0
LWPOLYLINE
  5
10A
330
17
100
AcDbEntity
  8
ZAPATAS
100
AcDbPolyline
 90
4
 70
1
 10
153.33333333333331
 20
490.6666666666667
 10
170.66666666666669
 20
490.6666666666667
 10
170.66666666666669
 20
508.0
 10
153.33333333333331
 20
508.0
  0
LWPOLYLINE
  5
10B
330
17
100
AcDbEntity
  8
ESCALERA_ALTA
100
AcDbPolyline
 90
4
 70
1
 10
162.66666666666669
 20
461.3333333333333
 10
186.0
 20
461.3333333333333
 10
186.0
 20
498.6666666666667
 10
162.66666666666669
 20
498.6666666666667
  0
TEXT
  5
10C
330
17
100
AcDbEntity
  8
TEXTO
100
AcDbText
 10
174.33333333333334
 20
480.0
 30
0.0
 40
1.5
  1
hueco de escalera
 72
1
 11
174.33333333333334
 21
480.0
 31
0.0
100
AcDbText
 73
2
  0
TEXT
  5
10D
330
17
100
AcDbEntity
  8
TEXTO
100
AcDbText
 10
146.0
 20
388.6666666666667
 30
0.0
 40
2.2
  1
IPE 220 @ 1.00  (luz 5,75)
 72
1
 11
146.0
 21
388.6666666666667
 31
0.0
100
AcDbText
 73
2
  0
TEXT
  5
10E
330
17
100
AcDbEntity
  8
TEXTO
100
AcDbText
 10
146.0
 20
396.6666666666667
 30
0.0
 40
2.6
  1
TERRAZA SOBRE EL SALÓN
 72
1
 11
146.0
 21
396.6666666666667
 31
0.0
100
AcDbText
 73
2
  0
TEXT
  5
10F
330
17
100
AcDbEntity
  8
TEXTO
100
AcDbText
 10
91.33333333333333
 20
467.33333333333337
 30
0.0
 40
1.8
  1
IPE 120 @ 1.00
 50
90.0
 72
1
 11
91.33333333333333
 21
467.33333333333337
 31
0.0
100
AcDbText
 73
2
  0
TEXT
  5
110
330
17
100
AcDbEntity
  8
TEXTO
100
AcDbText
 10
139.33333333333334
 20
354.6666666666667
 30
0.0
 40
1.8
  1
dintel HEB 160
 72
1
 11
139.33333333333334
 21
354.6666666666667
 31
0.0
100
AcDbText
 73
2
  0
TEXT
  5
111
330
17
100
AcDbEntity
  8
TEXTO
100
AcDbText
 10
107.33333333333334
 20
564.0
 30
0.0
 40
1.5
  1
HEB 160
 50
90.0
 72
1
 11
107.33333333333334
 21
564.0
 31
0.0
100
AcDbText
 73
2
  0
TEXT
  5
112
330
17
100
AcDbEntity
  8
TEXTO
100
AcDbText
 10
136.66666666666669
 20
564.0
 30
0.0
 40
1.5
  1
HEB 160
 50
90.0
 72
1
 11
136.66666666666669
 21
564.0
 31
0.0
100
AcDbText
 73
2
  0
TEXT
  5
113
330
17
100
AcDbEntity
  8
TEXTO
100
AcDbText
 10
162.0
 20
564.0
 30
0.0
 40
1.5
  1
HEB 160
 50
90.0
 72
1
 11
162.0
 21
564.0
 31
0.0
100
AcDbText
 73
2
  0
DIMENSION
  5
114
330
17
100
AcDbEntity
  8
COTAS
100
AcDbDimension
280
0
  2
*D1
  3
EZDXF
 10
69.66666666666667
 20
576.6666666666667
 30
0.0
 11
88.5
 21
578.3666666666668
 31
0.0
 70
32
 71
5
  1
2.83
100
AcDbAlignedDimension
 13
69.66666666666667
 23
559.3333333333334
 33
0.0
 14
107.33333333333334
 24
559.3333333333334
 34
0.0
 50
0.0
100
AcDbRotatedDimension
1001
ACAD
1000
DSTYLE
1002
{
1070
140
1040
2.2
1070
41
1040
1.8
1070
44
1040
1.0
1070
42
1040
0.8
1070
147
1040
0.6
1070
77
1070
1
1070
178
1070
3
1002
}
  0
DIMENSION
  5
123
330
17
100
AcDbEntity
  8
COTAS
100
AcDbDimension
280
0
  2
*D2
  3
EZDXF
 10
107.33333333333334
 20
576.6666666666667
 30
0.0
 11
122.00000000000001
 21
578.3666666666668
 31
0.0
 70
32
 71
5
  1
2.20
100
AcDbAlignedDimension
 13
107.33333333333334
 23
559.3333333333334
 33
0.0
 14
136.66666666666669
 24
559.3333333333334
 34
0.0
 50
0.0
100
AcDbRotatedDimension
1001
ACAD
1000
DSTYLE
1002
{
1070
140
1040
2.2
1070
41
1040
1.8
1070
44
1040
1.0
1070
42
1040
0.8
1070
147
1040
0.6
1070
77
1070
1
1070
178
1070
3
1002
}
  0
DIMENSION
  5
132
330
17
100
AcDbEntity
  8
COTAS
100
AcDbDimension
280
0
  2
*D3
  3
EZDXF
 10
136.66666666666669
 20
576.6666666666667
 30
0.0
 11
149.33333333333334
 21
578.3666666666668
 31
0.0
 70
32
 71
5
  1
1.90
100
AcDbAlignedDimension
 13
136.66666666666669
 23
559.3333333333334
 33
0.0
 14
162.0
 24
559.3333333333334
 34
0.0
 50
0.0
100
AcDbRotatedDimension
1001
ACAD
1000
DSTYLE
1002
{
1070
140
1040
2.2
1070
41
1040
1.8
1070
44
1040
1.0
1070
42
1040
0.8
1070
147
1040
0.6
1070
77
1070
1
1070
178
1070
3
1002
}
  0
DIMENSION
  5
141
330
17
100
AcDbEntity
  8
COTAS
100
AcDbDimension
280
0
  2
*D4
  3
EZDXF
 10
162.0
 20
576.6666666666667
 30
0.0
 11
175.83333333333334
 21
578.3666666666668
 31
0.0
 70
32
 71
5
  1
2.08
100
AcDbAlignedDimension
 13
162.0
 23
559.3333333333334
 33
0.0
 14
189.66666666666669
 24
559.3333333333334
 34
0.0
 50
0.0
100
AcDbRotatedDimension
1001
ACAD
1000
DSTYLE
1002
{
1070
140
1040
2.2
1070
41
1040
1.8
1070
44
1040
1.0
1070
42
1040
0.8
1070
147
1040
0.6
1070
77
1070
1
1070
178
1070
3
1002
}
  0
DIMENSION
  5
150
330
17
100
AcDbEntity
  8
COTAS
100
AcDbDimension
280
0
  2
*D5
  3
EZDXF
 10
54.0
 20
443.3333333333333
 30
0.0
 11
52.3
 21
471.33333333333337
 31
0.0
 70
32
 71
5
  1
4.20
100
AcDbAlignedDimension
 13
66.0
 23
443.3333333333333
 33
0.0
 14
66.0
 24
499.33333333333337
 34
0.0
 50
90.0
100
AcDbRotatedDimension
1001
ACAD
1000
DSTYLE
1002
{
1070
140
1040
2.2
1070
41
1040
1.8
1070
44
1040
1.0
1070
42
1040
0.8
1070
147
1040
0.6
1070
77
1070
1
1070
178
1070
3
1002
}
  0
DIMENSION
  5
15F
330
17
100
AcDbEntity
  8
COTAS
100
AcDbDimension
280
0
  2
*D6
  3
EZDXF
 10
54.0
 20
499.33333333333337
 30
0.0
 11
52.3
 21
527.5
 31
0.0
 70
32
 71
5
  1
4.23
100
AcDbAlignedDimension
 13
66.0
 23
499.33333333333337
 33
0.0
 14
66.0
 24
555.6666666666667
 34
0.0
 50
90.0
100
AcDbRotatedDimension
1001
ACAD
1000
DSTYLE
1002
{
1070
140
1040
2.2
1070
41
1040
1.8
1070
44
1040
1.0
1070
42
1040
0.8
1070
147
1040
0.6
1070
77
1070
1
1070
178
1070
3
1002
}
  0
DIMENSION
  5
16E
330
17
100
AcDbEntity
  8
COTAS
100
AcDbDimension
280
0
  2
*D7
  3
EZDXF
 10
108.0
 20
332.6666666666667
 30
0.0
 11
150.66666666666669
 21
334.3666666666667
 31
0.0
 70
32
 71
5
  1
6.40
100
AcDbAlignedDimension
 13
108.0
 23
342.0
 33
0.0
 14
193.33333333333334
 24
342.0
 34
0.0
 50
0.0
100
AcDbRotatedDimension
1001
ACAD
1000
DSTYLE
1002
{
1070
140
1040
2.2
1070
41
1040
1.8
1070
44
1040
1.0
1070
42
1040
0.8
1070
147
1040
0.6
1070
77
1070
1
1070
178
1070
3
1002
}
  0
DIMENSION
  5
17D
330
17
100
AcDbEntity
  8
COTAS
100
AcDbDimension
280
0
  2
*D8
  3
EZDXF
 10
234.66666666666669
 20
342.0
 30
0.0
 11
232.9666666666667
 21
397.33333333333337
 31
0.0
 70
32
 71
5
  1
8.30
100
AcDbAlignedDimension
 13
226.66666666666669
 23
342.0
 33
0.0
 14
226.66666666666669
 24
452.6666666666667
 34
0.0
 50
90.0
100
AcDbRotatedDimension
1001
ACAD
1000
DSTYLE
1002
{
1070
140
1040
2.2
1070
41
1040
1.8
1070
44
1040
1.0
1070
42
1040
0.8
1070
147
1040
0.6
1070
77
1070
1
1070
178
1070
3
1002
}
  0
DIMENSION
  5
18C
330
17
100
AcDbEntity
  8
COTAS
100
AcDbDimension
280
0
  2
*D9
  3
EZDXF
 10
234.66666666666669
 20
452.6666666666667
 30
0.0
 11
232.9666666666667
 21
476.0
 31
0.0
 70
32
 71
5
  1
3.50
100
AcDbAlignedDimension
 13
226.66666666666669
 23
452.6666666666667
 33
0.0
 14
226.66666666666669
 24
499.33333333333337
 34
0.0
 50
90.0
100
AcDbRotatedDimension
1001
ACAD
1000
DSTYLE
1002
{
1070
140
1040
2.2
1070
41
1040
1.8
1070
44
1040
1.0
1070
42
1040
0.8
1070
147
1040
0.6
1070
77
1070
1
1070
178
1070
3
1002
}
  0
DIMENSION
  5
19B
330
17
100
AcDbEntity
  8
COTAS
100
AcDbDimension
280
0
  2
*D10
  3
EZDXF
 10
234.66666666666669
 20
499.33333333333337
 30
0.0
 11
232.9666666666667
 21
529.3333333333334
 31
0.0
 70
32
 71
5
  1
4.50
100
AcDbAlignedDimension
 13
226.66666666666669
 23
499.33333333333337
 33
0.0
 14
226.66666666666669
 24
559.3333333333334
 34
0.0
 50
90.0
100
AcDbRotatedDimension
1001
ACAD
1000
DSTYLE
1002
{
1070
140
1040
2.2
1070
41
1040
1.8
1070
44
1040
1.0
1070
42
1040
0.8
1070
147
1040
0.6
1070
77
1070
1
1070
178
1070
3
1002
}
  0
DIMENSION
  5
1AA
330
17
100
AcDbEntity
  8
COTAS
100
AcDbDimension
280
0
  2
*D11
  3
EZDXF
 10
242.66666666666669
 20
342.0
 30
0.0
 11
240.9666666666667
 21
450.6666666666667
 31
0.0
 70
32
 71
5
  1
16.30
100
AcDbAlignedDimension
 13
226.66666666666669
 23
342.0
 33
0.0
 14
226.66666666666669
 24
559.3333333333334
 34
0.0
 50
90.0
100
AcDbRotatedDimension
1001
ACAD
1000
DSTYLE
1002
{
1070
140
1040
2.2
1070
41
1040
1.8
1070
44
1040
1.0
1070
42
1040
0.8
1070
147
1040
0.6
1070
77
1070
1
1070
178
1070
3
1002
}
  0
DIMENSION
  5
1B9
330
17
100
AcDbEntity
  8
COTAS
100
AcDbDimension
280
0
  2
*D12
  3
EZDXF
 10
66.0
 20
567.3333333333334
 30
0.0
 11
129.66666666666669
 21
569.0333333333334
 31
0.0
 70
32
 71
5
  1
9.55
100
AcDbAlignedDimension
 13
66.0
 23
559.3333333333334
 33
0.0
 14
193.33333333333334
 24
559.3333333333334
 34
0.0
 50
0.0
100
AcDbRotatedDimension
1001
ACAD
1000
DSTYLE
1002
{
1070
140
1040
2.2
1070
41
1040
1.8
1070
44
1040
1.0
1070
42
1040
0.8
1070
147
1040
0.6
1070
77
1070
1
1070
178
1070
3
1002
}
  0
DIMENSION
  5
1C8
330
17
100
AcDbEntity
  8
COTAS
100
AcDbDimension
280
0
  2
*D13
  3
EZDXF
 10
58.0
 20
439.6
 30
0.0
 11
56.3
 21
499.4666666666667
 31
0.0
 70
32
 71
5
  1
8.98
100
AcDbAlignedDimension
 13
66.0
 23
439.6
 33
0.0
 14
66.0
 24
559.3333333333334
 34
0.0
 50
90.0
100
AcDbRotatedDimension
1001
ACAD
1000
DSTYLE
1002
{
1070
140
1040
2.2
1070
41
1040
1.8
1070
44
1040
1.0
1070
42
1040
0.8
1070
147
1040
0.6
1070
77
1070
1
1070
178
1070
3
1002
}
  0
LINE
  5
1D7
330
17
100
AcDbEntity
  8
COTAS
100
AcDbLine
 10
48.666666666666664
 20
539.3333333333334
 30
0.0
 11
48.666666666666664
 21
519.3333333333334
 31
0.0
  0
LINE
  5
1D8
330
17
100
AcDbEntity
  8
COTAS
100
AcDbLine
 10
48.666666666666664
 20
519.3333333333334
 30
0.0
 11
46.66666666666667
 21
524.6666666666667
 31
0.0
  0
LINE
  5
1D9
330
17
100
AcDbEntity
  8
COTAS
100
AcDbLine
 10
48.666666666666664
 20
519.3333333333334
 30
0.0
 11
50.66666666666667
 21
524.6666666666667
 31
0.0
  0
TEXT
  5
1DA
330
17
100
AcDbEntity
  8
TEXTO
100
AcDbText
 10
48.666666666666664
 20
512.6666666666667
 30
0.0
 40
1.8
  1
N (supuesto)
 72
1
 11
48.666666666666664
 21
512.6666666666667
 31
0.0
100
AcDbText
 73
2
  0
TEXT
  5
1DB
330
17
100
AcDbEntity
  8
TEXTO
100
AcDbText
 10
145.66666666666669
 20
318.0
 30
0.0
 40
4.0
  1
ESTRUCTURA FORJADO PB-PA Y TERRAZA  1/75
 72
1
 11
145.66666666666669
 21
318.0
 31
0.0
100
AcDbText
 73
2
  0
LWPOLYLINE
  5
1DC
330
17
100
AcDbEntity
  8
muros_PB
100
AcDbPolyline
 90
14
 70
1
 10
374.26666666666665
 20
439.6
 10
378.0
 20
342.0
 10
385.3333333333333
 20
342.0
 10
385.3333333333333
 20
349.33333333333337
 10
385.0581862998035
 20
349.33333333333337
 10
381.6053629846851
 20
439.6
 10
382.0
 20
439.6
 10
382.0
 20
446.93333333333334
 10
343.3333333333333
 20
446.93333333333334
 10
343.3333333333333
 20
552.0
 10
349.3333333333333
 20
552.0
 10
349.3333333333333
 20
559.3333333333334
 10
336.0
 20
559.3333333333334
 10
336.0
 20
439.6
  0
HATCH
  5
1DD
330
17
100
AcDbEntity
  8
RAYADO_MURO
 62
7
100
AcDbHatch
 10
0.0
 20
0.0
 30
0.0
210
0.0
220
0.0
230
1.0
  2
ANSI31
 70
0
 71
0
 91
1
 92
3
 72
0
 73
1
 93
14
 10
374.26666666666665
 20
439.6
 10
378.0
 20
342.0
 10
385.3333333333333
 20
342.0
 10
385.3333333333333
 20
349.33333333333337
 10
385.0581862998035
 20
349.33333333333337
 10
381.6053629846851
 20
439.6
 10
382.0
 20
439.6
 10
382.0
 20
446.93333333333334
 10
343.3333333333333
 20
446.93333333333334
 10
343.3333333333333
 20
552.0
 10
349.3333333333333
 20
552.0
 10
349.3333333333333
 20
559.3333333333334
 10
336.0
 20
559.3333333333334
 10
336.0
 20
439.6
 97
0
 75
1
 76
1
 52
45.0
 41
0.6
 77
0
 78
1
 53
90.0
 43
0.0
 44
0.0
 45
-1.905
 46
0.0
 79
0
 98
0
  0
LWPOLYLINE
  5
1DE
330
17
100
AcDbEntity
  8
muros_PB
100
AcDbPolyline
 90
4
 70
1
 10
434.0
 20
349.33333333333337
 10
434.0
 20
342.0
 10
436.6666666666667
 20
342.0
 10
436.6666666666667
 20
349.33333333333337
  0
HATCH
  5
1DF
330
17
100
AcDbEntity
  8
RAYADO_MURO
 62
7
100
AcDbHatch
 10
0.0
 20
0.0
 30
0.0
210
0.0
220
0.0
230
1.0
  2
ANSI31
 70
0
 71
0
 91
1
 92
3
 72
0
 73
1
 93
4
 10
434.0
 20
349.33333333333337
 10
434.0
 20
342.0
 10
436.6666666666667
 20
342.0
 10
436.6666666666667
 20
349.33333333333337
 97
0
 75
1
 76
1
 52
45.0
 41
0.6
 77
0
 78
1
 53
90.0
 43
0.0
 44
0.0
 45
-1.905
 46
0.0
 79
0
 98
0
  0
LWPOLYLINE
  5
1E0
330
17
100
AcDbEntity
  8
muros_PB
100
AcDbPolyline
 90
14
 70
1
 10
455.3333333333333
 20
349.33333333333337
 10
455.3333333333333
 20
342.0
 10
463.33333333333337
 20
342.0
 10
463.33333333333337
 20
452.6666666666667
 10
496.6666666666667
 20
452.6666666666667
 10
496.6666666666667
 20
499.33333333333337
 10
463.33333333333337
 20
499.33333333333337
 10
463.33333333333337
 20
515.3333333333334
 10
456.0
 20
515.3333333333334
 10
456.0
 20
492.0
 10
489.33333333333337
 20
492.0
 10
489.33333333333337
 20
460.0
 10
456.0
 20
460.0
 10
456.0
 20
349.3333333333333
  0
HATCH
  5
1E1
330
17
100
AcDbEntity
  8
RAYADO_MURO
 62
7
100
AcDbHatch
 10
0.0
 20
0.0
 30
0.0
210
0.0
220
0.0
230
1.0
  2
ANSI31
 70
0
 71
0
 91
1
 92
3
 72
0
 73
1
 93
14
 10
455.3333333333333
 20
349.33333333333337
 10
455.3333333333333
 20
342.0
 10
463.33333333333337
 20
342.0
 10
463.33333333333337
 20
452.6666666666667
 10
496.6666666666667
 20
452.6666666666667
 10
496.6666666666667
 20
499.33333333333337
 10
463.33333333333337
 20
499.33333333333337
 10
463.33333333333337
 20
515.3333333333334
 10
456.0
 20
515.3333333333334
 10
456.0
 20
492.0
 10
489.33333333333337
 20
492.0
 10
489.33333333333337
 20
460.0
 10
456.0
 20
460.0
 10
456.0
 20
349.3333333333333
 97
0
 75
1
 76
1
 52
45.0
 41
0.6
 77
0
 78
1
 53
90.0
 43
0.0
 44
0.0
 45
-1.905
 46
0.0
 79
0
 98
0
  0
LWPOLYLINE
  5
1E2
330
17
100
AcDbEntity
  8
muros_PB
100
AcDbPolyline
 90
6
 70
1
 10
463.33333333333337
 20
536.6666666666666
 10
463.33333333333337
 20
559.3333333333334
 10
449.33333333333337
 20
559.3333333333334
 10
449.33333333333337
 20
552.0
 10
456.0
 20
552.0
 10
456.0
 20
536.6666666666666
  0
HATCH
  5
1E3
330
17
100
AcDbEntity
  8
RAYADO_MURO
 62
7
100
AcDbHatch
 10
0.0
 20
0.0
 30
0.0
210
0.0
220
0.0
230
1.0
  2
ANSI31
 70
0
 71
0
 91
1
 92
3
 72
0
 73
1
 93
6
 10
463.33333333333337
 20
536.6666666666666
 10
463.33333333333337
 20
559.3333333333334
 10
449.33333333333337
 20
559.3333333333334
 10
449.33333333333337
 20
552.0
 10
456.0
 20
552.0
 10
456.0
 20
536.6666666666666
 97
0
 75
1
 76
1
 52
45.0
 41
0.6
 77
0
 78
1
 53
90.0
 43
0.0
 44
0.0
 45
-1.905
 46
0.0
 79
0
 98
0
  0
LWPOLYLINE
  5
1E4
330
17
100
AcDbEntity
  8
muros_PB
100
AcDbPolyline
 90
4
 70
1
 10
436.0
 20
559.3333333333334
 10
436.0
 20
552.0
 10
426.0
 20
552.0
 10
426.0
 20
559.3333333333334
  0
HATCH
  5
1E5
330
17
100
AcDbEntity
  8
RAYADO_MURO
 62
7
100
AcDbHatch
 10
0.0
 20
0.0
 30
0.0
210
0.0
220
0.0
230
1.0
  2
ANSI31
 70
0
 71
0
 91
1
 92
3
 72
0
 73
1
 93
4
 10
436.0
 20
559.3333333333334
 10
436.0
 20
552.0
 10
426.0
 20
552.0
 10
426.0
 20
559.3333333333334
 97
0
 75
1
 76
1
 52
45.0
 41
0.6
 77
0
 78
1
 53
90.0
 43
0.0
 44
0.0
 45
-1.905
 46
0.0
 79
0
 98
0
  0
LWPOLYLINE
  5
1E6
330
17
100
AcDbEntity
  8
muros_PB
100
AcDbPolyline
 90
4
 70
1
 10
410.0
 20
559.3333333333334
 10
410.0
 20
552.0
 10
392.0
 20
552.0
 10
392.0
 20
559.3333333333334
  0
HATCH
  5
1E7
330
17
100
AcDbEntity
  8
RAYADO_MURO
 62
7
100
AcDbHatch
 10
0.0
 20
0.0
 30
0.0
210
0.0
220
0.0
230
1.0
  2
ANSI31
 70
0
 71
0
 91
1
 92
3
 72
0
 73
1
 93
4
 10
410.0
 20
559.3333333333334
 10
410.0
 20
552.0
 10
392.0
 20
552.0
 10
392.0
 20
559.3333333333334
 97
0
 75
1
 76
1
 52
45.0
 41
0.6
 77
0
 78
1
 53
90.0
 43
0.0
 44
0.0
 45
-1.905
 46
0.0
 79
0
 98
0
  0
LWPOLYLINE
  5
1E8
330
17
100
AcDbEntity
  8
muros_PB
100
AcDbPolyline
 90
4
 70
1
 10
376.0
 20
559.3333333333334
 10
376.0
 20
552.0
 10
365.3333333333333
 20
552.0
 10
365.3333333333333
 20
559.3333333333334
  0
HATCH
  5
1E9
330
17
100
AcDbEntity
  8
RAYADO_MURO
 62
7
100
AcDbHatch
 10
0.0
 20
0.0
 30
0.0
210
0.0
220
0.0
230
1.0
  2
ANSI31
 70
0
 71
0
 91
1
 92
3
 72
0
 73
1
 93
4
 10
376.0
 20
559.3333333333334
 10
376.0
 20
552.0
 10
365.3333333333333
 20
552.0
 10
365.3333333333333
 20
559.3333333333334
 97
0
 75
1
 76
1
 52
45.0
 41
0.6
 77
0
 78
1
 53
90.0
 43
0.0
 44
0.0
 45
-1.905
 46
0.0
 79
0
 98
0
  0
LWPOLYLINE
  5
1EA
330
17
100
AcDbEntity
  8
VIGUETAS
100
AcDbPolyline
 90
2
 70
0
 10
339.6666666666667
 20
452.93333333333334
 10
377.3333333333333
 20
452.93333333333334
  0
LWPOLYLINE
  5
1EB
330
17
100
AcDbEntity
  8
VIGUETAS
100
AcDbPolyline
 90
2
 70
0
 10
377.3333333333333
 20
452.93333333333334
 10
406.6666666666667
 20
452.93333333333334
  0
LWPOLYLINE
  5
1EC
330
17
100
AcDbEntity
  8
VIGUETAS
100
AcDbPolyline
 90
2
 70
0
 10
406.6666666666667
 20
452.93333333333334
 10
432.0
 20
452.93333333333334
  0
LWPOLYLINE
  5
1ED
330
17
100
AcDbEntity
  8
VIGUETAS
100
AcDbPolyline
 90
2
 70
0
 10
432.0
 20
452.93333333333334
 10
459.6666666666667
 20
452.93333333333334
  0
LWPOLYLINE
  5
1EE
330
17
100
AcDbEntity
  8
VIGUETAS
100
AcDbPolyline
 90
2
 70
0
 10
339.6666666666667
 20
466.26666666666665
 10
377.3333333333333
 20
466.26666666666665
  0
LWPOLYLINE
  5
1EF
330
17
100
AcDbEntity
  8
VIGUETAS
100
AcDbPolyline
 90
2
 70
0
 10
377.3333333333333
 20
466.26666666666665
 10
406.6666666666667
 20
466.26666666666665
  0
LWPOLYLINE
  5
1F0
330
17
100
AcDbEntity
  8
VIGUETAS
100
AcDbPolyline
 90
2
 70
0
 10
406.6666666666667
 20
466.26666666666665
 10
432.0
 20
466.26666666666665
  0
LWPOLYLINE
  5
1F1
330
17
100
AcDbEntity
  8
VIGUETAS
100
AcDbPolyline
 90
2
 70
0
 10
339.6666666666667
 20
479.6
 10
377.3333333333333
 20
479.6
  0
LWPOLYLINE
  5
1F2
330
17
100
AcDbEntity
  8
VIGUETAS
100
AcDbPolyline
 90
2
 70
0
 10
377.3333333333333
 20
479.6
 10
406.6666666666667
 20
479.6
  0
LWPOLYLINE
  5
1F3
330
17
100
AcDbEntity
  8
VIGUETAS
100
AcDbPolyline
 90
2
 70
0
 10
406.6666666666667
 20
479.6
 10
432.0
 20
479.6
  0
LWPOLYLINE
  5
1F4
330
17
100
AcDbEntity
  8
VIGUETAS
100
AcDbPolyline
 90
2
 70
0
 10
339.6666666666667
 20
492.93333333333334
 10
377.3333333333333
 20
492.93333333333334
  0
LWPOLYLINE
  5
1F5
330
17
100
AcDbEntity
  8
VIGUETAS
100
AcDbPolyline
 90
2
 70
0
 10
377.3333333333333
 20
492.93333333333334
 10
406.6666666666667
 20
492.93333333333334
  0
LWPOLYLINE
  5
1F6
330
17
100
AcDbEntity
  8
VIGUETAS
100
AcDbPolyline
 90
2
 70
0
 10
406.6666666666667
 20
492.93333333333334
 10
432.0
 20
492.93333333333334
  0
LWPOLYLINE
  5
1F7
330
17
100
AcDbEntity
  8
VIGUETAS
100
AcDbPolyline
 90
2
 70
0
 10
339.6666666666667
 20
506.26666666666665
 10
377.3333333333333
 20
506.26666666666665
  0
LWPOLYLINE
  5
1F8
330
17
100
AcDbEntity
  8
VIGUETAS
100
AcDbPolyline
 90
2
 70
0
 10
377.3333333333333
 20
506.26666666666665
 10
406.6666666666667
 20
506.26666666666665
  0
LWPOLYLINE
  5
1F9
330
17
100
AcDbEntity
  8
VIGUETAS
100
AcDbPolyline
 90
2
 70
0
 10
406.6666666666667
 20
506.26666666666665
 10
432.0
 20
506.26666666666665
  0
LWPOLYLINE
  5
1FA
330
17
100
AcDbEntity
  8
VIGUETAS
100
AcDbPolyline
 90
2
 70
0
 10
432.0
 20
506.26666666666665
 10
459.6666666666667
 20
506.26666666666665
  0
LWPOLYLINE
  5
1FB
330
17
100
AcDbEntity
  8
VIGUETAS
100
AcDbPolyline
 90
2
 70
0
 10
339.6666666666667
 20
519.6
 10
377.3333333333333
 20
519.6
  0
LWPOLYLINE
  5
1FC
330
17
100
AcDbEntity
  8
VIGUETAS
100
AcDbPolyline
 90
2
 70
0
 10
377.3333333333333
 20
519.6
 10
406.6666666666667
 20
519.6
  0
LWPOLYLINE
  5
1FD
330
17
100
AcDbEntity
  8
VIGUETAS
100
AcDbPolyline
 90
2
 70
0
 10
406.6666666666667
 20
519.6
 10
432.0
 20
519.6
  0
LWPOLYLINE
  5
1FE
330
17
100
AcDbEntity
  8
VIGUETAS
100
AcDbPolyline
 90
2
 70
0
 10
432.0
 20
519.6
 10
459.6666666666667
 20
519.6
  0
LWPOLYLINE
  5
1FF
330
17
100
AcDbEntity
  8
VIGUETAS
100
AcDbPolyline
 90
2
 70
0
 10
339.6666666666667
 20
532.9333333333334
 10
377.3333333333333
 20
532.9333333333334
  0
LWPOLYLINE
  5
200
330
17
100
AcDbEntity
  8
VIGUETAS
100
AcDbPolyline
 90
2
 70
0
 10
377.3333333333333
 20
532.9333333333334
 10
406.6666666666667
 20
532.9333333333334
  0
LWPOLYLINE
  5
201
330
17
100
AcDbEntity
  8
VIGUETAS
100
AcDbPolyline
 90
2
 70
0
 10
406.6666666666667
 20
532.9333333333334
 10
432.0
 20
532.9333333333334
  0
LWPOLYLINE
  5
202
330
17
100
AcDbEntity
  8
VIGUETAS
100
AcDbPolyline
 90
2
 70
0
 10
432.0
 20
532.9333333333334
 10
459.6666666666667
 20
532.9333333333334
  0
LWPOLYLINE
  5
203
330
17
100
AcDbEntity
  8
VIGUETAS
100
AcDbPolyline
 90
2
 70
0
 10
339.6666666666667
 20
546.2666666666667
 10
377.3333333333333
 20
546.2666666666667
  0
LWPOLYLINE
  5
204
330
17
100
AcDbEntity
  8
VIGUETAS
100
AcDbPolyline
 90
2
 70
0
 10
377.3333333333333
 20
546.2666666666667
 10
406.6666666666667
 20
546.2666666666667
  0
LWPOLYLINE
  5
205
330
17
100
AcDbEntity
  8
VIGUETAS
100
AcDbPolyline
 90
2
 70
0
 10
406.6666666666667
 20
546.2666666666667
 10
432.0
 20
546.2666666666667
  0
LWPOLYLINE
  5
206
330
17
100
AcDbEntity
  8
VIGUETAS
100
AcDbPolyline
 90
2
 70
0
 10
432.0
 20
546.2666666666667
 10
459.6666666666667
 20
546.2666666666667
  0
LWPOLYLINE
  5
207
330
17
100
AcDbEntity
  8
VIGAS
100
AcDbPolyline
 90
2
 70
0
 10
377.3333333333333
 20
443.3333333333333
 10
377.3333333333333
 20
555.6666666666667
  0
LWPOLYLINE
  5
208
330
17
100
AcDbEntity
  8
VIGAS
100
AcDbPolyline
 90
2
 70
0
 10
406.6666666666667
 20
443.3333333333333
 10
406.6666666666667
 20
555.6666666666667
  0
LWPOLYLINE
  5
209
330
17
100
AcDbEntity
  8
VIGAS
100
AcDbPolyline
 90
2
 70
0
 10
432.0
 20
443.3333333333333
 10
432.0
 20
555.6666666666667
  0
LWPOLYLINE
  5
20A
330
17
100
AcDbEntity
  8
VIGAS
100
AcDbPolyline
 90
2
 70
0
 10
370.6666666666667
 20
443.3333333333333
 10
377.3333333333333
 20
443.3333333333333
  0
LWPOLYLINE
  5
20B
330
17
100
AcDbEntity
  8
VIGAS
100
AcDbPolyline
 90
2
 70
0
 10
377.3333333333333
 20
443.3333333333333
 10
406.6666666666667
 20
443.3333333333333
  0
LWPOLYLINE
  5
20C
330
17
100
AcDbEntity
  8
VIGAS
100
AcDbPolyline
 90
2
 70
0
 10
406.6666666666667
 20
443.3333333333333
 10
432.0
 20
443.3333333333333
  0
LWPOLYLINE
  5
20D
330
17
100
AcDbEntity
  8
VIGAS
100
AcDbPolyline
 90
2
 70
0
 10
432.0
 20
443.3333333333333
 10
459.6666666666667
 20
443.3333333333333
  0
LWPOLYLINE
  5
20E
330
17
100
AcDbEntity
  8
PILARES
100
AcDbPolyline
 90
4
 70
1
 10
376.53333333333336
 20
442.5333333333333
 10
378.1333333333333
 20
442.5333333333333
 10
378.1333333333333
 20
444.1333333333333
 10
376.53333333333336
 20
444.1333333333333
  0
LWPOLYLINE
  5
20F
330
17
100
AcDbEntity
  8
ZAPATAS
100
AcDbPolyline
 90
4
 70
1
 10
368.6666666666667
 20
434.66666666666663
 10
386.0
 20
434.66666666666663
 10
386.0
 20
452.0
 10
368.6666666666667
 20
452.0
  0
LWPOLYLINE
  5
210
330
17
100
AcDbEntity
  8
PILARES
100
AcDbPolyline
 90
4
 70
1
 10
376.53333333333336
 20
498.5333333333333
 10
378.1333333333333
 20
498.5333333333333
 10
378.1333333333333
 20
500.1333333333333
 10
376.53333333333336
 20
500.1333333333333
  0
LWPOLYLINE
  5
211
330
17
100
AcDbEntity
  8
ZAPATAS
100
AcDbPolyline
 90
4
 70
1
 10
368.6666666666667
 20
490.6666666666667
 10
386.0
 20
490.6666666666667
 10
386.0
 20
508.0
 10
368.6666666666667
 20
508.0
  0
LWPOLYLINE
  5
212
330
17
100
AcDbEntity
  8
PILARES
100
AcDbPolyline
 90
4
 70
1
 10
405.8666666666667
 20
442.5333333333333
 10
407.4666666666667
 20
442.5333333333333
 10
407.4666666666667
 20
444.1333333333333
 10
405.8666666666667
 20
444.1333333333333
  0
LWPOLYLINE
  5
213
330
17
100
AcDbEntity
  8
ZAPATAS
100
AcDbPolyline
 90
4
 70
1
 10
398.0
 20
434.66666666666663
 10
415.33333333333337
 20
434.66666666666663
 10
415.33333333333337
 20
452.0
 10
398.0
 20
452.0
  0
LWPOLYLINE
  5
214
330
17
100
AcDbEntity
  8
PILARES
100
AcDbPolyline
 90
4
 70
1
 10
405.8666666666667
 20
498.5333333333333
 10
407.4666666666667
 20
498.5333333333333
 10
407.4666666666667
 20
500.1333333333333
 10
405.8666666666667
 20
500.1333333333333
  0
LWPOLYLINE
  5
215
330
17
100
AcDbEntity
  8
ZAPATAS
100
AcDbPolyline
 90
4
 70
1
 10
398.0
 20
490.6666666666667
 10
415.33333333333337
 20
490.6666666666667
 10
415.33333333333337
 20
508.0
 10
398.0
 20
508.0
  0
LWPOLYLINE
  5
216
330
17
100
AcDbEntity
  8
PILARES
100
AcDbPolyline
 90
4
 70
1
 10
431.20000000000005
 20
442.5333333333333
 10
432.8
 20
442.5333333333333
 10
432.8
 20
444.1333333333333
 10
431.20000000000005
 20
444.1333333333333
  0
LWPOLYLINE
  5
217
330
17
100
AcDbEntity
  8
ZAPATAS
100
AcDbPolyline
 90
4
 70
1
 10
423.3333333333333
 20
434.66666666666663
 10
440.6666666666667
 20
434.66666666666663
 10
440.6666666666667
 20
452.0
 10
423.3333333333333
 20
452.0
  0
LWPOLYLINE
  5
218
330
17
100
AcDbEntity
  8
PILARES
100
AcDbPolyline
 90
4
 70
1
 10
431.20000000000005
 20
498.5333333333333
 10
432.8
 20
498.5333333333333
 10
432.8
 20
500.1333333333333
 10
431.20000000000005
 20
500.1333333333333
  0
LWPOLYLINE
  5
219
330
17
100
AcDbEntity
  8
ZAPATAS
100
AcDbPolyline
 90
4
 70
1
 10
423.3333333333333
 20
490.6666666666667
 10
440.6666666666667
 20
490.6666666666667
 10
440.6666666666667
 20
508.0
 10
423.3333333333333
 20
508.0
  0
LWPOLYLINE
  5
21A
330
17
100
AcDbEntity
  8
LUCERNARIO
100
AcDbPolyline
 90
4
 70
1
 10
432.6666666666667
 20
461.3333333333333
 10
456.0
 20
461.3333333333333
 10
456.0
 20
498.6666666666667
 10
432.6666666666667
 20
498.6666666666667
  0
TEXT
  5
21B
330
17
100
AcDbEntity
  8
TEXTO
100
AcDbText
 10
444.33333333333337
 20
480.0
 30
0.0
 40
1.5
  1
hueco de escalera + lucernario
 72
1
 11
444.33333333333337
 21
480.0
 31
0.0
100
AcDbText
 73
2
  0
TEXT
  5
21C
330
17
100
AcDbEntity
  8
TEXTO
100
AcDbText
 10
361.3333333333333
 20
467.33333333333337
 30
0.0
 40
1.8
  1
IPE 120 @ 1.00
 50
90.0
 72
1
 11
361.3333333333333
 21
467.33333333333337
 31
0.0
100
AcDbText
 73
2
  0
TEXT
  5
21D
330
17
100
AcDbEntity
  8
TEXTO
100
AcDbText
 10
400.0
 20
454.0
 30
0.0
 40
1.8
  1
CUBIERTA PLANA: piedra + paneles solares
 72
1
 11
400.0
 21
454.0
 31
0.0
100
AcDbText
 73
2
  0
TEXT
  5
21E
330
17
100
AcDbEntity
  8
TEXTO
100
AcDbText
 10
377.3333333333333
 20
564.0
 30
0.0
 40
1.5
  1
HEB 160
 50
90.0
 72
1
 11
377.3333333333333
 21
564.0
 31
0.0
100
AcDbText
 73
2
  0
TEXT
  5
21F
330
17
100
AcDbEntity
  8
TEXTO
100
AcDbText
 10
406.6666666666667
 20
564.0
 30
0.0
 40
1.5
  1
HEB 160
 50
90.0
 72
1
 11
406.6666666666667
 21
564.0
 31
0.0
100
AcDbText
 73
2
  0
TEXT
  5
220
330
17
100
AcDbEntity
  8
TEXTO
100
AcDbText
 10
432.0
 20
564.0
 30
0.0
 40
1.5
  1
HEB 160
 50
90.0
 72
1
 11
432.0
 21
564.0
 31
0.0
100
AcDbText
 73
2
  0
DIMENSION
  5
221
330
17
100
AcDbEntity
  8
COTAS
100
AcDbDimension
280
0
  2
*D14
  3
EZDXF
 10
339.6666666666667
 20
576.6666666666667
 30
0.0
 11
358.5
 21
578.3666666666668
 31
0.0
 70
32
 71
5
  1
2.83
100
AcDbAlignedDimension
 13
339.6666666666667
 23
559.3333333333334
 33
0.0
 14
377.3333333333333
 24
559.3333333333334
 34
0.0
 50
0.0
100
AcDbRotatedDimension
1001
ACAD
1000
DSTYLE
1002
{
1070
140
1040
2.2
1070
41
1040
1.8
1070
44
1040
1.0
1070
42
1040
0.8
1070
147
1040
0.6
1070
77
1070
1
1070
178
1070
3
1002
}
  0
DIMENSION
  5
230
330
17
100
AcDbEntity
  8
COTAS
100
AcDbDimension
280
0
  2
*D15
  3
EZDXF
 10
377.3333333333333
 20
576.6666666666667
 30
0.0
 11
392.0
 21
578.3666666666668
 31
0.0
 70
32
 71
5
  1
2.20
100
AcDbAlignedDimension
 13
377.3333333333333
 23
559.3333333333334
 33
0.0
 14
406.6666666666667
 24
559.3333333333334
 34
0.0
 50
0.0
100
AcDbRotatedDimension
1001
ACAD
1000
DSTYLE
1002
{
1070
140
1040
2.2
1070
41
1040
1.8
1070
44
1040
1.0
1070
42
1040
0.8
1070
147
1040
0.6
1070
77
1070
1
1070
178
1070
3
1002
}
  0
DIMENSION
  5
23F
330
17
100
AcDbEntity
  8
COTAS
100
AcDbDimension
280
0
  2
*D16
  3
EZDXF
 10
406.6666666666667
 20
576.6666666666667
 30
0.0
 11
419.33333333333337
 21
578.3666666666668
 31
0.0
 70
32
 71
5
  1
1.90
100
AcDbAlignedDimension
 13
406.6666666666667
 23
559.3333333333334
 33
0.0
 14
432.0
 24
559.3333333333334
 34
0.0
 50
0.0
100
AcDbRotatedDimension
1001
ACAD
1000
DSTYLE
1002
{
1070
140
1040
2.2
1070
41
1040
1.8
1070
44
1040
1.0
1070
42
1040
0.8
1070
147
1040
0.6
1070
77
1070
1
1070
178
1070
3
1002
}
  0
DIMENSION
  5
24E
330
17
100
AcDbEntity
  8
COTAS
100
AcDbDimension
280
0
  2
*D17
  3
EZDXF
 10
432.0
 20
576.6666666666667
 30
0.0
 11
445.83333333333337
 21
578.3666666666668
 31
0.0
 70
32
 71
5
  1
2.08
100
AcDbAlignedDimension
 13
432.0
 23
559.3333333333334
 33
0.0
 14
459.6666666666667
 24
559.3333333333334
 34
0.0
 50
0.0
100
AcDbRotatedDimension
1001
ACAD
1000
DSTYLE
1002
{
1070
140
1040
2.2
1070
41
1040
1.8
1070
44
1040
1.0
1070
42
1040
0.8
1070
147
1040
0.6
1070
77
1070
1
1070
178
1070
3
1002
}
  0
DIMENSION
  5
25D
330
17
100
AcDbEntity
  8
COTAS
100
AcDbDimension
280
0
  2
*D18
  3
EZDXF
 10
324.0
 20
443.3333333333333
 30
0.0
 11
322.3
 21
471.33333333333337
 31
0.0
 70
32
 71
5
  1
4.20
100
AcDbAlignedDimension
 13
336.0
 23
443.3333333333333
 33
0.0
 14
336.0
 24
499.33333333333337
 34
0.0
 50
90.0
100
AcDbRotatedDimension
1001
ACAD
1000
DSTYLE
1002
{
1070
140
1040
2.2
1070
41
1040
1.8
1070
44
1040
1.0
1070
42
1040
0.8
1070
147
1040
0.6
1070
77
1070
1
1070
178
1070
3
1002
}
  0
DIMENSION
  5
26C
330
17
100
AcDbEntity
  8
COTAS
100
AcDbDimension
280
0
  2
*D19
  3
EZDXF
 10
324.0
 20
499.33333333333337
 30
0.0
 11
322.3
 21
527.5
 31
0.0
 70
32
 71
5
  1
4.23
100
AcDbAlignedDimension
 13
336.0
 23
499.33333333333337
 33
0.0
 14
336.0
 24
555.6666666666667
 34
0.0
 50
90.0
100
AcDbRotatedDimension
1001
ACAD
1000
DSTYLE
1002
{
1070
140
1040
2.2
1070
41
1040
1.8
1070
44
1040
1.0
1070
42
1040
0.8
1070
147
1040
0.6
1070
77
1070
1
1070
178
1070
3
1002
}
  0
DIMENSION
  5
27B
330
17
100
AcDbEntity
  8
COTAS
100
AcDbDimension
280
0
  2
*D20
  3
EZDXF
 10
378.0
 20
332.6666666666667
 30
0.0
 11
420.6666666666667
 21
334.3666666666667
 31
0.0
 70
32
 71
5
  1
6.40
100
AcDbAlignedDimension
 13
378.0
 23
342.0
 33
0.0
 14
463.33333333333337
 24
342.0
 34
0.0
 50
0.0
100
AcDbRotatedDimension
1001
ACAD
1000
DSTYLE
1002
{
1070
140
1040
2.2
1070
41
1040
1.8
1070
44
1040
1.0
1070
42
1040
0.8
1070
147
1040
0.6
1070
77
1070
1
1070
178
1070
3
1002
}
  0
DIMENSION
  5
28A
330
17
100
AcDbEntity
  8
COTAS
100
AcDbDimension
280
0
  2
*D21
  3
EZDXF
 10
504.6666666666667
 20
342.0
 30
0.0
 11
502.9666666666667
 21
397.33333333333337
 31
0.0
 70
32
 71
5
  1
8.30
100
AcDbAlignedDimension
 13
496.6666666666667
 23
342.0
 33
0.0
 14
496.6666666666667
 24
452.6666666666667
 34
0.0
 50
90.0
100
AcDbRotatedDimension
1001
ACAD
1000
DSTYLE
1002
{
1070
140
1040
2.2
1070
41
1040
1.8
1070
44
1040
1.0
1070
42
1040
0.8
1070
147
1040
0.6
1070
77
1070
1
1070
178
1070
3
1002
}
  0
DIMENSION
  5
299
330
17
100
AcDbEntity
  8
COTAS
100
AcDbDimension
280
0
  2
*D22
  3
EZDXF
 10
504.6666666666667
 20
452.6666666666667
 30
0.0
 11
502.9666666666667
 21
476.0
 31
0.0
 70
32
 71
5
  1
3.50
100
AcDbAlignedDimension
 13
496.6666666666667
 23
452.6666666666667
 33
0.0
 14
496.6666666666667
 24
499.33333333333337
 34
0.0
 50
90.0
100
AcDbRotatedDimension
1001
ACAD
1000
DSTYLE
1002
{
1070
140
1040
2.2
1070
41
1040
1.8
1070
44
1040
1.0
1070
42
1040
0.8
1070
147
1040
0.6
1070
77
1070
1
1070
178
1070
3
1002
}
  0
DIMENSION
  5
2A8
330
17
100
AcDbEntity
  8
COTAS
100
AcDbDimension
280
0
  2
*D23
  3
EZDXF
 10
504.6666666666667
 20
499.33333333333337
 30
0.0
 11
502.9666666666667
 21
529.3333333333334
 31
0.0
 70
32
 71
5
  1
4.50
100
AcDbAlignedDimension
 13
496.6666666666667
 23
499.33333333333337
 33
0.0
 14
496.6666666666667
 24
559.3333333333334
 34
0.0
 50
90.0
100
AcDbRotatedDimension
1001
ACAD
1000
DSTYLE
1002
{
1070
140
1040
2.2
1070
41
1040
1.8
1070
44
1040
1.0
1070
42
1040
0.8
1070
147
1040
0.6
1070
77
1070
1
1070
178
1070
3
1002
}
  0
DIMENSION
  5
2B7
330
17
100
AcDbEntity
  8
COTAS
100
AcDbDimension
280
0
  2
*D24
  3
EZDXF
 10
512.6666666666667
 20
342.0
 30
0.0
 11
510.96666666666675
 21
450.6666666666667
 31
0.0
 70
32
 71
5
  1
16.30
100
AcDbAlignedDimension
 13
496.6666666666667
 23
342.0
 33
0.0
 14
496.6666666666667
 24
559.3333333333334
 34
0.0
 50
90.0
100
AcDbRotatedDimension
1001
ACAD
1000
DSTYLE
1002
{
1070
140
1040
2.2
1070
41
1040
1.8
1070
44
1040
1.0
1070
42
1040
0.8
1070
147
1040
0.6
1070
77
1070
1
1070
178
1070
3
1002
}
  0
DIMENSION
  5
2C6
330
17
100
AcDbEntity
  8
COTAS
100
AcDbDimension
280
0
  2
*D25
  3
EZDXF
 10
336.0
 20
567.3333333333334
 30
0.0
 11
399.6666666666667
 21
569.0333333333334
 31
0.0
 70
32
 71
5
  1
9.55
100
AcDbAlignedDimension
 13
336.0
 23
559.3333333333334
 33
0.0
 14
463.33333333333337
 24
559.3333333333334
 34
0.0
 50
0.0
100
AcDbRotatedDimension
1001
ACAD
1000
DSTYLE
1002
{
1070
140
1040
2.2
1070
41
1040
1.8
1070
44
1040
1.0
1070
42
1040
0.8
1070
147
1040
0.6
1070
77
1070
1
1070
178
1070
3
1002
}
  0
DIMENSION
  5
2D5
330
17
100
AcDbEntity
  8
COTAS
100
AcDbDimension
280
0
  2
*D26
  3
EZDXF
 10
328.0
 20
439.6
 30
0.0
 11
326.3
 21
499.4666666666667
 31
0.0
 70
32
 71
5
  1
8.98
100
AcDbAlignedDimension
 13
336.0
 23
439.6
 33
0.0
 14
336.0
 24
559.3333333333334
 34
0.0
 50
90.0
100
AcDbRotatedDimension
1001
ACAD
1000
DSTYLE
1002
{
1070
140
1040
2.2
1070
41
1040
1.8
1070
44
1040
1.0
1070
42
1040
0.8
1070
147
1040
0.6
1070
77
1070
1
1070
178
1070
3
1002
}
  0
LINE
  5
2E4
330
17
100
AcDbEntity
  8
COTAS
100
AcDbLine
 10
318.6666666666667
 20
539.3333333333334
 30
0.0
 11
318.6666666666667
 21
519.3333333333334
 31
0.0
  0
LINE
  5
2E5
330
17
100
AcDbEntity
  8
COTAS
100
AcDbLine
 10
318.6666666666667
 20
519.3333333333334
 30
0.0
 11
316.6666666666667
 21
524.6666666666667
 31
0.0
  0
LINE
  5
2E6
330
17
100
AcDbEntity
  8
COTAS
100
AcDbLine
 10
318.6666666666667
 20
519.3333333333334
 30
0.0
 11
320.6666666666667
 21
524.6666666666667
 31
0.0
  0
TEXT
  5
2E7
330
17
100
AcDbEntity
  8
TEXTO
100
AcDbText
 10
318.6666666666667
 20
512.6666666666667
 30
0.0
 40
1.8
  1
N (supuesto)
 72
1
 11
318.6666666666667
 21
512.6666666666667
 31
0.0
100
AcDbText
 73
2
  0
TEXT
  5
2E8
330
17
100
AcDbEntity
  8
TEXTO
100
AcDbText
 10
415.6666666666667
 20
318.0
 30
0.0
 40
4.0
  1
ESTRUCTURA DE CUBIERTA  1/75
 72
1
 11
415.6666666666667
 21
318.0
 31
0.0
100
AcDbText
 73
2
  0
LWPOLYLINE
  5
2E9
330
17
100
AcDbEntity
  8
cimentacion
100
AcDbPolyline
 90
4
 70
1
 10
574.3333333333334
 20
337.99
 10
574.3333333333334
 20
329.99
 10
589.0
 20
329.99
 10
589.0
 20
337.99
  0
HATCH
  5
2EA
330
17
100
AcDbEntity
  8
RAYADO_OTROS
 62
8
100
AcDbHatch
 10
0.0
 20
0.0
 30
0.0
210
0.0
220
0.0
230
1.0
  2
SOLID
 70
1
 71
0
 91
1
 92
3
 72
0
 73
1
 93
4
 10
574.3333333333334
 20
337.99
 10
574.3333333333334
 20
329.99
 10
589.0
 20
329.99
 10
589.0
 20
337.99
 97
0
 75
1
 76
1
 98
0
  0
LWPOLYLINE
  5
2EB
330
17
100
AcDbEntity
  8
cimentacion
100
AcDbPolyline
 90
4
 70
1
 10
784.3333333333334
 20
329.99
 10
784.3333333333334
 20
337.99
 10
799.0
 20
337.99
 10
799.0
 20
329.99
  0
HATCH
  5
2EC
330
17
100
AcDbEntity
  8
RAYADO_OTROS
 62
8
100
AcDbHatch
 10
0.0
 20
0.0
 30
0.0
210
0.0
220
0.0
230
1.0
  2
SOLID
 70
1
 71
0
 91
1
 92
3
 72
0
 73
1
 93
4
 10
784.3333333333334
 20
329.99
 10
784.3333333333334
 20
337.99
 10
799.0
 20
337.99
 10
799.0
 20
329.99
 97
0
 75
1
 76
1
 98
0
  0
LWPOLYLINE
  5
2ED
330
17
100
AcDbEntity
  8
muros_PB
100
AcDbPolyline
 90
4
 70
1
 10
578.0
 20
381.45666666666665
 10
585.3333333333334
 20
381.45666666666665
 10
585.3333333333334
 20
371.99
 10
578.0
 20
371.99
  0
HATCH
  5
2EE
330
17
100
AcDbEntity
  8
RAYADO_MURO
 62
7
100
AcDbHatch
 10
0.0
 20
0.0
 30
0.0
210
0.0
220
0.0
230
1.0
  2
ANSI31
 70
0
 71
0
 91
1
 92
3
 72
0
 73
1
 93
4
 10
578.0
 20
381.45666666666665
 10
585.3333333333334
 20
381.45666666666665
 10
585.3333333333334
 20
371.99
 10
578.0
 20
371.99
 97
0
 75
1
 76
1
 52
45.0
 41
0.6
 77
0
 78
1
 53
90.0
 43
0.0
 44
0.0
 45
-1.905
 46
0.0
 79
0
 98
0
  0
LWPOLYLINE
  5
2EF
330
17
100
AcDbEntity
  8
muros_PB
100
AcDbPolyline
 90
4
 70
1
 10
788.0
 20
337.99
 10
788.0
 20
349.99
 10
795.3333333333334
 20
349.99
 10
795.3333333333334
 20
337.99
  0
HATCH
  5
2F0
330
17
100
AcDbEntity
  8
RAYADO_MURO
 62
7
100
AcDbHatch
 10
0.0
 20
0.0
 30
0.0
210
0.0
220
0.0
230
1.0
  2
ANSI31
 70
0
 71
0
 91
1
 92
3
 72
0
 73
1
 93
4
 10
788.0
 20
337.99
 10
788.0
 20
349.99
 10
795.3333333333334
 20
349.99
 10
795.3333333333334
 20
337.99
 97
0
 75
1
 76
1
 52
45.0
 41
0.6
 77
0
 78
1
 53
90.0
 43
0.0
 44
0.0
 45
-1.905
 46
0.0
 79
0
 98
0
  0
LWPOLYLINE
  5
2F1
330
17
100
AcDbEntity
  8
muros_PB
100
AcDbPolyline
 90
4
 70
1
 10
788.0
 20
381.45666666666665
 10
795.3333333333334
 20
381.45666666666665
 10
795.3333333333334
 20
367.3233333333333
 10
788.0
 20
367.3233333333333
  0
HATCH
  5
2F2
330
17
100
AcDbEntity
  8
RAYADO_MURO
 62
7
100
AcDbHatch
 10
0.0
 20
0.0
 30
0.0
210
0.0
220
0.0
230
1.0
  2
ANSI31
 70
0
 71
0
 91
1
 92
3
 72
0
 73
1
 93
4
 10
788.0
 20
381.45666666666665
 10
795.3333333333334
 20
381.45666666666665
 10
795.3333333333334
 20
367.3233333333333
 10
788.0
 20
367.3233333333333
 97
0
 75
1
 76
1
 52
45.0
 41
0.6
 77
0
 78
1
 53
90.0
 43
0.0
 44
0.0
 45
-1.905
 46
0.0
 79
0
 98
0
  0
LWPOLYLINE
  5
2F3
330
17
100
AcDbEntity
  8
muros_PA
100
AcDbPolyline
 90
4
 70
1
 10
788.0
 20
381.45666666666665
 10
788.0
 20
393.45666666666665
 10
795.3333333333334
 20
393.45666666666665
 10
795.3333333333334
 20
381.45666666666665
  0
HATCH
  5
2F4
330
17
100
AcDbEntity
  8
RAYADO_MURO
 62
7
100
AcDbHatch
 10
0.0
 20
0.0
 30
0.0
210
0.0
220
0.0
230
1.0
  2
ANSI31
 70
0
 71
0
 91
1
 92
3
 72
0
 73
1
 93
4
 10
788.0
 20
381.45666666666665
 10
788.0
 20
393.45666666666665
 10
795.3333333333334
 20
393.45666666666665
 10
795.3333333333334
 20
381.45666666666665
 97
0
 75
1
 76
1
 52
45.0
 41
0.6
 77
0
 78
1
 53
90.0
 43
0.0
 44
0.0
 45
-1.905
 46
0.0
 79
0
 98
0
  0
LWPOLYLINE
  5
2F5
330
17
100
AcDbEntity
  8
muros_PA
100
AcDbPolyline
 90
4
 70
1
 10
788.0
 20
417.45666666666665
 10
795.3333333333334
 20
417.45666666666665
 10
795.3333333333334
 20
410.79
 10
788.0
 20
410.79
  0
HATCH
  5
2F6
330
17
100
AcDbEntity
  8
RAYADO_MURO
 62
7
100
AcDbHatch
 10
0.0
 20
0.0
 30
0.0
210
0.0
220
0.0
230
1.0
  2
ANSI31
 70
0
 71
0
 91
1
 92
3
 72
0
 73
1
 93
4
 10
788.0
 20
417.45666666666665
 10
795.3333333333334
 20
417.45666666666665
 10
795.3333333333334
 20
410.79
 10
788.0
 20
410.79
 97
0
 75
1
 76
1
 52
45.0
 41
0.6
 77
0
 78
1
 53
90.0
 43
0.0
 44
0.0
 45
-1.905
 46
0.0
 79
0
 98
0
  0
LWPOLYLINE
  5
2F7
330
17
100
AcDbEntity
  8
parapeto_terraza
100
AcDbPolyline
 90
4
 70
1
 10
578.0
 20
394.79
 10
582.0
 20
394.79
 10
582.0
 20
381.45666666666665
 10
578.0
 20
381.45666666666665
  0
HATCH
  5
2F8
330
17
100
AcDbEntity
  8
RAYADO_MURO
 62
7
100
AcDbHatch
 10
0.0
 20
0.0
 30
0.0
210
0.0
220
0.0
230
1.0
  2
ANSI31
 70
0
 71
0
 91
1
 92
3
 72
0
 73
1
 93
4
 10
578.0
 20
394.79
 10
582.0
 20
394.79
 10
582.0
 20
381.45666666666665
 10
578.0
 20
381.45666666666665
 97
0
 75
1
 76
1
 52
45.0
 41
0.6
 77
0
 78
1
 53
90.0
 43
0.0
 44
0.0
 45
-1.905
 46
0.0
 79
0
 98
0
  0
LWPOLYLINE
  5
2F9
330
17
100
AcDbEntity
  8
parapeto_terraza
100
AcDbPolyline
 90
4
 70
1
 10
671.6
 20
381.45666666666665
 10
671.6
 20
394.79
 10
672.9333333333334
 20
394.79
 10
672.9333333333334
 20
381.45666666666665
  0
HATCH
  5
2FA
330
17
100
AcDbEntity
  8
RAYADO_MURO
 62
7
100
AcDbHatch
 10
0.0
 20
0.0
 30
0.0
210
0.0
220
0.0
230
1.0
  2
ANSI31
 70
0
 71
0
 91
1
 92
3
 72
0
 73
1
 93
4
 10
671.6
 20
381.45666666666665
 10
671.6
 20
394.79
 10
672.9333333333334
 20
394.79
 10
672.9333333333334
 20
381.45666666666665
 97
0
 75
1
 76
1
 52
45.0
 41
0.6
 77
0
 78
1
 53
90.0
 43
0.0
 44
0.0
 45
-1.905
 46
0.0
 79
0
 98
0
  0
LWPOLYLINE
  5
2FB
330
17
100
AcDbEntity
  8
parapeto_cubierta
100
AcDbPolyline
 90
4
 70
1
 10
675.6
 20
424.12333333333333
 10
679.6
 20
424.12333333333333
 10
679.6
 20
417.45666666666665
 10
675.6
 20
417.45666666666665
  0
HATCH
  5
2FC
330
17
100
AcDbEntity
  8
RAYADO_MURO
 62
7
100
AcDbHatch
 10
0.0
 20
0.0
 30
0.0
210
0.0
220
0.0
230
1.0
  2
ANSI31
 70
0
 71
0
 91
1
 92
3
 72
0
 73
1
 93
4
 10
675.6
 20
424.12333333333333
 10
679.6
 20
424.12333333333333
 10
679.6
 20
417.45666666666665
 10
675.6
 20
417.45666666666665
 97
0
 75
1
 76
1
 52
45.0
 41
0.6
 77
0
 78
1
 53
90.0
 43
0.0
 44
0.0
 45
-1.905
 46
0.0
 79
0
 98
0
  0
LWPOLYLINE
  5
2FD
330
17
100
AcDbEntity
  8
parapeto_cubierta
100
AcDbPolyline
 90
4
 70
1
 10
791.3333333333334
 20
417.45666666666665
 10
791.3333333333334
 20
424.12333333333333
 10
795.3333333333334
 20
424.12333333333333
 10
795.3333333333334
 20
417.45666666666665
  0
HATCH
  5
2FE
330
17
100
AcDbEntity
  8
RAYADO_MURO
 62
7
100
AcDbHatch
 10
0.0
 20
0.0
 30
0.0
210
0.0
220
0.0
230
1.0
  2
ANSI31
 70
0
 71
0
 91
1
 92
3
 72
0
 73
1
 93
4
 10
791.3333333333334
 20
417.45666666666665
 10
791.3333333333334
 20
424.12333333333333
 10
795.3333333333334
 20
424.12333333333333
 10
795.3333333333334
 20
417.45666666666665
 97
0
 75
1
 76
1
 52
45.0
 41
0.6
 77
0
 78
1
 53
90.0
 43
0.0
 44
0.0
 45
-1.905
 46
0.0
 79
0
 98
0
  0
LWPOLYLINE
  5
2FF
330
17
100
AcDbEntity
  8
forjado_PB_PA
100
AcDbPolyline
 90
4
 70
1
 10
578.0
 20
381.4566666666667
 10
795.3333333333334
 20
381.4566666666667
 10
795.3333333333334
 20
379.45666666666665
 10
578.0
 20
379.45666666666665
  0
HATCH
  5
300
330
17
100
AcDbEntity
  8
RAYADO_FORJADO
 62
7
100
AcDbHatch
 10
0.0
 20
0.0
 30
0.0
210
0.0
220
0.0
230
1.0
  2
SOLID
 70
1
 71
0
 91
1
 92
3
 72
0
 73
1
 93
4
 10
578.0
 20
381.4566666666667
 10
795.3333333333334
 20
381.4566666666667
 10
795.3333333333334
 20
379.45666666666665
 10
578.0
 20
379.45666666666665
 97
0
 75
1
 76
1
 98
0
  0
LWPOLYLINE
  5
301
330
17
100
AcDbEntity
  8
forjado_cubierta
100
AcDbPolyline
 90
4
 70
1
 10
675.6
 20
417.4566666666667
 10
795.3333333333334
 20
417.4566666666667
 10
795.3333333333334
 20
415.45666666666665
 10
675.6
 20
415.4566666666667
  0
HATCH
  5
302
330
17
100
AcDbEntity
  8
RAYADO_FORJADO
 62
7
100
AcDbHatch
 10
0.0
 20
0.0
 30
0.0
210
0.0
220
0.0
230
1.0
  2
SOLID
 70
1
 71
0
 91
1
 92
3
 72
0
 73
1
 93
4
 10
675.6
 20
417.4566666666667
 10
795.3333333333334
 20
417.4566666666667
 10
795.3333333333334
 20
415.45666666666665
 10
675.6
 20
415.4566666666667
 97
0
 75
1
 76
1
 98
0
  0
LWPOLYLINE
  5
303
330
17
100
AcDbEntity
  8
tabiques_PB
100
AcDbPolyline
 90
4
 70
1
 10
734.6666666666667
 20
379.45666666666665
 10
736.0
 20
379.45666666666665
 10
736.0
 20
369.99
 10
734.6666666666667
 20
369.99
  0
HATCH
  5
304
330
17
100
AcDbEntity
  8
RAYADO_OTROS
 62
7
100
AcDbHatch
 10
0.0
 20
0.0
 30
0.0
210
0.0
220
0.0
230
1.0
  2
SOLID
 70
1
 71
0
 91
1
 92
3
 72
0
 73
1
 93
4
 10
734.6666666666667
 20
379.45666666666665
 10
736.0
 20
379.45666666666665
 10
736.0
 20
369.99
 10
734.6666666666667
 20
369.99
 97
0
 75
1
 76
1
 98
0
  0
LWPOLYLINE
  5
305
330
17
100
AcDbEntity
  8
tabiques_PA
100
AcDbPolyline
 90
4
 70
1
 10
734.6666666666667
 20
415.4566666666667
 10
736.0
 20
415.4566666666667
 10
736.0
 20
408.79
 10
734.6666666666667
 20
408.78999999999996
  0
HATCH
  5
306
330
17
100
AcDbEntity
  8
RAYADO_OTROS
 62
7
100
AcDbHatch
 10
0.0
 20
0.0
 30
0.0
210
0.0
220
0.0
230
1.0
  2
SOLID
 70
1
 71
0
 91
1
 92
3
 72
0
 73
1
 93
4
 10
734.6666666666667
 20
415.4566666666667
 10
736.0
 20
415.4566666666667
 10
736.0
 20
408.79
 10
734.6666666666667
 20
408.78999999999996
 97
0
 75
1
 76
1
 98
0
  0
LWPOLYLINE
  5
307
330
17
100
AcDbEntity
  8
acero_viguetas_salon
100
AcDbPolyline
 90
12
 70
1
 10
590.6
 20
379.45666666666665
 10
592.0666666666667
 20
379.45666666666665
 10
592.0666666666667
 20
379.334
 10
591.3726666666666
 20
379.334
 10
591.3726666666666
 20
376.646
 10
592.0666666666667
 20
376.646
 10
592.0666666666667
 20
376.5233333333333
 10
590.6
 20
376.5233333333333
 10
590.6
 20
376.646
 10
591.294
 20
376.646
 10
591.294
 20
379.334
 10
590.6
 20
379.334
  0
HATCH
  5
308
330
17
100
AcDbEntity
  8
RAYADO_FORJADO
 62
5
100
AcDbHatch
 10
0.0
 20
0.0
 30
0.0
210
0.0
220
0.0
230
1.0
  2
SOLID
 70
1
 71
0
 91
1
 92
3
 72
0
 73
1
 93
12
 10
590.6
 20
379.45666666666665
 10
592.0666666666667
 20
379.45666666666665
 10
592.0666666666667
 20
379.334
 10
591.3726666666666
 20
379.334
 10
591.3726666666666
 20
376.646
 10
592.0666666666667
 20
376.646
 10
592.0666666666667
 20
376.5233333333333
 10
590.6
 20
376.5233333333333
 10
590.6
 20
376.646
 10
591.294
 20
376.646
 10
591.294
 20
379.334
 10
590.6
 20
379.334
 97
0
 75
1
 76
1
 98
0
  0
LWPOLYLINE
  5
309
330
17
100
AcDbEntity
  8
acero_viguetas_salon
100
AcDbPolyline
 90
12
 70
1
 10
603.9333333333333
 20
379.45666666666665
 10
605.4
 20
379.45666666666665
 10
605.4
 20
379.334
 10
604.706
 20
379.334
 10
604.706
 20
376.646
 10
605.4
 20
376.646
 10
605.4
 20
376.5233333333333
 10
603.9333333333333
 20
376.5233333333333
 10
603.9333333333333
 20
376.646
 10
604.6273333333334
 20
376.646
 10
604.6273333333334
 20
379.334
 10
603.9333333333333
 20
379.334
  0
HATCH
  5
30A
330
17
100
AcDbEntity
  8
RAYADO_FORJADO
 62
5
100
AcDbHatch
 10
0.0
 20
0.0
 30
0.0
210
0.0
220
0.0
230
1.0
  2
SOLID
 70
1
 71
0
 91
1
 92
3
 72
0
 73
1
 93
12
 10
603.9333333333333
 20
379.45666666666665
 10
605.4
 20
379.45666666666665
 10
605.4
 20
379.334
 10
604.706
 20
379.334
 10
604.706
 20
376.646
 10
605.4
 20
376.646
 10
605.4
 20
376.5233333333333
 10
603.9333333333333
 20
376.5233333333333
 10
603.9333333333333
 20
376.646
 10
604.6273333333334
 20
376.646
 10
604.6273333333334
 20
379.334
 10
603.9333333333333
 20
379.334
 97
0
 75
1
 76
1
 98
0
  0
LWPOLYLINE
  5
30B
330
17
100
AcDbEntity
  8
acero_viguetas_salon
100
AcDbPolyline
 90
12
 70
1
 10
617.2666666666667
 20
379.45666666666665
 10
618.7333333333333
 20
379.45666666666665
 10
618.7333333333333
 20
379.334
 10
618.0393333333334
 20
379.334
 10
618.0393333333334
 20
376.646
 10
618.7333333333333
 20
376.646
 10
618.7333333333333
 20
376.5233333333333
 10
617.2666666666667
 20
376.5233333333333
 10
617.2666666666667
 20
376.646
 10
617.9606666666666
 20
376.646
 10
617.9606666666666
 20
379.334
 10
617.2666666666667
 20
379.334
  0
HATCH
  5
30C
330
17
100
AcDbEntity
  8
RAYADO_FORJADO
 62
5
100
AcDbHatch
 10
0.0
 20
0.0
 30
0.0
210
0.0
220
0.0
230
1.0
  2
SOLID
 70
1
 71
0
 91
1
 92
3
 72
0
 73
1
 93
12
 10
617.2666666666667
 20
379.45666666666665
 10
618.7333333333333
 20
379.45666666666665
 10
618.7333333333333
 20
379.334
 10
618.0393333333334
 20
379.334
 10
618.0393333333334
 20
376.646
 10
618.7333333333333
 20
376.646
 10
618.7333333333333
 20
376.5233333333333
 10
617.2666666666667
 20
376.5233333333333
 10
617.2666666666667
 20
376.646
 10
617.9606666666666
 20
376.646
 10
617.9606666666666
 20
379.334
 10
617.2666666666667
 20
379.334
 97
0
 75
1
 76
1
 98
0
  0
LWPOLYLINE
  5
30D
330
17
100
AcDbEntity
  8
acero_viguetas_salon
100
AcDbPolyline
 90
12
 70
1
 10
630.6
 20
379.45666666666665
 10
632.0666666666666
 20
379.45666666666665
 10
632.0666666666666
 20
379.334
 10
631.3726666666666
 20
379.334
 10
631.3726666666666
 20
376.646
 10
632.0666666666666
 20
376.646
 10
632.0666666666666
 20
376.5233333333333
 10
630.6
 20
376.5233333333333
 10
630.6
 20
376.646
 10
631.294
 20
376.646
 10
631.294
 20
379.334
 10
630.6
 20
379.334
  0
HATCH
  5
30E
330
17
100
AcDbEntity
  8
RAYADO_FORJADO
 62
5
100
AcDbHatch
 10
0.0
 20
0.0
 30
0.0
210
0.0
220
0.0
230
1.0
  2
SOLID
 70
1
 71
0
 91
1
 92
3
 72
0
 73
1
 93
12
 10
630.6
 20
379.45666666666665
 10
632.0666666666666
 20
379.45666666666665
 10
632.0666666666666
 20
379.334
 10
631.3726666666666
 20
379.334
 10
631.3726666666666
 20
376.646
 10
632.0666666666666
 20
376.646
 10
632.0666666666666
 20
376.5233333333333
 10
630.6
 20
376.5233333333333
 10
630.6
 20
376.646
 10
631.294
 20
376.646
 10
631.294
 20
379.334
 10
630.6
 20
379.334
 97
0
 75
1
 76
1
 98
0
  0
LWPOLYLINE
  5
30F
330
17
100
AcDbEntity
  8
acero_viguetas_salon
100
AcDbPolyline
 90
12
 70
1
 10
643.9333333333334
 20
379.45666666666665
 10
645.4
 20
379.45666666666665
 10
645.4
 20
379.334
 10
644.706
 20
379.334
 10
644.706
 20
376.646
 10
645.4
 20
376.646
 10
645.4
 20
376.5233333333333
 10
643.9333333333334
 20
376.5233333333333
 10
643.9333333333334
 20
376.646
 10
644.6273333333334
 20
376.646
 10
644.6273333333334
 20
379.334
 10
643.9333333333334
 20
379.334
  0
HATCH
  5
310
330
17
100
AcDbEntity
  8
RAYADO_FORJADO
 62
5
100
AcDbHatch
 10
0.0
 20
0.0
 30
0.0
210
0.0
220
0.0
230
1.0
  2
SOLID
 70
1
 71
0
 91
1
 92
3
 72
0
 73
1
 93
12
 10
643.9333333333334
 20
379.45666666666665
 10
645.4
 20
379.45666666666665
 10
645.4
 20
379.334
 10
644.706
 20
379.334
 10
644.706
 20
376.646
 10
645.4
 20
376.646
 10
645.4
 20
376.5233333333333
 10
643.9333333333334
 20
376.5233333333333
 10
643.9333333333334
 20
376.646
 10
644.6273333333334
 20
376.646
 10
644.6273333333334
 20
379.334
 10
643.9333333333334
 20
379.334
 97
0
 75
1
 76
1
 98
0
  0
LWPOLYLINE
  5
311
330
17
100
AcDbEntity
  8
acero_viguetas_salon
100
AcDbPolyline
 90
12
 70
1
 10
657.2666666666667
 20
379.45666666666665
 10
658.7333333333333
 20
379.45666666666665
 10
658.7333333333333
 20
379.334
 10
658.0393333333334
 20
379.334
 10
658.0393333333334
 20
376.646
 10
658.7333333333333
 20
376.646
 10
658.7333333333333
 20
376.5233333333333
 10
657.2666666666667
 20
376.5233333333333
 10
657.2666666666667
 20
376.646
 10
657.9606666666666
 20
376.646
 10
657.9606666666666
 20
379.334
 10
657.2666666666667
 20
379.334
  0
HATCH
  5
312
330
17
100
AcDbEntity
  8
RAYADO_FORJADO
 62
5
100
AcDbHatch
 10
0.0
 20
0.0
 30
0.0
210
0.0
220
0.0
230
1.0
  2
SOLID
 70
1
 71
0
 91
1
 92
3
 72
0
 73
1
 93
12
 10
657.2666666666667
 20
379.45666666666665
 10
658.7333333333333
 20
379.45666666666665
 10
658.7333333333333
 20
379.334
 10
658.0393333333334
 20
379.334
 10
658.0393333333334
 20
376.646
 10
658.7333333333333
 20
376.646
 10
658.7333333333333
 20
376.5233333333333
 10
657.2666666666667
 20
376.5233333333333
 10
657.2666666666667
 20
376.646
 10
657.9606666666666
 20
376.646
 10
657.9606666666666
 20
379.334
 10
657.2666666666667
 20
379.334
 97
0
 75
1
 76
1
 98
0
  0
LWPOLYLINE
  5
313
330
17
100
AcDbEntity
  8
acero_viguetas_salon
100
AcDbPolyline
 90
12
 70
1
 10
667.2666666666667
 20
379.45666666666665
 10
668.7333333333333
 20
379.45666666666665
 10
668.7333333333333
 20
379.334
 10
668.0393333333334
 20
379.334
 10
668.0393333333334
 20
376.646
 10
668.7333333333333
 20
376.646
 10
668.7333333333333
 20
376.5233333333333
 10
667.2666666666667
 20
376.5233333333333
 10
667.2666666666667
 20
376.646
 10
667.9606666666666
 20
376.646
 10
667.9606666666666
 20
379.334
 10
667.2666666666667
 20
379.334
  0
HATCH
  5
314
330
17
100
AcDbEntity
  8
RAYADO_FORJADO
 62
5
100
AcDbHatch
 10
0.0
 20
0.0
 30
0.0
210
0.0
220
0.0
230
1.0
  2
SOLID
 70
1
 71
0
 91
1
 92
3
 72
0
 73
1
 93
12
 10
667.2666666666667
 20
379.45666666666665
 10
668.7333333333333
 20
379.45666666666665
 10
668.7333333333333
 20
379.334
 10
668.0393333333334
 20
379.334
 10
668.0393333333334
 20
376.646
 10
668.7333333333333
 20
376.646
 10
668.7333333333333
 20
376.5233333333333
 10
667.2666666666667
 20
376.5233333333333
 10
667.2666666666667
 20
376.646
 10
667.9606666666666
 20
376.646
 10
667.9606666666666
 20
379.334
 10
667.2666666666667
 20
379.334
 97
0
 75
1
 76
1
 98
0
  0
LWPOLYLINE
  5
315
330
17
100
AcDbEntity
  8
acero_viguetas_casa
100
AcDbPolyline
 90
12
 70
1
 10
688.5066666666667
 20
379.45666666666665
 10
689.36
 20
379.45666666666665
 10
689.36
 20
379.37266666666665
 10
688.9626666666667
 20
379.37266666666665
 10
688.9626666666667
 20
377.9406666666667
 10
689.36
 20
377.9406666666667
 10
689.36
 20
377.8566666666667
 10
688.5066666666667
 20
377.8566666666667
 10
688.5066666666667
 20
377.9406666666667
 10
688.904
 20
377.9406666666667
 10
688.904
 20
379.37266666666665
 10
688.5066666666667
 20
379.37266666666665
  0
HATCH
  5
316
330
17
100
AcDbEntity
  8
RAYADO_FORJADO
 62
5
100
AcDbHatch
 10
0.0
 20
0.0
 30
0.0
210
0.0
220
0.0
230
1.0
  2
SOLID
 70
1
 71
0
 91
1
 92
3
 72
0
 73
1
 93
12
 10
688.5066666666667
 20
379.45666666666665
 10
689.36
 20
379.45666666666665
 10
689.36
 20
379.37266666666665
 10
688.9626666666667
 20
379.37266666666665
 10
688.9626666666667
 20
377.9406666666667
 10
689.36
 20
377.9406666666667
 10
689.36
 20
377.8566666666667
 10
688.5066666666667
 20
377.8566666666667
 10
688.5066666666667
 20
377.9406666666667
 10
688.904
 20
377.9406666666667
 10
688.904
 20
379.37266666666665
 10
688.5066666666667
 20
379.37266666666665
 97
0
 75
1
 76
1
 98
0
  0
LWPOLYLINE
  5
317
330
17
100
AcDbEntity
  8
acero_viguetas_casa
100
AcDbPolyline
 90
12
 70
1
 10
701.84
 20
379.45666666666665
 10
702.6933333333334
 20
379.45666666666665
 10
702.6933333333334
 20
379.37266666666665
 10
702.296
 20
379.37266666666665
 10
702.296
 20
377.9406666666667
 10
702.6933333333334
 20
377.9406666666667
 10
702.6933333333334
 20
377.8566666666667
 10
701.84
 20
377.8566666666667
 10
701.84
 20
377.9406666666667
 10
702.2373333333334
 20
377.9406666666667
 10
702.2373333333334
 20
379.37266666666665
 10
701.84
 20
379.37266666666665
  0
HATCH
  5
318
330
17
100
AcDbEntity
  8
RAYADO_FORJADO
 62
5
100
AcDbHatch
 10
0.0
 20
0.0
 30
0.0
210
0.0
220
0.0
230
1.0
  2
SOLID
 70
1
 71
0
 91
1
 92
3
 72
0
 73
1
 93
12
 10
701.84
 20
379.45666666666665
 10
702.6933333333334
 20
379.45666666666665
 10
702.6933333333334
 20
379.37266666666665
 10
702.296
 20
379.37266666666665
 10
702.296
 20
377.9406666666667
 10
702.6933333333334
 20
377.9406666666667
 10
702.6933333333334
 20
377.8566666666667
 10
701.84
 20
377.8566666666667
 10
701.84
 20
377.9406666666667
 10
702.2373333333334
 20
377.9406666666667
 10
702.2373333333334
 20
379.37266666666665
 10
701.84
 20
379.37266666666665
 97
0
 75
1
 76
1
 98
0
  0
LWPOLYLINE
  5
319
330
17
100
AcDbEntity
  8
acero_viguetas_casa
100
AcDbPolyline
 90
12
 70
1
 10
715.1733333333334
 20
379.45666666666665
 10
716.0266666666666
 20
379.45666666666665
 10
716.0266666666666
 20
379.37266666666665
 10
715.6293333333333
 20
379.37266666666665
 10
715.6293333333333
 20
377.9406666666667
 10
716.0266666666666
 20
377.9406666666667
 10
716.0266666666666
 20
377.8566666666667
 10
715.1733333333334
 20
377.8566666666667
 10
715.1733333333334
 20
377.9406666666667
 10
715.5706666666667
 20
377.9406666666667
 10
715.5706666666667
 20
379.37266666666665
 10
715.1733333333334
 20
379.37266666666665
  0
HATCH
  5
31A
330
17
100
AcDbEntity
  8
RAYADO_FORJADO
 62
5
100
AcDbHatch
 10
0.0
 20
0.0
 30
0.0
210
0.0
220
0.0
230
1.0
  2
SOLID
 70
1
 71
0
 91
1
 92
3
 72
0
 73
1
 93
12
 10
715.1733333333334
 20
379.45666666666665
 10
716.0266666666666
 20
379.45666666666665
 10
716.0266666666666
 20
379.37266666666665
 10
715.6293333333333
 20
379.37266666666665
 10
715.6293333333333
 20
377.9406666666667
 10
716.0266666666666
 20
377.9406666666667
 10
716.0266666666666
 20
377.8566666666667
 10
715.1733333333334
 20
377.8566666666667
 10
715.1733333333334
 20
377.9406666666667
 10
715.5706666666667
 20
377.9406666666667
 10
715.5706666666667
 20
379.37266666666665
 10
715.1733333333334
 20
379.37266666666665
 97
0
 75
1
 76
1
 98
0
  0
LWPOLYLINE
  5
31B
330
17
100
AcDbEntity
  8
acero_viguetas_casa
100
AcDbPolyline
 90
12
 70
1
 10
728.5066666666667
 20
379.45666666666665
 10
729.36
 20
379.45666666666665
 10
729.36
 20
379.37266666666665
 10
728.9626666666667
 20
379.37266666666665
 10
728.9626666666667
 20
377.9406666666667
 10
729.36
 20
377.9406666666667
 10
729.36
 20
377.8566666666667
 10
728.5066666666667
 20
377.8566666666667
 10
728.5066666666667
 20
377.9406666666667
 10
728.904
 20
377.9406666666667
 10
728.904
 20
379.37266666666665
 10
728.5066666666667
 20
379.37266666666665
  0
HATCH
  5
31C
330
17
100
AcDbEntity
  8
RAYADO_FORJADO
 62
5
100
AcDbHatch
 10
0.0
 20
0.0
 30
0.0
210
0.0
220
0.0
230
1.0
  2
SOLID
 70
1
 71
0
 91
1
 92
3
 72
0
 73
1
 93
12
 10
728.5066666666667
 20
379.45666666666665
 10
729.36
 20
379.45666666666665
 10
729.36
 20
379.37266666666665
 10
728.9626666666667
 20
379.37266666666665
 10
728.9626666666667
 20
377.9406666666667
 10
729.36
 20
377.9406666666667
 10
729.36
 20
377.8566666666667
 10
728.5066666666667
 20
377.8566666666667
 10
728.5066666666667
 20
377.9406666666667
 10
728.904
 20
377.9406666666667
 10
728.904
 20
379.37266666666665
 10
728.5066666666667
 20
379.37266666666665
 97
0
 75
1
 76
1
 98
0
  0
LWPOLYLINE
  5
31D
330
17
100
AcDbEntity
  8
acero_viguetas_casa
100
AcDbPolyline
 90
12
 70
1
 10
741.84
 20
379.45666666666665
 10
742.6933333333334
 20
379.45666666666665
 10
742.6933333333334
 20
379.37266666666665
 10
742.296
 20
379.37266666666665
 10
742.296
 20
377.9406666666667
 10
742.6933333333334
 20
377.9406666666667
 10
742.6933333333334
 20
377.8566666666667
 10
741.84
 20
377.8566666666667
 10
741.84
 20
377.9406666666667
 10
742.2373333333334
 20
377.9406666666667
 10
742.2373333333334
 20
379.37266666666665
 10
741.84
 20
379.37266666666665
  0
HATCH
  5
31E
330
17
100
AcDbEntity
  8
RAYADO_FORJADO
 62
5
100
AcDbHatch
 10
0.0
 20
0.0
 30
0.0
210
0.0
220
0.0
230
1.0
  2
SOLID
 70
1
 71
0
 91
1
 92
3
 72
0
 73
1
 93
12
 10
741.84
 20
379.45666666666665
 10
742.6933333333334
 20
379.45666666666665
 10
742.6933333333334
 20
379.37266666666665
 10
742.296
 20
379.37266666666665
 10
742.296
 20
377.9406666666667
 10
742.6933333333334
 20
377.9406666666667
 10
742.6933333333334
 20
377.8566666666667
 10
741.84
 20
377.8566666666667
 10
741.84
 20
377.9406666666667
 10
742.2373333333334
 20
377.9406666666667
 10
742.2373333333334
 20
379.37266666666665
 10
741.84
 20
379.37266666666665
 97
0
 75
1
 76
1
 98
0
  0
LWPOLYLINE
  5
31F
330
17
100
AcDbEntity
  8
acero_viguetas_casa
100
AcDbPolyline
 90
12
 70
1
 10
755.1733333333334
 20
379.45666666666665
 10
756.0266666666666
 20
379.45666666666665
 10
756.0266666666666
 20
379.37266666666665
 10
755.6293333333333
 20
379.37266666666665
 10
755.6293333333333
 20
377.9406666666667
 10
756.0266666666666
 20
377.9406666666667
 10
756.0266666666666
 20
377.8566666666667
 10
755.1733333333334
 20
377.8566666666667
 10
755.1733333333334
 20
377.9406666666667
 10
755.5706666666667
 20
377.9406666666667
 10
755.5706666666667
 20
379.37266666666665
 10
755.1733333333334
 20
379.37266666666665
  0
HATCH
  5
320
330
17
100
AcDbEntity
  8
RAYADO_FORJADO
 62
5
100
AcDbHatch
 10
0.0
 20
0.0
 30
0.0
210
0.0
220
0.0
230
1.0
  2
SOLID
 70
1
 71
0
 91
1
 92
3
 72
0
 73
1
 93
12
 10
755.1733333333334
 20
379.45666666666665
 10
756.0266666666666
 20
379.45666666666665
 10
756.0266666666666
 20
379.37266666666665
 10
755.6293333333333
 20
379.37266666666665
 10
755.6293333333333
 20
377.9406666666667
 10
756.0266666666666
 20
377.9406666666667
 10
756.0266666666666
 20
377.8566666666667
 10
755.1733333333334
 20
377.8566666666667
 10
755.1733333333334
 20
377.9406666666667
 10
755.5706666666667
 20
377.9406666666667
 10
755.5706666666667
 20
379.37266666666665
 10
755.1733333333334
 20
379.37266666666665
 97
0
 75
1
 76
1
 98
0
  0
LWPOLYLINE
  5
321
330
17
100
AcDbEntity
  8
acero_viguetas_casa
100
AcDbPolyline
 90
12
 70
1
 10
768.5066666666667
 20
379.45666666666665
 10
769.36
 20
379.45666666666665
 10
769.36
 20
379.37266666666665
 10
768.9626666666667
 20
379.37266666666665
 10
768.9626666666667
 20
377.9406666666667
 10
769.36
 20
377.9406666666667
 10
769.36
 20
377.8566666666667
 10
768.5066666666667
 20
377.8566666666667
 10
768.5066666666667
 20
377.9406666666667
 10
768.904
 20
377.9406666666667
 10
768.904
 20
379.37266666666665
 10
768.5066666666667
 20
379.37266666666665
  0
HATCH
  5
322
330
17
100
AcDbEntity
  8
RAYADO_FORJADO
 62
5
100
AcDbHatch
 10
0.0
 20
0.0
 30
0.0
210
0.0
220
0.0
230
1.0
  2
SOLID
 70
1
 71
0
 91
1
 92
3
 72
0
 73
1
 93
12
 10
768.5066666666667
 20
379.45666666666665
 10
769.36
 20
379.45666666666665
 10
769.36
 20
379.37266666666665
 10
768.9626666666667
 20
379.37266666666665
 10
768.9626666666667
 20
377.9406666666667
 10
769.36
 20
377.9406666666667
 10
769.36
 20
377.8566666666667
 10
768.5066666666667
 20
377.8566666666667
 10
768.5066666666667
 20
377.9406666666667
 10
768.904
 20
377.9406666666667
 10
768.904
 20
379.37266666666665
 10
768.5066666666667
 20
379.37266666666665
 97
0
 75
1
 76
1
 98
0
  0
LWPOLYLINE
  5
323
330
17
100
AcDbEntity
  8
acero_viguetas_casa
100
AcDbPolyline
 90
12
 70
1
 10
781.84
 20
379.45666666666665
 10
782.6933333333334
 20
379.45666666666665
 10
782.6933333333334
 20
379.37266666666665
 10
782.296
 20
379.37266666666665
 10
782.296
 20
377.9406666666667
 10
782.6933333333334
 20
377.9406666666667
 10
782.6933333333334
 20
377.8566666666667
 10
781.84
 20
377.8566666666667
 10
781.84
 20
377.9406666666667
 10
782.2373333333334
 20
377.9406666666667
 10
782.2373333333334
 20
379.37266666666665
 10
781.84
 20
379.37266666666665
  0
HATCH
  5
324
330
17
100
AcDbEntity
  8
RAYADO_FORJADO
 62
5
100
AcDbHatch
 10
0.0
 20
0.0
 30
0.0
210
0.0
220
0.0
230
1.0
  2
SOLID
 70
1
 71
0
 91
1
 92
3
 72
0
 73
1
 93
12
 10
781.84
 20
379.45666666666665
 10
782.6933333333334
 20
379.45666666666665
 10
782.6933333333334
 20
379.37266666666665
 10
782.296
 20
379.37266666666665
 10
782.296
 20
377.9406666666667
 10
782.6933333333334
 20
377.9406666666667
 10
782.6933333333334
 20
377.8566666666667
 10
781.84
 20
377.8566666666667
 10
781.84
 20
377.9406666666667
 10
782.2373333333334
 20
377.9406666666667
 10
782.2373333333334
 20
379.37266666666665
 10
781.84
 20
379.37266666666665
 97
0
 75
1
 76
1
 98
0
  0
LWPOLYLINE
  5
325
330
17
100
AcDbEntity
  8
acero_viguetas_cubierta
100
AcDbPolyline
 90
12
 70
1
 10
688.5066666666667
 20
415.45666666666665
 10
689.36
 20
415.45666666666665
 10
689.36
 20
415.37266666666665
 10
688.9626666666667
 20
415.37266666666665
 10
688.9626666666667
 20
413.9406666666667
 10
689.36
 20
413.9406666666667
 10
689.36
 20
413.8566666666667
 10
688.5066666666667
 20
413.8566666666667
 10
688.5066666666667
 20
413.9406666666667
 10
688.904
 20
413.9406666666667
 10
688.904
 20
415.37266666666665
 10
688.5066666666667
 20
415.37266666666665
  0
HATCH
  5
326
330
17
100
AcDbEntity
  8
RAYADO_FORJADO
 62
5
100
AcDbHatch
 10
0.0
 20
0.0
 30
0.0
210
0.0
220
0.0
230
1.0
  2
SOLID
 70
1
 71
0
 91
1
 92
3
 72
0
 73
1
 93
12
 10
688.5066666666667
 20
415.45666666666665
 10
689.36
 20
415.45666666666665
 10
689.36
 20
415.37266666666665
 10
688.9626666666667
 20
415.37266666666665
 10
688.9626666666667
 20
413.9406666666667
 10
689.36
 20
413.9406666666667
 10
689.36
 20
413.8566666666667
 10
688.5066666666667
 20
413.8566666666667
 10
688.5066666666667
 20
413.9406666666667
 10
688.904
 20
413.9406666666667
 10
688.904
 20
415.37266666666665
 10
688.5066666666667
 20
415.37266666666665
 97
0
 75
1
 76
1
 98
0
  0
LWPOLYLINE
  5
327
330
17
100
AcDbEntity
  8
acero_viguetas_cubierta
100
AcDbPolyline
 90
12
 70
1
 10
701.84
 20
415.45666666666665
 10
702.6933333333334
 20
415.45666666666665
 10
702.6933333333334
 20
415.37266666666665
 10
702.296
 20
415.37266666666665
 10
702.296
 20
413.9406666666667
 10
702.6933333333334
 20
413.9406666666667
 10
702.6933333333334
 20
413.8566666666667
 10
701.84
 20
413.8566666666667
 10
701.84
 20
413.9406666666667
 10
702.2373333333334
 20
413.9406666666667
 10
702.2373333333334
 20
415.37266666666665
 10
701.84
 20
415.37266666666665
  0
HATCH
  5
328
330
17
100
AcDbEntity
  8
RAYADO_FORJADO
 62
5
100
AcDbHatch
 10
0.0
 20
0.0
 30
0.0
210
0.0
220
0.0
230
1.0
  2
SOLID
 70
1
 71
0
 91
1
 92
3
 72
0
 73
1
 93
12
 10
701.84
 20
415.45666666666665
 10
702.6933333333334
 20
415.45666666666665
 10
702.6933333333334
 20
415.37266666666665
 10
702.296
 20
415.37266666666665
 10
702.296
 20
413.9406666666667
 10
702.6933333333334
 20
413.9406666666667
 10
702.6933333333334
 20
413.8566666666667
 10
701.84
 20
413.8566666666667
 10
701.84
 20
413.9406666666667
 10
702.2373333333334
 20
413.9406666666667
 10
702.2373333333334
 20
415.37266666666665
 10
701.84
 20
415.37266666666665
 97
0
 75
1
 76
1
 98
0
  0
LWPOLYLINE
  5
329
330
17
100
AcDbEntity
  8
acero_viguetas_cubierta
100
AcDbPolyline
 90
12
 70
1
 10
715.1733333333334
 20
415.45666666666665
 10
716.0266666666666
 20
415.45666666666665
 10
716.0266666666666
 20
415.37266666666665
 10
715.6293333333333
 20
415.37266666666665
 10
715.6293333333333
 20
413.9406666666667
 10
716.0266666666666
 20
413.9406666666667
 10
716.0266666666666
 20
413.8566666666667
 10
715.1733333333334
 20
413.8566666666667
 10
715.1733333333334
 20
413.9406666666667
 10
715.5706666666667
 20
413.9406666666667
 10
715.5706666666667
 20
415.37266666666665
 10
715.1733333333334
 20
415.37266666666665
  0
HATCH
  5
32A
330
17
100
AcDbEntity
  8
RAYADO_FORJADO
 62
5
100
AcDbHatch
 10
0.0
 20
0.0
 30
0.0
210
0.0
220
0.0
230
1.0
  2
SOLID
 70
1
 71
0
 91
1
 92
3
 72
0
 73
1
 93
12
 10
715.1733333333334
 20
415.45666666666665
 10
716.0266666666666
 20
415.45666666666665
 10
716.0266666666666
 20
415.37266666666665
 10
715.6293333333333
 20
415.37266666666665
 10
715.6293333333333
 20
413.9406666666667
 10
716.0266666666666
 20
413.9406666666667
 10
716.0266666666666
 20
413.8566666666667
 10
715.1733333333334
 20
413.8566666666667
 10
715.1733333333334
 20
413.9406666666667
 10
715.5706666666667
 20
413.9406666666667
 10
715.5706666666667
 20
415.37266666666665
 10
715.1733333333334
 20
415.37266666666665
 97
0
 75
1
 76
1
 98
0
  0
LWPOLYLINE
  5
32B
330
17
100
AcDbEntity
  8
acero_viguetas_cubierta
100
AcDbPolyline
 90
12
 70
1
 10
728.5066666666667
 20
415.45666666666665
 10
729.36
 20
415.45666666666665
 10
729.36
 20
415.37266666666665
 10
728.9626666666667
 20
415.37266666666665
 10
728.9626666666667
 20
413.9406666666667
 10
729.36
 20
413.9406666666667
 10
729.36
 20
413.8566666666667
 10
728.5066666666667
 20
413.8566666666667
 10
728.5066666666667
 20
413.9406666666667
 10
728.904
 20
413.9406666666667
 10
728.904
 20
415.37266666666665
 10
728.5066666666667
 20
415.37266666666665
  0
HATCH
  5
32C
330
17
100
AcDbEntity
  8
RAYADO_FORJADO
 62
5
100
AcDbHatch
 10
0.0
 20
0.0
 30
0.0
210
0.0
220
0.0
230
1.0
  2
SOLID
 70
1
 71
0
 91
1
 92
3
 72
0
 73
1
 93
12
 10
728.5066666666667
 20
415.45666666666665
 10
729.36
 20
415.45666666666665
 10
729.36
 20
415.37266666666665
 10
728.9626666666667
 20
415.37266666666665
 10
728.9626666666667
 20
413.9406666666667
 10
729.36
 20
413.9406666666667
 10
729.36
 20
413.8566666666667
 10
728.5066666666667
 20
413.8566666666667
 10
728.5066666666667
 20
413.9406666666667
 10
728.904
 20
413.9406666666667
 10
728.904
 20
415.37266666666665
 10
728.5066666666667
 20
415.37266666666665
 97
0
 75
1
 76
1
 98
0
  0
LWPOLYLINE
  5
32D
330
17
100
AcDbEntity
  8
acero_viguetas_cubierta
100
AcDbPolyline
 90
12
 70
1
 10
741.84
 20
415.45666666666665
 10
742.6933333333334
 20
415.45666666666665
 10
742.6933333333334
 20
415.37266666666665
 10
742.296
 20
415.37266666666665
 10
742.296
 20
413.9406666666667
 10
742.6933333333334
 20
413.9406666666667
 10
742.6933333333334
 20
413.8566666666667
 10
741.84
 20
413.8566666666667
 10
741.84
 20
413.9406666666667
 10
742.2373333333334
 20
413.9406666666667
 10
742.2373333333334
 20
415.37266666666665
 10
741.84
 20
415.37266666666665
  0
HATCH
  5
32E
330
17
100
AcDbEntity
  8
RAYADO_FORJADO
 62
5
100
AcDbHatch
 10
0.0
 20
0.0
 30
0.0
210
0.0
220
0.0
230
1.0
  2
SOLID
 70
1
 71
0
 91
1
 92
3
 72
0
 73
1
 93
12
 10
741.84
 20
415.45666666666665
 10
742.6933333333334
 20
415.45666666666665
 10
742.6933333333334
 20
415.37266666666665
 10
742.296
 20
415.37266666666665
 10
742.296
 20
413.9406666666667
 10
742.6933333333334
 20
413.9406666666667
 10
742.6933333333334
 20
413.8566666666667
 10
741.84
 20
413.8566666666667
 10
741.84
 20
413.9406666666667
 10
742.2373333333334
 20
413.9406666666667
 10
742.2373333333334
 20
415.37266666666665
 10
741.84
 20
415.37266666666665
 97
0
 75
1
 76
1
 98
0
  0
LWPOLYLINE
  5
32F
330
17
100
AcDbEntity
  8
acero_viguetas_cubierta
100
AcDbPolyline
 90
12
 70
1
 10
755.1733333333334
 20
415.45666666666665
 10
756.0266666666666
 20
415.45666666666665
 10
756.0266666666666
 20
415.37266666666665
 10
755.6293333333333
 20
415.37266666666665
 10
755.6293333333333
 20
413.9406666666667
 10
756.0266666666666
 20
413.9406666666667
 10
756.0266666666666
 20
413.8566666666667
 10
755.1733333333334
 20
413.8566666666667
 10
755.1733333333334
 20
413.9406666666667
 10
755.5706666666667
 20
413.9406666666667
 10
755.5706666666667
 20
415.37266666666665
 10
755.1733333333334
 20
415.37266666666665
  0
HATCH
  5
330
330
17
100
AcDbEntity
  8
RAYADO_FORJADO
 62
5
100
AcDbHatch
 10
0.0
 20
0.0
 30
0.0
210
0.0
220
0.0
230
1.0
  2
SOLID
 70
1
 71
0
 91
1
 92
3
 72
0
 73
1
 93
12
 10
755.1733333333334
 20
415.45666666666665
 10
756.0266666666666
 20
415.45666666666665
 10
756.0266666666666
 20
415.37266666666665
 10
755.6293333333333
 20
415.37266666666665
 10
755.6293333333333
 20
413.9406666666667
 10
756.0266666666666
 20
413.9406666666667
 10
756.0266666666666
 20
413.8566666666667
 10
755.1733333333334
 20
413.8566666666667
 10
755.1733333333334
 20
413.9406666666667
 10
755.5706666666667
 20
413.9406666666667
 10
755.5706666666667
 20
415.37266666666665
 10
755.1733333333334
 20
415.37266666666665
 97
0
 75
1
 76
1
 98
0
  0
LWPOLYLINE
  5
331
330
17
100
AcDbEntity
  8
acero_viguetas_cubierta
100
AcDbPolyline
 90
12
 70
1
 10
768.5066666666667
 20
415.45666666666665
 10
769.36
 20
415.45666666666665
 10
769.36
 20
415.37266666666665
 10
768.9626666666667
 20
415.37266666666665
 10
768.9626666666667
 20
413.9406666666667
 10
769.36
 20
413.9406666666667
 10
769.36
 20
413.8566666666667
 10
768.5066666666667
 20
413.8566666666667
 10
768.5066666666667
 20
413.9406666666667
 10
768.904
 20
413.9406666666667
 10
768.904
 20
415.37266666666665
 10
768.5066666666667
 20
415.37266666666665
  0
HATCH
  5
332
330
17
100
AcDbEntity
  8
RAYADO_FORJADO
 62
5
100
AcDbHatch
 10
0.0
 20
0.0
 30
0.0
210
0.0
220
0.0
230
1.0
  2
SOLID
 70
1
 71
0
 91
1
 92
3
 72
0
 73
1
 93
12
 10
768.5066666666667
 20
415.45666666666665
 10
769.36
 20
415.45666666666665
 10
769.36
 20
415.37266666666665
 10
768.9626666666667
 20
415.37266666666665
 10
768.9626666666667
 20
413.9406666666667
 10
769.36
 20
413.9406666666667
 10
769.36
 20
413.8566666666667
 10
768.5066666666667
 20
413.8566666666667
 10
768.5066666666667
 20
413.9406666666667
 10
768.904
 20
413.9406666666667
 10
768.904
 20
415.37266666666665
 10
768.5066666666667
 20
415.37266666666665
 97
0
 75
1
 76
1
 98
0
  0
LWPOLYLINE
  5
333
330
17
100
AcDbEntity
  8
acero_viguetas_cubierta
100
AcDbPolyline
 90
12
 70
1
 10
781.84
 20
415.45666666666665
 10
782.6933333333334
 20
415.45666666666665
 10
782.6933333333334
 20
415.37266666666665
 10
782.296
 20
415.37266666666665
 10
782.296
 20
413.9406666666667
 10
782.6933333333334
 20
413.9406666666667
 10
782.6933333333334
 20
413.8566666666667
 10
781.84
 20
413.8566666666667
 10
781.84
 20
413.9406666666667
 10
782.2373333333334
 20
413.9406666666667
 10
782.2373333333334
 20
415.37266666666665
 10
781.84
 20
415.37266666666665
  0
HATCH
  5
334
330
17
100
AcDbEntity
  8
RAYADO_FORJADO
 62
5
100
AcDbHatch
 10
0.0
 20
0.0
 30
0.0
210
0.0
220
0.0
230
1.0
  2
SOLID
 70
1
 71
0
 91
1
 92
3
 72
0
 73
1
 93
12
 10
781.84
 20
415.45666666666665
 10
782.6933333333334
 20
415.45666666666665
 10
782.6933333333334
 20
415.37266666666665
 10
782.296
 20
415.37266666666665
 10
782.296
 20
413.9406666666667
 10
782.6933333333334
 20
413.9406666666667
 10
782.6933333333334
 20
413.8566666666667
 10
781.84
 20
413.8566666666667
 10
781.84
 20
413.9406666666667
 10
782.2373333333334
 20
413.9406666666667
 10
782.2373333333334
 20
415.37266666666665
 10
781.84
 20
415.37266666666665
 97
0
 75
1
 76
1
 98
0
  0
LWPOLYLINE
  5
335
330
17
100
AcDbEntity
  8
acero_vigas_forjado
100
AcDbPolyline
 90
12
 70
1
 10
678.5333333333333
 20
379.45666666666665
 10
680.1333333333333
 20
379.45666666666665
 10
680.1333333333333
 20
379.31
 10
679.3766666666667
 20
379.31
 10
679.3766666666667
 20
378.00333333333333
 10
680.1333333333333
 20
378.00333333333333
 10
680.1333333333333
 20
377.8566666666667
 10
678.5333333333333
 20
377.8566666666667
 10
678.5333333333333
 20
378.00333333333333
 10
679.29
 20
378.00333333333333
 10
679.29
 20
379.31
 10
678.5333333333333
 20
379.31
  0
HATCH
  5
336
330
17
100
AcDbEntity
  8
RAYADO_FORJADO
 62
5
100
AcDbHatch
 10
0.0
 20
0.0
 30
0.0
210
0.0
220
0.0
230
1.0
  2
SOLID
 70
1
 71
0
 91
1
 92
3
 72
0
 73
1
 93
12
 10
678.5333333333333
 20
379.45666666666665
 10
680.1333333333333
 20
379.45666666666665
 10
680.1333333333333
 20
379.31
 10
679.3766666666667
 20
379.31
 10
679.3766666666667
 20
378.00333333333333
 10
680.1333333333333
 20
378.00333333333333
 10
680.1333333333333
 20
377.8566666666667
 10
678.5333333333333
 20
377.8566666666667
 10
678.5333333333333
 20
378.00333333333333
 10
679.29
 20
378.00333333333333
 10
679.29
 20
379.31
 10
678.5333333333333
 20
379.31
 97
0
 75
1
 76
1
 98
0
  0
LWPOLYLINE
  5
337
330
17
100
AcDbEntity
  8
acero_vigas_cubierta
100
AcDbPolyline
 90
12
 70
1
 10
678.5333333333333
 20
415.45666666666665
 10
680.1333333333333
 20
415.45666666666665
 10
680.1333333333333
 20
415.31
 10
679.3766666666667
 20
415.31
 10
679.3766666666667
 20
414.00333333333333
 10
680.1333333333333
 20
414.00333333333333
 10
680.1333333333333
 20
413.8566666666667
 10
678.5333333333333
 20
413.8566666666667
 10
678.5333333333333
 20
414.00333333333333
 10
679.29
 20
414.00333333333333
 10
679.29
 20
415.31
 10
678.5333333333333
 20
415.31
  0
HATCH
  5
338
330
17
100
AcDbEntity
  8
RAYADO_FORJADO
 62
5
100
AcDbHatch
 10
0.0
 20
0.0
 30
0.0
210
0.0
220
0.0
230
1.0
  2
SOLID
 70
1
 71
0
 91
1
 92
3
 72
0
 73
1
 93
12
 10
678.5333333333333
 20
415.45666666666665
 10
680.1333333333333
 20
415.45666666666665
 10
680.1333333333333
 20
415.31
 10
679.3766666666667
 20
415.31
 10
679.3766666666667
 20
414.00333333333333
 10
680.1333333333333
 20
414.00333333333333
 10
680.1333333333333
 20
413.8566666666667
 10
678.5333333333333
 20
413.8566666666667
 10
678.5333333333333
 20
414.00333333333333
 10
679.29
 20
414.00333333333333
 10
679.29
 20
415.31
 10
678.5333333333333
 20
415.31
 97
0
 75
1
 76
1
 98
0
  0
LWPOLYLINE
  5
339
330
17
100
AcDbEntity
  8
acero_dintel
100
AcDbPolyline
 90
12
 70
1
 10
580.6
 20
374.12333333333333
 10
582.7333333333333
 20
374.12333333333333
 10
582.7333333333333
 20
373.95
 10
581.72
 20
373.95
 10
581.72
 20
372.16333333333336
 10
582.7333333333333
 20
372.16333333333336
 10
582.7333333333333
 20
371.99
 10
580.6
 20
371.99
 10
580.6
 20
372.16333333333336
 10
581.6133333333333
 20
372.16333333333336
 10
581.6133333333333
 20
373.95
 10
580.6
 20
373.95
  0
HATCH
  5
33A
330
17
100
AcDbEntity
  8
RAYADO_FORJADO
 62
5
100
AcDbHatch
 10
0.0
 20
0.0
 30
0.0
210
0.0
220
0.0
230
1.0
  2
SOLID
 70
1
 71
0
 91
1
 92
3
 72
0
 73
1
 93
12
 10
580.6
 20
374.12333333333333
 10
582.7333333333333
 20
374.12333333333333
 10
582.7333333333333
 20
373.95
 10
581.72
 20
373.95
 10
581.72
 20
372.16333333333336
 10
582.7333333333333
 20
372.16333333333336
 10
582.7333333333333
 20
371.99
 10
580.6
 20
371.99
 10
580.6
 20
372.16333333333336
 10
581.6133333333333
 20
372.16333333333336
 10
581.6133333333333
 20
373.95
 10
580.6
 20
373.95
 97
0
 75
1
 76
1
 98
0
  0
DIMENSION
  5
33B
330
17
100
AcDbEntity
  8
COTAS
100
AcDbDimension
280
0
  2
*D27
  3
EZDXF
 10
566.3333333333334
 20
329.99
 30
0.0
 11
563.6333333333333
 21
333.99
 31
0.0
 70
32
 71
5
  1
0.60
100
AcDbAlignedDimension
 13
574.3333333333334
 23
329.99
 33
0.0
 14
574.3333333333334
 24
337.99
 34
0.0
 50
90.0
100
AcDbRotatedDimension
1001
ACAD
1000
DSTYLE
1002
{
1070
140
1040
2.2
1070
41
1040
1.8
1070
44
1040
1.0
1070
42
1040
0.8
1070
147
1040
0.6
1070
77
1070
1
1070
178
1070
3
1002
}
  0
DIMENSION
  5
34A
330
17
100
AcDbEntity
  8
COTAS
100
AcDbDimension
280
0
  2
*D28
  3
EZDXF
 10
566.3333333333334
 20
337.99
 30
0.0
 11
564.6333333333333
 21
359.72333333333336
 31
0.0
 70
32
 71
5
  1
3.26
100
AcDbAlignedDimension
 13
574.3333333333334
 23
337.99
 33
0.0
 14
574.3333333333334
 24
381.4566666666667
 34
0.0
 50
90.0
100
AcDbRotatedDimension
1001
ACAD
1000
DSTYLE
1002
{
1070
140
1040
2.2
1070
41
1040
1.8
1070
44
1040
1.0
1070
42
1040
0.8
1070
147
1040
0.6
1070
77
1070
1
1070
178
1070
3
1002
}
  0
DIMENSION
  5
359
330
17
100
AcDbEntity
  8
COTAS
100
AcDbDimension
280
0
  2
*D29
  3
EZDXF
 10
566.3333333333334
 20
381.4566666666667
 30
0.0
 11
564.6333333333333
 21
399.4566666666667
 31
0.0
 70
32
 71
5
  1
2.70
100
AcDbAlignedDimension
 13
574.3333333333334
 23
381.4566666666667
 33
0.0
 14
574.3333333333334
 24
417.4566666666667
 34
0.0
 50
90.0
100
AcDbRotatedDimension
1001
ACAD
1000
DSTYLE
1002
{
1070
140
1040
2.2
1070
41
1040
1.8
1070
44
1040
1.0
1070
42
1040
0.8
1070
147
1040
0.6
1070
77
1070
1
1070
178
1070
3
1002
}
  0
DIMENSION
  5
368
330
17
100
AcDbEntity
  8
COTAS
100
AcDbDimension
280
0
  2
*D30
  3
EZDXF
 10
566.3333333333334
 20
417.4566666666667
 30
0.0
 11
563.6333333333333
 21
420.79
 31
0.0
 70
32
 71
5
  1
0.50
100
AcDbAlignedDimension
 13
574.3333333333334
 23
417.4566666666667
 33
0.0
 14
574.3333333333334
 24
424.12333333333333
 34
0.0
 50
90.0
100
AcDbRotatedDimension
1001
ACAD
1000
DSTYLE
1002
{
1070
140
1040
2.2
1070
41
1040
1.8
1070
44
1040
1.0
1070
42
1040
0.8
1070
147
1040
0.6
1070
77
1070
1
1070
178
1070
3
1002
}
  0
DIMENSION
  5
377
330
17
100
AcDbEntity
  8
COTAS
100
AcDbDimension
280
0
  2
*D31
  3
EZDXF
 10
558.3333333333334
 20
329.99
 30
0.0
 11
556.6333333333333
 21
377.0566666666667
 31
0.0
 70
32
 71
5
  1
7.06
100
AcDbAlignedDimension
 13
574.3333333333334
 23
329.99
 33
0.0
 14
574.3333333333334
 24
424.12333333333333
 34
0.0
 50
90.0
100
AcDbRotatedDimension
1001
ACAD
1000
DSTYLE
1002
{
1070
140
1040
2.2
1070
41
1040
1.8
1070
44
1040
1.0
1070
42
1040
0.8
1070
147
1040
0.6
1070
77
1070
1
1070
178
1070
3
1002
}
  0
DIMENSION
  5
386
330
17
100
AcDbEntity
  8
COTAS
100
AcDbDimension
280
0
  2
*D32
  3
EZDXF
 10
574.3333333333334
 20
320.6566666666667
 30
0.0
 11
686.6666666666667
 21
322.3566666666667
 31
0.0
 70
32
 71
5
  1
16.85
100
AcDbAlignedDimension
 13
574.3333333333334
 23
329.99
 33
0.0
 14
799.0
 24
329.99
 34
0.0
 50
0.0
100
AcDbRotatedDimension
1001
ACAD
1000
DSTYLE
1002
{
1070
140
1040
2.2
1070
41
1040
1.8
1070
44
1040
1.0
1070
42
1040
0.8
1070
147
1040
0.6
1070
77
1070
1
1070
178
1070
3
1002
}
  0
LINE
  5
395
330
17
100
AcDbEntity
  8
COTAS
100
AcDbLine
 10
803.0
 20
337.99
 30
0.0
 11
812.3333333333334
 21
337.99
 31
0.0
  0
TEXT
  5
396
330
17
100
AcDbEntity
  8
TEXTO
100
AcDbText
 10
813.0
 20
337.99
 30
0.0
 40
1.7
  1
±0.00 SUELO PB
 11
813.0
 21
337.99
 31
0.0
100
AcDbText
 73
2
  0
LINE
  5
397
330
17
100
AcDbEntity
  8
COTAS
100
AcDbLine
 10
803.0
 20
381.4566666666667
 30
0.0
 11
812.3333333333334
 21
381.4566666666667
 31
0.0
  0
TEXT
  5
398
330
17
100
AcDbEntity
  8
TEXTO
100
AcDbText
 10
813.0
 20
381.4566666666667
 30
0.0
 40
1.7
  1
+3.26 SUELO PA / TERRAZA
 11
813.0
 21
381.4566666666667
 31
0.0
100
AcDbText
 73
2
  0
LINE
  5
399
330
17
100
AcDbEntity
  8
COTAS
100
AcDbLine
 10
803.0
 20
417.4566666666667
 30
0.0
 11
812.3333333333334
 21
417.4566666666667
 31
0.0
  0
TEXT
  5
39A
330
17
100
AcDbEntity
  8
TEXTO
100
AcDbText
 10
813.0
 20
417.4566666666667
 30
0.0
 40
1.7
  1
+5.96 CUBIERTA
 11
813.0
 21
417.4566666666667
 31
0.0
100
AcDbText
 73
2
  0
TEXT
  5
39B
330
17
100
AcDbEntity
  8
TEXTO
100
AcDbText
 10
686.6666666666667
 20
304.6566666666667
 30
0.0
 40
4.0
  1
SECCIÓN A-A' (con estructura)  1/75
 72
1
 11
686.6666666666667
 21
304.6566666666667
 31
0.0
100
AcDbText
 73
2
  0
TEXT
  5
39C
330
17
100
AcDbEntity
  8
TEXTO
100
AcDbText
 10
300.0
 20
286.0
 30
0.0
 40
3.2
  1
CUADRO DE PERFILES (acero S275JR)
100
AcDbText
  0
TEXT
  5
39D
330
17
100
AcDbEntity
  8
TEXTO
100
AcDbText
 10
301.5
 20
278.1
 30
0.0
 40
2.2
  1
ELEMENTO
100
AcDbText
  0
TEXT
  5
39E
330
17
100
AcDbEntity
  8
TEXTO
100
AcDbText
 10
389.5
 20
278.1
 30
0.0
 40
2.2
  1
PERFIL
100
AcDbText
  0
TEXT
  5
39F
330
17
100
AcDbEntity
  8
TEXTO
100
AcDbText
 10
415.5
 20
278.1
 30
0.0
 40
2.2
  1
UDS/SEP
100
AcDbText
  0
LWPOLYLINE
  5
3A0
330
17
100
AcDbEntity
  8
TABLA
100
AcDbPolyline
 90
4
 70
1
 10
300.0
 20
282.0
 10
440.0
 20
282.0
 10
440.0
 20
276.6
 10
300.0
 20
276.6
  0
TEXT
  5
3A1
330
17
100
AcDbEntity
  8
TEXTO
100
AcDbText
 10
301.5
 20
272.70000000000005
 30
0.0
 40
2.2
  1
Viguetas terraza salón (E-O, luz 5,75)
100
AcDbText
  0
TEXT
  5
3A2
330
17
100
AcDbEntity
  8
TEXTO
100
AcDbText
 10
389.5
 20
272.70000000000005
 30
0.0
 40
2.2
  1
IPE 220
100
AcDbText
  0
TEXT
  5
3A3
330
17
100
AcDbEntity
  8
TEXTO
100
AcDbText
 10
415.5
 20
272.70000000000005
 30
0.0
 40
2.2
  1
@1.0 m
100
AcDbText
  0
LWPOLYLINE
  5
3A4
330
17
100
AcDbEntity
  8
TABLA
100
AcDbPolyline
 90
4
 70
1
 10
300.0
 20
276.6
 10
440.0
 20
276.6
 10
440.0
 20
271.20000000000005
 10
300.0
 20
271.20000000000005
  0
TEXT
  5
3A5
330
17
100
AcDbEntity
  8
TEXTO
100
AcDbText
 10
301.5
 20
267.30000000000007
 30
0.0
 40
2.2
  1
Viguetas forjado casa (E-O, luz 2,55)
100
AcDbText
  0
TEXT
  5
3A6
330
17
100
AcDbEntity
  8
TEXTO
100
AcDbText
 10
389.5
 20
267.30000000000007
 30
0.0
 40
2.2
  1
IPE 120
100
AcDbText
  0
TEXT
  5
3A7
330
17
100
AcDbEntity
  8
TEXTO
100
AcDbText
 10
415.5
 20
267.30000000000007
 30
0.0
 40
2.2
  1
@1.0 m
100
AcDbText
  0
LWPOLYLINE
  5
3A8
330
17
100
AcDbEntity
  8
TABLA
100
AcDbPolyline
 90
4
 70
1
 10
300.0
 20
271.20000000000005
 10
440.0
 20
271.20000000000005
 10
440.0
 20
265.80000000000007
 10
300.0
 20
265.80000000000007
  0
TEXT
  5
3A9
330
17
100
AcDbEntity
  8
TEXTO
100
AcDbText
 10
301.5
 20
261.9000000000001
 30
0.0
 40
2.2
  1
Viguetas cubierta (E-O, luz 2,55)
100
AcDbText
  0
TEXT
  5
3AA
330
17
100
AcDbEntity
  8
TEXTO
100
AcDbText
 10
389.5
 20
261.9000000000001
 30
0.0
 40
2.2
  1
IPE 120
100
AcDbText
  0
TEXT
  5
3AB
330
17
100
AcDbEntity
  8
TEXTO
100
AcDbText
 10
415.5
 20
261.9000000000001
 30
0.0
 40
2.2
  1
@1.0 m
100
AcDbText
  0
LWPOLYLINE
  5
3AC
330
17
100
AcDbEntity
  8
TABLA
100
AcDbPolyline
 90
4
 70
1
 10
300.0
 20
265.80000000000007
 10
440.0
 20
265.80000000000007
 10
440.0
 20
260.4000000000001
 10
300.0
 20
260.4000000000001
  0
TEXT
  5
3AD
330
17
100
AcDbEntity
  8
TEXTO
100
AcDbText
 10
301.5
 20
256.5000000000001
 30
0.0
 40
2.2
  1
Vigas N-S forjado (3 líneas)
100
AcDbText
  0
TEXT
  5
3AE
330
17
100
AcDbEntity
  8
TEXTO
100
AcDbText
 10
389.5
 20
256.5000000000001
 30
0.0
 40
2.2
  1
HEB 160
100
AcDbText
  0
TEXT
  5
3AF
330
17
100
AcDbEntity
  8
TEXTO
100
AcDbText
 10
415.5
 20
256.5000000000001
 30
0.0
 40
2.2
  1
3 uds
100
AcDbText
  0
LWPOLYLINE
  5
3B0
330
17
100
AcDbEntity
  8
TABLA
100
AcDbPolyline
 90
4
 70
1
 10
300.0
 20
260.4000000000001
 10
440.0
 20
260.4000000000001
 10
440.0
 20
255.00000000000009
 10
300.0
 20
255.00000000000009
  0
TEXT
  5
3B1
330
17
100
AcDbEntity
  8
TEXTO
100
AcDbText
 10
301.5
 20
251.10000000000008
 30
0.0
 40
2.2
  1
Vigas N-S cubierta (3 líneas)
100
AcDbText
  0
TEXT
  5
3B2
330
17
100
AcDbEntity
  8
TEXTO
100
AcDbText
 10
389.5
 20
251.10000000000008
 30
0.0
 40
2.2
  1
HEB 160
100
AcDbText
  0
TEXT
  5
3B3
330
17
100
AcDbEntity
  8
TEXTO
100
AcDbText
 10
415.5
 20
251.10000000000008
 30
0.0
 40
2.2
  1
3 uds
100
AcDbText
  0
LWPOLYLINE
  5
3B4
330
17
100
AcDbEntity
  8
TABLA
100
AcDbPolyline
 90
4
 70
1
 10
300.0
 20
255.00000000000009
 10
440.0
 20
255.00000000000009
 10
440.0
 20
249.60000000000008
 10
300.0
 20
249.60000000000008
  0
TEXT
  5
3B5
330
17
100
AcDbEntity
  8
TEXTO
100
AcDbText
 10
301.5
 20
245.70000000000007
 30
0.0
 40
2.2
  1
Pilares (ocultos en muros/tabiques)
100
AcDbText
  0
TEXT
  5
3B6
330
17
100
AcDbEntity
  8
TEXTO
100
AcDbText
 10
389.5
 20
245.70000000000007
 30
0.0
 40
2.2
  1
HEB 120
100
AcDbText
  0
TEXT
  5
3B7
330
17
100
AcDbEntity
  8
TEXTO
100
AcDbText
 10
415.5
 20
245.70000000000007
 30
0.0
 40
2.2
  1
6 uds
100
AcDbText
  0
LWPOLYLINE
  5
3B8
330
17
100
AcDbEntity
  8
TABLA
100
AcDbPolyline
 90
4
 70
1
 10
300.0
 20
249.60000000000008
 10
440.0
 20
249.60000000000008
 10
440.0
 20
244.20000000000007
 10
300.0
 20
244.20000000000007
  0
TEXT
  5
3B9
330
17
100
AcDbEntity
  8
TEXTO
100
AcDbText
 10
301.5
 20
240.30000000000007
 30
0.0
 40
2.2
  1
Dintel de la cristalera
100
AcDbText
  0
TEXT
  5
3BA
330
17
100
AcDbEntity
  8
TEXTO
100
AcDbText
 10
389.5
 20
240.30000000000007
 30
0.0
 40
2.2
  1
HEB 160
100
AcDbText
  0
TEXT
  5
3BB
330
17
100
AcDbEntity
  8
TEXTO
100
AcDbText
 10
415.5
 20
240.30000000000007
 30
0.0
 40
2.2
  1
1 ud
100
AcDbText
  0
LWPOLYLINE
  5
3BC
330
17
100
AcDbEntity
  8
TABLA
100
AcDbPolyline
 90
4
 70
1
 10
300.0
 20
244.20000000000007
 10
440.0
 20
244.20000000000007
 10
440.0
 20
238.80000000000007
 10
300.0
 20
238.80000000000007
  0
TEXT
  5
3BD
330
17
100
AcDbEntity
  8
TEXTO
100
AcDbText
 10
301.5
 20
234.90000000000006
 30
0.0
 40
2.2
  1
Zapatas aisladas bajo pilares
100
AcDbText
  0
TEXT
  5
3BE
330
17
100
AcDbEntity
  8
TEXTO
100
AcDbText
 10
389.5
 20
234.90000000000006
 30
0.0
 40
2.2
  1
1.3x1.3x0,6
100
AcDbText
  0
TEXT
  5
3BF
330
17
100
AcDbEntity
  8
TEXTO
100
AcDbText
 10
415.5
 20
234.90000000000006
 30
0.0
 40
2.2
  1
6 uds
100
AcDbText
  0
LWPOLYLINE
  5
3C0
330
17
100
AcDbEntity
  8
TABLA
100
AcDbPolyline
 90
4
 70
1
 10
300.0
 20
238.80000000000007
 10
440.0
 20
238.80000000000007
 10
440.0
 20
233.40000000000006
 10
300.0
 20
233.40000000000006
  0
TEXT
  5
3C1
330
17
100
AcDbEntity
  8
TEXTO
100
AcDbText
 10
300.0
 20
225.40000000000006
 30
0.0
 40
2.1
  1
Acero total del modelo: 6.101 kg (sin uniones ni placas).
100
AcDbText
  0
TEXT
  5
3C2
330
17
100
AcDbEntity
  8
TEXTO
100
AcDbText
 10
300.0
 20
220.60000000000005
 30
0.0
 40
2.1
  1
HEB 120: 1.262 kg, HEB 160: 2.326 kg, IPE 100: 45 kg, IPE 120: 1.368 kg, IPE 220: 1.101 kg
100
AcDbText
  0
TEXT
  5
3C3
330
17
100
AcDbEntity
  8
TEXTO
100
AcDbText
 10
300.0
 20
215.80000000000007
 30
0.0
 40
2.1
  1
Cargas: forjado 4,8 + 2,0 kN/m2; cubierta 6,1 + 1,0 kN/m2 (piedra y paneles solares). Ver memoria_estructura.md.
100
AcDbText
  0
TEXT
  5
3C4
330
17
100
AcDbEntity
  8
TEXTO
100
AcDbText
 10
300.0
 20
211.00000000000006
 30
0.0
 40
2.1
  1
PRELIMINAR: sismo NCSE-02, terreno, muros existentes, incendio R60 y uniones los define un técnico competente.
100
AcDbText
  0
ENDSEC
  0
SECTION
  2
OBJECTS
  0
DICTIONARY
  5
A
330
0
100
AcDbDictionary
281
1
  3
ACAD_COLOR
350
B
  3
ACAD_GROUP
350
C
  3
ACAD_LAYOUT
350
D
  3
ACAD_MATERIAL
350
E
  3
ACAD_MLEADERSTYLE
350
F
  3
ACAD_MLINESTYLE
350
10
  3
ACAD_PLOTSETTINGS
350
11
  3
ACAD_PLOTSTYLENAME
350
12
  3
ACAD_SCALELIST
350
14
  3
ACAD_TABLESTYLE
350
15
  3
ACAD_VISUALSTYLE
350
16
  3
EZDXF_META
350
2D
  0
DICTIONARY
  5
B
330
A
100
AcDbDictionary
281
1
  0
DICTIONARY
  5
C
330
A
100
AcDbDictionary
281
1
  0
DICTIONARY
  5
D
330
A
100
AcDbDictionary
281
1
  3
Model
350
1A
  3
Layout1
350
1E
  0
DICTIONARY
  5
E
330
A
100
AcDbDictionary
281
1
  3
ByBlock
350
1F
  3
ByLayer
350
20
  3
Global
350
21
  0
DICTIONARY
  5
F
330
A
100
AcDbDictionary
281
1
  3
Standard
350
2C
  0
DICTIONARY
  5
10
330
A
100
AcDbDictionary
281
1
  3
Standard
350
22
  0
DICTIONARY
  5
11
330
A
100
AcDbDictionary
281
1
  0
ACDBDICTIONARYWDFLT
  5
12
330
A
100
AcDbDictionary
281
1
  3
Normal
350
13
100
AcDbDictionaryWithDefault
340
13
  0
ACDBPLACEHOLDER
  5
13
330
12
  0
DICTIONARY
  5
14
330
A
100
AcDbDictionary
281
1
  0
DICTIONARY
  5
15
330
A
100
AcDbDictionary
281
1
  0
DICTIONARY
  5
16
330
A
100
AcDbDictionary
281
1
  3
2dWireframe
350
5A
  3
Basic
350
5B
  3
Brighten
350
5C
  3
ColorChange
350
5D
  3
Conceptual
350
5E
  3
Dim
350
5F
  3
EdgeColorOff
350
60
  3
Facepattern
350
61
  3
Flat
350
62
  3
FlatWithEdges
350
63
  3
Gouraud
350
64
  3
GouraudWithEdges
350
65
  3
Hidden
350
66
  3
JitterOff
350
67
  3
Linepattern
350
68
  3
Modeling
350
69
  3
OverhangOff
350
6A
  3
Realistic
350
6B
  3
Shaded
350
6C
  3
Shaded with edges
350
6D
  3
Shades of Gray
350
6E
  3
Sketchy
350
6F
  3
Thicken
350
70
  3
Wireframe
350
71
  3
X-Ray
350
72
  0
LAYOUT
  5
1A
330
D
100
AcDbPlotSettings
  1

  4
A3
  6

 40
7.5
 41
20.0
 42
7.5
 43
20.0
 44
420.0
 45
297.0
 46
0.0
 47
0.0
 48
0.0
 49
0.0
140
0.0
141
0.0
142
1.0
143
1.0
 70
1024
 72
1
 73
0
 74
5
  7

 75
16
 76
0
 77
2
 78
300
147
1.0
148
0.0
149
0.0
100
AcDbLayout
  1
Model
 70
1
 71
0
 10
0.0
 20
0.0
 11
420.0
 21
297.0
 12
0.0
 22
0.0
 32
0.0
 14
1e+20
 24
1e+20
 34
1e+20
 15
-1e+20
 25
-1e+20
 35
-1e+20
146
0.0
 13
0.0
 23
0.0
 33
0.0
 16
1.0
 26
0.0
 36
0.0
 17
0.0
 27
1.0
 37
0.0
 76
1
330
17
  0
LAYOUT
  5
1E
330
D
100
AcDbPlotSettings
  1

  4
A3
  6

 40
7.5
 41
20.0
 42
7.5
 43
20.0
 44
420.0
 45
297.0
 46
0.0
 47
0.0
 48
0.0
 49
0.0
140
0.0
141
0.0
142
1.0
143
1.0
 70
0
 72
1
 73
0
 74
5
  7

 75
16
 76
0
 77
2
 78
300
147
1.0
148
0.0
149
0.0
100
AcDbLayout
  1
Layout1
 70
1
 71
1
 10
0.0
 20
0.0
 11
420.0
 21
297.0
 12
0.0
 22
0.0
 32
0.0
 14
1e+20
 24
1e+20
 34
1e+20
 15
-1e+20
 25
-1e+20
 35
-1e+20
146
0.0
 13
0.0
 23
0.0
 33
0.0
 16
1.0
 26
0.0
 36
0.0
 17
0.0
 27
1.0
 37
0.0
 76
1
330
1B
  0
MATERIAL
  5
1F
102
{ACAD_REACTORS
330
E
102
}
330
E
100
AcDbMaterial
  1
ByBlock
  2

 70
0
 40
1.0
 71
1
 41
1.0
 91
-1023410177
 42
1.0
 72
1
  3

 73
1
 74
1
 75
1
 44
0.5
 73
0
 45
1.0
 46
1.0
 77
1
  4

 78
1
 79
1
170
1
 48
1.0
171
1
  6

172
1
173
1
174
1
140
1.0
141
1.0
175
1
  7

176
1
177
1
178
1
143
1.0
179
1
  8

270
1
271
1
272
1
145
1.0
146
1.0
273
1
  9

274
1
275
1
276
1
 42
1.0
 72
1
  3

 73
1
 74
1
 75
1
 94
63
  0
MATERIAL
  5
20
102
{ACAD_REACTORS
330
E
102
}
330
E
100
AcDbMaterial
  1
ByLayer
  2

 70
0
 40
1.0
 71
1
 41
1.0
 91
-1023410177
 42
1.0
 72
1
  3

 73
1
 74
1
 75
1
 44
0.5
 73
0
 45
1.0
 46
1.0
 77
1
  4

 78
1
 79
1
170
1
 48
1.0
171
1
  6

172
1
173
1
174
1
140
1.0
141
1.0
175
1
  7

176
1
177
1
178
1
143
1.0
179
1
  8

270
1
271
1
272
1
145
1.0
146
1.0
273
1
  9

274
1
275
1
276
1
 42
1.0
 72
1
  3

 73
1
 74
1
 75
1
 94
63
  0
MATERIAL
  5
21
102
{ACAD_REACTORS
330
E
102
}
330
E
100
AcDbMaterial
  1
Global
  2

 70
0
 40
1.0
 71
1
 41
1.0
 91
-1023410177
 42
1.0
 72
1
  3

 73
1
 74
1
 75
1
 44
0.5
 73
0
 45
1.0
 46
1.0
 77
1
  4

 78
1
 79
1
170
1
 48
1.0
171
1
  6

172
1
173
1
174
1
140
1.0
141
1.0
175
1
  7

176
1
177
1
178
1
143
1.0
179
1
  8

270
1
271
1
272
1
145
1.0
146
1.0
273
1
  9

274
1
275
1
276
1
 42
1.0
 72
1
  3

 73
1
 74
1
 75
1
 94
63
  0
MLINESTYLE
  5
22
102
{ACAD_REACTORS
330
10
102
}
330
10
100
AcDbMlineStyle
  2
Standard
 70
0
  3

 62
256
 51
90.0
 52
90.0
 71
2
 49
0.5
 62
256
  6
BYLAYER
 49
-0.5
 62
256
  6
BYLAYER
  0
MLEADERSTYLE
  5
2C
102
{ACAD_REACTORS
330
F
102
}
330
F
100
AcDbMLeaderStyle
179
2
170
2
171
1
172
0
 90
2
 40
0.0
 41
0.0
173
1
 91
-1056964608
 92
-2
290
1
 42
2.0
291
1
 43
8.0
  3
Standard
 44
4.0
300

342
29
174
1
175
1
176
0
178
1
 93
-1056964608
 45
4.0
292
0
297
0
 46
4.0
 94
-1056964608
 47
1.0
 49
1.0
140
1.0
294
1
141
0.0
177
0
142
1.0
295
0
296
0
143
3.75
271
0
272
9
273
9
  0
DICTIONARY
  5
2D
330
A
100
AcDbDictionary
280
1
281
1
  3
CREATED_BY_EZDXF
350
2E
  3
WRITTEN_BY_EZDXF
350
3C7
  0
DICTIONARYVAR
  5
2E
330
2D
100
DictionaryVariables
280
0
  1
1.4.4 @ 2026-09-29T13:57:44.050733+00:00
  0
VISUALSTYLE
  5
5A
102
{ACAD_REACTORS
330
16
102
}
330
16
100
AcDbVisualStyle
  2
2dWireframe
 70
4
 90
0
 40
0.6
 62
7
290
0
291
0
  0
VISUALSTYLE
  5
5B
102
{ACAD_REACTORS
330
16
102
}
330
16
100
AcDbVisualStyle
  2
Basic
 70
7
 90
1
 40
0.6
 62
7
290
0
291
1
  0
VISUALSTYLE
  5
5C
102
{ACAD_REACTORS
330
16
102
}
330
16
100
AcDbVisualStyle
  2
Brighten
 70
12
 90
2
 40
0.6
 62
7
290
0
291
1
  0
VISUALSTYLE
  5
5D
102
{ACAD_REACTORS
330
16
102
}
330
16
100
AcDbVisualStyle
  2
ColorChange
 70
16
 90
2
 40
0.6
 62
8
290
0
291
1
  0
VISUALSTYLE
  5
5E
102
{ACAD_REACTORS
330
16
102
}
330
16
100
AcDbVisualStyle
  2
Conceptual
 70
9
 90
3
 40
0.6
 62
7
290
0
291
0
  0
VISUALSTYLE
  5
5F
102
{ACAD_REACTORS
330
16
102
}
330
16
100
AcDbVisualStyle
  2
Dim
 70
11
 90
2
 40
0.6
 62
7
290
0
291
1
  0
VISUALSTYLE
  5
60
102
{ACAD_REACTORS
330
16
102
}
330
16
100
AcDbVisualStyle
  2
EdgeColorOff
 70
22
 90
2
 40
0.6
 62
7
290
0
291
1
  0
VISUALSTYLE
  5
61
102
{ACAD_REACTORS
330
16
102
}
330
16
100
AcDbVisualStyle
  2
Facepattern
 70
15
 90
2
 40
0.6
 62
7
290
0
291
1
  0
VISUALSTYLE
  5
62
102
{ACAD_REACTORS
330
16
102
}
330
16
100
AcDbVisualStyle
  2
Flat
 70
0
 90
2
 40
0.6
 62
7
290
0
291
1
  0
VISUALSTYLE
  5
63
102
{ACAD_REACTORS
330
16
102
}
330
16
100
AcDbVisualStyle
  2
FlatWithEdges
 70
1
 90
2
 40
0.6
 62
7
290
0
291
1
  0
VISUALSTYLE
  5
64
102
{ACAD_REACTORS
330
16
102
}
330
16
100
AcDbVisualStyle
  2
Gouraud
 70
2
 90
2
 40
0.6
 62
7
290
0
291
1
  0
VISUALSTYLE
  5
65
102
{ACAD_REACTORS
330
16
102
}
330
16
100
AcDbVisualStyle
  2
GouraudWithEdges
 70
3
 90
2
 40
0.6
 62
7
290
0
291
1
  0
VISUALSTYLE
  5
66
102
{ACAD_REACTORS
330
16
102
}
330
16
100
AcDbVisualStyle
  2
Hidden
 70
6
 90
1
 40
0.6
 62
7
290
0
291
0
  0
VISUALSTYLE
  5
67
102
{ACAD_REACTORS
330
16
102
}
330
16
100
AcDbVisualStyle
  2
JitterOff
 70
20
 90
2
 40
0.6
 62
7
290
0
291
1
  0
VISUALSTYLE
  5
68
102
{ACAD_REACTORS
330
16
102
}
330
16
100
AcDbVisualStyle
  2
Linepattern
 70
14
 90
2
 40
0.6
 62
7
290
0
291
1
  0
VISUALSTYLE
  5
69
102
{ACAD_REACTORS
330
16
102
}
330
16
100
AcDbVisualStyle
  2
Modeling
 70
10
 90
2
 40
0.6
 62
7
290
0
291
0
  0
VISUALSTYLE
  5
6A
102
{ACAD_REACTORS
330
16
102
}
330
16
100
AcDbVisualStyle
  2
OverhangOff
 70
21
 90
2
 40
0.6
 62
7
290
0
291
1
  0
VISUALSTYLE
  5
6B
102
{ACAD_REACTORS
330
16
102
}
330
16
100
AcDbVisualStyle
  2
Realistic
 70
8
 90
2
 40
0.6
 62
7
290
0
291
0
  0
VISUALSTYLE
  5
6C
102
{ACAD_REACTORS
330
16
102
}
330
16
100
AcDbVisualStyle
  2
Shaded
 70
27
 90
2
 40
0.6
 62
7
290
0
291
0
  0
VISUALSTYLE
  5
6D
102
{ACAD_REACTORS
330
16
102
}
330
16
100
AcDbVisualStyle
  2
Shaded with edges
 70
26
 90
2
 40
0.6
 62
7
290
0
291
0
  0
VISUALSTYLE
  5
6E
102
{ACAD_REACTORS
330
16
102
}
330
16
100
AcDbVisualStyle
  2
Shades of Gray
 70
23
 90
2
 40
0.6
 62
7
290
0
291
0
  0
VISUALSTYLE
  5
6F
102
{ACAD_REACTORS
330
16
102
}
330
16
100
AcDbVisualStyle
  2
Sketchy
 70
24
 90
1
 40
0.6
 62
7
290
0
291
0
  0
VISUALSTYLE
  5
70
102
{ACAD_REACTORS
330
16
102
}
330
16
100
AcDbVisualStyle
  2
Thicken
 70
13
 90
2
 40
0.6
 62
7
290
0
291
1
  0
VISUALSTYLE
  5
71
102
{ACAD_REACTORS
330
16
102
}
330
16
100
AcDbVisualStyle
  2
Wireframe
 70
5
 90
0
 40
0.6
 62
7
290
0
291
0
  0
VISUALSTYLE
  5
72
102
{ACAD_REACTORS
330
16
102
}
330
16
100
AcDbVisualStyle
  2
X-Ray
 70
25
 90
2
 40
0.5
 62
7
290
0
291
0
  0
DICTIONARYVAR
  5
3C7
330
2D
100
DictionaryVariables
280
0
  1
1.4.4 @ 2026-09-29T13:57:45.034416+00:00
  0
ENDSEC
  0
EOF
